<!-- 
    material-icon.svg

    has svg files for icons. Sorted by pages where icon is used
 -->

<svg xmlns="http://www.w3.org/2000/svg">

<!-- General -->
        <!-- check circle -->
        <symbol id="icon-check-circle-fill" viewBox="0 -960 960 960">
            <path d="m424-296 282-282-56-56-226 226-114-114-56 56 170 170Zm56 216q-83 0-156-31.5T197-197q-54-54-85.5-127T80-480q0-83 31.5-156T197-763q54-54 127-85.5T480-880q83 0 156 31.5T763-763q54 54 85.5 127T880-480q0 83-31.5 156T763-197q-54 54-127 85.5T480-80Z"/>
        </symbol>


        <!-- error -->
        <symbol id="icon-error-fill" viewBox="0 -960 960 960">
            <path d="M480-280q17 0 28.5-11.5T520-320q0-17-11.5-28.5T480-360q-17 0-28.5 11.5T440-320q0 17 11.5 28.5T480-280Zm-40-160h80v-240h-80v240Zm40 360q-83 0-156-31.5T197-197q-54-54-85.5-127T80-480q0-83 31.5-156T197-763q54-54 127-85.5T480-880q83 0 156 31.5T763-763q54 54 85.5 127T880-480q0 83-31.5 156T763-197q-54 54-127 85.5T480-80Z"/>
        </symbol>

        <!-- warning -->
        <symbol id="icon-warning-fill" viewBox="0 -960 960 960">
            <path d="m40-120 440-760 440 760H40Zm440-120q17 0 28.5-11.5T520-280q0-17-11.5-28.5T480-320q-17 0-28.5 11.5T440-280q0 17 11.5 28.5T480-240Zm-40-120h80v-200h-80v200Z"/>
        </symbol>
        <!-- refresh -->
        <symbol id="icon-refresh" viewBox="0 -960 960 960">
            <path d="M480-160q-134 0-227-93t-93-227q0-134 93-227t227-93q69 0 132 28.5T720-690v-110h80v280H520v-80h168q-32-56-87.5-88T480-720q-100 0-170 70t-70 170q0 100 70 170t170 70q77 0 139-44t87-116h84q-28 106-114 173t-196 67Z"/>
        </symbol>

        <!-- left arrow -->
        <symbol id="icon-arrow-back-ios" viewBox="0 -960 960 960">
            <path d="M400-80 0-480l400-400 71 71-329 329 329 329-71 71Z"/>
        </symbol>
        
        <!-- right arrow -->
        <symbol id="icon-arrow-forward-ios" viewBox="0 -960 960 960">
            <path d="m321-80-71-71 329-329-329-329 71-71 400 400L321-80Z"/>
        </symbol>

        <!-- file copy -->
        <symbol id="icon-file-copy-fill" viewBox="0 -960 960 960">
            <path d="M160-40q-33 0-56.5-23.5T80-120v-560h80v560h440v80H160Zm160-160q-33 0-56.5-23.5T240-280v-560q0-33 23.5-56.5T320-920h280l240 240v400q0 33-23.5 56.5T760-200H320Zm240-440h200L560-840v200Z"/>
        </symbol>
        
        <!-- drowdown circle -->
        <symbol id="icon-expand-circle-down" viewBox="0 -960 960 960">
            <path d="m480-340 180-180-57-56-123 123-123-123-57 56 180 180Zm0 260q-83 0-156-31.5T197-197q-54-54-85.5-127T80-480q0-83 31.5-156T197-763q54-54 127-85.5T480-880q83 0 156 31.5T763-763q54 54 85.5 127T880-480q0 83-31.5 156T763-197q-54 54-127 85.5T480-80Zm0-80q134 0 227-93t93-227q0-134-93-227t-227-93q-134 0-227 93t-93 227q0 134 93 227t227 93Zm0-320Z"/>
        </symbol>
        <symbol id="icon-expand-circle-down-fill" viewBox="0 -960 960 960">
            <path d="m480-340 180-180-57-56-123 123-123-123-57 56 180 180Zm0 260q-83 0-156-31.5T197-197q-54-54-85.5-127T80-480q0-83 31.5-156T197-763q54-54 127-85.5T480-880q83 0 156 31.5T763-763q54 54 85.5 127T880-480q0 83-31.5 156T763-197q-54 54-127 85.5T480-80Z"/>
        </symbol>

        <!-- dropup circle -->
        <symbol id="icon-expand-circle-up" viewBox="0 -960 960 960">
            <path d="m357-384 123-123 123 123 57-56-180-180-180 180 57 56ZM480-80q-83 0-156-31.5T197-197q-54-54-85.5-127T80-480q0-83 31.5-156T197-763q54-54 127-85.5T480-880q83 0 156 31.5T763-763q54 54 85.5 127T880-480q0 83-31.5 156T763-197q-54 54-127 85.5T480-80Zm0-80q134 0 227-93t93-227q0-134-93-227t-227-93q-134 0-227 93t-93 227q0 134 93 227t227 93Zm0-320Z"/>
        </symbol>
        <symbol id="icon-expand-circle-up-fill" viewBox="0 -960 960 960">
            <path d="m480-507 123 123 57-56-180-180-180 180 57 56 123-123Zm0 427q-83 0-156-31.5T197-197q-54-54-85.5-127T80-480q0-83 31.5-156T197-763q54-54 127-85.5T480-880q83 0 156 31.5T763-763q54 54 85.5 127T880-480q0 83-31.5 156T763-197q-54 54-127 85.5T480-80Z"/>
        </symbol>
        
        <!-- trashcan -->
        <symbol id="icon-delete" viewBox="0 -960 960 960">
            <path d="M280-120q-33 0-56.5-23.5T200-200v-520h-40v-80h200v-40h240v40h200v80h-40v520q0 33-23.5 56.5T680-120H280Zm400-600H280v520h400v-520ZM360-280h80v-360h-80v360Zm160 0h80v-360h-80v360ZM280-720v520-520Z"/>
        </symbol>
        <symbol id="icon-delete-fill" viewBox="0 -960 960 960">
            <path d="M280-120q-33 0-56.5-23.5T200-200v-520h-40v-80h200v-40h240v40h200v80h-40v520q0 33-23.5 56.5T680-120H280Zm80-160h80v-360h-80v360Zm160 0h80v-360h-80v360Z"/>
        </symbol>

        <!-- checkbox -->
        <symbol id="icon-indeterminate-check-box" viewBox="0 -960 960 960">
                <path d="M280-440h400v-80H280v80Zm-80 320q-33 0-56.5-23.5T120-200v-560q0-33 23.5-56.5T200-840h560q33 0 56.5 23.5T840-760v560q0 33-23.5 56.5T760-120H200Zm0-80h560v-560H200v560Zm0-560v560-560Z"/>
        </symbol>
        
        
        <symbol id="icon-check-box-outline-blank" viewBox="0 -960 960 960">
            <path d="M200-120q-33 0-56.5-23.5T120-200v-560q0-33 23.5-56.5T200-840h560q33 0 56.5 23.5T840-760v560q0 33-23.5 56.5T760-120H200Zm0-80h560v-560H200v560Z"/>
        </symbol>
        <symbol id="icon-check-box-fill" viewBox="0 -960 960 960">
            <path d="m424-312 282-282-56-56-226 226-114-114-56 56 170 170ZM200-120q-33 0-56.5-23.5T120-200v-560q0-33 23.5-56.5T200-840h560q33 0 56.5 23.5T840-760v560q0 33-23.5 56.5T760-120H200Z"/>
        </symbol>

<!-- Nav -->
        <!-- docs -->
        <symbol id="icon-menu-book" viewBox="0 -960 960 960">
                <path d="M560-564v-68q33-14 67.5-21t72.5-7q26 0 51 4t49 10v64q-24-9-48.5-13.5T700-600q-38 0-73 9.5T560-564Zm0 220v-68q33-14 67.5-21t72.5-7q26 0 51 4t49 10v64q-24-9-48.5-13.5T700-380q-38 0-73 9t-67 27Zm0-110v-68q33-14 67.5-21t72.5-7q26 0 51 4t49 10v64q-24-9-48.5-13.5T700-490q-38 0-73 9.5T560-454ZM260-320q47 0 91.5 10.5T440-278v-394q-41-24-87-36t-93-12q-36 0-71.5 7T120-692v396q35-12 69.5-18t70.5-6Zm260 42q44-21 88.5-31.5T700-320q36 0 70.5 6t69.5 18v-396q-33-14-68.5-21t-71.5-7q-47 0-93 12t-87 36v394Zm-40 118q-48-38-104-59t-116-21q-42 0-82.5 11T100-198q-21 11-40.5-1T40-234v-482q0-11 5.5-21T62-752q46-24 96-36t102-12q58 0 113.5 15T480-740q51-30 106.5-45T700-800q52 0 102 12t96 36q11 5 16.5 15t5.5 21v482q0 23-19.5 35t-40.5 1q-37-20-77.5-31T700-240q-60 0-116 21t-104 59ZM280-494Z"/>
        </symbol>

        <!-- profile -->
            <symbol id="icon-account-circle-fill" viewBox="0 -960 960 960">
                <path d="M234-276q51-39 114-61.5T480-360q69 0 132 22.5T726-276q35-41 54.5-93T800-480q0-133-93.5-226.5T480-800q-133 0-226.5 93.5T160-480q0 59 19.5 111t54.5 93Zm246-164q-59 0-99.5-40.5T340-580q0-59 40.5-99.5T480-720q59 0 99.5 40.5T620-580q0 59-40.5 99.5T480-440Zm0 360q-83 0-156-31.5T197-197q-54-54-85.5-127T80-480q0-83 31.5-156T197-763q54-54 127-85.5T480-880q83 0 156 31.5T763-763q54 54 85.5 127T880-480q0 83-31.5 156T763-197q-54 54-127 85.5T480-80Z"/>
            </symbol>

            <!-- billing -->
            <symbol id="icon-credit-card" viewBox="0 -960 960 960">
                <path d="M880-720v480q0 33-23.5 56.5T800-160H160q-33 0-56.5-23.5T80-240v-480q0-33 23.5-56.5T160-800h640q33 0 56.5 23.5T880-720Zm-720 80h640v-80H160v80Zm0 160v240h640v-240H160Zm0 240v-480 480Z"/>
            </symbol>

                <!-- delete x -->
                <symbol id="icon-cancel-fill" viewBox="0 -960 960 960">
                    <path d="m336-280 144-144 144 144 56-56-144-144 144-144-56-56-144 144-144-144-56 56 144 144-144 144 56 56ZM480-80q-83 0-156-31.5T197-197q-54-54-85.5-127T80-480q0-83 31.5-156T197-763q54-54 127-85.5T480-880q83 0 156 31.5T763-763q54 54 85.5 127T880-480q0 83-31.5 156T763-197q-54 54-127 85.5T480-80Z"/>
                </symbol>

            <!-- logout -->
            <symbol id="icon-logout" viewBox="0 -960 960 960">
                <path d="M200-120q-33 0-56.5-23.5T120-200v-560q0-33 23.5-56.5T200-840h280v80H200v560h280v80H200Zm440-160-55-58 102-102H360v-80h327L585-622l55-58 200 200-200 200Z"/>
            </symbol>

<!-- Homepage -->
        <!-- tools -->
            <symbol id="icon-construction" viewBox="0 -960 960 960">
                <path d="M756-120 537-339l84-84 219 219-84 84Zm-552 0-84-84 276-276-68-68-28 28-51-51v82l-28 28-121-121 28-28h82l-50-50 142-142q20-20 43-29t47-9q24 0 47 9t43 29l-92 92 50 50-28 28 68 68 90-90q-4-11-6.5-23t-2.5-24q0-59 40.5-99.5T701-841q15 0 28.5 3t27.5 9l-99 99 72 72 99-99q7 14 9.5 27.5T841-701q0 59-40.5 99.5T701-561q-12 0-24-2t-23-7L204-120Z"/>
            </symbol>        
        
        <!-- leaf -->
            <symbol id="icon-eco-fill" viewBox="0 -960 960 960">
                <path d="M450-80q-33 0-66.5-7.5T315-109q12-121 70-226t149-185q-110 56-190.5 148T231-162q-4-3-7.5-6.5L216-176q-47-47-71.5-105T120-402q0-68 27-130t75-110q81-81 210-105.5t362-4.5q18 239-6 364.5T684-182q-49 49-109.5 75.5T450-80Z"/>
            </symbol>

        <!-- shield lock -->
            <symbol id="icon-encrypted" viewBox="0 -960 960 960">
                <path d="M420-360h120l-23-129q20-10 31.5-29t11.5-42q0-33-23.5-56.5T480-640q-33 0-56.5 23.5T400-560q0 23 11.5 42t31.5 29l-23 129Zm60 280q-139-35-229.5-159.5T160-516v-244l320-120 320 120v244q0 152-90.5 276.5T480-80Zm0-84q104-33 172-132t68-220v-189l-240-90-240 90v189q0 121 68 220t172 132Zm0-316Z"/>
            </symbol>
            
        <!-- router -->
            <symbol id="icon-router" viewBox="0 -960 960 960">
                <path d="M200-120q-33 0-56.5-23.5T120-200v-160q0-33 23.5-56.5T200-440h400v-160h80v160h80q33 0 56.5 23.5T840-360v160q0 33-23.5 56.5T760-120H200Zm0-80h560v-160H200v160Zm80-40q17 0 28.5-11.5T320-280q0-17-11.5-28.5T280-320q-17 0-28.5 11.5T240-280q0 17 11.5 28.5T280-240Zm140 0q17 0 28.5-11.5T460-280q0-17-11.5-28.5T420-320q-17 0-28.5 11.5T380-280q0 17 11.5 28.5T420-240Zm140 0q17 0 28.5-11.5T600-280q0-17-11.5-28.5T560-320q-17 0-28.5 11.5T520-280q0 17 11.5 28.5T560-240Zm10-390-58-58q26-24 58-38t70-14q38 0 70 14t58 38l-58 58q-14-14-31.5-22t-38.5-8q-21 0-38.5 8T570-630ZM470-730l-56-56q44-44 102-69t124-25q66 0 124 25t102 69l-56 56q-33-33-76.5-51.5T640-800q-50 0-93.5 18.5T470-730ZM200-200v-160 160Z"/>
            </symbol>

        <!-- integration -->
            <symbol id="icon-webhook" viewBox="0 -960 960 960">
                <path d="M280-120q-83 0-141.5-58.5T80-320q0-73 45.5-127.5T240-516v83q-35 12-57.5 43T160-320q0 50 35 85t85 35q50 0 85-35t35-85v-40h235q8-9 19.5-14.5T680-380q25 0 42.5 17.5T740-320q0 25-17.5 42.5T680-260q-14 0-25.5-5.5T635-280H476q-14 69-68.5 114.5T280-120Zm400 0q-56 0-101.5-27.5T507-220h107q14 10 31 15t35 5q50 0 85-35t35-85q0-50-35-85t-85-35q-20 0-37 5.5T611-418L489-621q-21-4-35-20t-14-39q0-25 17.5-42.5T500-740q25 0 42.5 17.5T560-680v8.5q0 3.5-2 8.5l87 146q8-2 17-2.5t18-.5q83 0 141.5 58.5T880-320q0 83-58.5 141.5T680-120ZM280-260q-25 0-42.5-17.5T220-320q0-22 14-38t34-21l94-156q-29-27-45.5-64.5T300-680q0-83 58.5-141.5T500-880q83 0 141.5 58.5T700-680h-80q0-50-35-85t-85-35q-50 0-85 35t-35 85q0 43 26 75.5t66 41.5L337-338q2 5 2.5 9t.5 9q0 25-17.5 42.5T280-260Z"/>
            </symbol>        

        <!-- cloud -->
            <symbol id="icon-cloud-upload" viewBox="0 -960 960 960">
                <path d="M260-160q-91 0-155.5-63T40-377q0-78 47-139t123-78q25-92 100-149t170-57q117 0 198.5 81.5T760-520q69 8 114.5 59.5T920-340q0 75-52.5 127.5T740-160H520q-33 0-56.5-23.5T440-240v-206l-64 62-56-56 160-160 160 160-56 56-64-62v206h220q42 0 71-29t29-71q0-42-29-71t-71-29h-60v-80q0-83-58.5-141.5T480-720q-83 0-141.5 58.5T280-520h-20q-58 0-99 41t-41 99q0 58 41 99t99 41h100v80H260Zm220-280Z"/>
            </symbol>

        <!-- email arrow -->
            <symbol id="icon-outgoing-mail" viewBox="0 -960 960 960">
                <path d="m720-160-56-56 63-64H560v-80h167l-63-64 56-56 160 160-160 160ZM160-280q-33 0-56.5-23.5T80-360v-400q0-33 23.5-56.5T160-840h520q33 0 56.5 23.5T760-760v204q-10-2-20-3t-20-1q-10 0-20 .5t-20 2.5v-147L416-520 160-703v343h323q-2 10-2.5 20t-.5 20q0 10 1 20t3 20H160Zm58-480 198 142 204-142H218Zm-58 400v-400 400Z"/>
            </symbol>

        <!-- globe -->
            <symbol id="icon-public" viewBox="0 -960 960 960">
                <path d="M480-80q-83 0-156-31.5T197-197q-54-54-85.5-127T80-480q0-83 31.5-156T197-763q54-54 127-85.5T480-880q83 0 156 31.5T763-763q54 54 85.5 127T880-480q0 83-31.5 156T763-197q-54 54-127 85.5T480-80Zm-40-82v-78q-33 0-56.5-23.5T360-320v-40L168-552q-3 18-5.5 36t-2.5 36q0 121 79.5 212T440-162Zm276-102q20-22 36-47.5t26.5-53q10.5-27.5 16-56.5t5.5-59q0-98-54.5-179T600-776v16q0 33-23.5 56.5T520-680h-80v80q0 17-11.5 28.5T400-560h-80v80h240q17 0 28.5 11.5T600-440v120h40q26 0 47 15.5t29 40.5Z"/>
            </symbol>
            

<!-- Login page -->
        <!-- visibility -->
        <symbol id="icon-visibility-fill" viewBox="0 -960 960 960">
            <path d="M480-320q75 0 127.5-52.5T660-500q0-75-52.5-127.5T480-680q-75 0-127.5 52.5T300-500q0 75 52.5 127.5T480-320Zm0-72q-45 0-76.5-31.5T372-500q0-45 31.5-76.5T480-608q45 0 76.5 31.5T588-500q0 45-31.5 76.5T480-392Zm0 192q-146 0-266-81.5T40-500q54-137 174-218.5T480-800q146 0 266 81.5T920-500q-54 137-174 218.5T480-200Z"/>
        </symbol>

        <!-- visibility off -->
        <symbol id="icon-visibility-off-fill" viewBox="0 -960 960 960">
            <path d="M792-56 624-222q-35 11-70.5 16.5T480-200q-151 0-269-83.5T40-500q21-53 53-98.5t73-81.5L56-792l56-56 736 736-56 56ZM480-320q11 0 20.5-1t20.5-4L305-541q-3 11-4 20.5t-1 20.5q0 75 52.5 127.5T480-320Zm292 18L645-428q7-17 11-34.5t4-37.5q0-75-52.5-127.5T480-680q-20 0-37.5 4T408-664L306-766q41-17 84-25.5t90-8.5q151 0 269 83.5T920-500q-23 59-60.5 109.5T772-302ZM587-486 467-606q28-5 51.5 4.5T559-574q17 18 24.5 41.5T587-486Z"/>
        </symbol>
    
<!-- Getting Started -->
        <!-- home -->
        <symbol id="icon-home" viewBox="0 -960 960 960">
            <path d="M240-200h120v-240h240v240h120v-360L480-740 240-560v360Zm-80 80v-480l320-240 320 240v480H520v-240h-80v240H160Zm320-350Z"/>
        </symbol>
        <symbol id="icon-home-fill" viewBox="0 -960 960 960">
            <path d="M160-120v-480l320-240 320 240v480H560v-280H400v280H160Z"/>
        </symbol>

<!-- Service Settings -->
        <!-- settings -->
        <symbol id="icon-settings" viewBox="0 -960 960 960">
                <path d="m370-80-16-128q-13-5-24.5-12T307-235l-119 50L78-375l103-78q-1-7-1-13.5v-27q0-6.5 1-13.5L78-585l110-190 119 50q11-8 23-15t24-12l16-128h220l16 128q13 5 24.5 12t22.5 15l119-50 110 190-103 78q1 7 1 13.5v27q0 6.5-2 13.5l103 78-110 190-118-50q-11 8-23 15t-24 12L590-80H370Zm70-80h79l14-106q31-8 57.5-23.5T639-327l99 41 39-68-86-65q5-14 7-29.5t2-31.5q0-16-2-31.5t-7-29.5l86-65-39-68-99 42q-22-23-48.5-38.5T533-694l-13-106h-79l-14 106q-31 8-57.5 23.5T321-633l-99-41-39 68 86 64q-5 15-7 30t-2 32q0 16 2 31t7 30l-86 65 39 68 99-42q22 23 48.5 38.5T427-266l13 106Zm42-180q58 0 99-41t41-99q0-58-41-99t-99-41q-59 0-99.5 41T342-480q0 58 40.5 99t99.5 41Zm-2-140Z"/>
        </symbol>
        <symbol id="icon-settings-fill" viewBox="0 -960 960 960">
                <path d="m370-80-16-128q-13-5-24.5-12T307-235l-119 50L78-375l103-78q-1-7-1-13.5v-27q0-6.5 1-13.5L78-585l110-190 119 50q11-8 23-15t24-12l16-128h220l16 128q13 5 24.5 12t22.5 15l119-50 110 190-103 78q1 7 1 13.5v27q0 6.5-2 13.5l103 78-110 190-118-50q-11 8-23 15t-24 12L590-80H370Zm112-260q58 0 99-41t41-99q0-58-41-99t-99-41q-59 0-99.5 41T342-480q0 58 40.5 99t99.5 41Z"/>
        </symbol>
    
<!-- Users -->
        <!-- people -->
        <symbol id="icon-supervisor-account" viewBox="0 -960 960 960">
                <path d="M680-360q-42 0-71-29t-29-71q0-42 29-71t71-29q42 0 71 29t29 71q0 42-29 71t-71 29ZM480-160v-56q0-24 12.5-44.5T528-290q36-15 74.5-22.5T680-320q39 0 77.5 7.5T832-290q23 9 35.5 29.5T880-216v56H480Zm-80-320q-66 0-113-47t-47-113q0-66 47-113t113-47q66 0 113 47t47 113q0 66-47 113t-113 47Zm0-160ZM80-160v-112q0-34 17-62.5t47-43.5q60-30 124.5-46T400-440q35 0 70 6t70 14l-34 34-34 34q-18-5-36-6.5t-36-1.5q-58 0-113.5 14T180-306q-10 5-15 14t-5 20v32h240v80H80Zm320-80Zm0-320q33 0 56.5-23.5T480-640q0-33-23.5-56.5T400-720q-33 0-56.5 23.5T320-640q0 33 23.5 56.5T400-560Z"/>
        </symbol>
        <symbol id="icon-supervisor-account-fill" viewBox="0 -960 960 960">
                <path d="M80-160v-112q0-34 17-62.5t47-43.5q60-30 124.5-46T400-440q25 0 50 3.5t50 8.5v63q-45 22-72.5 58T400-213v53H80Zm400 0v-56q0-24 12.5-44.5T528-290q36-15 74.5-22.5T680-320q39 0 77.5 7.5T832-290q23 9 35.5 29.5T880-216v56H480Zm200-200q-42 0-71-29t-29-71q0-42 29-71t71-29q42 0 71 29t29 71q0 42-29 71t-71 29ZM400-480q-66 0-113-47t-47-113q0-66 47-113t113-47q66 0 113 47t47 113q0 66-47 113t-113 47Z"/>
        </symbol>       
        
        <!-- arrow drop down -->
        <symbol id="icon-arrow-drop-down" viewBox="0 -960 960 960">
                <path d="M480-360 280-560h400L480-360Z"/>
        </symbol>
        <!-- arrow drop up -->
        <symbol id="icon-arrow-drop-up" viewBox="0 -960 960 960">
                <path d="m280-400 200-200 200 200H280Z"/>
        </symbol>

        <!-- calendar -->
        <symbol id="icon-calendar-today-fill" viewBox="0 -960 960 960">
                <path d="M200-80q-33 0-56.5-23.5T120-160v-560q0-33 23.5-56.5T200-800h40v-80h80v80h320v-80h80v80h40q33 0 56.5 23.5T840-720v560q0 33-23.5 56.5T760-80H200Zm0-80h560v-400H200v400Z"/>
        </symbol>

        <!-- checklist -->
        <symbol id="icon-checklist-rtl" viewBox="0 -960 960 960">
                <path d="M655-200 513-342l56-56 85 85 170-170 56 57-225 226Zm0-320L513-662l56-56 85 85 170-170 56 57-225 226ZM80-280v-80h360v80H80Zm0-320v-80h360v80H80Z"/>
        </symbol>           
        
        <!-- create user -->
        <symbol id="icon-person-add-fill" viewBox="0 -960 960 960">
                <path d="M720-400v-120H600v-80h120v-120h80v120h120v80H800v120h-80Zm-360-80q-66 0-113-47t-47-113q0-66 47-113t113-47q66 0 113 47t47 113q0 66-47 113t-113 47ZM40-160v-112q0-34 17.5-62.5T104-378q62-31 126-46.5T360-440q66 0 130 15.5T616-378q29 15 46.5 43.5T680-272v112H40Z"/>
        </symbol>

        <!-- email dot -->
        <symbol id="icon-mark-email-unread-fill" viewBox="0 -960 960 960">
                <path d="M760-640q-50 0-85-35t-35-85q0-50 35-85t85-35q50 0 85 35t35 85q0 50-35 85t-85 35ZM160-160q-33 0-56.5-23.5T80-240v-480q0-33 23.5-56.5T160-800h404q-4 20-4 40t4 40q7 32 23 59.5t39 48.5l-146 92-320-200v80l320 200 211-132q17 6 34 9t35 3q32 0 63-10t57-30v360q0 33-23.5 56.5T800-160H160Z"/>
        </symbol>

        <!-- user setting -->
        <symbol id="icon-manage-accounts-fill" viewBox="0 -960 960 960">
                <path d="m640-120-12-60q-12-5-22.5-10.5T584-204l-58 18-40-68 46-40q-2-14-2-26t2-26l-46-40 40-68 58 18q11-8 21.5-13.5T628-460l12-60h80l12 60q12 5 22.5 11t21.5 15l58-20 40 70-46 40q2 12 2 25t-2 25l46 40-40 68-58-18q-11 8-21.5 13.5T732-180l-12 60h-80ZM80-160v-112q0-33 17-62t47-44q51-26 115-44t141-18h14q6 0 12 2-29 72-24 143t48 135H80Zm600-80q33 0 56.5-23.5T760-320q0-33-23.5-56.5T680-400q-33 0-56.5 23.5T600-320q0 33 23.5 56.5T680-240ZM400-480q-66 0-113-47t-47-113q0-66 47-113t113-47q66 0 113 47t47 113q0 66-47 113t-113 47Z"/>
        </symbol>

        <!-- blocked user -->
        <symbol id="icon-no-accounts-fill" viewBox="0 -960 960 960">
                <path d="M608-522 422-708q14-6 28.5-9t29.5-3q59 0 99.5 40.5T620-580q0 15-3 29.5t-9 28.5ZM234-276q51-39 114-61.5T480-360q18 0 34.5 1.5T549-354l-88-88q-47-6-80.5-39.5T341-562L227-676q-32 41-49.5 90.5T160-480q0 59 19.5 111t54.5 93Zm498-8q32-41 50-90.5T800-480q0-133-93.5-226.5T480-800q-56 0-105.5 18T284-732l448 448ZM480-80q-82 0-155-31.5t-127.5-86Q143-252 111.5-325T80-480q0-83 31.5-155.5t86-127Q252-817 325-848.5T480-880q83 0 155.5 31.5t127 86q54.5 54.5 86 127T880-480q0 82-31.5 155t-86 127.5q-54.5 54.5-127 86T480-80Z"/>
        </symbol>

<!-- Client Secret Key -->
        <!-- key -->
        <symbol id="icon-key" viewBox="0 -960 960 960">
                <path d="M280-400q-33 0-56.5-23.5T200-480q0-33 23.5-56.5T280-560q33 0 56.5 23.5T360-480q0 33-23.5 56.5T280-400Zm0 160q-100 0-170-70T40-480q0-100 70-170t170-70q67 0 121.5 33t86.5 87h352l120 120-180 180-80-60-80 60-85-60h-47q-32 54-86.5 87T280-240Zm0-80q56 0 98.5-34t56.5-86h125l58 41 82-61 71 55 75-75-40-40H435q-14-52-56.5-86T280-640q-66 0-113 47t-47 113q0 66 47 113t113 47Z"/>
        </symbol>
        <symbol id="icon-key-fill" viewBox="0 -960 960 960">
                <path d="M280-360q50 0 85-35t35-85q0-50-35-85t-85-35q-50 0-85 35t-35 85q0 50 35 85t85 35Zm0 120q-100 0-170-70T40-480q0-100 70-170t170-70q81 0 141.5 46T506-560h335l79 79-140 160-100-79-80 80-80-80h-14q-25 72-87 116t-139 44Z"/>
        </symbol>

        <!-- plus -->
        <symbol id="icon-add-circle-fill" viewBox="0 -960 960 960">
                <path d="M440-280h80v-160h160v-80H520v-160h-80v160H280v80h160v160Zm40 200q-83 0-156-31.5T197-197q-54-54-85.5-127T80-480q0-83 31.5-156T197-763q54-54 127-85.5T480-880q83 0 156 31.5T763-763q54 54 85.5 127T880-480q0 83-31.5 156T763-197q-54 54-127 85.5T480-80Z"/>
        </symbol>

        <!-- lock -->
        <symbol id="icon-lock" viewBox="0 -960 960 960">
                <path d="M240-80q-33 0-56.5-23.5T160-160v-400q0-33 23.5-56.5T240-640h40v-80q0-83 58.5-141.5T480-920q83 0 141.5 58.5T680-720v80h40q33 0 56.5 23.5T800-560v400q0 33-23.5 56.5T720-80H240Zm0-80h480v-400H240v400Zm240-120q33 0 56.5-23.5T560-360q0-33-23.5-56.5T480-440q-33 0-56.5 23.5T400-360q0 33 23.5 56.5T480-280ZM360-640h240v-80q0-50-35-85t-85-35q-50 0-85 35t-35 85v80ZM240-160v-400 400Z"/>
        </symbol>

        <!-- check -->
        <symbol id="icon-check" viewBox="0 -960 960 960">
                <path d="M382-240 154-468l57-57 171 171 367-367 57 57-424 424Z"/>
        </symbol>

        <!-- cross -->
        <symbol id="icon-close" viewBox="0 -960 960 960">
                <path d="m256-200-56-56 224-224-224-224 56-56 224 224 224-224 56 56-224 224 224 224-56 56-224-224-224 224Z"/>
        </symbol>

        <!-- edit -->
        <symbol id="icon-edit-fill" viewBox="0 -960 960 960">
                <path d="M120-120v-170l528-527q12-11 26.5-17t30.5-6q16 0 31 6t26 18l55 56q12 11 17.5 26t5.5 30q0 16-5.5 30.5T817-647L290-120H120Zm584-528 56-56-56-56-56 56 56 56Z"/>
        </symbol>

<!-- Database -->
        <!-- database -->
        <symbol id="icon-database" viewBox="0 -960 960 960">
                <path d="M480-120q-151 0-255.5-46.5T120-280v-400q0-66 105.5-113T480-840q149 0 254.5 47T840-680v400q0 67-104.5 113.5T480-120Zm0-479q89 0 179-25.5T760-679q-11-29-100.5-55T480-760q-91 0-178.5 25.5T200-679q14 30 101.5 55T480-599Zm0 199q42 0 81-4t74.5-11.5q35.5-7.5 67-18.5t57.5-25v-120q-26 14-57.5 25t-67 18.5Q600-528 561-524t-81 4q-42 0-82-4t-75.5-11.5Q287-543 256-554t-56-25v120q25 14 56 25t66.5 18.5Q358-408 398-404t82 4Zm0 200q46 0 93.5-7t87.5-18.5q40-11.5 67-26t32-29.5v-98q-26 14-57.5 25t-67 18.5Q600-328 561-324t-81 4q-42 0-82-4t-75.5-11.5Q287-343 256-354t-56-25v99q5 15 31.5 29t66.5 25.5q40 11.5 88 18.5t94 7Z"/>
        </symbol>
        <symbol id="icon-database-fill" viewBox="0 -960 960 960">
                <path d="M480-520q150 0 255-47t105-113q0-66-105-113t-255-47q-150 0-255 47T120-680q0 66 105 113t255 47Zm0 100q41 0 102.5-8.5T701-456q57-19 98-49.5t41-74.5v100q0 44-41 74.5T701-356q-57 19-118.5 27.5T480-320q-41 0-102.5-8.5T259-356q-57-19-98-49.5T120-480v-100q0 44 41 74.5t98 49.5q57 19 118.5 27.5T480-420Zm0 200q41 0 102.5-8.5T701-256q57-19 98-49.5t41-74.5v100q0 44-41 74.5T701-156q-57 19-118.5 27.5T480-120q-41 0-102.5-8.5T259-156q-57-19-98-49.5T120-280v-100q0 44 41 74.5t98 49.5q57 19 118.5 27.5T480-220Z"/>
        </symbol>

        <!-- do not disturb on -->
        <symbol id="icon-do-not-disturb-on-fill" viewBox="0 -960 960 960">
                <path d="M280-440h400v-80H280v80ZM480-80q-83 0-156-31.5T197-197q-54-54-85.5-127T80-480q0-83 31.5-156T197-763q54-54 127-85.5T480-880q83 0 156 31.5T763-763q54 54 85.5 127T880-480q0 83-31.5 156T763-197q-54 54-127 85.5T480-80Z"/>
        </symbol>
        <!-- arrow back -->
        <symbol id="icon-arrow-back" viewBox="0 -960 960 960">
                <path d="m313-440 224 224-57 56-320-320 320-320 57 56-224 224h487v80H313Z"/>
        </symbol>
        <!-- person -->
        <symbol id="icon-person-fill" viewBox="0 -960 960 960">
                <path d="M480-480q-66 0-113-47t-47-113q0-66 47-113t113-47q66 0 113 47t47 113q0 66-47 113t-113 47ZM160-160v-112q0-34 17.5-62.5T224-378q62-31 126-46.5T480-440q66 0 130 15.5T736-378q29 15 46.5 43.5T800-272v112H160Z"/>
        </symbol>           

        <!-- key -->
        <symbol id="icon-vpn-key-fill" viewBox="0 -960 960 960">
                <path d="M280-240q-100 0-170-70T40-480q0-100 70-170t170-70q81 0 141.5 45.5T506-560h414v160h-80v160H680v-160H506q-24 69-84.5 114.5T280-240Zm0-160q33 0 56.5-23.5T360-480q0-33-23.5-56.5T280-560q-33 0-56.5 23.5T200-480q0 33 23.5 56.5T280-400Z"/>
        </symbol>           
        
        <!-- sliders -->
        <symbol id="icon-tune" viewBox="0 -960 960 960">
                <path d="M440-120v-240h80v80h320v80H520v80h-80Zm-320-80v-80h240v80H120Zm160-160v-80H120v-80h160v-80h80v240h-80Zm160-80v-80h400v80H440Zm160-160v-240h80v80h160v80H680v80h-80Zm-480-80v-80h400v80H120Z"/>
        </symbol>           
        

<!-- Automated Email -->
        <!-- email -->
        <symbol id="icon-mail" viewBox="0 -960 960 960">
                <path d="M160-160q-33 0-56.5-23.5T80-240v-480q0-33 23.5-56.5T160-800h640q33 0 56.5 23.5T880-720v480q0 33-23.5 56.5T800-160H160Zm320-280L160-640v400h640v-400L480-440Zm0-80 320-200H160l320 200ZM160-640v-80 480-400Z"/>
        </symbol>
        <symbol id="icon-mail-fill" viewBox="0 -960 960 960">
                <path d="M160-160q-33 0-56.5-23.5T80-240v-480q0-33 23.5-56.5T160-800h640q33 0 56.5 23.5T880-720v480q0 33-23.5 56.5T800-160H160Zm320-280 320-200v-80L480-520 160-720v80l320 200Z"/>
        </symbol>
        
        <!-- verified -->
        <symbol id="icon-verified" viewBox="0 -960 960 960">
                <path d="m344-60-76-128-144-32 14-148-98-112 98-112-14-148 144-32 76-128 136 58 136-58 76 128 144 32-14 148 98 112-98 112 14 148-144 32-76 128-136-58-136 58Zm34-102 102-44 104 44 56-96 110-26-10-112 74-84-74-86 10-112-110-24-58-96-102 44-104-44-56 96-110 24 10 112-74 86 74 84-10 114 110 24 58 96Zm102-318Zm-42 142 226-226-56-58-170 170-86-84-56 56 142 142Z"/>
        </symbol>
        <symbol id="icon-verified-fill" viewBox="0 -960 960 960">
                <path d="m344-60-76-128-144-32 14-148-98-112 98-112-14-148 144-32 76-128 136 58 136-58 76 128 144 32-14 148 98 112-98 112 14 148-144 32-76 128-136-58-136 58Zm94-278 226-226-56-58-170 170-86-84-56 56 142 142Z"/>
        </symbol>
        

<!-- Bulk Email -->
        <!-- 2 emails -->
        <symbol id="icon-stacked-email" viewBox="0 -960 960 960">
                <path d="M280-280q-33 0-56.5-23.5T200-360v-400q0-33 23.5-56.5T280-840h560q33 0 56.5 23.5T920-760v400q0 33-23.5 56.5T840-280H280Zm280-188L280-663v303h560v-303L560-468Zm0-98 280-194H280l280 194ZM120-120q-33 0-56.5-23.5T40-200v-500h80v500h660v80H120Zm720-546v-94H280v94-94h560v94Z"/>
        </symbol>
        <symbol id="icon-stacked-email-fill" viewBox="0 -960 960 960">
                <path d="M120-120q-33 0-56.5-23.5T40-200v-500h80v500h660v80H120Zm160-160q-33 0-56.5-23.5T200-360v-400q0-33 23.5-56.5T280-840h560q33 0 56.5 23.5T920-760v400q0 33-23.5 56.5T840-280H280Zm280-188 280-195v-97L560-566 280-760v97l280 195Z"/>
        </symbol>

<!-- File Hosting -->
        <!-- Web -->
        <symbol id="icon-language" viewBox="0 -960 960 960">
                <path d="M480-80q-82 0-155-31.5t-127.5-86Q143-252 111.5-325T80-480q0-83 31.5-155.5t86-127Q252-817 325-848.5T480-880q83 0 155.5 31.5t127 86q54.5 54.5 86 127T880-480q0 82-31.5 155t-86 127.5q-54.5 54.5-127 86T480-80Zm0-82q26-36 45-75t31-83H404q12 44 31 83t45 75Zm-104-16q-18-33-31.5-68.5T322-320H204q29 50 72.5 87t99.5 55Zm208 0q56-18 99.5-55t72.5-87H638q-9 38-22.5 73.5T584-178ZM170-400h136q-3-20-4.5-39.5T300-480q0-21 1.5-40.5T306-560H170q-5 20-7.5 39.5T160-480q0 21 2.5 40.5T170-400Zm216 0h188q3-20 4.5-39.5T580-480q0-21-1.5-40.5T574-560H386q-3 20-4.5 39.5T380-480q0 21 1.5 40.5T386-400Zm268 0h136q5-20 7.5-39.5T800-480q0-21-2.5-40.5T790-560H654q3 20 4.5 39.5T660-480q0 21-1.5 40.5T654-400Zm-16-240h118q-29-50-72.5-87T584-782q18 33 31.5 68.5T638-640Zm-234 0h152q-12-44-31-83t-45-75q-26 36-45 75t-31 83Zm-200 0h118q9-38 22.5-73.5T376-782q-56 18-99.5 55T204-640Z"/>
        </symbol>

        <!-- upload -->
        <symbol id="icon-upload" viewBox="0 -960 960 960">
                <path d="M440-320v-326L336-542l-56-58 200-200 200 200-56 58-104-104v326h-80ZM240-160q-33 0-56.5-23.5T160-240v-120h80v120h480v-120h80v120q0 33-23.5 56.5T720-160H240Z"/>
        </symbol>

        <!-- upload file -->
        <symbol id="icon-upload-file-fill" viewBox="0 -960 960 960">
                <path d="M440-200h80v-167l64 64 56-57-160-160-160 160 57 56 63-63v167ZM240-80q-33 0-56.5-23.5T160-160v-640q0-33 23.5-56.5T240-880h320l240 240v480q0 33-23.5 56.5T720-80H240Zm280-520h200L520-800v200Z"/>
        </symbol>

        <!-- upload folder -->
        <symbol id="icon-drive-folder-upload-fill" viewBox="0 -960 960 960">
                <path d="M160-160q-33 0-56.5-23.5T80-240v-480q0-33 23.5-56.5T160-800h240l80 80h320q33 0 56.5 23.5T880-640v400q0 33-23.5 56.5T800-160H160Zm280-120h80v-168l64 64 56-56-160-160-160 160 56 56 64-64v168Z"/>
        </symbol>

        <!-- open folder -->
        <symbol id="icon-folder-open-fill" viewBox="0 -960 960 960">
                <path d="M160-160q-33 0-56.5-23.5T80-240v-480q0-33 23.5-56.5T160-800h240l80 80h320q33 0 56.5 23.5T880-640H160v400l96-320h684L837-217q-8 26-29.5 41.5T760-160H160Z"/>
        </symbol>

        <!-- closed folder -->
        <symbol id="icon-folder-fill" viewBox="0 -960 960 960">
                <path d="M160-160q-33 0-56.5-23.5T80-240v-480q0-33 23.5-56.5T160-800h240l80 80h320q33 0 56.5 23.5T880-640v400q0 33-23.5 56.5T800-160H160Z"/>
        </symbol>

        <!-- left arrow -->
        <symbol id="icon-chevron-left" viewBox="0 -960 960 960">
                <path d="M560-240 320-480l240-240 56 56-184 184 184 184-56 56Z"/>
        </symbol>

        <!-- right arrow -->
        <symbol id="icon-chevron-right" viewBox="0 -960 960 960">
                <path d="M504-480 320-664l56-56 240 240-240 240-56-56 184-184Z"/>
        </symbol>
</svg>