<svg xmlns="http://www.w3.org/2000/svg">
    <symbol id="icon-face" viewBox="0 0 24 24">
        <path d="M12 2c5.52 0 10 4.48 10 10s-4.48 10-10 10S2 17.52 2 12 6.48 2 12 2zm0 3c-.96 0-1.74.78-1.74 1.74S11.04 8.48 12 8.48 13.74 7.7 13.74 6.74 12.96 5 12 5zm4.14 13c-.34.5-.99.82-1.74.82s-1.4-.32-1.74-.82c-.42-.65-.68-1.43-.74-2.3-.04-.66.51-1.2 1.18-1.2h.12c.65 0 1.2.53 1.18 1.18-.06.87-.32 1.65-.74 2.3zm-8.28 0c-.34.5-.99.82-1.74.82s-1.4-.32-1.74-.82c-.42-.65-.68-1.43-.74-2.3-.04-.66.51-1.2 1.18-1.2h.12c.65 0 1.2.53 1.18 1.18-.06.87-.32 1.65-.74 2.3z"/>
    </symbol>
    <symbol id="icon-home" viewBox="0 0 24 24">
        <path d="M10 20v-6h4v6h5v-8h3L12 3 2 12h3v8z"/>
    </symbol>
</svg>