<svg width="211" height="65" viewBox="0 0 211 65" fill="none" xmlns="http://www.w3.org/2000/svg">
<g clip-path="url(#clip0_6610_6909)">
<path d="M182.953 64.5104L118.668 64.2559C103.355 64.1953 90.9452 51.6828 91.0059 36.3659L91.0385 28.1355C91.1031 12.8226 103.608 0.408704 118.924 0.469344L183.21 0.72386C198.522 0.784484 210.933 13.297 210.872 28.6139L210.839 36.8443C210.779 52.1612 198.27 64.5751 182.957 64.5144L182.953 64.5104ZM118.884 10.7563C109.241 10.7182 101.369 18.5349 101.33 28.1762L101.298 36.4066C101.26 46.0519 109.074 53.9268 118.712 53.9649L182.998 54.2195C192.641 54.2576 200.513 46.4409 200.551 36.7996L200.584 28.5692C200.622 18.9239 192.808 11.049 183.169 11.0109L118.884 10.7563Z" fill="#4198FF"/>
<path d="M92.055 64.151L27.7732 63.8965C12.4609 63.8359 0.0506935 51.3274 0.111335 36.0105L0.143921 27.7801C0.204563 12.4632 12.7134 0.049329 28.0258 0.109953L92.3115 0.36447C107.624 0.425094 120.034 12.9376 119.973 28.2545L119.941 36.4849C119.88 51.8018 107.371 64.2157 92.0589 64.155L92.055 64.151ZM96.8386 11.2754C95.3818 10.875 93.8486 10.6577 92.2668 10.6515L27.9851 10.397C18.3426 10.3588 10.4701 18.1755 10.4319 27.8168L10.3993 36.0472C10.3611 45.6925 18.1755 53.5674 27.814 53.6055L92.0997 53.8601C101.742 53.8982 109.615 46.0815 109.653 36.4402L109.685 28.2098C109.717 20.1468 104.266 13.3216 96.8426 11.2754L96.8386 11.2754Z" fill="url(#paint0_linear_6610_6909)"/>
<path d="M103.563 19.7001C106.572 14.3472 112.316 10.731 118.879 10.7569L183.165 11.0115C189.727 11.0374 195.442 14.699 198.409 20.0756L209.57 20.1198C206.024 8.92575 195.561 0.77337 183.205 0.724451L118.92 0.469934C106.564 0.421015 96.0405 8.49031 92.3982 19.6559L103.559 19.7L103.563 19.7001Z" fill="#4198FF"/>
</g>
<defs>
<linearGradient id="paint0_linear_6610_6909" x1="-22.7389" y1="61.3735" x2="97.0922" y2="38.7268" gradientUnits="userSpaceOnUse">
<stop stop-color="#C2CFFF"/>
<stop offset="1" stop-color="#87A9FF"/>
</linearGradient>
<clipPath id="clip0_6610_6909">
<rect width="210.725" height="63.7871" fill="white" transform="translate(0.253906) rotate(0.226841)"/>
</clipPath>
</defs>
</svg>
