<svg width="298" height="200" viewBox="0 0 298 200" fill="none" xmlns="http://www.w3.org/2000/svg">
<path d="M148.748 199.867C109.346 199.867 72.2983 190.967 44.44 174.796C15.7827 158.178 0 135.805 0 111.826C0 87.8477 15.7827 65.475 44.44 48.8572C101.955 15.4877 195.541 15.4877 253.055 48.8572C281.713 65.4973 297.495 87.8477 297.495 111.826C297.495 135.805 281.713 158.178 253.055 174.796C225.197 190.967 188.149 199.867 148.748 199.867ZM148.748 29.2504C111.966 29.2504 75.184 37.3697 47.1704 53.6083C20.2666 69.2223 5.46066 89.8775 5.46066 111.804C5.46066 133.731 20.2666 154.408 47.1704 170.022C74.2073 185.703 110.279 194.358 148.748 194.358C187.216 194.358 223.266 185.725 250.303 170.022C277.206 154.408 292.012 133.753 292.012 111.826C292.012 89.8998 277.206 69.2223 250.303 53.6083C222.311 37.3697 185.507 29.2504 148.725 29.2504H148.748Z" fill="url(#paint0_linear_6610_6495)"/>
<path d="M203.771 6.34311C199.273 8.93946 195.009 12.601 191.222 16.9171C185.958 0.0408648 169.91 -5.19621 150.931 5.75505C135.228 14.809 121.535 32.6284 114.294 51.5129C111.895 51.5906 109.218 52.3784 106.387 54.0094C96.1361 59.9233 87.8291 74.3031 87.8291 86.1198C87.8291 86.375 87.8514 86.608 87.8625 86.8521C84.9417 87.0518 81.71 88.0837 78.3117 90.0476C65.2071 97.6147 54.5791 116 54.5791 131.123C54.5791 146.246 65.2071 152.371 78.3117 144.815L203.76 72.4501C219.586 63.3185 232.412 41.1275 232.412 22.8754C232.412 4.62331 219.586 -2.77739 203.76 6.35421L203.771 6.34311Z" fill="url(#paint1_linear_6610_6495)"/>
<path d="M203.771 6.34361C201.161 7.8526 198.64 9.71664 196.231 11.8581L182.204 3.75836C174.497 -1.65625 163.347 -1.41215 150.931 5.74445C135.228 14.7984 121.535 32.6178 114.294 51.5023C111.895 51.58 109.218 52.3678 106.387 53.9988C96.1361 59.9127 87.8291 74.2925 87.8291 86.1092C87.8291 86.3644 87.8514 86.5974 87.8625 86.8415C84.9417 87.0412 81.71 88.0731 78.3117 90.037C65.2071 97.6152 54.5791 116 54.5791 131.124C54.5791 138.613 57.1889 143.895 61.4201 146.402L61.5312 146.469C61.5312 146.469 61.5423 146.469 61.5534 146.48L95.914 166.407L103.421 130.336L203.782 72.4506C219.608 63.319 232.435 41.128 232.435 22.8759C232.435 4.6238 219.608 -2.77689 203.782 6.3547L203.771 6.34361Z" fill="url(#paint2_radial_6610_6495)"/>
<path d="M258.988 24.6397L224.172 4.43483C218.975 1.35028 211.756 1.73862 203.76 6.35435C201.15 7.86334 198.629 9.72738 196.219 11.8688L182.193 3.7691C174.486 -1.64551 163.336 -1.40141 150.92 5.75519C135.217 14.8091 121.523 32.6285 114.283 51.513C111.884 51.5907 109.207 52.3785 106.375 54.0095C96.125 59.9234 87.818 74.3032 87.818 86.1199C87.818 86.3751 87.8403 86.6081 87.8514 86.8522C84.9306 87.0519 81.6989 88.0838 78.3006 90.0477C65.2071 97.6148 54.5791 116 54.5791 131.123C54.5791 138.613 57.1889 143.894 61.4201 146.402L61.5312 146.468C61.5312 146.468 61.5423 146.468 61.5534 146.479L95.914 166.407L103.421 130.335L203.782 72.4502C216.609 65.0495 227.459 49.0609 231.113 33.5494L259.01 24.6397H258.988Z" fill="url(#paint3_linear_6610_6495)"/>
<path d="M238.242 26.3376C233.744 28.9339 229.48 32.5954 225.693 36.9116C220.429 20.0242 204.392 14.7982 185.402 25.7384C169.698 34.7923 156.005 52.6117 148.764 71.4963C146.366 71.5739 143.689 72.3617 140.857 73.9927C130.607 79.9067 122.3 94.2864 122.3 106.103C122.3 106.358 122.322 106.591 122.333 106.835C119.412 107.035 116.181 108.067 112.782 110.031C99.6778 117.587 89.0498 135.983 89.0498 151.106C89.0498 166.23 99.6778 172.354 112.782 164.798L238.231 92.4335C254.056 83.3019 266.883 61.1109 266.883 42.8588C266.883 24.6067 254.056 17.206 238.231 26.3376H238.242Z" fill="url(#paint4_linear_6610_6495)"/>
<path d="M225.682 36.9111C229.469 32.595 233.733 28.9334 238.231 26.3371C247.915 20.745 256.478 21.3663 261.664 26.8697C256.589 20.512 247.626 19.5023 237.409 25.394C233.045 27.9127 228.925 31.4299 225.227 35.5686C225.382 36.0124 225.538 36.4562 225.682 36.9111Z" fill="white"/>
<path d="M89.0503 151.106C89.0503 135.983 99.6783 117.598 112.783 110.031C116.181 108.067 119.413 107.035 122.334 106.835C122.334 106.591 122.3 106.358 122.3 106.103C122.3 94.275 130.607 79.9063 140.858 73.9924C143.69 72.3613 146.366 71.5735 148.765 71.4959C156.006 52.6224 169.688 34.8031 185.402 25.738C199.784 17.4386 212.478 18.4483 220.074 26.7588C212.589 17.5828 199.495 16.1959 184.58 24.7949C168.877 33.8488 155.184 51.6682 147.943 70.5528C145.544 70.6304 142.868 71.4182 140.036 73.0493C129.786 78.9632 121.479 93.3429 121.479 105.16C121.479 105.415 121.501 105.648 121.512 105.892C118.591 106.092 115.359 107.124 111.961 109.087C98.8565 116.643 88.2285 135.04 88.2285 150.163C88.2285 156.099 89.8832 160.626 92.6707 163.511C90.383 160.626 89.0503 156.432 89.0503 151.106Z" fill="white"/>
<defs>
<linearGradient id="paint0_linear_6610_6495" x1="0" y1="111.849" x2="297.495" y2="111.849" gradientUnits="userSpaceOnUse">
<stop stop-color="#B5DBFF"/>
<stop offset="0.166667" stop-color="#B4D2FF"/>
<stop offset="0.333333" stop-color="#9AC2FF"/>
<stop offset="0.5" stop-color="#77B6FF"/>
<stop offset="0.75" stop-color="#5488FF"/>
<stop offset="0.921875" stop-color="#5177FF"/>
</linearGradient>
<linearGradient id="paint1_linear_6610_6495" x1="-37.9315" y1="163.277" x2="139.829" y2="60.5536" gradientUnits="userSpaceOnUse">
<stop stop-color="#5778FF"/>
<stop offset="0.18" stop-color="#5B7CFF"/>
<stop offset="0.39" stop-color="#6A89FF"/>
<stop offset="0.61" stop-color="#819FFF"/>
<stop offset="0.85" stop-color="#A2BDFF"/>
<stop offset="1" stop-color="#BCD5FF"/>
</linearGradient>
<radialGradient id="paint2_radial_6610_6495" cx="0" cy="0" r="1" gradientUnits="userSpaceOnUse" gradientTransform="translate(96.3693 56.584) scale(84.8354 84.7585)">
<stop stop-color="#2B3AA5"/>
<stop offset="1" stop-color="#182484"/>
</radialGradient>
<linearGradient id="paint3_linear_6610_6495" x1="54.5791" y1="83.2018" x2="258.988" y2="83.2018" gradientUnits="userSpaceOnUse">
<stop stop-color="#5778FF"/>
<stop offset="0.18" stop-color="#5B7CFF"/>
<stop offset="0.39" stop-color="#6A89FF"/>
<stop offset="0.61" stop-color="#819FFF"/>
<stop offset="0.85" stop-color="#A2BDFF"/>
<stop offset="1" stop-color="#BCD5FF"/>
</linearGradient>
<linearGradient id="paint4_linear_6610_6495" x1="13.8177" y1="173.297" x2="191.578" y2="70.5741" gradientUnits="userSpaceOnUse">
<stop stop-color="#C0D6FF"/>
<stop offset="0.3" stop-color="#C4DAFF"/>
<stop offset="0.65" stop-color="#D3E9FF"/>
<stop offset="1" stop-color="#E9FFFF"/>
</linearGradient>
</defs>
</svg>
