<svg width="170" height="125" viewBox="0 0 170 125" fill="none" xmlns="http://www.w3.org/2000/svg">
<g style="mix-blend-mode:multiply" opacity="0.5">
<mask id="mask0_6610_6200" style="mask-type:luminance" maskUnits="userSpaceOnUse" x="7" y="90" width="163" height="35">
<path d="M88.8365 125C133.57 125 169.833 117.165 169.833 107.5C169.833 97.835 133.57 90 88.8365 90C44.1033 90 7.83984 97.835 7.83984 107.5C7.83984 117.165 44.1033 125 88.8365 125Z" fill="white"/>
</mask>
<g mask="url(#mask0_6610_6200)">
<path d="M169.84 90H7.83984V125H169.84V90Z" fill="white"/>
<path d="M88.7018 122.536C128.754 122.207 161.198 115.541 161.168 107.645C161.138 99.7497 128.645 93.6156 88.5931 93.9441C48.541 94.2727 16.0966 100.94 16.1266 108.835C16.1566 116.73 48.6497 122.865 88.7018 122.536Z" fill="white"/>
<path d="M88.4582 122.49C128.354 122.163 160.671 115.518 160.641 107.65C160.612 99.7811 128.245 93.6675 88.3498 93.9948C48.4541 94.3221 16.1366 100.966 16.1665 108.835C16.1964 116.704 48.5625 122.817 88.4582 122.49Z" fill="white"/>
<path d="M88.2076 122.434C127.947 122.108 160.138 115.491 160.108 107.654C160.078 99.8173 127.839 93.7288 88.0997 94.0548C48.3605 94.3807 16.1697 100.998 16.1995 108.834C16.2293 116.671 48.4684 122.76 88.2076 122.434Z" fill="white"/>
<path d="M87.957 122.378C127.54 122.053 159.604 115.463 159.574 107.659C159.544 99.8541 127.432 93.7905 87.8495 94.1152C48.2668 94.4399 16.2028 101.03 16.2324 108.835C16.2621 116.639 48.3743 122.703 87.957 122.378Z" fill="white"/>
<path d="M87.7122 122.312C127.138 121.989 159.076 115.426 159.046 107.653C159.017 99.8806 127.031 93.8419 87.6052 94.1654C48.179 94.4888 16.2417 101.052 16.2713 108.824C16.3008 116.597 48.286 122.635 87.7122 122.312Z" fill="white"/>
<path d="M87.4619 122.275C126.728 121.953 158.536 115.413 158.506 107.667C158.477 99.9213 126.621 93.9032 87.3553 94.2254C48.0892 94.5475 16.2817 101.088 16.3111 108.834C16.3406 116.579 48.1959 122.597 87.4619 122.275Z" fill="#FEFFFF"/>
<path d="M87.2113 122.22C126.321 121.899 158.002 115.385 157.972 107.672C157.943 99.958 126.215 93.965 87.1051 94.2858C47.9956 94.6066 16.3148 101.12 16.3441 108.834C16.3735 116.547 48.1018 122.54 87.2113 122.22Z" fill="#FEFFFF"/>
<path d="M86.9676 122.163C125.921 121.844 157.475 115.358 157.445 107.676C157.416 99.9943 125.815 94.0262 86.8618 94.3457C47.9087 94.6653 16.3547 101.151 16.3839 108.833C16.4132 116.515 48.0145 122.483 86.9676 122.163Z" fill="#FEFEFF"/>
<path d="M86.717 122.107C125.514 121.789 156.941 115.33 156.912 107.68C156.883 100.031 125.408 94.0874 86.6116 94.4057C47.8151 94.7239 16.3878 101.183 16.4169 108.833C16.446 116.482 47.9204 122.425 86.717 122.107Z" fill="#FEFEFF"/>
<path d="M86.4664 122.042C125.106 121.725 156.407 115.292 156.378 107.675C156.349 100.058 125.002 94.1394 86.3615 94.4563C47.7214 94.7733 16.4209 101.205 16.4499 108.823C16.4789 116.44 47.8263 122.359 86.4664 122.042Z" fill="#FEFEFF"/>
<path d="M86.2158 121.995C124.699 121.68 155.873 115.27 155.844 107.68C155.815 100.089 124.595 94.1913 86.1113 94.507C47.6278 94.8227 16.4541 101.232 16.4829 108.823C16.5118 116.414 47.7323 122.311 86.2158 121.995Z" fill="#FDFEFF"/>
<path d="M85.9711 121.949C124.298 121.635 155.345 115.252 155.316 107.694C155.288 100.135 124.194 94.2623 85.867 94.5767C47.54 94.8911 16.493 101.274 16.5218 108.832C16.5505 116.391 47.644 122.263 85.9711 121.949Z" fill="#FDFEFE"/>
<path d="M85.7207 121.893C123.888 121.58 154.805 115.224 154.776 107.698C154.748 100.171 123.784 94.3236 85.6171 94.6367C47.4502 94.9498 16.533 101.305 16.5616 108.832C16.5902 116.358 47.5538 122.206 85.7207 121.893Z" fill="#FDFEFE"/>
<path d="M85.4701 121.827C123.481 121.515 154.271 115.187 154.243 107.692C154.214 100.198 123.377 94.3751 85.3669 94.6869C47.3565 94.9987 16.5661 101.327 16.5946 108.821C16.6231 116.316 47.4597 122.139 85.4701 121.827Z" fill="#FDFEFE"/>
<path d="M85.2264 121.771C123.08 121.461 153.744 115.159 153.716 107.697C153.687 100.235 122.978 94.4368 85.1236 94.7473C47.2697 95.0578 16.606 101.359 16.6344 108.822C16.6628 116.284 47.3724 122.082 85.2264 121.771Z" fill="#FCFDFE"/>
<path d="M84.9759 121.725C122.673 121.415 153.21 115.137 153.182 107.701C153.154 100.265 122.571 94.4882 84.8735 94.7975C47.176 95.1067 16.6391 101.385 16.6674 108.821C16.6957 116.257 47.2784 122.034 84.9759 121.725Z" fill="#FCFDFE"/>
<path d="M84.7252 121.679C122.266 121.371 152.676 115.119 152.648 107.716C152.62 100.312 122.164 94.5597 84.6233 94.8677C47.0824 95.1756 16.6722 101.427 16.7004 108.831C16.7285 116.234 47.1843 121.987 84.7252 121.679Z" fill="#FCFDFE"/>
<path d="M84.4805 121.622C121.865 121.316 152.148 115.091 152.12 107.72C152.092 100.348 121.763 94.6209 84.379 94.9276C46.9946 95.2343 16.7112 101.459 16.7392 108.83C16.7673 116.202 47.0961 121.929 84.4805 121.622Z" fill="#FBFDFE"/>
<path d="M84.2302 121.557C121.454 121.251 151.608 115.054 151.58 107.714C151.552 100.375 121.353 94.6725 84.1291 94.9779C46.9048 95.2832 16.7511 101.481 16.779 108.82C16.807 116.16 47.0058 121.862 84.2302 121.557Z" fill="#FBFDFE"/>
<path d="M83.9796 121.501C121.047 121.197 151.074 115.026 151.046 107.719C151.019 100.412 120.947 94.7342 83.8789 95.0383C46.8111 95.3424 16.7842 101.513 16.812 108.82C16.8398 116.128 46.9117 121.805 83.9796 121.501Z" fill="#FBFCFE"/>
<path d="M83.7359 121.454C120.647 121.151 150.547 115.004 150.52 107.723C150.492 100.442 120.547 94.7857 83.6356 95.0885C46.7243 95.3913 16.8242 101.539 16.8519 108.82C16.8796 116.1 46.8245 121.757 83.7359 121.454Z" fill="#FAFCFE"/>
<path d="M83.4853 121.408C120.24 121.106 150.013 114.986 149.986 107.737C149.958 100.488 120.14 94.8567 83.3854 95.1582C46.6306 95.4597 16.8573 101.58 16.8849 108.829C16.9124 116.078 46.7304 121.709 83.4853 121.408Z" fill="#FAFCFD"/>
<path d="M83.2347 121.352C119.833 121.052 149.48 114.958 149.452 107.742C149.425 100.525 119.734 94.9184 83.1353 95.2186C46.537 95.5188 16.8904 101.612 16.9179 108.829C16.9453 116.045 46.6363 121.652 83.2347 121.352Z" fill="#FAFCFD"/>
<path d="M82.9899 121.286C119.432 120.987 148.952 114.921 148.924 107.736C148.897 100.552 119.333 94.9698 82.891 95.2688C46.4492 95.5677 16.9294 101.634 16.9567 108.819C16.984 116.003 46.5481 121.585 82.9899 121.286Z" fill="#F9FCFD"/>
<path d="M82.7396 121.23C119.021 120.932 148.411 114.893 148.384 107.74C148.357 100.588 118.923 95.0311 82.6411 95.3288C46.3594 95.6264 16.9693 101.666 16.9965 108.818C17.0237 115.971 46.4579 121.528 82.7396 121.23Z" fill="#F9FBFD"/>
<path d="M82.489 121.184C118.614 120.887 147.878 114.871 147.85 107.745C147.823 100.619 118.516 95.0831 82.3909 95.3794C46.2657 95.6758 17.0024 101.693 17.0295 108.818C17.0566 115.944 46.3638 121.48 82.489 121.184Z" fill="#F8FBFD"/>
<path d="M82.2453 121.137C118.214 120.842 147.351 114.853 147.324 107.759C147.297 100.665 118.116 95.1541 82.1476 95.4491C46.1789 95.7442 17.0424 101.734 17.0693 108.827C17.0963 115.921 46.2766 121.432 82.2453 121.137Z" fill="#F8FBFD"/>
<path d="M81.9947 121.072C117.807 120.778 146.817 114.815 146.79 107.754C146.763 100.692 117.71 95.206 81.8974 95.4998C46.0852 95.7936 17.0755 101.756 17.1023 108.818C17.1292 115.879 46.1825 121.366 81.9947 121.072Z" fill="#F8FAFD"/>
<path d="M81.7441 121.016C117.4 120.723 146.283 114.788 146.256 107.758C146.229 100.729 117.303 95.2672 81.6473 95.5597C45.9916 95.8522 17.1086 101.788 17.1353 108.817C17.162 115.847 46.0884 121.308 81.7441 121.016Z" fill="#F7FAFC"/>
<path d="M81.4935 120.959C116.993 120.668 145.749 114.76 145.722 107.762C145.696 100.765 116.896 95.3285 81.3971 95.6197C45.8979 95.9109 17.1417 101.819 17.1683 108.817C17.1949 115.814 45.9943 121.251 81.4935 120.959Z" fill="#F7FAFC"/>
<path d="M145.187 107.761C145.213 114.73 116.587 120.615 81.2449 120.905C45.9032 121.196 17.2305 115.785 17.2041 108.816C17.1778 101.847 45.8043 95.9622 81.146 95.6718C116.488 95.3814 145.16 100.792 145.187 107.761Z" fill="#F6FAFC"/>
<path d="M80.9985 120.867C116.181 120.578 144.681 114.719 144.654 107.781C144.628 100.842 116.085 95.4515 80.9029 95.7401C45.7203 96.0287 17.2206 101.888 17.247 108.826C17.2734 115.765 45.8159 121.156 80.9985 120.867Z" fill="#F6F9FC"/>
<path d="M80.7479 120.801C115.774 120.514 144.147 114.682 144.121 107.775C144.094 100.869 115.679 95.503 80.6528 95.7903C45.6267 96.0776 17.2537 101.909 17.28 108.816C17.3062 115.722 45.7218 121.088 80.7479 120.801Z" fill="#F5F9FC"/>
<path d="M80.5041 120.745C115.374 120.459 143.62 114.654 143.594 107.78C143.568 100.906 115.279 95.5647 80.4094 95.8507C45.5398 96.1368 17.2937 101.941 17.3198 108.816C17.3459 115.69 45.6345 121.031 80.5041 120.745Z" fill="#F5F9FC"/>
<path d="M80.2535 120.689C114.967 120.404 143.086 114.627 143.06 107.784C143.034 100.942 114.872 95.6259 80.1593 95.9107C45.4462 96.1954 17.3268 101.973 17.3528 108.815C17.3788 115.658 45.5404 120.974 80.2535 120.689Z" fill="#F4F9FC"/>
<path d="M80.003 120.643C114.56 120.359 142.552 114.604 142.526 107.789C142.5 100.973 114.466 95.6778 79.9091 95.9613C45.3525 96.2448 17.3599 102 17.3858 108.815C17.4117 115.631 45.4464 120.926 80.003 120.643Z" fill="#F4F8FB"/>
<path d="M79.7582 120.587C114.158 120.304 142.024 114.577 141.998 107.793C141.973 101.009 114.065 95.7391 79.6648 96.0213C45.2647 96.3035 17.3988 102.031 17.4246 108.815C17.4504 115.598 45.3581 120.869 79.7582 120.587Z" fill="#F3F8FB"/>
<path d="M79.5079 120.531C113.748 120.25 141.484 114.549 141.458 107.797C141.433 101.046 113.655 95.8004 79.4149 96.0813C45.1749 96.3621 17.4388 102.063 17.4645 108.814C17.4901 115.566 45.2679 120.811 79.5079 120.531Z" fill="#F3F8FB"/>
<path d="M79.2573 120.475C113.341 120.195 140.95 114.521 140.925 107.802C140.899 101.083 113.248 95.8621 79.1647 96.1417C45.0813 96.4213 17.4719 102.095 17.4974 108.815C17.523 115.534 45.1738 120.754 79.2573 120.475Z" fill="#F2F7FB"/>
<path d="M79.0136 120.428C112.941 120.15 140.423 114.499 140.398 107.806C140.372 101.113 112.848 95.9136 78.9214 96.1919C44.9945 96.4702 17.5118 102.121 17.5373 108.814C17.5627 115.507 45.0866 120.707 79.0136 120.428Z" fill="#F2F7FB"/>
<path d="M78.763 120.372C112.533 120.095 139.889 114.471 139.864 107.81C139.839 101.15 112.442 95.9748 78.6713 96.2518C44.9008 96.5288 17.5449 102.153 17.5703 108.814C17.5956 115.474 44.9925 120.649 78.763 120.372Z" fill="#F1F7FB"/>
<path d="M78.5124 120.306C112.126 120.031 139.355 114.434 139.33 107.805C139.305 101.177 112.035 96.0267 78.4211 96.3025C44.8071 96.5782 17.5781 102.175 17.6033 108.804C17.6285 115.432 44.8984 120.582 78.5124 120.306Z" fill="#F1F6FA"/>
<path d="M78.2618 120.26C111.719 119.986 138.822 114.416 138.796 107.819C138.771 101.223 111.628 96.0977 78.1709 96.3722C44.7135 96.6466 17.6112 102.217 17.6362 108.813C17.6613 115.41 44.8043 120.535 78.2618 120.26Z" fill="#F0F6FA"/>
<path d="M78.0114 120.204C111.309 119.931 138.281 114.388 138.256 107.823C138.231 101.259 111.218 96.159 77.921 96.4322C44.6237 96.7053 17.6511 102.248 17.6761 108.813C17.701 115.377 44.7141 120.477 78.0114 120.204Z" fill="#F0F6FA"/>
<path d="M77.7599 120.158C110.901 119.886 137.747 114.366 137.722 107.828C137.697 101.29 110.811 96.211 77.6699 96.4828C44.5291 96.7547 17.6832 102.275 17.7081 108.813C17.733 115.35 44.6191 120.43 77.7599 120.158Z" fill="#EFF5FA"/>
<path d="M77.5161 120.102C110.5 119.831 137.22 114.338 137.195 107.832C137.17 101.327 110.411 96.2722 77.4266 96.5428C44.4422 96.8134 17.7232 102.307 17.7479 108.812C17.7727 115.318 44.5318 120.372 77.5161 120.102Z" fill="#EEF5FA"/>
<path d="M77.2656 120.036C110.093 119.767 136.686 114.301 136.661 107.827C136.636 101.354 110.004 96.3241 77.1764 96.5934C44.3486 96.8627 17.7563 102.329 17.7809 108.802C17.8055 115.276 44.4377 120.305 77.2656 120.036Z" fill="#EEF5FA"/>
<path d="M77.015 119.99C109.686 119.722 136.152 114.283 136.127 107.841C136.103 101.4 109.598 96.3951 76.9263 96.6632C44.2549 96.9312 17.7894 102.37 17.8139 108.812C17.8384 115.253 44.3436 120.258 77.015 119.99Z" fill="#EDF4F9"/>
<path d="M76.7644 119.933C109.279 119.667 135.618 114.255 135.594 107.845C135.569 101.436 109.191 96.4564 76.6761 96.7231C44.1612 96.9898 17.8225 102.402 17.8469 108.811C17.8712 115.221 44.2495 120.2 76.7644 119.933Z" fill="#EDF4F9"/>
<path d="M76.5207 119.887C108.879 119.622 135.091 114.233 135.067 107.85C135.042 101.467 108.791 96.5083 76.4328 96.7738C44.0744 97.0392 17.8624 102.429 17.8867 108.811C17.911 115.194 44.1623 120.153 76.5207 119.887Z" fill="#ECF3F9"/>
<path d="M76.2693 119.831C108.468 119.567 134.55 114.205 134.526 107.854C134.502 101.504 108.38 96.5696 76.1819 96.8338C43.9837 97.0979 17.9014 102.46 17.9256 108.811C17.9497 115.161 44.0711 120.095 76.2693 119.831Z" fill="#EBF3F9"/>
<path d="M134.004 107.849C134.03 114.169 108.073 119.502 76.0325 119.773C43.9923 120.035 17.9951 115.127 17.9688 108.817C17.9424 102.496 43.9001 97.1628 75.9402 96.8918C107.98 96.6305 133.978 101.538 134.004 107.849Z" fill="#EBF3F9"/>
<path d="M133.47 107.849C133.497 114.14 107.664 119.444 75.7823 119.715C43.8937 119.977 18.0283 115.098 18.002 108.807C17.9756 102.515 43.8081 97.2112 75.6901 96.9402C107.579 96.6789 133.444 101.557 133.47 107.849Z" fill="#EAF2F8"/>
<path d="M132.936 107.858C132.962 114.111 107.262 119.396 75.5312 119.667C43.8008 119.938 18.0606 115.059 18.0342 108.806C18.0078 102.554 43.7085 97.2689 75.4389 96.9979C107.169 96.7365 132.91 101.595 132.929 107.848L132.936 107.858Z" fill="#EAF2F8"/>
<path d="M75.2738 119.617C106.846 119.358 132.421 114.099 132.398 107.872C132.374 101.644 106.76 96.8057 75.1881 97.0647C43.6158 97.3237 18.0407 102.582 18.0644 108.81C18.088 115.037 43.7016 119.876 75.2738 119.617Z" fill="#E9F2F8"/>
<path d="M75.0301 119.561C106.446 119.303 131.894 114.072 131.871 107.876C131.847 101.681 106.36 96.867 74.9448 97.1247C43.529 97.3824 18.0806 102.614 18.1042 108.809C18.1277 115.005 43.6143 119.818 75.0301 119.561Z" fill="#E8F1F8"/>
<path d="M74.7797 119.495C106.035 119.238 131.354 114.034 131.331 107.871C131.307 101.707 105.95 96.9185 74.6948 97.1749C43.4392 97.4313 18.1206 102.636 18.144 108.799C18.1674 114.963 43.5241 119.751 74.7797 119.495Z" fill="#E8F1F7"/>
<path d="M130.801 107.868C130.827 114.005 105.634 119.183 74.5298 119.435C43.432 119.696 18.1992 114.934 18.1729 108.797C18.1465 102.661 43.3397 97.4821 74.4441 97.2305C105.542 96.9691 130.775 101.731 130.801 107.868Z" fill="#E7F0F7"/>
<path d="M130.274 107.878C130.3 113.975 105.232 119.134 74.2857 119.386C43.3395 119.638 18.2385 114.905 18.2188 108.807C18.1924 102.709 43.2604 97.5498 74.2067 97.2982C105.153 97.0465 130.254 101.78 130.274 107.878Z" fill="#E6F0F7"/>
<path d="M74.0338 119.346C104.82 119.093 129.758 113.966 129.735 107.893C129.712 101.821 104.736 97.1027 73.9502 97.3552C43.1641 97.6078 18.2258 102.735 18.2488 108.808C18.2719 114.88 43.2477 119.599 74.0338 119.346Z" fill="#E6EFF7"/>
<path d="M129.206 107.887C129.232 113.927 104.421 119.028 73.7913 119.28C43.1614 119.531 18.3108 114.847 18.291 108.807C18.2713 102.767 43.0757 97.6564 73.7056 97.4047C104.336 97.153 129.186 101.838 129.206 107.878V107.887Z" fill="#E5EFF7"/>
<path d="M128.672 107.887C128.692 113.898 104.013 118.97 73.5411 119.222C43.0694 119.473 18.3506 114.808 18.3242 108.797C18.2979 102.786 42.9837 97.7145 73.4555 97.4628C103.927 97.2112 128.646 101.877 128.672 107.887Z" fill="#E4EFF6"/>
<path d="M128.139 107.887C128.159 113.869 103.605 118.912 73.2909 119.163C42.9773 119.415 18.3838 114.769 18.3574 108.797C18.3377 102.815 42.8917 97.7722 73.2053 97.5205C103.519 97.2688 128.112 101.915 128.139 107.887Z" fill="#E4EEF6"/>
<path d="M127.605 107.897C127.624 113.84 103.195 118.863 73.0401 119.115C42.8846 119.367 18.4163 114.75 18.3965 108.797C18.3767 102.854 42.8055 97.8303 72.961 97.5787C103.116 97.327 127.585 101.944 127.605 107.897Z" fill="#E3EEF6"/>
<path d="M127.078 107.897C127.098 113.811 102.801 118.805 72.7967 119.057C42.7929 119.309 18.4563 114.711 18.4365 108.797C18.4168 102.883 42.7138 97.8885 72.7176 97.6368C102.722 97.3852 127.058 101.983 127.078 107.897Z" fill="#E2EDF6"/>
<path d="M72.5433 119.01C102.387 118.765 126.562 113.796 126.539 107.91C126.517 102.025 102.306 97.452 72.4622 97.6969C42.6187 97.9417 18.4439 102.911 18.4663 108.797C18.4887 114.682 42.6998 119.255 72.5433 119.01Z" fill="#E1EDF6"/>
<path d="M72.2927 118.954C101.98 118.71 126.028 113.768 126.005 107.914C125.983 102.061 101.899 97.5133 72.2121 97.7568C42.5251 98.0003 18.477 102.943 18.4993 108.796C18.5215 114.65 42.6057 119.197 72.2927 118.954Z" fill="#E1ECF5"/>
<path d="M125.477 107.916C125.496 113.743 101.581 118.66 72.0521 118.902C42.5227 119.144 18.5684 114.624 18.542 108.807C18.5222 102.98 42.437 98.0628 71.9664 97.8208C101.496 97.5788 125.45 102.099 125.477 107.916Z" fill="#E0ECF5"/>
<path d="M124.943 107.916C124.963 113.704 101.173 118.602 71.8019 118.844C42.4307 119.086 18.6016 114.585 18.5752 108.797C18.5554 103.009 42.345 98.1112 71.7163 97.8692C101.088 97.6272 124.917 102.128 124.943 107.916Z" fill="#DFECF5"/>
<path d="M124.409 107.926C124.429 113.685 100.764 118.554 71.551 118.796C42.338 119.038 18.634 114.566 18.6143 108.807C18.5945 103.048 42.2589 98.1791 71.472 97.9371C100.685 97.6951 124.389 102.167 124.409 107.926Z" fill="#DFEBF5"/>
<path d="M71.2974 118.74C100.355 118.501 123.893 113.663 123.871 107.932C123.849 102.202 100.276 97.7495 71.2185 97.9878C42.1611 98.2262 18.6231 103.065 18.6449 108.795C18.6667 114.526 42.24 118.978 71.2974 118.74Z" fill="#DEEBF4"/>
<path d="M123.348 107.926C123.367 113.627 99.9599 118.438 71.0566 118.68C42.1532 118.922 18.7063 114.489 18.6865 108.797C18.6668 103.106 42.0741 98.2856 70.9775 98.0436C99.8809 97.8017 123.328 102.235 123.348 107.926Z" fill="#DDEAF4"/>
<path d="M122.814 107.935C122.834 113.607 99.5516 118.389 70.8064 118.631C42.0612 118.873 18.7461 114.469 18.7197 108.797C18.7 103.125 41.9821 98.3433 70.7273 98.1013C99.4725 97.8593 122.788 102.263 122.814 107.935Z" fill="#DCEAF4"/>
<path d="M122.28 107.936C122.3 113.569 99.1433 118.331 70.5562 118.573C41.9692 118.805 18.7793 114.43 18.7529 108.797C18.7332 103.164 41.8901 98.4017 70.4772 98.1597C99.0642 97.9274 122.254 102.302 122.28 107.936Z" fill="#DCE9F4"/>
<path d="M121.746 107.945C121.766 113.55 98.7408 118.283 70.3054 118.525C41.8765 118.757 18.8118 114.411 18.792 108.797C18.7722 103.193 41.7974 98.4599 70.2329 98.2179C98.6617 97.9856 121.726 102.332 121.746 107.945Z" fill="#DBE9F3"/>
<path d="M121.213 107.945C121.233 113.52 98.3328 118.234 70.062 118.466C41.7913 118.699 18.8518 114.372 18.832 108.797C18.8123 103.222 41.7122 98.5078 69.983 98.2755C98.2537 98.0432 121.193 102.37 121.213 107.945Z" fill="#DAE8F3"/>
<path d="M120.679 107.955C120.699 113.501 97.9244 118.186 69.8119 118.418C41.6993 118.65 18.885 114.343 18.8652 108.797C18.8455 103.251 41.6202 98.566 69.7328 98.3337C97.8454 98.1014 120.66 102.409 120.679 107.955Z" fill="#D9E8F3"/>
<path d="M69.5621 118.357C97.5204 118.128 120.168 113.474 120.147 107.963C120.126 102.451 97.4445 98.1693 69.4862 98.3987C41.5279 98.628 18.8803 103.282 18.9012 108.793C18.9222 114.304 41.6038 118.586 69.5621 118.357Z" fill="#D8E7F3"/>
<path d="M119.618 107.955C119.638 113.433 97.1202 118.07 69.3174 118.302C41.5146 118.534 18.9639 114.275 18.9375 108.797C18.9177 103.319 41.4355 98.6823 69.2383 98.45C97.0412 98.2177 119.592 102.477 119.618 107.955Z" fill="#D8E7F2"/>
<path d="M69.061 118.255C96.7062 118.028 119.1 113.424 119.08 107.971C119.059 102.519 96.6312 98.2825 68.9859 98.5093C41.3406 98.7361 18.9465 103.34 18.9672 108.793C18.988 114.245 41.4157 118.481 69.061 118.255Z" fill="#D7E6F2"/>
<path d="M68.8172 118.198C96.306 117.973 118.573 113.396 118.553 107.975C118.532 102.555 96.2313 98.3437 68.7426 98.5692C41.2538 98.7947 18.9864 103.372 19.007 108.792C19.0277 114.213 41.3284 118.424 68.8172 118.198Z" fill="#D6E6F2"/>
<path d="M118.017 107.974C118.037 113.366 95.9012 117.915 68.5662 118.147C41.2378 118.37 19.0628 114.188 19.043 108.797C19.0232 103.406 41.1587 98.8565 68.4937 98.6242C95.8221 98.4016 117.997 102.583 118.017 107.974Z" fill="#D5E5F2"/>
<path d="M117.482 107.974C117.502 113.337 95.4918 117.857 68.315 118.079C41.1448 118.302 19.095 114.14 19.0752 108.787C19.0554 103.425 41.0658 98.905 68.2426 98.6824C95.4194 98.4597 117.463 102.622 117.482 107.974Z" fill="#D4E5F1"/>
<path d="M116.956 107.984C116.976 113.308 95.0906 117.809 68.0785 118.031C41.0599 118.254 19.1419 114.121 19.1221 108.788C19.1023 103.464 40.9874 98.9631 67.9995 98.7405C95.0181 98.5179 116.936 102.651 116.956 107.984Z" fill="#D4E4F1"/>
<path d="M116.421 107.984C116.441 113.278 94.6879 117.75 67.8274 117.973C40.9669 118.195 19.1741 114.082 19.1543 108.787C19.1345 103.493 40.8944 99.0208 67.7483 98.7982C94.6088 98.5756 116.395 102.689 116.415 107.984H116.421Z" fill="#D3E4F1"/>
<path d="M115.888 107.984C115.908 113.249 94.2798 117.702 67.5775 117.915C40.8752 118.137 19.2141 114.043 19.1943 108.777C19.1746 103.512 40.8027 99.0595 67.505 98.8466C94.2073 98.6239 115.868 102.718 115.888 107.984Z" fill="#D2E3F0"/>
<path d="M67.3198 117.872C93.8659 117.654 115.37 113.235 115.35 108.002C115.33 102.768 93.7939 98.7024 67.2477 98.9202C40.7016 99.1379 19.1978 103.557 19.2177 108.79C19.2376 114.024 40.7736 118.089 67.3198 117.872Z" fill="#D1E3F0"/>
<path d="M114.82 107.994C114.84 113.201 93.4622 117.595 67.0762 117.808C40.6902 118.031 19.2795 113.985 19.2598 108.787C19.24 103.58 40.6177 99.1856 67.0037 98.9726C93.3897 98.75 114.8 102.796 114.82 107.994Z" fill="#D0E2F0"/>
<path d="M66.8257 117.76C93.0553 117.545 114.303 113.175 114.283 108.001C114.263 102.826 92.984 98.8059 66.7545 99.021C40.525 99.2362 19.2777 103.605 19.2973 108.78C19.317 113.954 40.5962 117.975 66.8257 117.76Z" fill="#CFE2F0"/>
<path d="M113.76 108.003C113.78 113.143 92.659 117.489 66.5827 117.702C40.5064 117.915 19.3528 113.927 19.333 108.787C19.3133 103.648 40.4339 99.3017 66.5102 99.0887C92.5865 98.8758 113.74 102.864 113.76 108.003Z" fill="#CEE1EF"/>
<path d="M66.3304 117.658C92.2469 117.445 113.241 113.13 113.221 108.019C113.202 102.909 92.1766 98.9386 66.26 99.1512C40.3435 99.3638 19.3497 103.679 19.3692 108.789C19.3886 113.9 40.4139 117.87 66.3304 117.658Z" fill="#CEE1EF"/>
<path d="M66.0798 117.601C91.8398 117.39 112.707 113.102 112.687 108.024C112.668 102.945 91.7699 98.9998 66.0099 99.2111C40.2498 99.4224 19.3828 103.711 19.4022 108.789C19.4215 113.867 40.3198 117.813 66.0798 117.601Z" fill="#CDE0EF"/>
<path d="M112.158 108.023C112.178 113.075 91.4391 117.334 65.8373 117.547C40.2355 117.76 19.4641 113.84 19.4444 108.787C19.4246 103.735 40.163 99.4761 65.7648 99.2632C91.3667 99.0502 112.138 102.97 112.158 108.023Z" fill="#CCE0EF"/>
<path d="M111.624 108.023C111.644 113.037 91.0308 117.276 65.5872 117.489C40.1435 117.702 19.4973 113.801 19.4776 108.788C19.4578 103.774 40.071 99.5343 65.5147 99.3213C90.9583 99.1084 111.605 103.009 111.624 108.023Z" fill="#CBDFEE"/>
<path d="M111.091 108.022C111.111 113.007 90.6225 117.218 65.337 117.431C40.0515 117.644 19.5305 113.772 19.5108 108.777C19.491 103.783 39.979 99.5822 65.2645 99.3692C90.55 99.1563 111.071 103.028 111.091 108.022Z" fill="#CADFEE"/>
<path d="M110.563 108.032C110.583 112.988 90.2269 117.169 65.093 117.382C39.959 117.595 19.5698 113.743 19.5567 108.787C19.5369 103.831 39.8931 99.6501 65.0271 99.4371C90.161 99.2242 110.55 103.077 110.563 108.032Z" fill="#C9DEEE"/>
<path d="M64.8398 117.331C89.8137 117.126 110.044 112.969 110.025 108.046C110.006 103.122 89.7459 99.2972 64.772 99.5021C39.7981 99.707 19.5679 103.864 19.5866 108.787C19.6054 113.711 39.8659 117.536 64.8398 117.331Z" fill="#C8DEED"/>
<path d="M64.5892 117.275C89.4066 117.071 109.51 112.941 109.491 108.05C109.473 103.159 89.3393 99.3585 64.5219 99.562C39.7044 99.7656 19.601 103.896 19.6196 108.787C19.6382 113.678 39.7718 117.478 64.5892 117.275Z" fill="#C7DDED"/>
<path d="M108.962 108.042C108.982 112.901 89.0075 117.015 64.3415 117.218C39.682 117.421 19.6751 113.646 19.6553 108.787C19.6355 103.928 39.6095 99.8146 64.2756 99.6114C88.935 99.4081 108.942 103.183 108.962 108.042Z" fill="#C6DCED"/>
<path d="M108.429 108.052C108.448 112.882 88.5995 116.966 64.0982 117.169C39.5969 117.373 19.7151 113.617 19.6953 108.787C19.6756 103.957 39.5244 99.8728 64.0257 99.6695C88.527 99.4662 108.409 103.222 108.429 108.052Z" fill="#C6DCED"/>
<path d="M107.894 108.052C107.914 112.853 88.1904 116.908 63.8473 117.111C39.5041 117.315 19.7476 113.588 19.7344 108.787C19.7212 103.987 39.4382 99.9309 63.7814 99.7277C88.1245 99.5244 107.881 103.251 107.894 108.052Z" fill="#C5DBEC"/>
<path d="M63.594 117.06C87.7818 116.862 107.375 112.836 107.357 108.068C107.339 103.299 87.7161 99.5946 63.5283 99.7931C39.3405 99.9915 19.7471 104.018 19.7653 108.786C19.7834 113.554 39.4062 117.259 63.594 117.06Z" fill="#C4DBEC"/>
<path d="M106.833 108.062C106.853 112.804 87.3862 116.802 63.3528 117.005C39.3194 117.208 19.8264 113.521 19.8067 108.788C19.7869 104.045 39.2535 100.047 63.2869 99.844C87.3203 99.6407 106.813 103.328 106.833 108.062Z" fill="#C3DAEC"/>
<path d="M106.3 108.061C106.319 112.765 86.9779 116.744 63.1026 116.947C39.2274 117.14 19.8596 113.491 19.8399 108.778C19.8201 104.074 39.1615 100.095 63.0367 99.8921C86.912 99.6985 106.28 103.348 106.3 108.061Z" fill="#C2DAEB"/>
<path d="M105.766 108.071C105.786 112.746 86.5696 116.695 62.8525 116.899C39.1354 117.092 19.8928 113.463 19.8731 108.787C19.8533 104.112 39.0695 100.163 62.7866 99.96C86.5037 99.7664 105.746 103.396 105.766 108.071Z" fill="#C1D9EB"/>
<path d="M105.232 108.071C105.251 112.717 86.1671 116.637 62.6016 116.841C39.0426 117.034 19.9253 113.424 19.9121 108.778C19.8989 104.132 38.9767 100.212 62.5423 100.008C86.1012 99.8148 105.219 103.425 105.232 108.071Z" fill="#C0D8EB"/>
<path d="M62.3537 116.79C85.759 116.598 104.719 112.703 104.701 108.089C104.684 103.476 85.6955 99.892 62.2902 100.084C38.8849 100.276 19.9254 104.171 19.9429 108.785C19.9604 113.398 38.9484 116.982 62.3537 116.79Z" fill="#BFD8EA"/>
<path d="M62.1034 116.734C85.3486 116.543 104.178 112.67 104.161 108.084C104.144 103.497 85.2855 99.9338 62.0403 100.124C38.7951 100.315 19.9653 104.188 19.9828 108.774C20.0002 113.361 38.8583 116.924 62.1034 116.734Z" fill="#BED7EA"/>
<path d="M61.8528 116.678C84.9415 116.489 103.645 112.643 103.627 108.088C103.61 103.534 84.8788 99.9955 61.7901 100.185C38.7014 100.374 19.9984 104.22 20.0157 108.774C20.0331 113.329 38.7642 116.867 61.8528 116.678Z" fill="#BDD7EA"/>
<path d="M103.104 108.09C103.123 112.61 84.5465 116.434 61.6136 116.618C38.6807 116.811 20.0774 113.298 20.0576 108.777C20.0379 104.257 38.6148 100.434 61.5477 100.25C84.4806 100.066 103.084 103.57 103.104 108.09Z" fill="#BCD6E9"/>
<path d="M102.57 108.09C102.59 112.581 84.1382 116.376 61.3635 116.56C38.5887 116.743 20.1106 113.259 20.0908 108.768C20.0711 104.277 38.5228 100.482 61.2976 100.298C84.0723 100.115 102.55 103.599 102.57 108.09Z" fill="#BBD5E9"/>
<path d="M61.1069 116.52C83.7261 116.334 102.049 112.57 102.032 108.111C102.015 103.653 83.6647 100.189 61.0455 100.375C38.4263 100.561 20.1036 104.325 20.1205 108.783C20.1375 113.241 38.4877 116.705 61.1069 116.52Z" fill="#BAD5E9"/>
<path d="M101.502 108.1C101.522 112.533 83.3274 116.269 60.8624 116.453C38.404 116.637 20.1763 113.201 20.1631 108.768C20.1433 104.335 38.3381 100.599 60.8031 100.415C83.2615 100.231 101.489 103.667 101.502 108.1Z" fill="#B9D4E9"/>
<path d="M100.969 108.11C100.989 112.504 82.9191 116.221 60.6122 116.405C38.3054 116.589 20.2161 113.172 20.1963 108.778C20.1765 104.383 38.2461 100.667 60.5529 100.483C82.8598 100.299 100.949 103.716 100.969 108.11Z" fill="#B8D4E8"/>
<path d="M100.441 108.11C100.461 112.475 82.5166 116.163 60.3679 116.347C38.2192 116.531 20.2551 113.143 20.2354 108.768C20.2156 104.403 38.1599 100.715 60.3086 100.531C82.4573 100.347 100.421 103.735 100.441 108.11Z" fill="#B7D3E8"/>
<path d="M99.9079 108.119C99.9277 112.456 82.1086 116.114 60.1246 116.298C38.1341 116.482 20.2952 113.114 20.2754 108.777C20.2556 104.441 38.0748 100.782 60.0587 100.598C82.0492 100.415 99.8881 103.783 99.9079 108.119Z" fill="#B6D2E8"/>
<path d="M59.8669 116.249C81.7 116.07 99.3859 112.436 99.3696 108.133C99.3532 103.83 81.6407 100.486 59.8077 100.665C37.9746 100.845 20.2887 104.478 20.305 108.781C20.3214 113.085 38.0339 116.428 59.8669 116.249Z" fill="#B5D2E7"/>
<path d="M59.6164 116.193C81.293 116.015 98.8521 112.404 98.8358 108.128C98.8196 103.851 81.2341 100.529 59.5575 100.706C37.8809 100.884 20.3218 104.495 20.338 108.772C20.3543 113.048 37.9398 116.371 59.6164 116.193Z" fill="#B4D1E7"/>
<path d="M98.3066 108.129C98.3198 112.368 80.8894 115.959 59.3734 116.134C37.8573 116.308 20.394 113.017 20.3809 108.777C20.3677 104.538 37.798 100.947 59.3141 100.773C80.8301 100.598 98.2934 103.889 98.3066 108.129Z" fill="#B3D1E7"/>
<path d="M97.7721 108.129C97.7853 112.339 80.4867 115.901 59.1222 116.076C37.7577 116.25 20.4329 112.978 20.4131 108.768C20.3999 104.557 37.6984 100.995 59.0629 100.821C80.4274 100.647 97.7523 103.918 97.7721 108.129Z" fill="#B2D0E6"/>
<path d="M97.2386 108.139C97.2517 112.32 80.0784 115.853 58.8721 116.027C37.6657 116.202 20.4661 112.959 20.4463 108.778C20.4331 104.596 37.6064 101.063 58.8128 100.889C80.0191 100.715 97.2188 103.957 97.2386 108.139Z" fill="#B1CFE6"/>
<path d="M96.7111 108.139C96.7243 112.291 79.6762 115.795 58.628 115.969C37.5798 116.143 20.5054 112.92 20.4922 108.768C20.479 104.615 37.5271 101.112 58.5753 100.937C79.6235 100.763 96.6979 103.986 96.7111 108.139Z" fill="#B0CFE6"/>
<path d="M58.3764 115.922C79.2668 115.751 96.1892 112.271 96.1735 108.15C96.1579 104.028 79.2101 100.826 58.3196 100.997C37.4292 101.169 20.5068 104.649 20.5225 108.77C20.5382 112.892 37.486 116.094 58.3764 115.922Z" fill="#AFCEE5"/>
<path d="M95.6443 108.149C95.6575 112.233 78.8664 115.689 58.1345 115.863C37.4027 116.037 20.5786 112.862 20.5654 108.768C20.5523 104.683 37.3434 101.228 58.0752 101.054C78.8071 100.879 95.6311 104.054 95.6443 108.149Z" fill="#AECDE5"/>
<path d="M95.1098 108.149C95.123 112.204 78.4571 115.631 57.8834 115.805C37.3097 115.979 20.6108 112.824 20.5977 108.768C20.5845 104.713 37.2504 101.286 57.8241 101.112C78.3978 100.938 95.0966 104.093 95.1098 108.149Z" fill="#ADCDE5"/>
<path d="M94.5763 108.158C94.5895 112.185 78.0488 115.582 57.6332 115.756C37.2177 115.931 20.6506 112.794 20.6309 108.768C20.6177 104.741 37.1584 101.344 57.5739 101.17C77.9961 101.005 94.5565 104.132 94.5763 108.158Z" fill="#ACCCE4"/>
<path d="M94.0428 108.158C94.0559 112.156 77.6471 115.524 57.3831 115.698C37.1191 115.863 20.6838 112.766 20.6641 108.768C20.6509 104.771 37.0598 101.402 57.3238 101.228C77.5877 101.063 94.023 104.161 94.0428 108.158Z" fill="#ABCCE4"/>
<path d="M93.5153 108.168C93.5285 112.137 77.2448 115.486 57.139 115.65C37.0332 115.815 20.7231 112.737 20.71 108.778C20.6968 104.819 36.9805 101.46 57.0863 101.296C77.1921 101.131 93.5021 104.209 93.5153 108.168Z" fill="#AACBE4"/>
<path d="M92.9818 108.168C92.995 112.098 76.8365 115.427 56.8888 115.592C36.9412 115.757 20.7564 112.698 20.7432 108.768C20.73 104.838 36.8885 101.509 56.8361 101.344C76.7838 101.18 92.9686 104.238 92.9818 108.168Z" fill="#A9CAE3"/>
<path d="M92.4473 108.177C92.4605 112.078 76.4338 115.379 56.6377 115.543C36.8482 115.708 20.7886 112.678 20.7754 108.778C20.7622 104.877 36.7889 101.576 56.585 101.412C76.3745 101.247 92.4341 104.277 92.4473 108.177Z" fill="#A8CAE3"/>
<path d="M91.9138 108.177C91.9269 112.049 76.0255 115.321 56.3875 115.485C36.7562 115.65 20.8284 112.64 20.8086 108.768C20.7954 104.896 36.6969 101.625 56.3348 101.46C75.9662 101.296 91.894 104.306 91.9138 108.177Z" fill="#A7C9E3"/>
<path d="M56.1409 115.428C75.6192 115.268 91.3977 112.027 91.3831 108.189C91.3685 104.351 75.5664 101.369 56.088 101.529C36.6097 101.688 20.8312 104.929 20.8458 108.767C20.8604 112.606 36.6625 115.587 56.1409 115.428Z" fill="#A6C8E2"/>
<path d="M90.8462 108.187C90.8594 112.001 75.2084 115.214 55.8933 115.379C36.5717 115.543 20.9009 112.582 20.8877 108.768C20.8745 104.954 36.5256 101.741 55.8406 101.576C75.1622 101.412 90.833 104.374 90.8462 108.187Z" fill="#A4C8E2"/>
<path d="M90.3195 108.187C90.3327 111.962 74.8135 115.156 55.65 115.321C36.4865 115.476 20.9409 112.543 20.9277 108.768C20.9146 104.993 36.4338 101.799 55.5973 101.634C74.7607 101.479 90.3063 104.412 90.3195 108.187Z" fill="#A3C7E2"/>
<path d="M89.785 108.197C89.7982 111.943 74.4042 115.108 55.3989 115.272C36.3935 115.427 20.9731 112.523 20.96 108.768C20.9468 105.022 36.3408 101.857 55.3461 101.692C74.3514 101.538 89.7718 104.441 89.785 108.197Z" fill="#A2C6E1"/>
<path d="M89.2515 108.197C89.2647 111.914 73.9958 115.05 55.1487 115.205C36.3015 115.36 21.0064 112.475 20.9932 108.758C20.98 105.042 36.2488 101.905 55.096 101.751C73.9431 101.596 89.2383 104.48 89.2515 108.197Z" fill="#A1C6E1"/>
<path d="M88.718 108.207C88.7312 111.894 73.5941 115.001 54.8985 115.156C36.2095 115.311 21.0462 112.446 21.0264 108.758C21.0066 105.071 36.1502 101.964 54.8458 101.809C73.5348 101.654 88.6982 104.519 88.718 108.207Z" fill="#A0C5E0"/>
<path d="M88.1837 108.207C88.1969 111.865 73.1851 114.953 54.6476 115.098C36.1102 115.253 21.0786 112.417 21.0654 108.758C21.0523 105.1 36.0641 102.012 54.6015 101.867C73.1389 101.712 88.1705 104.548 88.1837 108.207Z" fill="#9FC4E0"/>
<path d="M87.6502 108.216C87.6633 111.836 72.7767 114.904 54.3975 115.05C36.0182 115.204 21.1118 112.388 21.0986 108.768C21.0855 105.148 35.9721 102.08 54.3513 101.934C72.7306 101.779 87.637 104.596 87.6502 108.216Z" fill="#9EC4E0"/>
<path d="M87.1227 108.216C87.1359 111.807 72.3745 114.847 54.16 114.992C35.9389 115.147 21.1577 112.349 21.1445 108.758C21.1314 105.167 35.8928 102.128 54.1073 101.983C72.3218 101.838 87.1096 104.625 87.1227 108.216Z" fill="#9DC3DF"/>
<path d="M86.5892 108.216C86.6024 111.778 71.9728 114.789 53.9098 114.934C35.8469 115.079 21.1909 112.32 21.1777 108.758C21.1646 105.197 35.7942 102.186 53.8571 102.041C71.9201 101.896 86.576 104.655 86.5892 108.216Z" fill="#9CC2DF"/>
<path d="M86.0557 108.226C86.0689 111.759 71.5645 114.74 53.6597 114.885C35.7549 115.03 21.2241 112.291 21.2109 108.758C21.1978 105.225 35.7022 102.244 53.607 102.099C71.5117 101.954 86.0425 104.693 86.0557 108.226Z" fill="#9AC2DF"/>
<path d="M53.4035 114.84C71.1531 114.695 85.5312 111.738 85.5179 108.237C85.5046 104.735 71.1049 102.015 53.3553 102.161C35.6057 102.306 21.2276 105.263 21.2409 108.764C21.2542 112.265 35.6539 114.986 53.4035 114.84Z" fill="#99C1DE"/>
<path d="M84.9879 108.236C85.0011 111.701 70.7537 114.633 53.1586 114.779C35.5636 114.924 21.2964 112.233 21.2832 108.758C21.27 105.293 35.5174 102.36 53.1125 102.215C70.7076 102.07 84.9747 104.761 84.9879 108.236Z" fill="#98C0DE"/>
<path d="M84.4544 108.236C84.4675 111.672 70.3454 114.575 52.9085 114.721C35.4715 114.866 21.3296 112.194 21.3164 108.758C21.3032 105.322 35.4254 102.418 52.8623 102.273C70.2992 102.128 84.4412 104.799 84.4544 108.236Z" fill="#97BFDE"/>
<path d="M83.9208 108.245C83.934 111.652 69.937 114.527 52.6583 114.672C35.3795 114.818 21.3628 112.165 21.3496 108.758C21.3364 105.351 35.3334 102.477 52.6122 102.331C69.8909 102.186 83.9077 104.838 83.9208 108.245Z" fill="#96BFDD"/>
<path d="M83.3932 108.245C83.4064 111.623 69.5346 114.469 52.414 114.614C35.2934 114.76 21.4019 112.136 21.3887 108.758C21.3755 105.38 35.2473 102.535 52.3679 102.39C69.4885 102.244 83.38 104.867 83.3932 108.245Z" fill="#95BEDD"/>
<path d="M52.1645 114.57C69.128 114.431 82.8693 111.605 82.8566 108.259C82.8438 104.912 69.0819 102.312 52.1184 102.452C35.1549 102.591 21.4136 105.416 21.4264 108.763C21.4391 112.109 35.201 114.709 52.1645 114.57Z" fill="#94BDDC"/>
<path d="M82.3256 108.255C82.3388 111.565 68.7241 114.372 51.9198 114.508C35.1155 114.643 21.481 112.069 21.4678 108.758C21.4546 105.448 35.0694 102.641 51.8736 102.506C68.6779 102.37 82.3125 104.945 82.3256 108.255Z" fill="#92BDDC"/>
<path d="M81.7921 108.255C81.8053 111.536 68.3157 114.314 51.6696 114.45C35.0169 114.585 21.5142 112.04 21.501 108.758C21.4878 105.477 34.9774 102.699 51.6235 102.564C68.2762 102.428 81.7789 104.974 81.7921 108.255Z" fill="#91BCDC"/>
<path d="M81.2576 108.265C81.2708 111.517 67.913 114.266 51.4185 114.401C34.9239 114.537 21.5464 112.011 21.5332 108.759C21.52 105.506 34.8778 102.757 51.3723 102.622C67.8669 102.486 81.2444 105.013 81.2576 108.265Z" fill="#90BBDB"/>
<path d="M80.7241 108.264C80.7372 111.488 67.5047 114.208 51.1683 114.343C34.8319 114.479 21.5796 111.981 21.5664 108.758C21.5532 105.535 34.7858 102.815 51.1222 102.68C67.4586 102.544 80.7109 105.041 80.7241 108.264Z" fill="#8FBADB"/>
<path d="M80.1974 108.274C80.2106 111.468 67.1032 114.159 50.925 114.295C34.7467 114.43 21.6196 111.952 21.6065 108.758C21.5933 105.564 34.7006 102.873 50.8788 102.738C67.0571 102.602 80.1842 105.08 80.1974 108.274Z" fill="#8EBADB"/>
<path d="M50.6739 114.243C66.6948 114.112 79.6725 111.444 79.6605 108.285C79.6485 105.126 66.6513 102.671 50.6304 102.803C34.6095 102.934 21.6318 105.602 21.6438 108.761C21.6558 111.92 34.6531 114.375 50.6739 114.243Z" fill="#8DB9DA"/>
<path d="M79.1296 108.284C79.1428 111.41 66.2924 114.053 50.4239 114.188C34.562 114.324 21.6919 111.894 21.6787 108.758C21.6655 105.632 34.5159 102.99 50.3844 102.854C66.2463 102.719 79.1164 105.148 79.1296 108.284Z" fill="#8BB8DA"/>
<path d="M78.5953 108.284C78.6085 111.381 65.8834 113.995 50.1796 114.13C34.4693 114.256 21.731 111.856 21.7178 108.758C21.7046 105.661 34.4297 103.047 50.1335 102.912C65.8438 102.786 78.5821 105.187 78.5953 108.284Z" fill="#8AB8D9"/>
<path d="M78.0618 108.284C78.075 111.352 65.4751 113.937 49.9295 114.072C34.3773 114.198 21.7642 111.817 21.751 108.758C21.7378 105.7 34.3377 103.106 49.8833 102.97C65.4355 102.844 78.0486 105.225 78.0618 108.284Z" fill="#89B7D9"/>
<path d="M77.5283 108.294C77.5414 111.333 65.0733 113.888 49.6793 114.024C34.2853 114.15 21.7974 111.798 21.7842 108.758C21.771 105.719 34.2391 103.164 49.6332 103.028C65.0272 102.902 77.5151 105.254 77.5283 108.294Z" fill="#88B6D9"/>
<path d="M77.0008 108.294C77.014 111.294 64.6711 113.84 49.4352 113.966C34.1993 114.092 21.8367 111.759 21.8301 108.758C21.8235 105.758 34.1598 103.212 49.3957 103.086C64.6316 102.961 76.9942 105.293 77.0008 108.294Z" fill="#87B5D8"/>
<path d="M76.4673 108.304C76.4805 111.275 64.2628 113.792 49.1851 113.917C34.1074 114.043 21.8765 111.73 21.8633 108.758C21.8501 105.787 34.0678 103.27 49.1455 103.145C64.2233 103.019 76.4541 105.332 76.4673 108.304Z" fill="#85B5D8"/>
<path d="M75.9338 108.303C75.947 111.246 63.8545 113.733 48.9349 113.859C34.0153 113.985 21.9097 111.701 21.8965 108.758C21.8833 105.816 33.9692 103.328 48.8954 103.202C63.8149 103.076 75.9206 105.361 75.9338 108.303Z" fill="#84B4D8"/>
<path d="M75.3993 108.313C75.4125 111.226 63.4518 113.685 48.6838 113.811C33.9224 113.937 21.9419 111.672 21.9287 108.758C21.9155 105.845 33.8762 103.386 48.6442 103.26C63.4056 103.135 75.3861 105.399 75.3993 108.313Z" fill="#83B3D7"/>
<path d="M48.4375 113.758C63.0462 113.638 74.8801 111.205 74.8691 108.324C74.8582 105.443 63.0065 103.204 48.3978 103.324C33.789 103.444 21.9552 105.877 21.9661 108.758C21.9771 111.639 33.8287 113.878 48.4375 113.758Z" fill="#82B2D7"/>
<path d="M48.1869 113.702C62.6391 113.584 74.3462 111.178 74.3354 108.329C74.3246 105.48 62.5999 103.266 48.1476 103.384C33.6954 103.503 21.9883 105.909 21.9991 108.758C22.0099 111.607 33.7346 113.821 48.1869 113.702Z" fill="#81B2D6"/>
<path d="M73.7982 108.323C73.8114 111.139 62.2329 113.52 47.9394 113.636C33.6459 113.753 22.0476 111.565 22.041 108.748C22.0278 105.932 33.6063 103.551 47.8998 103.435C62.1934 103.318 73.7916 105.506 73.7982 108.323Z" fill="#7FB1D6"/>
<path d="M73.2715 108.323C73.2847 111.11 61.8314 113.462 47.6961 113.578C33.5607 113.695 22.0942 111.526 22.0811 108.739C22.0679 105.951 33.5212 103.599 47.6565 103.483C61.7919 103.367 73.2583 105.535 73.2715 108.323Z" fill="#7EB0D6"/>
<path d="M72.737 108.332C72.7502 111.091 61.4221 113.414 47.4449 113.53C33.4677 113.646 22.1265 111.507 22.1133 108.749C22.1001 105.99 33.4282 103.667 47.4054 103.551C61.3826 103.435 72.7238 105.574 72.737 108.332Z" fill="#7DAFD5"/>
<path d="M72.2035 108.332C72.2167 111.062 61.0204 113.356 47.1948 113.472C33.3757 113.588 22.1597 111.469 22.1465 108.749C22.1333 106.029 33.3296 103.725 47.1552 103.609C60.9809 103.493 72.1903 105.613 72.2035 108.332Z" fill="#7CAFD5"/>
<path d="M71.67 108.342C71.6831 111.033 60.6121 113.317 46.9446 113.424C33.2771 113.54 22.1929 111.44 22.1797 108.749C22.1665 106.058 33.2376 103.774 46.9051 103.667C60.5725 103.551 71.6568 105.651 71.67 108.342Z" fill="#7AAED4"/>
<path d="M71.1357 108.342C71.1489 111.004 60.203 113.259 46.6937 113.365C33.1844 113.472 22.2254 111.41 22.2188 108.748C22.2056 106.087 33.1514 103.831 46.6607 103.725C60.1701 103.609 71.1291 105.68 71.1357 108.342Z" fill="#79ADD4"/>
<path d="M70.6022 108.342C70.6153 110.975 59.7947 113.201 46.4435 113.308C33.0924 113.414 22.2586 111.372 22.252 108.739C22.2388 106.106 33.0594 103.88 46.4106 103.774C59.7617 103.667 70.5956 105.709 70.6022 108.342Z" fill="#78ACD4"/>
<path d="M70.0747 108.352C70.0879 110.956 59.3991 113.153 46.2061 113.259C33.0131 113.366 22.311 111.352 22.2979 108.749C22.2847 106.145 32.9735 103.948 46.1665 103.841C59.3595 103.735 70.0616 105.748 70.0747 108.352Z" fill="#77ACD3"/>
<path d="M69.5412 108.352C69.5478 110.927 58.9908 113.095 45.9559 113.201C32.9211 113.308 22.3442 111.314 22.3311 108.739C22.3179 106.164 32.8815 103.996 45.9164 103.89C58.9512 103.783 69.528 105.777 69.5412 108.352Z" fill="#75ABD3"/>
<path d="M45.701 113.152C58.581 113.046 69.0145 110.902 69.0049 108.363C68.9952 105.824 58.5461 103.851 45.6661 103.957C32.786 104.062 22.3526 106.206 22.3622 108.745C22.3719 111.285 32.821 113.257 45.701 113.152Z" fill="#74AAD2"/>
<path d="M68.4734 108.361C68.48 110.868 58.18 112.988 45.4548 113.094C32.7297 113.201 22.4099 111.255 22.4033 108.739C22.3967 106.222 32.6968 104.112 45.4219 104.006C58.147 103.899 68.4668 105.845 68.4734 108.361Z" fill="#73A9D2"/>
<path d="M67.9399 108.371C67.9465 110.849 57.7716 112.94 45.2047 113.046C32.6377 113.153 22.4431 111.226 22.4365 108.749C22.4299 106.271 32.6048 104.18 45.1717 104.074C57.7387 103.967 67.9333 105.893 67.9399 108.371Z" fill="#72A8D2"/>
<path d="M67.4063 108.371C67.4129 110.82 57.3633 112.882 44.9545 112.988C32.5457 113.095 22.4763 111.188 22.4697 108.749C22.4631 106.3 32.5128 104.238 44.9216 104.132C57.3304 104.025 67.3998 105.932 67.4063 108.371Z" fill="#70A8D1"/>
<path d="M66.8787 108.381C66.8853 110.801 56.9609 112.833 44.7102 112.94C32.4596 113.036 22.522 111.168 22.5088 108.749C22.5022 106.329 32.4266 104.296 44.6773 104.19C56.9279 104.093 66.8655 105.961 66.8787 108.381Z" fill="#6FA7D1"/>
<path d="M66.3451 108.381C66.3517 110.762 56.5591 112.785 44.46 112.882C32.3676 112.978 22.5552 111.13 22.542 108.749C22.5354 106.368 32.328 104.345 44.4271 104.248C56.5196 104.151 66.332 106 66.3451 108.381Z" fill="#6EA6D0"/>
<path d="M65.8111 108.381C65.8177 110.733 56.1503 112.727 44.216 112.824C32.2817 112.92 22.5945 111.091 22.5879 108.739C22.5813 106.387 32.2487 104.393 44.183 104.296C56.1174 104.199 65.8045 106.029 65.8111 108.381Z" fill="#6CA5D0"/>
<path d="M65.2776 108.391C65.2842 110.714 55.742 112.679 43.9658 112.775C32.1831 112.872 22.6277 111.072 22.6211 108.749C22.6145 106.426 32.1567 104.461 43.9329 104.364C55.7156 104.267 65.271 106.068 65.2776 108.391Z" fill="#6BA5CF"/>
<path d="M64.7441 108.391C64.7507 110.685 55.3403 112.62 43.7157 112.717C32.0911 112.814 22.6609 111.033 22.6543 108.739C22.6477 106.445 32.0581 104.509 43.6827 104.412C55.3073 104.316 64.7375 106.097 64.7441 108.391Z" fill="#6AA4CF"/>
<path d="M64.2096 108.4C64.2162 110.665 54.931 112.572 43.4645 112.668C31.9981 112.765 22.6931 111.004 22.6865 108.748C22.6799 106.483 31.9651 104.577 43.4316 104.48C54.898 104.383 64.203 106.145 64.2096 108.4Z" fill="#68A3CF"/>
<path d="M43.2142 112.61C54.522 112.518 63.6819 110.635 63.6734 108.406C63.6649 106.177 54.4913 104.445 43.1835 104.538C31.8757 104.631 22.7159 106.513 22.7243 108.742C22.7328 110.971 31.9064 112.703 43.2142 112.61Z" fill="#67A2CE"/>
<path d="M63.1486 108.41C63.1552 110.607 54.1204 112.465 42.9703 112.562C31.8202 112.659 22.7722 110.946 22.7656 108.749C22.759 106.551 31.7938 104.693 42.9439 104.596C54.0941 104.499 63.142 106.213 63.1486 108.41Z" fill="#66A1CE"/>
<path d="M62.6151 108.41C62.6217 110.578 53.7187 112.408 42.7201 112.504C31.7282 112.591 22.8054 110.907 22.7988 108.739C22.7922 106.571 31.6952 104.742 42.6938 104.645C53.6858 104.558 62.6085 106.242 62.6151 108.41Z" fill="#65A1CD"/>
<path d="M62.0816 108.41C62.0881 110.549 53.3104 112.349 42.47 112.446C31.6296 112.533 22.8386 110.878 22.832 108.739C22.8254 106.6 31.6032 104.8 42.4436 104.703C53.284 104.606 62.075 106.271 62.0816 108.41Z" fill="#63A0CD"/>
<path d="M61.5473 108.419C61.5539 110.53 52.9013 112.301 42.2257 112.398C31.5434 112.485 22.8777 110.849 22.8711 108.749C22.8645 106.638 31.5171 104.867 42.1927 104.77C52.875 104.683 61.5407 106.319 61.5473 108.419Z" fill="#629FCC"/>
<path d="M41.974 112.34C52.4993 112.254 61.0253 110.502 61.0174 108.428C61.0096 106.354 52.4707 104.743 41.9454 104.829C31.4201 104.915 22.8941 106.667 22.902 108.741C22.9099 110.815 31.4487 112.426 41.974 112.34Z" fill="#619ECC"/>
<path d="M60.4802 108.429C60.4868 110.472 52.0913 112.204 41.7253 112.282C31.3594 112.369 22.9507 110.781 22.9375 108.739C22.9309 106.697 31.3265 104.964 41.6924 104.887C52.0583 104.8 60.4671 106.387 60.4802 108.429Z" fill="#5F9DCC"/>
<path d="M41.4731 112.238C51.6818 112.154 59.9513 110.452 59.9436 108.437C59.936 106.422 51.654 104.856 41.4454 104.94C31.2367 105.023 22.9671 106.725 22.9748 108.74C22.9825 110.756 31.2644 112.321 41.4731 112.238Z" fill="#5E9CCB"/>
<path d="M59.4193 108.439C59.4259 110.423 51.2807 112.097 41.2311 112.175C31.1815 112.262 23.0232 110.723 23.0166 108.739C23.01 106.754 31.1551 105.08 41.2048 105.003C51.2544 104.915 59.4127 106.454 59.4193 108.439Z" fill="#5D9CCB"/>
<path d="M58.8858 108.439C58.8923 110.394 50.879 112.04 40.981 112.117C31.0829 112.194 23.0564 110.684 23.0498 108.729C23.0432 106.774 31.0566 105.129 40.9546 105.051C50.8527 104.974 58.8792 106.484 58.8858 108.439Z" fill="#5B9BCA"/>
<path d="M58.3512 108.439C58.3578 110.355 50.4697 111.982 40.7298 112.059C30.9899 112.136 23.0886 110.646 23.082 108.729C23.0754 106.813 30.9636 105.187 40.7035 105.109C50.4434 105.032 58.3447 106.522 58.3512 108.439Z" fill="#5A9ACA"/>
<path d="M57.8177 108.449C57.8243 110.336 50.0614 111.933 40.4797 112.011C30.8979 112.088 23.1284 110.627 23.1152 108.729C23.1086 106.842 30.8716 105.245 40.4533 105.167C50.035 105.09 57.8045 106.552 57.8177 108.449Z" fill="#5899C9"/>
<path d="M57.2837 108.448C57.2903 110.307 49.6592 111.875 40.2356 111.952C30.812 112.03 23.1677 110.587 23.1611 108.729C23.1545 106.871 30.7857 105.303 40.2092 105.225C49.6328 105.148 57.2771 106.59 57.2837 108.448Z" fill="#5798C9"/>
<path d="M56.757 108.458C56.7636 110.288 49.2577 111.827 39.9923 111.904C30.7269 111.981 23.2078 110.559 23.2012 108.739C23.1946 106.909 30.7005 105.37 39.9659 105.293C49.2313 105.216 56.7504 106.638 56.757 108.458Z" fill="#5697C9"/>
<path d="M56.2225 108.458C56.2291 110.258 48.8484 111.768 39.7411 111.846C30.6339 111.923 23.24 110.53 23.2334 108.729C23.2268 106.929 30.6075 105.419 39.7148 105.341C48.822 105.264 56.2159 106.658 56.2225 108.458Z" fill="#5497C8"/>
<path d="M55.689 108.468C55.6956 110.23 48.4401 111.72 39.491 111.798C30.5353 111.875 23.2732 110.501 23.2666 108.739C23.26 106.977 30.5089 105.487 39.4646 105.409C48.4203 105.332 55.6824 106.706 55.689 108.468Z" fill="#5396C8"/>
<path d="M55.1555 108.468C55.162 110.201 48.0383 111.672 39.2408 111.74C30.4433 111.817 23.3064 110.462 23.2998 108.729C23.2932 106.997 30.4169 105.526 39.2145 105.458C48.012 105.38 55.1489 106.735 55.1555 108.468Z" fill="#5295C7"/>
<path d="M54.6212 108.478C54.6212 110.181 47.6293 111.623 38.9899 111.691C30.3505 111.759 23.3455 110.442 23.3389 108.739C23.3389 107.035 30.3308 105.593 38.9701 105.525C47.6095 105.458 54.6146 106.774 54.6212 108.478Z" fill="#5094C7"/>
<path d="M54.0877 108.478C54.0877 110.152 47.221 111.565 38.7397 111.633C30.2585 111.701 23.3787 110.404 23.3721 108.729C23.3721 107.055 30.2388 105.642 38.72 105.574C47.2012 105.506 54.0811 106.803 54.0877 108.478Z" fill="#4F93C6"/>
<path d="M53.561 108.478C53.561 110.123 46.8261 111.507 38.4964 111.575C30.1734 111.643 23.4187 110.365 23.4121 108.729C23.4121 107.084 30.147 105.7 38.4767 105.632C46.7997 105.564 53.5544 106.842 53.561 108.478Z" fill="#4E92C6"/>
<path d="M53.0267 108.487C53.0267 110.094 46.417 111.459 38.2521 111.527C30.0872 111.594 23.4578 110.346 23.4512 108.729C23.4512 107.123 30.0609 105.758 38.2258 105.69C46.3907 105.622 53.0201 106.871 53.0267 108.487Z" fill="#4C92C5"/>
<path d="M52.4932 108.487C52.4932 110.065 46.0087 111.401 38.002 111.469C29.9886 111.536 23.491 110.307 23.4844 108.729C23.4844 107.152 29.9688 105.816 37.9756 105.748C45.9823 105.681 52.4866 106.91 52.4932 108.487Z" fill="#4B91C5"/>
<path d="M51.9596 108.497C51.9596 110.045 45.607 111.352 37.7518 111.42C29.8966 111.488 23.5242 110.278 23.5176 108.729C23.5176 107.18 29.8703 105.874 37.7254 105.806C45.5806 105.738 51.953 106.948 51.9596 108.497Z" fill="#4990C5"/>
<path d="M51.4254 108.497C51.4254 110.016 45.1979 111.294 37.5009 111.362C29.8039 111.43 23.5632 110.249 23.5566 108.729C23.5566 107.21 29.7841 105.932 37.4811 105.864C45.1781 105.796 51.4188 106.977 51.4254 108.497Z" fill="#488FC4"/>
<path d="M50.8919 108.506C50.8919 109.997 44.7896 111.246 37.2507 111.313C29.7119 111.371 23.5964 110.22 23.5898 108.739C23.5898 107.248 29.6921 106 37.231 105.932C44.7698 105.874 50.8853 107.026 50.8919 108.506Z" fill="#478EC4"/>
<path d="M50.3583 108.507C50.3583 109.959 44.3813 111.188 37.0006 111.256C29.6199 111.323 23.6296 110.191 23.6231 108.729C23.6165 107.268 29.6001 106.048 36.9808 105.98C44.3615 105.913 50.3517 107.045 50.3583 108.507Z" fill="#458DC3"/>
<path d="M36.7508 111.212C43.9751 111.152 49.8272 109.947 49.8218 108.52C49.8163 107.093 43.9555 105.984 36.7312 106.043C29.5069 106.102 23.6548 107.307 23.6602 108.735C23.6656 110.162 29.5265 111.271 36.7508 111.212Z" fill="#448CC3"/>
<path d="M49.2971 108.516C49.2971 109.91 43.5771 111.091 36.5061 111.149C29.4351 111.207 23.7019 110.123 23.6953 108.729C23.6953 107.335 29.4154 106.155 36.4863 106.096C43.5573 106.038 49.2905 107.122 49.2971 108.516Z" fill="#428CC2"/>
<path d="M48.7631 108.516C48.7631 109.881 43.1683 111.033 36.262 111.091C29.3492 111.149 23.7412 110.094 23.7412 108.729C23.7412 107.365 29.336 106.213 36.2423 106.155C43.1551 106.097 48.7631 107.152 48.7631 108.516Z" fill="#418BC2"/>
<path d="M48.2296 108.526C48.2296 109.862 42.7665 110.985 36.0119 111.043C29.2572 111.101 23.781 110.065 23.7744 108.729C23.7744 107.394 29.2375 106.271 35.9921 106.213C42.7468 106.155 48.223 107.19 48.2296 108.526Z" fill="#3F8AC1"/>
<path d="M47.6961 108.526C47.6961 109.823 42.3582 110.927 35.7617 110.985C29.1652 111.043 23.8142 110.026 23.8076 108.729C23.8076 107.432 29.1454 106.329 35.7419 106.271C42.3385 106.213 47.6895 107.229 47.6961 108.526Z" fill="#3E89C1"/>
<path d="M47.1615 108.535C47.1615 109.803 41.9489 110.878 35.5106 110.936C29.0722 110.994 23.8464 110.007 23.8398 108.729C23.8333 107.451 29.0525 106.387 35.4908 106.329C41.9292 106.271 47.155 107.258 47.1615 108.535Z" fill="#3D88C0"/>
<path d="M46.6349 108.536C46.6349 109.775 41.5474 110.82 35.2673 110.868C28.9871 110.917 23.8865 109.959 23.8799 108.72C23.8799 107.481 28.9673 106.435 35.2475 106.387C41.5277 106.339 46.6283 107.297 46.6349 108.536Z" fill="#3B87C0"/>
<path d="M46.1006 108.536C46.1006 109.746 41.145 110.762 35.0164 110.81C28.8877 110.859 23.9189 109.92 23.9189 108.72C23.9189 107.51 28.8746 106.494 35.0032 106.445C41.1318 106.397 46.1006 107.336 46.1006 108.536Z" fill="#3A86C0"/>
<path d="M45.5671 108.545C45.5671 109.726 40.7367 110.713 34.7662 110.762C28.7957 110.81 23.9521 109.9 23.9521 108.719C23.9521 107.538 28.7826 106.551 34.753 106.503C40.7235 106.454 45.5671 107.364 45.5671 108.545Z" fill="#3885BF"/>
<path d="M45.0335 108.545C45.0335 109.687 40.3283 110.655 34.516 110.704C28.7037 110.752 23.9919 109.862 23.9854 108.719C23.9854 107.577 28.6905 106.609 34.5029 106.561C40.3152 106.513 45.0269 107.403 45.0335 108.545Z" fill="#3784BF"/>
<path d="M44.4993 108.555C44.4993 109.668 39.9259 110.617 34.2717 110.655C28.6176 110.694 24.031 109.833 24.0244 108.719C24.0178 107.606 28.5978 106.658 34.252 106.619C39.9061 106.571 44.4927 107.442 44.4993 108.555Z" fill="#3584BE"/>
<path d="M43.9657 108.555C43.9657 109.639 39.5176 110.559 34.0216 110.597C28.5256 110.646 24.0642 109.804 24.0576 108.72C24.0576 107.636 28.5058 106.716 34.0018 106.677C39.4978 106.629 43.9592 107.471 43.9657 108.555Z" fill="#3483BE"/>
<path d="M43.4383 108.565C43.4383 109.62 39.1153 110.51 33.7775 110.549C28.4397 110.597 24.1035 109.775 24.1035 108.72C24.1035 107.665 28.4265 106.774 33.7643 106.735C39.1022 106.687 43.4383 107.51 43.4383 108.565Z" fill="#3282BD"/>
<path d="M42.9048 108.565C42.9048 109.591 38.707 110.452 33.5273 110.491C28.3411 110.53 24.1367 109.736 24.1367 108.72C24.1367 107.694 28.3345 106.832 33.5142 106.793C38.7004 106.755 42.9048 107.548 42.9048 108.565Z" fill="#3181BD"/>
<path d="M42.3713 108.574C42.3713 109.562 38.3053 110.404 33.2772 110.442C28.2491 110.481 24.1699 109.717 24.1699 108.72C24.1699 107.732 28.2359 106.89 33.264 106.852C38.2921 106.813 42.3647 107.577 42.3713 108.574Z" fill="#2F80BC"/>
<path d="M41.8368 108.574C41.8368 109.533 37.896 110.346 33.026 110.384C28.1561 110.423 24.2087 109.678 24.2021 108.72C24.2021 107.761 28.1429 106.948 33.0129 106.91C37.8828 106.871 41.8302 107.616 41.8368 108.574Z" fill="#2E7FBC"/>
<path d="M41.3032 108.574C41.3032 109.504 37.4877 110.288 32.7759 110.326C28.0641 110.365 24.2419 109.639 24.2354 108.71C24.2288 107.781 28.0509 106.997 32.7627 106.958C37.4745 106.919 41.2966 107.645 41.3032 108.574Z" fill="#2C7EBB"/>
<path d="M40.7699 108.584C40.7699 109.484 37.0862 110.239 32.526 110.278C27.9723 110.316 24.2754 109.619 24.2754 108.719C24.2754 107.819 27.9592 107.064 32.5194 107.025C37.073 106.987 40.7699 107.684 40.7765 108.584H40.7699Z" fill="#2B7DBB"/>
<path d="M40.2425 108.584C40.2425 109.455 36.684 110.181 32.2885 110.22C27.893 110.258 24.3213 109.581 24.3213 108.719C24.3213 107.848 27.8798 107.122 32.2753 107.084C36.6708 107.045 40.2425 107.722 40.2425 108.584Z" fill="#2A7CBA"/>
<path d="M39.709 108.594C39.709 109.426 36.2756 110.133 32.0383 110.171C27.801 110.21 24.3545 109.562 24.3545 108.719C24.3545 107.887 27.7878 107.181 32.0252 107.142C36.2691 107.103 39.709 107.752 39.709 108.594Z" fill="#287BBA"/>
<path d="M39.1745 108.594C39.1745 109.397 35.8663 110.074 31.7872 110.113C27.7014 110.142 24.3933 109.523 24.3867 108.719C24.3867 107.916 27.6949 107.238 31.774 107.2C35.8598 107.171 39.1679 107.79 39.1745 108.594Z" fill="#277BB9"/>
<path d="M38.641 108.603C38.641 109.378 35.4646 110.036 31.537 110.065C27.6094 110.094 24.4265 109.494 24.4199 108.719C24.4133 107.945 27.5963 107.287 31.5239 107.258C35.4514 107.229 38.6344 107.829 38.641 108.603Z" fill="#257AB9"/>
<path d="M38.1074 108.603C38.1074 109.349 35.0563 109.978 31.2869 110.007C27.5174 110.036 24.4597 109.465 24.4531 108.719C24.4531 107.974 27.5043 107.345 31.2737 107.316C35.0431 107.287 38.1008 107.858 38.1074 108.603Z" fill="#2479B8"/>
<path d="M37.5732 108.603C37.5732 109.32 34.6472 109.92 31.036 109.949C27.4247 109.978 24.4922 109.426 24.4922 108.71C24.4922 107.994 27.4181 107.393 31.0294 107.364C34.6407 107.335 37.5732 107.887 37.5732 108.603Z" fill="#2278B8"/>
<path d="M37.0396 108.613C37.0396 109.291 34.2455 109.871 30.7858 109.9C27.3261 109.93 24.5254 109.397 24.5254 108.72C24.5254 108.042 27.3195 107.461 30.7792 107.432C34.2323 107.403 37.0396 107.936 37.0396 108.613Z" fill="#2177B7"/>
<path d="M36.5129 108.613C36.5129 109.262 33.844 109.813 30.5425 109.842C27.2409 109.871 24.5654 109.368 24.5654 108.71C24.5654 108.061 27.2343 107.51 30.5359 107.481C33.8374 107.452 36.5129 107.955 36.5129 108.613Z" fill="#1F76B7"/>
<path d="M35.9787 108.623C35.9787 109.242 33.435 109.765 30.2982 109.794C27.1548 109.823 24.6111 109.339 24.6045 108.72C24.5979 108.1 27.1482 107.578 30.285 107.549C33.4284 107.52 35.9721 108.004 35.9787 108.623Z" fill="#1E75B6"/>
<path d="M35.4452 108.623C35.4452 109.213 33.0267 109.707 30.048 109.736C27.0628 109.765 24.6443 109.3 24.6377 108.719C24.6311 108.139 27.0562 107.635 30.0348 107.606C33.0201 107.577 35.4386 108.042 35.4452 108.623Z" fill="#1C74B6"/>
<path d="M34.9109 108.632C34.9109 109.194 32.6242 109.658 29.7971 109.687C26.97 109.716 24.6768 109.281 24.6768 108.719C24.6768 108.158 26.9635 107.693 29.7905 107.664C32.6176 107.635 34.9109 108.071 34.9109 108.632Z" fill="#1A73B6"/>
<path d="M34.3774 108.633C34.3774 109.155 32.2159 109.601 29.547 109.63C26.878 109.649 24.71 109.242 24.71 108.72C24.71 108.197 26.8715 107.752 29.5404 107.723C32.2093 107.703 34.3774 108.11 34.3774 108.633Z" fill="#1972B5"/>
<path d="M33.8438 108.642C33.8438 109.136 31.8076 109.552 29.2968 109.581C26.786 109.6 24.7432 109.213 24.7432 108.719C24.7432 108.226 26.7794 107.81 29.2902 107.78C31.801 107.761 33.8438 108.148 33.8438 108.642Z" fill="#1771B5"/>
<path d="M33.3162 108.642C33.3162 109.107 31.4117 109.503 29.0525 109.523C26.6933 109.542 24.7822 109.184 24.7822 108.719C24.7822 108.255 26.6867 107.858 29.0459 107.839C31.4051 107.819 33.3162 108.177 33.3162 108.642Z" fill="#1670B4"/>
<path d="M32.7827 108.642C32.7827 109.078 31.0034 109.445 28.8023 109.465C26.6013 109.484 24.822 109.145 24.8154 108.71C24.8089 108.274 26.5947 107.906 28.7958 107.887C30.9968 107.868 32.7761 108.206 32.7827 108.642Z" fill="#146FB4"/>
<path d="M32.2494 108.652C32.2494 109.058 30.5953 109.397 28.5524 109.407C26.5095 109.426 24.8555 109.107 24.8555 108.71C24.8555 108.303 26.5095 107.965 28.5524 107.955C30.5953 107.936 32.2494 108.255 32.2494 108.652Z" fill="#136EB3"/>
<path d="M31.7148 108.652C31.7148 109.019 30.1926 109.339 28.3013 109.349C26.4166 109.368 24.8877 109.078 24.8877 108.7C24.8877 108.332 26.41 108.013 28.2947 108.003C30.1794 107.993 31.7083 108.274 31.7083 108.652H31.7148Z" fill="#116EB3"/>
<path d="M31.1816 108.661C31.1816 109 29.7845 109.291 28.0579 109.3C26.3314 109.31 24.9277 109.049 24.9277 108.71C24.9277 108.371 26.3248 108.081 28.0514 108.071C29.7779 108.061 31.1816 108.323 31.1816 108.661Z" fill="#106DB2"/>
<path d="M30.6471 108.661C30.6471 108.971 29.3752 109.233 27.8068 109.242C26.2384 109.252 24.96 109.01 24.96 108.7C24.96 108.39 26.2318 108.129 27.8002 108.119C29.3686 108.11 30.6471 108.352 30.6471 108.661Z" fill="#0E6CB2"/>
<path d="M30.1204 108.671C30.1204 108.952 28.9737 109.184 27.5635 109.194C26.1466 109.204 25 108.991 25 108.71C25 108.429 26.1466 108.197 27.5569 108.187C28.9737 108.178 30.1204 108.391 30.1204 108.671Z" fill="#0D6BB1"/>
<path d="M29.5869 108.671C29.5869 108.923 28.572 109.126 27.3133 109.136C26.0547 109.146 25.0398 108.952 25.0332 108.71C25.0266 108.468 26.0481 108.255 27.3068 108.245C28.5654 108.236 29.5803 108.429 29.5869 108.671Z" fill="#0B6AB1"/>
<path d="M29.0526 108.671C29.0526 108.884 28.1629 109.068 27.0624 109.077C25.9619 109.077 25.0723 108.923 25.0723 108.7C25.0723 108.487 25.9619 108.303 27.0624 108.293C28.1629 108.293 29.0526 108.448 29.0526 108.671Z" fill="#0969B0"/>
<path d="M28.519 108.681C28.519 108.865 27.7546 109.02 26.8123 109.029C25.8699 109.039 25.1055 108.894 25.1055 108.71C25.1055 108.526 25.8699 108.371 26.8123 108.361C27.7546 108.361 28.519 108.497 28.519 108.681Z" fill="#0868B0"/>
<path d="M27.9855 108.681C27.9855 108.836 27.3529 108.971 26.5621 108.971C25.7713 108.971 25.1387 108.855 25.1387 108.7C25.1387 108.545 25.7713 108.41 26.5621 108.41C27.3463 108.41 27.9855 108.526 27.9855 108.681Z" fill="#0667AF"/>
<path d="M27.451 108.69C27.451 108.816 26.9436 108.923 26.311 108.923C25.6849 108.923 25.1709 108.836 25.1709 108.71C25.1709 108.584 25.6783 108.478 26.311 108.478C26.937 108.478 27.451 108.565 27.451 108.69Z" fill="#0566AF"/>
<path d="M26.9177 108.69C26.9177 108.787 26.5355 108.865 26.0676 108.865C25.5932 108.865 25.2109 108.797 25.2109 108.7C25.2109 108.603 25.5932 108.526 26.061 108.526C26.5355 108.526 26.9177 108.594 26.9177 108.69Z" fill="#0365AE"/>
<path d="M26.3903 108.7C26.3903 108.758 26.1333 108.816 25.8236 108.816C25.5138 108.816 25.2568 108.768 25.2568 108.71C25.2568 108.652 25.5138 108.594 25.8236 108.594C26.1333 108.594 26.3903 108.642 26.3903 108.7Z" fill="#0264AE"/>
<path d="M25.8568 108.7C25.8568 108.7 25.7316 108.758 25.5734 108.758C25.4152 108.758 25.29 108.739 25.29 108.7C25.29 108.671 25.4152 108.642 25.5734 108.642C25.7316 108.642 25.8568 108.661 25.8568 108.7Z" fill="#0063AD"/>
</g>
</g>
<g opacity="0.67">
<path d="M34.8399 113.464C50.5514 113.464 63.2881 106.124 63.2881 97.0689C63.2881 88.0141 50.5514 80.6738 34.8399 80.6738C19.1283 80.6738 6.3916 88.0141 6.3916 97.0689C6.3916 106.124 19.1283 113.464 34.8399 113.464Z" fill="#242993"/>
</g>
<path d="M69.6783 84.7058V76.9905H67.0069C65.3074 74.6318 62.799 72.4241 59.4758 70.5069C45.8686 62.6637 23.8107 62.6637 10.2035 70.5069C6.88024 72.4241 4.37181 74.6318 2.67237 76.9905H0.000976562V84.7058C0.000976562 89.8474 3.40569 94.9832 10.2035 98.9048C23.8107 106.748 45.8686 106.748 59.4758 98.9048C66.2794 94.9832 69.6783 89.8474 69.6783 84.7058Z" fill="url(#paint0_linear_6610_6200)"/>
<path d="M34.8396 97.0689C54.0805 97.0689 69.6783 88.0795 69.6783 76.9905C69.6783 65.9015 54.0805 56.9121 34.8396 56.9121C15.5988 56.9121 0.000976562 65.9015 0.000976562 76.9905C0.000976562 88.0795 15.5988 97.0689 34.8396 97.0689Z" fill="#BCD5FF"/>
<path d="M67.018 76.6938V66.1607H64.5503C62.9789 63.9821 60.6626 61.9429 57.5954 60.1767C45.03 52.932 24.6599 52.932 12.0945 60.1767C9.02152 61.9487 6.70515 63.9879 5.13956 66.1607H2.67188V76.6938C2.67188 81.4403 5.81469 86.1868 12.0945 89.8063C24.6599 97.051 45.03 97.051 57.5954 89.8063C63.881 86.1868 67.018 81.4403 67.018 76.6938Z" fill="#242993"/>
<g opacity="0.51">
<path d="M67.018 74.161V63.628H64.5503C62.9789 61.4494 60.6626 59.4102 57.5954 57.644C45.03 50.3993 24.6599 50.3993 12.0945 57.644C9.02152 59.416 6.70515 61.4552 5.13956 63.628H2.67188V74.161C2.67188 78.9076 5.81469 83.6541 12.0945 87.2736C24.6599 94.5183 45.03 94.5183 57.5954 87.2736C63.881 83.6541 67.018 78.9076 67.018 74.161Z" fill="#4553C7"/>
</g>
<path d="M34.8391 84.7114C52.6078 84.7114 67.0122 76.4086 67.0122 66.1667C67.0122 55.9248 52.6078 47.6221 34.8391 47.6221C17.0704 47.6221 2.66602 55.9248 2.66602 66.1667C2.66602 76.4086 17.0704 84.7114 34.8391 84.7114Z" fill="#BCD5FF"/>
<g opacity="0.51">
<path d="M57.0083 79.8081C51.4792 86.8379 44.1809 90.5968 38.0117 92.6128C45.1587 92.2061 52.1194 90.4283 57.5903 87.2736C63.8759 83.6542 67.0129 78.9076 67.0129 74.1611V71.0122C63.7595 72.8307 60.3082 75.6019 57.0024 79.8081H57.0083Z" fill="#5368D8"/>
</g>
<path d="M69.6783 65.9983V58.283H67.0069C65.3074 55.9242 62.799 53.7165 59.4758 51.7993C45.8686 43.9562 23.8107 43.9562 10.2035 51.7993C6.88024 53.7165 4.37181 55.9242 2.67237 58.283H0.000976562V65.9983C0.000976562 71.1399 3.40569 76.2757 10.2035 80.1973C23.8107 88.0404 45.8686 88.0404 59.4758 80.1973C66.2794 76.2757 69.6783 71.1399 69.6783 65.9983Z" fill="url(#paint1_linear_6610_6200)"/>
<path d="M34.8396 78.3555C54.0805 78.3555 69.6783 69.3661 69.6783 58.2771C69.6783 47.1881 54.0805 38.1987 34.8396 38.1987C15.5988 38.1987 0.000976562 47.1881 0.000976562 58.2771C0.000976562 69.3661 15.5988 78.3555 34.8396 78.3555Z" fill="#BCD5FF"/>
<path d="M67.018 57.5976V47.0645H64.5503C62.9789 44.8859 60.6626 42.8467 57.5954 41.0805C45.03 33.8358 24.6599 33.8358 12.0945 41.0805C9.02152 42.8525 6.70515 44.8917 5.13956 47.0645H2.67188V57.5976C2.67188 62.3441 5.81469 67.0907 12.0945 70.7101C24.6599 77.9548 45.03 77.9548 57.5954 70.7101C63.881 67.0907 67.018 62.3441 67.018 57.5976Z" fill="#242993"/>
<g opacity="0.51">
<path d="M67.018 55.1864V44.6534H64.5503C62.9789 42.4748 60.6626 40.4355 57.5954 38.6694C45.03 31.4247 24.6599 31.4247 12.0945 38.6694C9.02152 40.4414 6.70515 42.4806 5.13956 44.6534H2.67188V55.1864C2.67188 59.933 5.81469 64.6795 12.0945 68.299C24.6599 75.5437 45.03 75.5437 57.5954 68.299C63.881 64.6795 67.018 59.933 67.018 55.1864Z" fill="#4553C7"/>
</g>
<path d="M34.8391 65.6093C52.6078 65.6093 67.0122 57.3066 67.0122 47.0647C67.0122 36.8227 52.6078 28.52 34.8391 28.52C17.0704 28.52 2.66602 36.8227 2.66602 47.0647C2.66602 57.3066 17.0704 65.6093 34.8391 65.6093Z" fill="#BCD5FF"/>
<g opacity="0.51">
<path d="M57.0078 59.7241C50.1285 68.4677 40.5313 72.1511 33.751 73.7023C42.3471 73.8708 51.0306 72.0814 57.5898 68.2992C63.8754 64.6798 67.0124 59.9332 67.0124 55.1867V50.9224C63.759 52.7408 60.3077 55.512 57.002 59.7183L57.0078 59.7241Z" fill="#5368D8"/>
</g>
<path d="M69.6783 46.8963V39.1809H67.0069C65.3074 36.8222 62.799 34.6145 59.4758 32.6973C45.8686 24.8542 23.8107 24.8542 10.2035 32.6973C6.88024 34.6145 4.37181 36.8222 2.67237 39.1809H0.000976562V46.8963C0.000976562 52.0321 3.40569 57.1737 10.2035 61.0952C23.8107 68.9384 45.8686 68.9384 59.4758 61.0952C66.2794 57.1737 69.6783 52.0379 69.6783 46.8963Z" fill="url(#paint2_linear_6610_6200)"/>
<path d="M34.8396 59.2594C54.0805 59.2594 69.6783 50.27 69.6783 39.181C69.6783 28.092 54.0805 19.1025 34.8396 19.1025C15.5988 19.1025 0.000976562 28.092 0.000976562 39.181C0.000976562 50.27 15.5988 59.2594 34.8396 59.2594Z" fill="#BCD5FF"/>
<path d="M67.018 38.495V27.962H64.5503C62.9789 25.7833 60.6626 23.7441 57.5954 21.978C45.03 14.7333 24.6599 14.7333 12.0945 21.978C9.02152 23.7499 6.70515 25.7892 5.13956 27.962H2.67188V38.495C2.67188 43.2416 5.81469 47.9881 12.0945 51.6076C24.6599 58.8523 45.03 58.8523 57.5954 51.6076C63.881 47.9881 67.018 43.2416 67.018 38.495Z" fill="#242993"/>
<g opacity="0.51">
<path d="M67.018 35.5497V25.0167H64.5503C62.9789 22.838 60.6626 20.7988 57.5954 19.0327C45.03 11.7879 24.6599 11.7879 12.0945 19.0327C9.02152 20.8046 6.70515 22.8438 5.13956 25.0167H2.67188V35.5497C2.67188 40.2963 5.81469 45.0428 12.0945 48.6623C24.6599 55.907 45.03 55.907 57.5954 48.6623C63.881 45.0428 67.018 40.2963 67.018 35.5497Z" fill="#4553C7"/>
</g>
<path d="M34.8391 46.5068C52.6078 46.5068 67.0122 38.204 67.0122 27.9621C67.0122 17.7202 52.6078 9.41748 34.8391 9.41748C17.0704 9.41748 2.66602 17.7202 2.66602 27.9621C2.66602 38.204 17.0704 46.5068 34.8391 46.5068Z" fill="#BCD5FF"/>
<path d="M69.6783 27.7937V20.0784H67.0069C65.3074 17.7197 62.799 15.512 59.4758 13.5947C45.8686 5.75162 23.8107 5.75162 10.2035 13.5947C6.88024 15.512 4.37181 17.7197 2.67237 20.0784H0.000976562V27.7937C0.000976562 32.9295 3.40569 38.0711 10.2035 41.9927C23.8107 49.8358 45.8686 49.8358 59.4758 41.9927C66.2794 38.0711 69.6783 32.9353 69.6783 27.7937Z" fill="url(#paint3_linear_6610_6200)"/>
<path d="M34.8396 40.1568C54.0805 40.1568 69.6783 31.1674 69.6783 20.0784C69.6783 8.98941 54.0805 0 34.8396 0C15.5988 0 0.000976562 8.98941 0.000976562 20.0784C0.000976562 31.1674 15.5988 40.1568 34.8396 40.1568Z" fill="#BCD5FF"/>
<path d="M34.8396 40.1568C54.0805 40.1568 69.6783 31.1674 69.6783 20.0784C69.6783 8.98941 54.0805 0 34.8396 0C15.5988 0 0.000976562 8.98941 0.000976562 20.0784C0.000976562 31.1674 15.5988 40.1568 34.8396 40.1568Z" fill="#BCD5FF"/>
<g opacity="0.51">
<path d="M57.0076 39.6338C49.4532 49.2373 38.6163 52.7347 31.8418 54.0129C41.0432 54.5067 50.5473 52.7231 57.5896 48.6621C63.8752 45.0427 67.0122 40.2961 67.0122 35.5496V30.8379C63.7588 32.6563 60.3075 35.4276 57.0017 39.6338H57.0076Z" fill="#5368D8"/>
</g>
<path d="M69.6783 27.7937V20.0784H67.0069C65.3074 17.7197 62.799 15.512 59.4758 13.5947C45.8686 5.75162 23.8107 5.75162 10.2035 13.5947C6.88024 15.512 4.37181 17.7197 2.67237 20.0784H0.000976562V27.7937C0.000976562 32.9295 3.40569 38.0711 10.2035 41.9927C23.8107 49.8358 45.8686 49.8358 59.4758 41.9927C66.2794 38.0711 69.6783 32.9353 69.6783 27.7937Z" fill="url(#paint4_linear_6610_6200)"/>
<path d="M34.8396 40.1568C54.0805 40.1568 69.6783 31.1674 69.6783 20.0784C69.6783 8.98941 54.0805 0 34.8396 0C15.5988 0 0.000976562 8.98941 0.000976562 20.0784C0.000976562 31.1674 15.5988 40.1568 34.8396 40.1568Z" fill="#BCD5FF"/>
<path d="M34.8396 40.1568C54.0805 40.1568 69.6783 31.1674 69.6783 20.0784C69.6783 8.98941 54.0805 0 34.8396 0C15.5988 0 0.000976562 8.98941 0.000976562 20.0784C0.000976562 31.1674 15.5988 40.1568 34.8396 40.1568Z" fill="#BCD5FF"/>
<path d="M59.6732 33.6675C46.066 41.5107 24.0082 41.5107 10.401 33.6675C2.06668 28.8629 -1.15179 22.234 0.722258 16.0176C-1.55919 22.4083 1.60108 29.316 10.2031 34.2775C23.8103 42.1207 45.8682 42.1207 59.4754 34.2775C64.7483 31.2391 67.9668 27.4685 69.1541 23.5296C67.8271 27.242 64.6726 30.7859 59.6732 33.6675Z" fill="white"/>
<path d="M59.6732 52.7696C46.066 60.6127 24.0082 60.6127 10.401 52.7696C2.06668 47.9649 -1.15179 41.336 0.722258 35.1196C-1.55919 41.5103 1.60108 48.4181 10.2031 53.3796C23.8103 61.2227 45.8682 61.2227 59.4754 53.3796C64.7483 50.3411 67.9668 46.5706 69.1541 42.6316C67.8271 46.344 64.6726 49.888 59.6732 52.7696Z" fill="white"/>
<path d="M59.6732 71.8721C46.066 79.7152 24.0082 79.7152 10.401 71.8721C2.06668 67.0675 -1.15179 60.4386 0.722258 54.2222C-1.55919 60.6129 1.60108 67.5206 10.2031 72.4821C23.8103 80.3253 45.8682 80.3253 59.4754 72.4821C64.7483 69.4436 67.9668 65.6731 69.1541 61.7341C67.8271 65.4466 64.6726 68.9905 59.6732 71.8721Z" fill="white"/>
<path d="M59.6732 90.9688C46.066 98.8119 24.0082 98.8119 10.401 90.9688C2.06668 86.1642 -1.15179 79.5353 0.722258 73.3188C-1.55919 79.7095 1.60108 86.6173 10.2031 91.5788C23.8103 99.422 45.8682 99.422 59.4754 91.5788C64.7483 88.5403 67.9668 84.7698 69.1541 80.8308C67.8271 84.5432 64.6726 88.0872 59.6732 90.9688Z" fill="white"/>
<path opacity="0.78" d="M3.20775 28.5084H34.8396V9.88818H4.80826C-1.01758 15.5817 -1.54721 22.5766 3.20775 28.5084Z" fill="url(#paint5_linear_6610_6200)"/>
<path d="M52.7307 18.2019V14.2397H51.3572C50.4842 13.0313 49.198 11.8984 47.4927 10.9107C40.5087 6.88458 29.1829 6.88458 22.1931 10.9107C20.4878 11.8926 19.1957 13.0313 18.3227 14.2397H16.9492V18.2019C16.9492 20.8395 18.6952 23.4772 22.1872 25.4931C29.1713 29.5193 40.497 29.5193 47.4869 25.4931C50.9789 23.4772 52.7249 20.8395 52.7249 18.2019H52.7307Z" fill="url(#paint6_linear_6610_6200)"/>
<path d="M34.84 24.546C44.7207 24.546 52.7307 19.9317 52.7307 14.2396C52.7307 8.54746 44.7207 3.93311 34.84 3.93311C24.9592 3.93311 16.9492 8.54746 16.9492 14.2396C16.9492 19.9317 24.9592 24.546 34.84 24.546Z" fill="#BCD5FF"/>
<path d="M34.84 24.546C44.7207 24.546 52.7307 19.9317 52.7307 14.2396C52.7307 8.54746 44.7207 3.93311 34.84 3.93311C24.9592 3.93311 16.9492 8.54746 16.9492 14.2396C16.9492 19.9317 24.9592 24.546 34.84 24.546Z" fill="url(#paint7_linear_6610_6200)"/>
<path d="M43.3542 19.1489C38.6516 21.8621 31.0274 21.8621 26.319 19.1489C24.8524 18.3007 23.8397 17.2898 23.2868 16.2208C22.0704 13.8563 25.1085 12.1482 28.3444 10.2833C33.047 7.57015 36.3818 6.90204 41.0902 9.60937C44.3262 11.4743 47.597 13.8563 46.3864 16.2208C45.8335 17.2956 44.8267 18.3065 43.3542 19.1547V19.1489Z" fill="#242993"/>
<path d="M26.3252 13.2925C31.0278 10.5794 38.652 10.5794 43.3604 13.2925C44.8271 14.1407 45.8398 15.1458 46.3868 16.2206C47.6032 13.856 46.5964 11.1952 43.3604 9.33027C38.6579 6.61712 31.0336 6.61712 26.3252 9.33027C23.0893 11.1952 22.0824 13.856 23.2988 16.2206C23.8517 15.1516 24.8586 14.1407 26.3252 13.2925Z" fill="url(#paint8_linear_6610_6200)"/>
<g opacity="0.51">
<path d="M54.4531 49.3828C52.1076 50.3066 50.3558 50.0567 50.5362 48.8251C50.7225 47.5934 52.7711 45.8505 55.1166 44.9268C57.462 44.003 59.2139 44.2528 59.0334 45.4845C58.8472 46.7162 56.7986 48.4591 54.4531 49.3828Z" fill="#677EEA"/>
</g>
<g opacity="0.51">
<path d="M54.4531 68.7578C52.1076 69.6816 50.3558 69.4317 50.5362 68.2001C50.7225 66.9684 52.7711 65.2255 55.1166 64.3018C57.462 63.378 59.2139 63.6278 59.0334 64.8595C58.8472 66.0912 56.7986 67.8341 54.4531 68.7578Z" fill="#677EEA"/>
</g>
<g opacity="0.51">
<path d="M54.581 88.2554C52.2355 89.1791 50.4837 88.9293 50.6641 87.6976C50.8504 86.466 52.899 84.7231 55.2445 83.7993C57.59 82.8756 59.3418 83.1254 59.1614 84.3571C58.9751 85.5887 56.9265 87.3316 54.581 88.2554Z" fill="#677EEA"/>
</g>
<g opacity="0.51">
<path d="M61.1343 44.5199C60.5814 44.9149 59.8888 44.8917 59.592 44.4734C59.2893 44.0551 59.4988 43.3928 60.0517 43.0035C60.6046 42.6085 61.2972 42.6317 61.594 43.05C61.8967 43.4683 61.6872 44.1306 61.1343 44.5199Z" fill="#677EEA"/>
</g>
<g opacity="0.51">
<path d="M61.1343 63.9823C60.5814 64.3773 59.8888 64.3541 59.592 63.9358C59.2893 63.5175 59.4988 62.8552 60.0517 62.4659C60.6046 62.0709 61.2972 62.0941 61.594 62.5124C61.8967 62.9307 61.6872 63.593 61.1343 63.9823Z" fill="#677EEA"/>
</g>
<g opacity="0.51">
<path d="M61.1343 83.3753C60.5814 83.7704 59.8888 83.7472 59.592 83.3289C59.2893 82.9106 59.4988 82.2482 60.0517 81.859C60.6046 81.4639 61.2972 81.4872 61.594 81.9055C61.8967 82.3238 61.6872 82.9861 61.1343 83.3753Z" fill="#677EEA"/>
</g>
<defs>
<linearGradient id="paint0_linear_6610_6200" x1="0.000976562" y1="84.7058" x2="69.6783" y2="84.7058" gradientUnits="userSpaceOnUse">
<stop stop-color="#5778FF"/>
<stop offset="0.18" stop-color="#5B7CFF"/>
<stop offset="0.39" stop-color="#6A89FF"/>
<stop offset="0.61" stop-color="#819FFF"/>
<stop offset="0.85" stop-color="#A2BDFF"/>
<stop offset="1" stop-color="#BCD5FF"/>
</linearGradient>
<linearGradient id="paint1_linear_6610_6200" x1="-4.16034" y1="65.9983" x2="-3.57834" y2="65.9983" gradientUnits="userSpaceOnUse">
<stop stop-color="#5778FF"/>
<stop offset="0.18" stop-color="#5B7CFF"/>
<stop offset="0.39" stop-color="#6A89FF"/>
<stop offset="0.61" stop-color="#819FFF"/>
<stop offset="0.85" stop-color="#A2BDFF"/>
<stop offset="1" stop-color="#BCD5FF"/>
</linearGradient>
<linearGradient id="paint2_linear_6610_6200" x1="-4.16034" y1="46.8963" x2="-3.57834" y2="46.8963" gradientUnits="userSpaceOnUse">
<stop stop-color="#5778FF"/>
<stop offset="0.18" stop-color="#5B7CFF"/>
<stop offset="0.39" stop-color="#6A89FF"/>
<stop offset="0.61" stop-color="#819FFF"/>
<stop offset="0.85" stop-color="#A2BDFF"/>
<stop offset="1" stop-color="#BCD5FF"/>
</linearGradient>
<linearGradient id="paint3_linear_6610_6200" x1="-4.16034" y1="27.7937" x2="-3.57834" y2="27.7937" gradientUnits="userSpaceOnUse">
<stop stop-color="#5778FF"/>
<stop offset="0.18" stop-color="#5B7CFF"/>
<stop offset="0.39" stop-color="#6A89FF"/>
<stop offset="0.61" stop-color="#819FFF"/>
<stop offset="0.85" stop-color="#A2BDFF"/>
<stop offset="1" stop-color="#BCD5FF"/>
</linearGradient>
<linearGradient id="paint4_linear_6610_6200" x1="-4.16034" y1="27.7937" x2="-3.57834" y2="27.7937" gradientUnits="userSpaceOnUse">
<stop stop-color="#5778FF"/>
<stop offset="0.18" stop-color="#5B7CFF"/>
<stop offset="0.39" stop-color="#6A89FF"/>
<stop offset="0.61" stop-color="#819FFF"/>
<stop offset="0.85" stop-color="#A2BDFF"/>
<stop offset="1" stop-color="#BCD5FF"/>
</linearGradient>
<linearGradient id="paint5_linear_6610_6200" x1="0.000919866" y1="19.2012" x2="34.8396" y2="19.2012" gradientUnits="userSpaceOnUse">
<stop stop-color="#E9FFFF"/>
<stop offset="0.04" stop-color="#D3EAFF"/>
<stop offset="0.11" stop-color="#B2CCFF"/>
<stop offset="0.18" stop-color="#95B1FF"/>
<stop offset="0.27" stop-color="#7E9CFF"/>
<stop offset="0.36" stop-color="#6C8CFF"/>
<stop offset="0.48" stop-color="#6080FF"/>
<stop offset="0.64" stop-color="#5979FF"/>
<stop offset="1" stop-color="#5778FF"/>
</linearGradient>
<linearGradient id="paint6_linear_6610_6200" x1="16.955" y1="18.2019" x2="52.7307" y2="18.2019" gradientUnits="userSpaceOnUse">
<stop stop-color="#5778FF"/>
<stop offset="0.18" stop-color="#5B7CFF"/>
<stop offset="0.39" stop-color="#6A89FF"/>
<stop offset="0.61" stop-color="#819FFF"/>
<stop offset="0.85" stop-color="#A2BDFF"/>
<stop offset="1" stop-color="#BCD5FF"/>
</linearGradient>
<linearGradient id="paint7_linear_6610_6200" x1="16.955" y1="14.2396" x2="52.7307" y2="14.2396" gradientUnits="userSpaceOnUse">
<stop stop-color="#C0D6FF"/>
<stop offset="0.3" stop-color="#C4DAFF"/>
<stop offset="0.65" stop-color="#D3E9FF"/>
<stop offset="1" stop-color="#E9FFFF"/>
</linearGradient>
<linearGradient id="paint8_linear_6610_6200" x1="22.7983" y1="11.7587" x2="46.8815" y2="11.7587" gradientUnits="userSpaceOnUse">
<stop stop-color="#BCD5FF"/>
<stop offset="0.15" stop-color="#A2BDFF"/>
<stop offset="0.39" stop-color="#819FFF"/>
<stop offset="0.61" stop-color="#6A89FF"/>
<stop offset="0.82" stop-color="#5B7CFF"/>
<stop offset="1" stop-color="#5778FF"/>
</linearGradient>
</defs>
</svg>
