<svg width="241" height="173" viewBox="0 0 241 173" fill="none" xmlns="http://www.w3.org/2000/svg">
<g clip-path="url(#clip0_6610_6615)">
<g style="mix-blend-mode:multiply" opacity="0.5">
<mask id="mask0_6610_6615" style="mask-type:luminance" maskUnits="userSpaceOnUse" x="51" y="144" width="190" height="29">
<path d="M146.189 172.554C198.442 172.554 240.802 166.323 240.802 158.636C240.802 150.95 198.442 144.719 146.189 144.719C93.9351 144.719 51.5752 150.95 51.5752 158.636C51.5752 166.323 93.9351 172.554 146.189 172.554Z" fill="white"/>
</mask>
<g mask="url(#mask0_6610_6615)">
<path d="M240.81 144.719H51.5752V172.554H240.81V144.719Z" fill="white"/>
<path d="M146.031 170.595C192.817 170.334 230.716 165.031 230.681 158.752C230.646 152.473 192.69 147.595 145.904 147.856C99.1186 148.117 61.2198 153.419 61.2549 159.699C61.29 165.978 99.2456 170.856 146.031 170.595Z" fill="white"/>
<path d="M145.747 170.558C192.35 170.298 230.1 165.014 230.065 158.756C230.03 152.498 192.223 147.636 145.62 147.896C99.0173 148.156 61.2666 153.44 61.3016 159.698C61.3365 165.956 99.1439 170.818 145.747 170.558Z" fill="white"/>
<path d="M145.453 170.513C191.873 170.254 229.476 164.991 229.441 158.759C229.406 152.527 191.747 147.684 145.327 147.944C98.9072 148.203 61.3046 153.465 61.3394 159.698C61.3742 165.93 99.0333 170.772 145.453 170.513Z" fill="white"/>
<path d="M145.161 170.469C191.398 170.21 228.853 164.969 228.818 158.762C228.783 152.556 191.272 147.733 145.035 147.991C98.7981 148.25 61.3435 153.491 61.3782 159.698C61.4129 165.904 98.9236 170.727 145.161 170.469Z" fill="white"/>
<path d="M144.876 170.416C190.931 170.159 228.237 164.939 228.203 158.758C228.168 152.577 190.806 147.774 144.751 148.031C98.6968 148.289 61.3903 153.508 61.4248 159.689C61.4593 165.871 98.8218 170.673 144.876 170.416Z" fill="white"/>
<path d="M144.583 170.387C190.45 170.131 227.605 164.929 227.571 158.769C227.536 152.609 190.326 147.823 144.458 148.079C98.591 148.335 61.4361 153.537 61.4705 159.697C61.5049 165.857 98.7156 170.643 144.583 170.387Z" fill="#FEFFFF"/>
<path d="M144.291 170.342C189.975 170.087 226.982 164.907 226.948 158.773C226.913 152.638 189.851 147.872 144.166 148.127C98.4819 148.382 61.475 153.562 61.5093 159.697C61.5436 165.831 98.606 170.597 144.291 170.342Z" fill="#FEFFFF"/>
<path d="M144.006 170.298C189.508 170.044 226.366 164.885 226.332 158.776C226.298 152.667 189.384 147.92 143.882 148.175C98.3806 148.429 61.5218 153.587 61.5559 159.696C61.59 165.805 98.5041 170.552 144.006 170.298Z" fill="#FEFEFF"/>
<path d="M143.712 170.253C189.031 170 225.742 164.863 225.708 158.779C225.674 152.696 188.908 147.969 143.589 148.222C98.2705 148.475 61.5598 153.612 61.5937 159.696C61.6277 165.78 98.3935 170.506 143.712 170.253Z" fill="#FEFEFF"/>
<path d="M143.42 170.202C188.556 169.95 225.119 164.834 225.085 158.776C225.051 152.718 188.434 148.011 143.297 148.263C98.1613 148.515 61.5987 153.631 61.6326 159.689C61.6664 165.747 98.2839 170.454 143.42 170.202Z" fill="#FEFEFF"/>
<path d="M143.127 170.165C188.08 169.914 224.494 164.816 224.461 158.779C224.427 152.742 187.958 148.052 143.005 148.303C98.0512 148.554 61.6367 153.652 61.6704 159.689C61.7041 165.725 98.1733 170.416 143.127 170.165Z" fill="#FDFEFF"/>
<path d="M142.842 170.128C187.612 169.878 223.879 164.802 223.845 158.791C223.812 152.779 187.491 148.109 142.72 148.359C97.9499 148.609 61.6835 153.685 61.717 159.696C61.7506 165.707 98.0715 170.378 142.842 170.128Z" fill="#FDFEFE"/>
<path d="M142.55 170.083C187.133 169.834 223.248 164.78 223.215 158.794C223.181 152.808 187.012 148.158 142.429 148.407C97.8451 148.656 61.7302 153.71 61.7637 159.696C61.7971 165.682 97.9662 170.332 142.55 170.083Z" fill="#FDFEFE"/>
<path d="M142.256 170.031C186.657 169.783 222.624 164.75 222.59 158.79C222.557 152.829 186.536 148.199 142.136 148.446C97.735 148.694 61.7682 153.727 61.8015 159.688C61.8348 165.648 97.8556 170.279 142.256 170.031Z" fill="#FDFEFE"/>
<path d="M141.972 169.986C186.189 169.739 222.008 164.728 221.975 158.793C221.942 152.858 186.069 148.247 141.852 148.494C97.6337 148.741 61.815 153.753 61.8481 159.687C61.8812 165.622 97.7537 170.233 141.972 169.986Z" fill="#FCFDFE"/>
<path d="M141.679 169.949C185.714 169.703 221.385 164.71 221.352 158.796C221.319 152.883 185.595 148.288 141.56 148.534C97.5246 148.78 61.8539 153.773 61.887 159.687C61.92 165.601 97.6442 170.195 141.679 169.949Z" fill="#FCFDFE"/>
<path d="M141.386 169.912C185.238 169.667 220.761 164.696 220.728 158.808C220.695 152.919 185.119 148.345 141.267 148.59C97.4145 148.835 61.8919 153.806 61.9248 159.694C61.9577 165.583 97.5336 170.157 141.386 169.912Z" fill="#FCFDFE"/>
<path d="M141.101 169.868C184.771 169.624 220.145 164.674 220.112 158.811C220.08 152.948 184.652 148.394 140.983 148.637C97.3132 148.881 61.9387 153.832 61.9714 159.694C62.0041 165.557 97.4317 170.112 141.101 169.868Z" fill="#FBFDFE"/>
<path d="M140.808 169.815C184.29 169.572 219.513 164.644 219.481 158.807C219.448 152.97 184.172 148.435 140.69 148.677C97.2074 148.92 61.9844 153.849 62.017 159.686C62.0496 165.523 97.3255 170.058 140.808 169.815Z" fill="#FBFDFE"/>
<path d="M140.515 169.771C183.815 169.529 218.89 164.622 218.857 158.81C218.825 152.999 183.697 148.483 140.398 148.725C97.0983 148.967 62.0234 153.874 62.0558 159.686C62.0883 165.497 97.2158 170.012 140.515 169.771Z" fill="#FBFCFE"/>
<path d="M140.231 169.734C183.348 169.493 218.274 164.604 218.242 158.813C218.21 153.023 183.23 148.524 140.114 148.765C96.997 149.006 62.0702 153.895 62.1025 159.685C62.1348 165.476 97.1141 169.974 140.231 169.734Z" fill="#FAFCFE"/>
<path d="M139.937 169.697C182.871 169.457 217.65 164.589 217.618 158.825C217.586 153.06 182.755 148.581 139.821 148.821C96.8869 149.06 62.1081 153.928 62.1403 159.693C62.1725 165.458 97.0035 169.937 139.937 169.697Z" fill="#FAFCFD"/>
<path d="M139.645 169.652C182.396 169.413 217.027 164.567 216.995 158.828C216.963 153.089 182.28 148.63 139.529 148.868C96.7777 149.107 62.1471 153.953 62.1791 159.693C62.2112 165.432 96.8938 169.891 139.645 169.652Z" fill="#FAFCFD"/>
<path d="M139.36 169.601C181.929 169.363 216.411 164.538 216.379 158.825C216.347 153.111 181.813 148.672 139.245 148.909C96.6764 149.147 62.1938 153.972 62.2258 159.686C62.2577 165.399 96.792 169.838 139.36 169.601Z" fill="#F9FCFD"/>
<path d="M139.067 169.556C181.448 169.319 215.779 164.516 215.748 158.828C215.716 153.14 181.333 148.72 138.952 148.957C96.5707 149.194 62.2396 153.997 62.2714 159.685C62.3032 165.373 96.6857 169.793 139.067 169.556Z" fill="#F9FBFD"/>
<path d="M138.775 169.519C180.973 169.283 215.156 164.498 215.124 158.831C215.093 153.164 180.858 148.761 138.66 148.997C96.4615 149.233 62.2786 154.018 62.3102 159.685C62.3419 165.352 96.5762 169.755 138.775 169.519Z" fill="#F8FBFD"/>
<path d="M138.489 169.482C180.505 169.248 214.54 164.484 214.508 158.843C214.477 153.201 180.391 148.818 138.375 149.053C96.3592 149.287 62.3244 154.051 62.3559 159.692C62.3874 165.334 96.4733 169.717 138.489 169.482Z" fill="#F8FBFD"/>
<path d="M138.197 169.43C180.029 169.196 213.916 164.454 213.885 158.838C213.853 153.222 179.916 148.859 138.083 149.093C96.2501 149.326 62.3633 154.068 62.3947 159.684C62.426 165.3 96.3637 169.663 138.197 169.43Z" fill="#F8FAFD"/>
<path d="M137.904 169.385C179.554 169.153 213.293 164.432 213.262 158.842C213.23 153.251 179.441 148.908 137.791 149.14C96.141 149.373 62.4023 154.093 62.4335 159.684C62.4647 165.274 96.2541 169.618 137.904 169.385Z" fill="#F7FAFC"/>
<path d="M137.611 169.341C179.078 169.109 212.669 164.41 212.637 158.845C212.606 153.28 178.965 148.956 137.498 149.188C96.0309 149.42 62.4402 154.119 62.4713 159.684C62.5024 165.249 96.1434 169.572 137.611 169.341Z" fill="#F7FAFC"/>
<path d="M212.012 158.844C212.043 164.387 178.604 169.067 137.321 169.298C96.0376 169.529 62.5445 165.226 62.5137 159.683C62.4829 154.141 95.9221 149.461 137.205 149.23C178.489 148.999 211.982 153.302 212.012 158.844Z" fill="#F6FAFC"/>
<path d="M137.033 169.267C178.13 169.037 211.421 164.378 211.39 158.86C211.36 153.341 178.019 149.054 136.921 149.284C95.8238 149.513 62.5328 154.173 62.5636 159.691C62.5944 165.209 95.9354 169.496 137.033 169.267Z" fill="#F6F9FC"/>
<path d="M136.74 169.214C177.655 168.986 210.798 164.348 210.767 158.855C210.737 153.362 177.544 149.095 136.629 149.324C95.7147 149.552 62.5717 154.19 62.6024 159.683C62.6331 165.175 95.8258 169.443 136.74 169.214Z" fill="#F5F9FC"/>
<path d="M136.456 169.17C177.187 168.942 210.182 164.326 210.152 158.859C210.121 153.391 177.077 149.144 136.345 149.371C95.6134 149.599 62.6185 154.215 62.649 159.682C62.6796 165.15 95.7239 169.397 136.456 169.17Z" fill="#F5F9FC"/>
<path d="M136.162 169.125C176.711 168.899 209.558 164.304 209.528 158.862C209.497 153.42 176.601 149.193 136.052 149.419C95.5033 149.646 62.6565 154.24 62.6869 159.682C62.7173 165.124 95.6133 169.352 136.162 169.125Z" fill="#F4F9FC"/>
<path d="M135.87 169.089C176.236 168.864 208.935 164.287 208.904 158.866C208.874 153.446 176.126 149.235 135.76 149.46C95.3941 149.685 62.6954 154.262 62.7257 159.683C62.756 165.103 95.5038 169.314 135.87 169.089Z" fill="#F4F8FB"/>
<path d="M135.585 169.044C175.769 168.82 208.319 164.265 208.289 158.87C208.259 153.475 175.659 149.283 135.476 149.508C95.2928 149.732 62.7422 154.287 62.7723 159.682C62.8025 165.077 95.4019 169.269 135.585 169.044Z" fill="#F3F8FB"/>
<path d="M135.292 169C175.288 168.776 207.687 164.243 207.657 158.873C207.627 153.504 175.18 149.332 135.183 149.555C95.1871 149.779 62.788 154.313 62.818 159.682C62.848 165.052 95.2957 169.223 135.292 169Z" fill="#F3F8FB"/>
<path d="M135 168.955C174.813 168.733 207.064 164.22 207.034 158.877C207.004 153.533 174.705 149.381 134.891 149.603C95.0779 149.826 62.8269 154.338 62.8568 159.682C62.8866 165.026 95.186 169.178 135 168.955Z" fill="#F2F7FB"/>
<path d="M134.714 168.918C174.345 168.697 206.448 164.203 206.418 158.88C206.388 153.557 174.237 149.422 134.606 149.643C94.9756 149.865 62.8727 154.359 62.9025 159.681C62.9322 165.004 95.0833 169.139 134.714 168.918Z" fill="#F2F7FB"/>
<path d="M134.422 168.874C173.869 168.653 205.824 164.18 205.795 158.883C205.765 153.586 173.762 149.471 134.314 149.691C94.8665 149.911 62.9117 154.384 62.9413 159.681C62.9708 164.978 94.9736 169.094 134.422 168.874Z" fill="#F1F7FB"/>
<path d="M134.129 168.821C173.394 168.602 205.201 164.151 205.171 158.879C205.142 153.607 173.288 149.512 134.022 149.731C94.7574 149.95 62.9506 154.401 62.9801 159.673C63.0095 164.945 94.864 169.04 134.129 168.821Z" fill="#F1F6FA"/>
<path d="M133.836 168.784C172.918 168.566 204.577 164.136 204.547 158.89C204.518 153.644 172.812 149.568 133.73 149.786C94.6473 150.005 62.9886 154.434 63.0179 159.681C63.0472 164.927 94.7534 169.003 133.836 168.784Z" fill="#F0F6FA"/>
<path d="M133.543 168.74C172.438 168.522 203.946 164.114 203.917 158.894C203.887 153.673 172.333 149.617 133.438 149.834C94.5425 150.051 63.0354 154.46 63.0645 159.68C63.0937 164.901 94.6481 168.957 133.543 168.74Z" fill="#F0F6FA"/>
<path d="M133.251 168.703C171.963 168.486 203.322 164.096 203.293 158.897C203.264 153.698 171.858 149.658 133.146 149.874C94.4334 150.09 63.0743 154.481 63.1034 159.68C63.1324 164.879 94.5385 168.919 133.251 168.703Z" fill="#EFF5FA"/>
<path d="M132.965 168.658C171.495 168.443 202.706 164.074 202.677 158.9C202.648 153.726 171.39 149.707 132.861 149.922C94.3311 150.137 63.1201 154.506 63.149 159.68C63.1779 164.853 94.4357 168.873 132.965 168.658Z" fill="#EEF5FA"/>
<path d="M132.673 168.607C171.02 168.392 202.083 164.045 202.054 158.897C202.025 153.749 170.915 149.749 132.569 149.963C94.2219 150.177 63.1591 154.524 63.1878 159.672C63.2166 164.821 94.3261 168.821 132.673 168.607Z" fill="#EEF5FA"/>
<path d="M132.38 168.57C170.544 168.357 201.459 164.031 201.431 158.908C201.402 153.785 170.441 149.805 132.277 150.018C94.1128 150.232 63.198 154.557 63.2266 159.68C63.2552 164.803 94.2164 168.783 132.38 168.57Z" fill="#EDF4F9"/>
<path d="M132.087 168.525C170.068 168.313 200.835 164.009 200.806 158.912C200.778 153.814 169.965 149.854 131.984 150.066C94.0027 150.278 63.236 154.582 63.2644 159.68C63.2929 164.777 94.1058 168.737 132.087 168.525Z" fill="#EDF4F9"/>
<path d="M131.802 168.488C169.601 168.277 200.219 163.991 200.191 158.915C200.163 153.839 169.498 149.895 131.7 150.106C93.9014 150.317 63.2827 154.603 63.3111 159.679C63.3394 164.755 94.0041 168.699 131.802 168.488Z" fill="#ECF3F9"/>
<path d="M131.509 168.443C169.12 168.233 199.588 163.969 199.559 158.918C199.531 153.868 169.018 149.944 131.407 150.154C93.7957 150.364 63.3285 154.628 63.3567 159.679C63.3849 164.73 93.8978 168.654 131.509 168.443Z" fill="#EBF3F9"/>
<path d="M198.949 158.913C198.98 163.94 168.658 168.181 131.232 168.397C93.8048 168.605 63.4371 164.702 63.4063 159.683C63.3755 154.656 93.6971 150.415 131.124 150.199C168.55 149.991 198.918 153.894 198.949 158.913Z" fill="#EBF3F9"/>
<path d="M198.326 158.914C198.357 163.917 168.181 168.136 130.94 168.351C93.69 168.559 63.4761 164.68 63.4453 159.676C63.4145 154.672 93.5899 150.454 130.832 150.238C168.081 150.031 198.295 153.91 198.326 158.914Z" fill="#EAF2F8"/>
<path d="M197.702 158.921C197.733 163.894 167.712 168.097 130.647 168.313C93.5818 168.528 63.5142 164.648 63.4834 159.676C63.4526 154.703 93.474 150.5 130.539 150.284C167.604 150.077 197.671 153.941 197.694 158.914L197.702 158.921Z" fill="#EAF2F8"/>
<path d="M130.346 168.273C167.226 168.067 197.101 163.885 197.073 158.932C197.046 153.979 167.126 150.131 130.246 150.337C93.366 150.543 63.4912 154.725 63.5188 159.678C63.5465 164.631 93.4661 168.479 130.346 168.273Z" fill="#E9F2F8"/>
<path d="M130.061 168.228C166.758 168.023 196.485 163.863 196.457 158.935C196.43 154.008 166.658 150.18 129.961 150.385C93.2637 150.59 63.537 154.75 63.5645 159.677C63.592 164.605 93.3633 168.433 130.061 168.228Z" fill="#E8F1F8"/>
<path d="M129.768 168.176C166.278 167.972 195.854 163.833 195.826 158.931C195.799 154.029 166.179 150.221 129.669 150.425C93.1589 150.629 63.5837 154.768 63.6111 159.669C63.6385 164.571 93.258 168.379 129.768 168.176Z" fill="#E8F1F7"/>
<path d="M195.208 158.929C195.239 163.809 165.811 167.928 129.477 168.128C93.1512 168.336 63.6763 164.548 63.6455 159.668C63.6147 154.788 93.0434 150.669 129.377 150.469C165.703 150.261 195.178 154.049 195.208 158.929Z" fill="#E7F0F7"/>
<path d="M194.592 158.937C194.623 163.787 165.341 167.889 129.192 168.09C93.0432 168.29 63.7223 164.526 63.6992 159.676C63.6685 154.826 92.9508 150.723 129.1 150.523C165.248 150.323 194.569 154.087 194.592 158.937Z" fill="#E6F0F7"/>
<path d="M128.898 168.057C164.86 167.856 193.991 163.778 193.964 158.949C193.937 154.119 164.762 150.367 128.8 150.568C92.8383 150.769 63.7074 154.847 63.7344 159.676C63.7614 164.506 92.936 168.258 128.898 168.057Z" fill="#E6EFF7"/>
<path d="M193.346 158.944C193.376 163.747 164.394 167.804 128.615 168.004C92.8357 168.204 63.8073 164.479 63.7842 159.675C63.7611 154.872 92.7356 150.807 128.515 150.607C164.294 150.407 193.323 154.133 193.346 158.936V158.944Z" fill="#E5EFF7"/>
<path d="M192.722 158.945C192.745 163.725 163.917 167.759 128.322 167.959C92.7275 168.159 63.8531 164.449 63.8223 159.668C63.7915 154.888 92.6274 150.854 128.222 150.654C163.817 150.454 192.691 154.164 192.722 158.945Z" fill="#E4EFF6"/>
<path d="M192.099 158.944C192.122 163.702 163.44 167.712 128.03 167.912C92.6203 168.113 63.8921 164.418 63.8613 159.668C63.8382 154.911 92.5202 150.9 127.93 150.7C163.34 150.5 192.068 154.195 192.099 158.944Z" fill="#E4EEF6"/>
<path d="M191.475 158.952C191.498 163.678 162.962 167.674 127.737 167.874C92.5122 168.074 63.9303 164.402 63.9072 159.668C63.8841 154.941 92.4199 150.946 127.645 150.746C162.87 150.546 191.452 154.218 191.475 158.952Z" fill="#E3EEF6"/>
<path d="M190.859 158.952C190.882 163.655 162.5 167.627 127.452 167.827C92.4042 168.027 63.9762 164.371 63.9531 159.668C63.93 154.964 92.3118 150.992 127.36 150.792C162.408 150.592 190.836 154.248 190.859 158.952Z" fill="#E2EDF6"/>
<path d="M127.157 167.79C162.018 167.595 190.257 163.643 190.231 158.962C190.204 154.282 161.923 150.645 127.062 150.84C92.2016 151.035 63.9626 154.987 63.9887 159.668C64.0149 164.348 92.2963 167.985 127.157 167.79Z" fill="#E1EDF6"/>
<path d="M126.864 167.745C161.541 167.552 189.632 163.621 189.606 158.966C189.58 154.311 161.447 150.694 126.769 150.888C92.0915 151.081 64.0006 155.012 64.0266 159.667C64.0526 164.322 92.1856 167.939 126.864 167.745Z" fill="#E1ECF5"/>
<path d="M188.988 158.968C189.011 163.602 161.076 167.512 126.582 167.705C92.0884 167.897 64.107 164.302 64.0762 159.676C64.0531 155.042 91.9884 151.131 126.482 150.939C160.976 150.747 188.957 154.341 188.988 158.968Z" fill="#E0ECF5"/>
<path d="M188.365 158.967C188.388 163.571 160.599 167.466 126.29 167.658C91.9812 167.851 64.146 164.271 64.1152 159.668C64.0922 155.065 91.8812 151.17 126.19 150.977C160.499 150.785 188.334 154.364 188.365 158.967Z" fill="#DFECF5"/>
<path d="M187.741 158.975C187.765 163.555 160.122 167.427 125.997 167.62C91.8732 167.812 64.1842 164.256 64.1611 159.676C64.1381 155.095 91.7808 151.223 125.905 151.031C160.029 150.838 187.718 154.395 187.741 158.975Z" fill="#DFEBF5"/>
<path d="M125.701 167.575C159.643 167.385 187.138 163.537 187.113 158.979C187.087 154.422 159.551 150.881 125.609 151.071C91.6662 151.26 64.171 155.109 64.1965 159.666C64.2219 164.223 91.7583 167.764 125.701 167.575Z" fill="#DEEBF4"/>
<path d="M186.502 158.975C186.526 163.509 159.183 167.335 125.42 167.528C91.6579 167.72 64.2692 164.194 64.2461 159.668C64.223 155.142 91.5656 151.308 125.328 151.116C159.091 150.923 186.479 154.449 186.502 158.975Z" fill="#DDEAF4"/>
<path d="M185.879 158.983C185.902 163.494 158.705 167.296 125.128 167.489C91.5498 167.681 64.315 164.179 64.2842 159.668C64.2611 155.157 91.4574 151.354 125.035 151.162C158.613 150.969 185.848 154.472 185.879 158.983Z" fill="#DCEAF4"/>
<path d="M185.255 158.983C185.278 163.463 158.228 167.25 124.835 167.443C91.4416 167.628 64.3531 164.148 64.3223 159.668C64.2992 155.188 91.3492 151.401 124.742 151.208C158.135 151.023 185.224 154.503 185.255 158.983Z" fill="#DCE9F4"/>
<path d="M184.632 158.99C184.655 163.447 157.759 167.212 124.543 167.404C91.3345 167.589 64.3922 164.133 64.3692 159.668C64.3461 155.211 91.2421 151.447 124.458 151.254C157.666 151.069 184.609 154.526 184.632 158.99Z" fill="#DBE9F3"/>
<path d="M184.008 158.99C184.031 163.424 157.281 167.173 124.258 167.358C91.2342 167.542 64.4381 164.101 64.4151 159.668C64.392 155.234 91.1418 151.485 124.165 151.3C157.189 151.115 183.985 154.556 184.008 158.99Z" fill="#DAE8F3"/>
<path d="M183.384 158.999C183.407 163.409 156.804 167.135 123.965 167.32C91.126 167.505 64.4762 164.079 64.4531 159.668C64.43 155.257 91.0336 151.532 123.872 151.347C156.711 151.162 183.361 154.588 183.384 158.999Z" fill="#D9E8F3"/>
<path d="M123.674 167.271C156.333 167.088 182.788 163.387 182.763 159.004C182.739 154.621 156.244 151.216 123.586 151.398C90.9271 151.581 64.472 155.282 64.4965 159.665C64.521 164.048 91.0158 167.453 123.674 167.271Z" fill="#D8E7F3"/>
<path d="M182.145 158.998C182.168 163.355 155.865 167.042 123.388 167.227C90.9107 167.412 64.5689 164.025 64.5381 159.668C64.515 155.311 90.8184 151.624 123.295 151.439C155.772 151.254 182.114 154.641 182.145 158.998Z" fill="#D8E7F2"/>
<path d="M123.089 167.189C155.381 167.009 181.54 163.347 181.516 159.011C181.492 154.675 155.294 151.306 123.001 151.486C90.7079 151.666 64.5489 155.328 64.5731 159.664C64.5974 164 90.7956 167.37 123.089 167.189Z" fill="#D7E6F2"/>
<path d="M122.804 167.145C154.914 166.965 180.925 163.325 180.901 159.014C180.877 154.704 154.827 151.354 122.717 151.534C90.6066 151.713 64.5957 155.353 64.6198 159.664C64.6438 163.975 90.6937 167.324 122.804 167.145Z" fill="#D6E6F2"/>
<path d="M180.274 159.013C180.297 163.301 154.44 166.919 122.51 167.104C90.5873 167.281 64.6842 163.955 64.6611 159.667C64.6381 155.38 90.4949 151.762 122.425 151.577C154.348 151.4 180.251 154.725 180.274 159.013Z" fill="#D5E5F2"/>
<path d="M179.651 159.014C179.674 163.278 153.964 166.873 122.218 167.05C90.4801 167.227 64.7233 163.917 64.7002 159.66C64.6771 155.396 90.3877 151.801 122.133 151.624C153.879 151.447 179.628 154.757 179.651 159.014Z" fill="#D4E5F1"/>
<path d="M179.035 159.021C179.058 163.255 153.494 166.835 121.941 167.012C90.3799 167.189 64.777 163.902 64.7539 159.66C64.7308 155.426 90.2952 151.847 121.848 151.67C153.409 151.493 179.012 154.78 179.035 159.021Z" fill="#D4E4F1"/>
<path d="M178.411 159.021C178.434 163.232 153.024 166.788 121.648 166.965C90.2717 167.142 64.8151 163.871 64.792 159.66C64.7689 155.449 90.187 151.893 121.556 151.716C152.932 151.539 178.381 154.81 178.404 159.021H178.411Z" fill="#D3E4F1"/>
<path d="M177.789 159.022C177.812 163.209 152.548 166.75 121.356 166.92C90.1646 167.097 64.862 163.84 64.8389 159.653C64.8158 155.465 90.0799 151.924 121.271 151.755C152.463 151.578 177.765 154.834 177.789 159.022Z" fill="#D2E3F0"/>
<path d="M121.055 166.885C152.064 166.712 177.183 163.198 177.16 159.036C177.137 154.874 151.98 151.64 120.971 151.813C89.962 151.987 64.8431 155.501 64.8663 159.663C64.8896 163.825 90.0462 167.059 121.055 166.885Z" fill="#D1E3F0"/>
<path d="M176.541 159.029C176.564 163.17 151.592 166.665 120.77 166.835C89.9483 167.012 64.9381 163.794 64.9151 159.66C64.892 155.519 89.8636 152.024 120.686 151.855C151.508 151.678 176.518 154.895 176.541 159.029Z" fill="#D0E2F0"/>
<path d="M120.477 166.796C151.117 166.625 175.936 163.15 175.913 159.035C175.89 154.92 151.033 151.722 120.394 151.893C89.7549 152.064 64.9356 155.539 64.9586 159.654C64.9816 163.77 89.8382 166.967 120.477 166.796Z" fill="#CFE2F0"/>
<path d="M175.302 159.037C175.325 163.124 150.653 166.58 120.193 166.75C89.733 166.919 65.0231 163.748 65 159.66C64.9769 155.573 89.6483 152.116 120.108 151.947C150.569 151.778 175.279 154.949 175.302 159.037Z" fill="#CEE1EF"/>
<path d="M119.899 166.715C150.173 166.545 174.696 163.114 174.673 159.049C174.651 154.985 150.091 151.828 119.817 151.997C89.5435 152.166 65.0204 155.597 65.0431 159.662C65.0658 163.726 89.6257 166.884 119.899 166.715Z" fill="#CEE1EF"/>
<path d="M119.607 166.67C149.698 166.502 174.073 163.092 174.05 159.053C174.028 155.014 149.616 151.876 119.525 152.044C89.4344 152.212 65.0593 155.623 65.0819 159.661C65.1044 163.7 89.5161 166.838 119.607 166.67Z" fill="#CDE0EF"/>
<path d="M173.431 159.052C173.454 163.07 149.229 166.457 119.323 166.627C89.4174 166.796 65.154 163.679 65.1309 159.66C65.1078 155.642 89.3327 152.255 119.239 152.086C149.145 151.916 173.408 155.034 173.431 159.052Z" fill="#CCE0EF"/>
<path d="M172.808 159.052C172.831 163.039 148.753 166.411 119.031 166.58C89.3102 166.75 65.193 163.648 65.1699 159.66C65.1468 155.673 89.2255 152.301 118.947 152.132C148.668 151.962 172.785 155.064 172.808 159.052Z" fill="#CBDFEE"/>
<path d="M172.184 159.052C172.207 163.016 148.275 166.364 118.738 166.534C89.202 166.703 65.2311 163.624 65.208 159.652C65.1849 155.68 89.1174 152.339 118.654 152.17C148.19 152 172.161 155.08 172.184 159.052Z" fill="#CADFEE"/>
<path d="M171.568 159.06C171.591 163.001 147.813 166.327 118.453 166.496C89.0941 166.666 65.2771 163.602 65.2617 159.661C65.2386 155.719 89.0171 152.394 118.376 152.224C147.736 152.055 171.553 155.119 171.568 159.06Z" fill="#C9DEEE"/>
<path d="M118.158 166.454C147.331 166.291 170.962 162.985 170.94 159.07C170.918 155.154 147.252 152.112 118.079 152.275C88.9068 152.438 65.2755 155.744 65.2974 159.66C65.3193 163.575 88.986 166.617 118.158 166.454Z" fill="#C8DEED"/>
<path d="M117.866 166.41C146.856 166.248 170.339 162.963 170.317 159.073C170.295 155.183 146.777 152.161 117.787 152.323C88.7976 152.485 65.3145 155.77 65.3362 159.66C65.3579 163.55 88.8763 166.572 117.866 166.41Z" fill="#C7DDED"/>
<path d="M169.697 159.067C169.721 162.932 146.389 166.203 117.576 166.365C88.7706 166.527 65.4001 163.524 65.377 159.66C65.3539 155.796 88.6859 152.524 117.499 152.363C146.304 152.201 169.674 155.203 169.697 159.067Z" fill="#C6DCED"/>
<path d="M169.075 159.075C169.098 162.916 145.912 166.165 117.292 166.326C88.6712 166.488 65.4469 163.501 65.4238 159.66C65.4008 155.819 88.5865 152.57 117.207 152.409C145.827 152.247 169.051 155.234 169.075 159.075Z" fill="#C6DCED"/>
<path d="M168.451 159.075C168.474 162.893 145.434 166.118 116.999 166.28C88.5631 166.441 65.4851 163.478 65.4697 159.66C65.4543 155.842 88.4861 152.616 116.922 152.455C145.357 152.293 168.435 155.257 168.451 159.075Z" fill="#C5DBEC"/>
<path d="M116.702 166.24C144.956 166.082 167.844 162.88 167.823 159.088C167.801 155.296 144.88 152.349 116.626 152.507C88.3713 152.665 65.484 155.867 65.5051 159.659C65.5263 163.451 88.448 166.398 116.702 166.24Z" fill="#C4DBEC"/>
<path d="M167.212 159.083C167.235 162.855 144.496 166.034 116.422 166.196C88.3479 166.357 65.5778 163.424 65.5547 159.66C65.5316 155.888 88.2709 152.709 116.345 152.547C144.419 152.386 167.189 155.319 167.212 159.083Z" fill="#C3DAEC"/>
<path d="M166.588 159.083C166.611 162.824 144.018 165.988 116.129 166.149C88.2397 166.303 65.6159 163.401 65.5928 159.653C65.5697 155.911 88.1627 152.748 116.052 152.586C143.941 152.432 166.565 155.334 166.588 159.083Z" fill="#C2DAEB"/>
<path d="M165.964 159.09C165.987 162.808 143.54 165.949 115.836 166.111C88.1315 166.265 65.654 163.378 65.6309 159.66C65.6078 155.942 88.0545 152.801 115.759 152.64C143.463 152.486 165.941 155.372 165.964 159.09Z" fill="#C1D9EB"/>
<path d="M165.341 159.09C165.364 162.785 143.071 165.903 115.544 166.064C88.0244 166.218 65.6931 163.347 65.6777 159.652C65.6623 155.957 87.9475 152.839 115.475 152.678C142.994 152.524 165.326 155.395 165.341 159.09Z" fill="#C0D8EB"/>
<path d="M115.254 166.024C142.594 165.872 164.741 162.774 164.72 159.105C164.7 155.436 142.52 152.585 115.179 152.738C87.8393 152.891 65.6924 155.989 65.7129 159.658C65.7334 163.327 87.9136 166.177 115.254 166.024Z" fill="#BFD8EA"/>
<path d="M114.961 165.98C142.115 165.828 164.11 162.748 164.09 159.1C164.069 155.453 142.041 152.619 114.888 152.77C87.7346 152.922 65.7392 156.002 65.7595 159.65C65.7799 163.297 87.8084 166.131 114.961 165.98Z" fill="#BED7EA"/>
<path d="M114.668 165.936C141.638 165.785 163.486 162.727 163.465 159.105C163.445 155.483 141.565 152.668 114.595 152.819C87.6245 152.97 65.7771 156.028 65.7974 159.65C65.8176 163.272 87.6977 166.087 114.668 165.936Z" fill="#BDD7EA"/>
<path d="M162.854 159.106C162.877 162.701 141.177 165.741 114.389 165.888C87.6007 166.042 65.8698 163.247 65.8467 159.652C65.8236 156.058 87.5237 153.017 114.312 152.871C141.1 152.724 162.831 155.511 162.854 159.106Z" fill="#BCD6E9"/>
<path d="M162.231 159.106C162.254 162.677 140.701 165.695 114.097 165.841C87.4935 165.987 65.9089 163.216 65.8858 159.644C65.8627 156.073 87.4165 153.055 114.02 152.909C140.624 152.763 162.208 155.534 162.231 159.106Z" fill="#BBD5E9"/>
<path d="M113.797 165.81C140.219 165.662 161.622 162.668 161.603 159.123C161.583 155.577 140.148 152.823 113.726 152.97C87.3039 153.118 65.9008 156.112 65.9206 159.657C65.9404 163.203 87.3756 165.957 113.797 165.81Z" fill="#BAD5E9"/>
<path d="M160.984 159.114C161.007 162.639 139.753 165.611 113.511 165.757C87.2772 165.903 65.9851 163.17 65.9697 159.645C65.9467 156.119 87.2003 153.148 113.442 153.002C139.676 152.855 160.968 155.588 160.984 159.114Z" fill="#B9D4E9"/>
<path d="M160.361 159.121C160.384 162.616 139.276 165.572 113.219 165.718C87.1623 165.865 66.0319 163.147 66.0088 159.652C65.9857 156.158 87.0931 153.202 113.15 153.055C139.207 152.909 160.338 155.627 160.361 159.121Z" fill="#B8D4E8"/>
<path d="M159.745 159.121C159.768 162.593 138.807 165.526 112.934 165.672C87.062 165.818 66.0778 163.124 66.0547 159.644C66.0316 156.173 86.9927 153.24 112.865 153.094C138.737 152.947 159.721 155.642 159.745 159.121Z" fill="#B7D3E8"/>
<path d="M159.121 159.129C159.144 162.578 138.329 165.488 112.649 165.634C86.9616 165.78 66.1237 163.102 66.1006 159.653C66.0775 156.204 86.8923 153.295 112.572 153.148C138.26 153.002 159.098 155.681 159.121 159.129Z" fill="#B6D2E8"/>
<path d="M112.349 165.594C137.853 165.452 158.512 162.562 158.493 159.14C158.474 155.717 137.783 153.059 112.28 153.201C86.7763 153.344 66.1171 156.233 66.1362 159.656C66.1553 163.078 86.8455 165.737 112.349 165.594Z" fill="#B5D2E7"/>
<path d="M112.057 165.549C137.378 165.408 157.889 162.536 157.87 159.135C157.851 155.734 137.309 153.092 111.988 153.233C86.6672 153.375 66.156 156.246 66.175 159.647C66.194 163.048 86.736 165.691 112.057 165.549Z" fill="#B4D1E7"/>
<path d="M157.25 159.137C157.265 162.508 136.905 165.364 111.771 165.503C86.6382 165.641 66.239 163.024 66.2236 159.653C66.2082 156.281 86.5689 153.425 111.702 153.287C136.835 153.148 157.235 155.765 157.25 159.137Z" fill="#B3D1E7"/>
<path d="M156.627 159.136C156.642 162.485 136.436 165.318 111.48 165.456C86.5233 165.595 66.2858 162.993 66.2627 159.645C66.2473 156.296 86.454 153.463 111.41 153.325C136.366 153.186 156.604 155.788 156.627 159.136Z" fill="#B2D0E6"/>
<path d="M156.003 159.144C156.019 162.469 135.958 165.279 111.187 165.418C86.4151 165.556 66.3239 162.978 66.3008 159.652C66.2854 156.327 86.3458 153.517 111.117 153.378C135.889 153.24 155.98 155.819 156.003 159.144Z" fill="#B1CFE6"/>
<path d="M155.387 159.145C155.403 162.447 135.488 165.234 110.902 165.372C86.3149 165.511 66.3699 162.947 66.3545 159.645C66.3391 156.343 86.2533 153.556 110.84 153.417C135.427 153.279 155.372 155.842 155.387 159.145Z" fill="#B0CFE6"/>
<path d="M110.608 165.335C135.011 165.199 154.778 162.431 154.76 159.153C154.742 155.876 134.945 153.329 110.542 153.465C86.1396 153.601 66.3723 156.369 66.3906 159.647C66.4089 162.925 86.2058 165.471 110.608 165.335Z" fill="#AFCEE5"/>
<path d="M154.14 159.152C154.156 162.4 134.542 165.148 110.325 165.287C86.1073 165.426 66.4549 162.901 66.4395 159.644C66.4241 156.396 86.038 153.648 110.255 153.509C134.473 153.371 154.125 155.896 154.14 159.152Z" fill="#AECDE5"/>
<path d="M153.517 159.153C153.533 162.378 134.065 165.103 110.033 165.241C86.0001 165.38 66.4939 162.871 66.4785 159.645C66.4631 156.42 85.9308 153.695 109.963 153.556C133.996 153.418 153.502 155.927 153.517 159.153Z" fill="#ADCDE5"/>
<path d="M152.894 159.159C152.909 162.362 133.587 165.064 109.74 165.202C85.8919 165.341 66.5397 162.847 66.5166 159.644C66.5012 156.442 85.8227 153.74 109.67 153.602C133.526 153.471 152.87 155.957 152.894 159.159Z" fill="#ACCCE4"/>
<path d="M152.27 159.16C152.285 162.339 133.117 165.018 109.447 165.157C85.7761 165.288 66.5778 162.824 66.5547 159.645C66.5393 156.466 85.7068 153.787 109.378 153.649C133.048 153.518 152.246 155.981 152.27 159.16Z" fill="#ABCCE4"/>
<path d="M151.655 159.168C151.67 162.324 132.649 164.987 109.163 165.118C85.6768 165.249 66.6248 162.801 66.6094 159.653C66.594 156.504 85.6152 153.833 109.101 153.702C132.587 153.571 151.639 156.019 151.655 159.168Z" fill="#AACBE4"/>
<path d="M151.031 159.167C151.046 162.293 132.171 164.941 108.87 165.072C85.5686 165.202 66.6629 162.77 66.6475 159.645C66.6321 156.519 85.5071 153.871 108.808 153.74C132.109 153.61 151.015 156.042 151.031 159.167Z" fill="#A9CAE3"/>
<path d="M150.407 159.175C150.422 162.277 131.701 164.902 108.577 165.033C85.4605 165.164 66.701 162.754 66.6856 159.652C66.6702 156.55 85.3912 153.925 108.515 153.794C131.632 153.663 150.391 156.073 150.407 159.175Z" fill="#A8CAE3"/>
<path d="M149.784 159.176C149.799 162.255 131.224 164.856 108.285 164.987C85.3533 165.118 66.7477 162.724 66.7246 159.645C66.7092 156.566 85.284 153.964 108.223 153.833C131.155 153.702 149.761 156.096 149.784 159.176Z" fill="#A7C9E3"/>
<path d="M107.997 164.941C130.75 164.814 149.181 162.236 149.164 159.184C149.147 156.131 130.688 153.76 107.935 153.887C85.1823 154.014 66.7511 156.592 66.7682 159.644C66.7852 162.697 85.244 165.068 107.997 164.941Z" fill="#A6C8E2"/>
<path d="M148.536 159.183C148.552 162.216 130.269 164.771 107.707 164.902C85.1372 165.033 66.8318 162.678 66.8164 159.645C66.801 156.612 85.0833 154.056 107.645 153.925C130.215 153.794 148.521 156.15 148.536 159.183Z" fill="#A4C8E2"/>
<path d="M147.921 159.183C147.936 162.185 129.808 164.725 107.423 164.856C85.0378 164.979 66.8787 162.647 66.8633 159.645C66.8479 156.643 84.9762 154.102 107.361 153.971C129.747 153.848 147.906 156.181 147.921 159.183Z" fill="#A3C7E2"/>
<path d="M147.297 159.19C147.312 162.169 129.33 164.687 107.13 164.817C84.9296 164.941 66.9168 162.631 66.9014 159.644C66.886 156.665 84.868 154.148 107.068 154.017C129.269 153.894 147.282 156.204 147.297 159.19Z" fill="#A2C6E1"/>
<path d="M146.674 159.191C146.69 162.147 128.854 164.641 106.838 164.764C84.8224 164.887 66.9558 162.593 66.9404 159.638C66.925 156.682 84.7608 154.187 106.777 154.064C128.792 153.941 146.659 156.235 146.674 159.191Z" fill="#A1C6E1"/>
<path d="M146.05 159.198C146.066 162.131 128.384 164.602 106.545 164.725C84.7142 164.849 67.0016 162.57 66.9785 159.637C66.9554 156.704 84.645 154.233 106.484 154.11C128.315 153.987 146.027 156.266 146.05 159.198Z" fill="#A0C5E0"/>
<path d="M145.426 159.198C145.442 162.108 127.906 164.564 106.252 164.679C84.5985 164.802 67.0398 162.547 67.0244 159.637C67.009 156.727 84.5446 154.272 106.198 154.156C127.852 154.033 145.411 156.288 145.426 159.198Z" fill="#9FC4E0"/>
<path d="M144.803 159.206C144.819 162.085 127.43 164.525 105.96 164.64C84.4913 164.764 67.0789 162.524 67.0635 159.645C67.0481 156.766 84.4374 154.325 105.907 154.21C127.376 154.087 144.788 156.327 144.803 159.206Z" fill="#9EC4E0"/>
<path d="M144.187 159.206C144.203 162.062 126.96 164.479 105.683 164.594C84.3987 164.717 67.1326 162.493 67.1172 159.637C67.1018 156.781 84.3449 154.364 105.622 154.248C126.898 154.133 144.172 156.35 144.187 159.206Z" fill="#9DC3DF"/>
<path d="M143.564 159.206C143.579 162.038 126.49 164.432 105.39 164.548C84.2906 164.663 67.1707 162.469 67.1553 159.637C67.1399 156.804 84.229 154.41 105.329 154.294C126.428 154.179 143.548 156.373 143.564 159.206Z" fill="#9CC2DF"/>
<path d="M142.941 159.214C142.956 162.024 126.013 164.395 105.098 164.51C84.1834 164.626 67.2097 162.447 67.1943 159.637C67.179 156.828 84.1218 154.457 105.037 154.341C125.952 154.226 142.925 156.404 142.941 159.214Z" fill="#9AC2DF"/>
<path d="M104.799 164.474C125.533 164.358 142.328 162.007 142.312 159.222C142.297 156.438 125.476 154.274 104.743 154.39C84.0091 154.506 67.2138 156.857 67.2293 159.642C67.2449 162.426 84.0654 164.59 104.799 164.474Z" fill="#99C1DE"/>
<path d="M141.693 159.221C141.708 161.977 125.066 164.309 104.513 164.425C83.9594 164.54 67.2937 162.4 67.2783 159.637C67.2629 156.881 83.9056 154.549 104.459 154.433C125.012 154.318 141.677 156.458 141.693 159.221Z" fill="#98C0DE"/>
<path d="M141.07 159.221C141.085 161.954 124.589 164.263 104.221 164.378C83.8522 164.494 67.3328 162.369 67.3174 159.637C67.302 156.904 83.7984 154.595 104.167 154.479C124.535 154.364 141.055 156.488 141.07 159.221Z" fill="#97BFDE"/>
<path d="M140.446 159.229C140.461 161.939 124.111 164.225 103.928 164.341C83.7441 164.456 67.3709 162.347 67.3555 159.637C67.3401 156.928 83.6902 154.641 103.874 154.526C124.057 154.411 140.431 156.52 140.446 159.229Z" fill="#96BFDD"/>
<path d="M139.83 159.229C139.845 161.916 123.641 164.179 103.643 164.294C83.6437 164.41 67.4168 162.324 67.4014 159.637C67.386 156.951 83.5898 154.687 103.589 154.572C123.588 154.456 139.815 156.543 139.83 159.229Z" fill="#95BEDD"/>
<path d="M103.351 164.259C123.166 164.149 139.217 161.902 139.203 159.24C139.188 156.579 123.112 154.511 103.297 154.622C83.4815 154.733 67.43 156.98 67.4449 159.641C67.4597 162.302 83.5353 164.37 103.351 164.259Z" fill="#94BDDC"/>
<path d="M138.583 159.237C138.599 161.869 122.695 164.102 103.066 164.209C83.4363 164.317 67.5095 162.27 67.4942 159.637C67.4788 157.004 83.3824 154.772 103.012 154.664C122.641 154.556 138.568 156.604 138.583 159.237Z" fill="#92BDDC"/>
<path d="M137.959 159.236C137.975 161.846 122.217 164.055 102.773 164.163C83.3204 164.271 67.5476 162.246 67.5322 159.637C67.5168 157.027 83.2742 154.818 102.719 154.71C122.171 154.602 137.944 156.627 137.959 159.236Z" fill="#91BCDC"/>
<path d="M137.336 159.245C137.352 161.831 121.748 164.018 102.481 164.125C83.2132 164.233 67.5867 162.224 67.5713 159.637C67.5559 157.051 83.1593 154.865 102.427 154.757C121.694 154.649 137.321 156.658 137.336 159.245Z" fill="#90BBDB"/>
<path d="M136.712 159.245C136.728 161.808 121.271 163.971 102.188 164.079C83.105 164.187 67.6248 162.201 67.6094 159.637C67.594 157.074 83.0512 154.911 102.134 154.803C121.217 154.695 136.697 156.681 136.712 159.245Z" fill="#8FBADB"/>
<path d="M136.097 159.252C136.113 161.792 120.802 163.932 101.904 164.04C83.0057 164.148 67.6717 162.177 67.6563 159.637C67.6409 157.097 82.9518 154.957 101.85 154.849C120.748 154.741 136.082 156.712 136.097 159.252Z" fill="#8EBADB"/>
<path d="M101.61 163.999C120.324 163.895 135.484 161.773 135.47 159.261C135.455 156.748 120.273 154.796 101.559 154.901C82.8447 155.005 67.6852 157.127 67.6992 159.639C67.7133 162.152 82.8955 164.104 101.61 163.999Z" fill="#8DB9DA"/>
<path d="M134.85 159.26C134.865 161.747 119.854 163.848 101.318 163.956C82.7894 164.064 67.7556 162.132 67.7402 159.637C67.7249 157.151 82.7355 155.05 101.272 154.942C119.8 154.834 134.834 156.766 134.85 159.26Z" fill="#8BB8DA"/>
<path d="M134.227 159.259C134.242 161.723 119.378 163.801 101.034 163.909C82.6823 164.009 67.8025 162.1 67.7871 159.637C67.7717 157.173 82.6362 155.095 100.98 154.987C119.332 154.887 134.211 156.796 134.227 159.259Z" fill="#8AB8D9"/>
<path d="M133.603 159.26C133.618 161.7 118.9 163.756 100.741 163.863C82.5742 163.964 67.8406 162.07 67.8252 159.637C67.8098 157.205 82.528 155.142 100.687 155.034C118.854 154.934 133.587 156.828 133.603 159.26Z" fill="#89B7D9"/>
<path d="M132.979 159.268C132.994 161.685 118.43 163.717 100.448 163.825C82.466 163.925 67.8787 162.054 67.8633 159.637C67.8479 157.22 82.4121 155.188 100.394 155.08C118.376 154.98 132.964 156.85 132.979 159.268Z" fill="#88B6D9"/>
<path d="M132.364 159.267C132.379 161.654 117.961 163.678 100.164 163.778C82.3667 163.878 67.9257 162.023 67.918 159.637C67.9103 157.251 82.3205 155.226 100.118 155.126C117.915 155.026 132.356 156.881 132.364 159.267Z" fill="#87B5D8"/>
<path d="M131.74 159.275C131.755 161.638 117.484 163.639 99.8711 163.74C82.2586 163.84 67.9715 162 67.9561 159.637C67.9407 157.273 82.2124 155.272 99.8249 155.172C117.437 155.072 131.725 156.912 131.74 159.275Z" fill="#85B5D8"/>
<path d="M131.116 159.276C131.131 161.616 117.006 163.594 99.5782 163.694C82.1504 163.794 68.0095 161.977 67.9942 159.637C67.9788 157.297 82.0965 155.319 99.532 155.219C116.96 155.119 131.101 156.935 131.116 159.276Z" fill="#84B4D8"/>
<path d="M130.493 159.283C130.508 161.6 116.537 163.555 99.2862 163.655C82.0432 163.755 68.0486 161.954 68.0332 159.637C68.0178 157.32 81.9893 155.365 99.2401 155.265C116.483 155.165 130.478 156.966 130.493 159.283Z" fill="#83B3D7"/>
<path d="M98.9985 163.614C116.063 163.518 129.887 161.584 129.874 159.292C129.861 157.001 116.017 155.22 98.9522 155.316C81.8874 155.411 68.0641 157.346 68.0769 159.637C68.0897 161.929 81.9338 163.709 98.9985 163.614Z" fill="#82B2D7"/>
<path d="M98.7051 163.569C115.587 163.475 129.262 161.562 129.25 159.296C129.237 157.03 115.541 155.269 98.6592 155.363C81.7773 155.458 68.1021 157.371 68.1147 159.637C68.1274 161.903 81.8231 163.663 98.7051 163.569Z" fill="#81B2D6"/>
<path d="M128.623 159.29C128.638 161.53 115.113 163.424 98.4164 163.516C81.7199 163.609 68.1718 161.869 68.1641 159.629C68.1487 157.389 81.6737 155.495 98.3702 155.403C115.067 155.311 128.615 157.05 128.623 159.29Z" fill="#7FB1D6"/>
<path d="M128.006 159.291C128.022 161.508 114.643 163.378 98.1313 163.471C81.6195 163.563 68.2254 161.839 68.21 159.622C68.1946 157.405 81.5733 155.534 98.0851 155.442C114.597 155.35 127.991 157.074 128.006 159.291Z" fill="#7EB0D6"/>
<path d="M127.383 159.298C127.399 161.492 114.166 163.34 97.8393 163.432C81.5123 163.525 68.2644 161.823 68.249 159.629C68.2336 157.436 81.4661 155.588 97.7932 155.496C114.12 155.403 127.368 157.105 127.383 159.298Z" fill="#7DAFD5"/>
<path d="M126.76 159.298C126.775 161.469 113.696 163.293 97.5464 163.386C81.4042 163.478 68.3025 161.792 68.2871 159.629C68.2717 157.466 81.3503 155.634 97.5002 155.542C113.65 155.449 126.744 157.135 126.76 159.298Z" fill="#7CAFD5"/>
<path d="M126.136 159.306C126.151 161.446 113.219 163.262 97.2535 163.347C81.2883 163.439 68.3406 161.769 68.3252 159.629C68.3098 157.489 81.2421 155.672 97.2073 155.588C113.173 155.495 126.12 157.166 126.136 159.306Z" fill="#7AAED4"/>
<path d="M125.513 159.306C125.528 161.423 112.742 163.217 96.9617 163.302C81.1812 163.386 68.3798 161.747 68.3721 159.63C68.3567 157.513 81.1427 155.719 96.9232 155.635C112.704 155.542 125.505 157.19 125.513 159.306Z" fill="#79ADD4"/>
<path d="M124.889 159.306C124.904 161.4 112.264 163.171 96.6688 163.255C81.073 163.34 68.4179 161.716 68.4102 159.622C68.3948 157.528 81.0345 155.758 96.6303 155.673C112.226 155.588 124.881 157.213 124.889 159.306Z" fill="#78ACD4"/>
<path d="M124.273 159.314C124.288 161.385 111.802 163.132 96.3915 163.217C80.9805 163.301 68.4793 161.7 68.4639 159.63C68.4485 157.559 80.9343 155.812 96.3453 155.727C111.756 155.642 124.257 157.243 124.273 159.314Z" fill="#77ACD3"/>
<path d="M123.65 159.314C123.658 161.361 111.326 163.086 96.0995 163.17C80.8733 163.255 68.5183 161.669 68.5029 159.622C68.4875 157.574 80.8271 155.85 96.0533 155.765C111.28 155.68 123.635 157.266 123.65 159.314Z" fill="#75ABD3"/>
<path d="M95.8015 163.131C110.847 163.047 123.034 161.342 123.023 159.323C123.012 157.303 110.806 155.735 95.7606 155.819C80.7152 155.903 68.5277 157.608 68.539 159.627C68.5503 161.646 80.7561 163.215 95.8015 163.131Z" fill="#74AAD2"/>
<path d="M122.402 159.322C122.41 161.316 110.378 163.001 95.5138 163.086C80.6494 163.171 68.5946 161.623 68.5869 159.622C68.5792 157.621 80.6109 155.942 95.4753 155.858C110.34 155.773 122.394 157.32 122.402 159.322Z" fill="#73A9D2"/>
<path d="M121.779 159.329C121.787 161.3 109.902 162.963 95.2218 163.047C80.5422 163.132 68.6337 161.6 68.626 159.63C68.6183 157.659 80.5037 155.996 95.1834 155.912C109.863 155.827 121.772 157.359 121.779 159.329Z" fill="#72A8D2"/>
<path d="M121.155 159.329C121.163 161.277 109.424 162.916 94.9289 163.001C80.434 163.086 68.6718 161.569 68.6641 159.629C68.6564 157.682 80.3955 156.042 94.8904 155.957C109.385 155.873 121.148 157.389 121.155 159.329Z" fill="#70A8D1"/>
<path d="M120.54 159.337C120.548 161.261 108.955 162.878 94.6448 162.963C80.3346 163.04 68.7263 161.554 68.7109 159.629C68.7032 157.705 80.2961 156.089 94.6063 156.004C108.917 155.927 120.525 157.413 120.54 159.337Z" fill="#6FA7D1"/>
<path d="M119.916 159.337C119.924 161.23 108.485 162.839 94.3519 162.916C80.2264 162.993 68.7644 161.523 68.749 159.629C68.7413 157.736 80.1802 156.127 94.3134 156.05C108.439 155.973 119.901 157.443 119.916 159.337Z" fill="#6EA6D0"/>
<path d="M119.293 159.337C119.3 161.208 108.008 162.794 94.0669 162.871C80.1262 162.948 68.8104 161.493 68.8027 159.622C68.795 157.752 80.0877 156.166 94.0284 156.089C107.969 156.012 119.285 157.467 119.293 159.337Z" fill="#6CA5D0"/>
<path d="M118.67 159.345C118.677 161.192 107.531 162.755 93.7749 162.832C80.0113 162.909 68.8495 161.477 68.8418 159.63C68.8341 157.782 79.9805 156.22 93.7365 156.143C107.5 156.066 118.662 157.497 118.67 159.345Z" fill="#6BA5CF"/>
<path d="M118.046 159.345C118.053 161.169 107.061 162.708 93.482 162.785C79.9031 162.862 68.8876 161.446 68.8799 159.622C68.8722 157.797 79.8646 156.258 93.4435 156.181C107.022 156.104 118.038 157.52 118.046 159.345Z" fill="#6AA4CF"/>
<path d="M117.422 159.352C117.429 161.153 106.583 162.67 93.1891 162.747C79.795 162.824 68.9257 161.423 68.918 159.629C68.9103 157.828 79.7565 156.311 93.1506 156.234C106.545 156.157 117.414 157.558 117.422 159.352Z" fill="#68A3CF"/>
<path d="M92.8969 162.7C106.106 162.627 116.805 161.13 116.796 159.357C116.786 157.584 106.07 156.207 92.861 156.28C79.6522 156.354 68.9524 157.851 68.9623 159.624C68.9722 161.397 79.688 162.774 92.8969 162.7Z" fill="#67A2CE"/>
<path d="M116.183 159.36C116.191 161.108 105.637 162.586 92.6122 162.663C79.5875 162.74 69.0184 161.377 69.0107 159.63C69.003 157.882 79.5567 156.404 92.5814 156.327C105.606 156.25 116.175 157.613 116.183 159.36Z" fill="#66A1CE"/>
<path d="M115.559 159.36C115.567 161.085 105.167 162.539 92.3193 162.616C79.4793 162.686 69.0565 161.346 69.0488 159.622C69.0411 157.898 79.4408 156.443 92.2885 156.366C105.128 156.297 115.551 157.636 115.559 159.36Z" fill="#65A1CD"/>
<path d="M114.936 159.36C114.944 161.061 104.69 162.493 92.0273 162.57C79.3644 162.639 69.0956 161.323 69.0879 159.621C69.0802 157.92 79.3337 156.488 91.9965 156.411C104.659 156.334 114.928 157.658 114.936 159.36Z" fill="#63A0CD"/>
<path d="M114.312 159.368C114.32 161.046 104.213 162.454 91.7422 162.531C79.2641 162.601 69.1415 161.3 69.1338 159.629C69.1261 157.951 79.2333 156.543 91.7037 156.466C104.182 156.396 114.304 157.697 114.312 159.368Z" fill="#629FCC"/>
<path d="M91.4483 162.486C103.743 162.417 113.703 161.024 113.693 159.375C113.684 157.725 103.71 156.444 91.415 156.512C79.1202 156.581 69.1608 157.974 69.17 159.623C69.1792 161.273 79.1536 162.554 91.4483 162.486Z" fill="#619ECC"/>
<path d="M113.065 159.376C113.073 161 103.266 162.378 91.1573 162.439C79.0487 162.509 69.2263 161.246 69.2109 159.622C69.2032 157.998 79.0102 156.62 91.1189 156.558C103.227 156.489 113.05 157.752 113.065 159.376Z" fill="#5F9DCC"/>
<path d="M90.8627 162.404C102.788 162.338 112.447 160.984 112.438 159.382C112.429 157.779 102.755 156.534 90.8302 156.6C78.9053 156.667 69.2455 158.02 69.2545 159.623C69.2634 161.225 78.9378 162.471 90.8627 162.404Z" fill="#5E9CCB"/>
<path d="M111.825 159.383C111.833 160.961 102.319 162.293 90.5794 162.354C78.8403 162.424 69.3104 161.2 69.3027 159.622C69.295 158.044 78.8095 156.712 90.5486 156.65C102.288 156.581 111.818 157.805 111.825 159.383Z" fill="#5D9CCB"/>
<path d="M111.202 159.383C111.21 160.938 101.85 162.247 90.2875 162.308C78.7254 162.37 69.3495 161.169 69.3418 159.614C69.3341 158.059 78.6946 156.75 90.2567 156.689C101.819 156.627 111.195 157.828 111.202 159.383Z" fill="#5B9BCA"/>
<path d="M110.578 159.383C110.586 160.907 101.372 162.2 89.9946 162.262C78.6172 162.323 69.3876 161.138 69.3799 159.614C69.3722 158.09 78.5864 156.796 89.9638 156.735C101.341 156.673 110.571 157.859 110.578 159.383Z" fill="#5A9ACA"/>
<path d="M109.956 159.391C109.963 160.892 100.895 162.162 89.7026 162.224C78.51 162.286 69.4343 161.123 69.419 159.614C69.4113 158.113 78.4793 156.843 89.6718 156.782C100.864 156.72 109.94 157.882 109.956 159.391Z" fill="#5899C9"/>
<path d="M109.332 159.391C109.34 160.869 100.425 162.116 89.4176 162.178C78.4098 162.239 69.4804 161.092 69.4727 159.614C69.465 158.136 78.379 156.889 89.3868 156.828C100.395 156.766 109.324 157.913 109.332 159.391Z" fill="#5798C9"/>
<path d="M108.716 159.398C108.723 160.853 99.9556 162.077 89.1325 162.139C78.3094 162.2 69.5263 161.069 69.5186 159.622C69.5109 158.167 78.2786 156.943 89.1017 156.881C99.9248 156.82 108.708 157.951 108.716 159.398Z" fill="#5697C9"/>
<path d="M108.093 159.398C108.1 160.83 99.4789 162.031 88.8406 162.092C78.2022 162.154 69.5653 161.045 69.5576 159.614C69.5499 158.182 78.1714 156.981 88.8098 156.919C99.4481 156.858 108.085 157.966 108.093 159.398Z" fill="#5497C8"/>
<path d="M107.469 159.406C107.477 160.807 99.0013 161.992 88.5477 162.054C78.0864 162.115 69.6034 161.022 69.5957 159.621C69.588 158.22 78.0556 157.035 88.5169 156.973C98.9782 156.912 107.461 158.005 107.469 159.406Z" fill="#5396C8"/>
<path d="M106.845 159.406C106.853 160.784 98.5313 161.954 88.2548 162.008C77.9782 162.07 69.6415 160.992 69.6338 159.614C69.6261 158.236 77.9474 157.066 88.224 157.012C98.5005 156.951 106.837 158.028 106.845 159.406Z" fill="#5295C7"/>
<path d="M106.222 159.414C106.222 160.769 98.0547 161.916 87.9629 161.97C77.8711 162.024 69.6884 160.977 69.6807 159.622C69.6807 158.267 77.848 157.12 87.9398 157.066C98.0316 157.013 106.214 158.059 106.222 159.414Z" fill="#5094C7"/>
<path d="M105.598 159.414C105.598 160.746 97.5771 161.869 87.67 161.923C77.7629 161.977 69.7264 160.946 69.7188 159.614C69.7188 158.282 77.7398 157.158 87.6469 157.105C97.554 157.051 105.59 158.082 105.598 159.414Z" fill="#4F93C6"/>
<path d="M104.982 159.414C104.982 160.722 97.1149 161.823 87.3849 161.877C77.6626 161.931 69.7723 160.915 69.7646 159.614C69.7646 158.305 77.6318 157.204 87.3618 157.15C97.0841 157.097 104.974 158.113 104.982 159.414Z" fill="#4E92C6"/>
<path d="M104.359 159.421C104.359 160.699 96.6383 161.784 87.1008 161.838C77.5632 161.892 69.8192 160.899 69.8115 159.614C69.8115 158.336 77.5324 157.25 87.07 157.196C96.6075 157.143 104.352 158.136 104.359 159.421Z" fill="#4C92C5"/>
<path d="M103.735 159.422C103.735 160.677 96.1607 161.739 86.8078 161.793C77.4473 161.847 69.8573 160.869 69.8496 159.614C69.8496 158.36 77.4242 157.297 86.777 157.243C96.1299 157.189 103.728 158.167 103.735 159.422Z" fill="#4B91C5"/>
<path d="M103.112 159.429C103.112 160.661 95.6917 161.7 86.5159 161.754C77.3401 161.808 69.8964 160.846 69.8887 159.614C69.8887 158.382 77.3093 157.343 86.4851 157.289C95.6609 157.235 103.105 158.198 103.112 159.429Z" fill="#4990C5"/>
<path d="M102.489 159.429C102.489 160.638 95.2141 161.654 86.2231 161.708C77.2321 161.761 69.9423 160.822 69.9346 159.614C69.9346 158.405 77.209 157.389 86.2 157.335C95.191 157.281 102.481 158.22 102.489 159.429Z" fill="#488FC4"/>
<path d="M101.865 159.437C101.865 160.622 94.7365 161.615 85.9302 161.669C77.1239 161.716 69.9804 160.799 69.9727 159.622C69.9727 158.436 77.1008 157.443 85.9071 157.389C94.7134 157.343 101.857 158.259 101.865 159.437Z" fill="#478EC4"/>
<path d="M101.242 159.437C101.242 160.592 94.2598 161.569 85.6382 161.623C77.0167 161.677 70.0194 160.777 70.0117 159.614C70.004 158.452 76.9936 157.482 85.6151 157.428C94.2367 157.374 101.234 158.275 101.242 159.437Z" fill="#458DC3"/>
<path d="M85.3468 161.589C93.7856 161.542 100.622 160.583 100.615 159.448C100.609 158.313 93.7627 157.431 85.3238 157.478C76.885 157.525 70.0491 158.484 70.0554 159.619C70.0618 160.754 76.9079 161.636 85.3468 161.589Z" fill="#448CC3"/>
<path d="M100.002 159.445C100.002 160.553 93.3199 161.492 85.0602 161.539C76.8005 161.585 70.1034 160.723 70.0957 159.614C70.0957 158.506 76.7774 157.567 85.0371 157.52C93.2968 157.474 99.9939 158.336 100.002 159.445Z" fill="#428CC2"/>
<path d="M99.3789 159.445C99.3789 160.53 92.8435 161.446 84.7762 161.492C76.7012 161.538 70.1504 160.699 70.1504 159.614C70.1504 158.528 76.6858 157.612 84.7531 157.566C92.8281 157.52 99.3789 158.359 99.3789 159.445Z" fill="#418BC2"/>
<path d="M98.755 159.452C98.755 160.514 92.3735 161.407 84.4833 161.453C76.593 161.5 70.1962 160.676 70.1885 159.614C70.1885 158.551 76.5699 157.658 84.4602 157.612C92.3504 157.566 98.7473 158.39 98.755 159.452Z" fill="#3F8AC1"/>
<path d="M98.1311 159.453C98.1311 160.484 91.8958 161.362 84.1904 161.408C76.4849 161.454 70.2343 160.646 70.2266 159.614C70.2266 158.583 76.4618 157.705 84.1673 157.659C91.8728 157.613 98.1234 158.421 98.1311 159.453Z" fill="#3E89C1"/>
<path d="M97.5081 159.46C97.5081 160.469 91.4192 161.323 83.8984 161.369C76.3777 161.415 70.2733 160.63 70.2656 159.614C70.2579 158.598 76.3546 157.751 83.8753 157.705C91.3961 157.659 97.5004 158.444 97.5081 159.46Z" fill="#3D88C0"/>
<path d="M96.892 159.46C96.892 160.446 90.9493 161.277 83.6133 161.315C76.2773 161.354 70.3192 160.592 70.3115 159.607C70.3115 158.621 76.2542 157.79 83.5902 157.751C90.9262 157.713 96.8843 158.475 96.892 159.46Z" fill="#3B87C0"/>
<path d="M96.2682 159.46C96.2682 160.422 90.4794 161.231 83.3205 161.269C76.1616 161.308 70.3574 160.561 70.3574 159.606C70.3574 158.644 76.1462 157.836 83.3051 157.797C90.4641 157.759 96.2682 158.506 96.2682 159.46Z" fill="#3A86C0"/>
<path d="M95.6452 159.467C95.6452 160.407 90.0028 161.192 83.0286 161.23C76.0544 161.269 70.3965 160.545 70.3965 159.606C70.3965 158.667 76.039 157.882 83.0132 157.843C89.9874 157.805 95.6452 158.528 95.6452 159.467Z" fill="#3885BF"/>
<path d="M95.0213 159.467C95.0213 160.376 89.5251 161.145 82.7356 161.184C75.9462 161.222 70.4423 160.514 70.4346 159.606C70.4346 158.697 75.9308 157.928 82.7202 157.889C89.5097 157.851 95.0136 158.559 95.0213 159.467Z" fill="#3784BF"/>
<path d="M94.3985 159.476C94.3985 160.361 89.0562 161.115 82.4515 161.146C75.8468 161.177 70.4892 160.492 70.4815 159.607C70.4738 158.721 75.8237 157.967 82.4284 157.936C89.0331 157.898 94.3908 158.59 94.3985 159.476Z" fill="#3584BE"/>
<path d="M93.7746 159.475C93.7746 160.338 88.5785 161.069 82.1586 161.1C75.7386 161.138 70.5272 160.468 70.5195 159.606C70.5195 158.744 75.7155 158.013 82.1355 157.982C88.5555 157.944 93.7669 158.613 93.7746 159.475Z" fill="#3483BE"/>
<path d="M93.1586 159.483C93.1586 160.322 88.1088 161.03 81.8736 161.061C75.6384 161.099 70.5732 160.445 70.5732 159.606C70.5732 158.767 75.623 158.059 81.8582 158.028C88.0934 157.989 93.1586 158.644 93.1586 159.483Z" fill="#3282BD"/>
<path d="M92.5356 159.483C92.5356 160.299 87.6321 160.984 81.5817 161.015C75.5235 161.046 70.6123 160.414 70.6123 159.606C70.6123 158.79 75.5158 158.105 81.5663 158.074C87.6244 158.044 92.5356 158.675 92.5356 159.483Z" fill="#3181BD"/>
<path d="M91.9117 159.49C91.9117 160.276 87.1622 160.945 81.2887 160.976C75.4153 161.007 70.6504 160.399 70.6504 159.606C70.6504 158.821 75.3999 158.151 81.2733 158.12C87.1468 158.089 91.904 158.698 91.9117 159.49Z" fill="#2F80BC"/>
<path d="M91.2878 159.491C91.2878 160.253 86.6845 160.9 80.9958 160.931C75.3072 160.961 70.6962 160.369 70.6885 159.607C70.6885 158.845 75.2918 158.198 80.9804 158.167C86.6691 158.136 91.2801 158.729 91.2878 159.491Z" fill="#2E7FBC"/>
<path d="M90.6648 159.491C90.6648 160.23 86.2078 160.853 80.7039 160.884C75.2 160.915 70.7352 160.338 70.7275 159.599C70.7199 158.86 75.1846 158.236 80.6885 158.205C86.1924 158.174 90.6571 158.752 90.6648 159.491Z" fill="#2C7EBB"/>
<path d="M90.041 159.498C90.041 160.214 85.7379 160.815 80.4111 160.845C75.0919 160.876 70.7734 160.322 70.7734 159.606C70.7734 158.89 75.0765 158.29 80.4034 158.259C85.7225 158.228 90.041 158.782 90.0487 159.498H90.041Z" fill="#2B7DBB"/>
<path d="M89.425 159.498C89.425 160.191 85.2682 160.768 80.1338 160.799C74.9993 160.83 70.8271 160.291 70.8271 159.606C70.8271 158.913 74.984 158.336 80.1184 158.305C85.2528 158.274 89.425 158.813 89.425 159.498Z" fill="#2A7CBA"/>
<path d="M88.8021 159.507C88.8021 160.169 84.7915 160.731 79.8418 160.761C74.8922 160.792 70.8662 160.276 70.8662 159.607C70.8662 158.945 74.8768 158.383 79.8264 158.352C84.7838 158.321 88.8021 158.837 88.8021 159.507Z" fill="#287BBA"/>
<path d="M88.1781 159.506C88.1781 160.145 84.3138 160.684 79.5489 160.714C74.7763 160.737 70.912 160.245 70.9043 159.606C70.9043 158.967 74.7686 158.428 79.5335 158.397C84.3061 158.374 88.1704 158.867 88.1781 159.506Z" fill="#277BB9"/>
<path d="M87.5542 159.514C87.5542 160.13 83.8439 160.653 79.256 160.677C74.6681 160.7 70.9501 160.222 70.9424 159.607C70.9347 158.991 74.6527 158.467 79.2406 158.444C83.8285 158.421 87.5465 158.898 87.5542 159.514Z" fill="#257AB9"/>
<path d="M86.9313 159.514C86.9313 160.107 83.3672 160.607 78.9641 160.63C74.5609 160.653 70.9891 160.199 70.9814 159.606C70.9814 159.014 74.5455 158.513 78.9487 158.49C83.3518 158.467 86.9236 158.921 86.9313 159.514Z" fill="#2479B8"/>
<path d="M86.3075 159.514C86.3075 160.083 82.8896 160.56 78.6713 160.584C74.4529 160.607 71.0273 160.168 71.0273 159.598C71.0273 159.029 74.4452 158.551 78.6636 158.528C82.8819 158.505 86.3075 158.944 86.3075 159.514Z" fill="#2278B8"/>
<path d="M85.6845 159.522C85.6845 160.061 82.4206 160.523 78.3793 160.546C74.338 160.569 71.0664 160.146 71.0664 159.607C71.0664 159.068 74.3303 158.606 78.3716 158.583C82.4053 158.56 85.6845 158.983 85.6845 159.522Z" fill="#2177B7"/>
<path d="M85.0684 159.522C85.0684 160.037 81.9508 160.476 78.0942 160.499C74.2376 160.522 71.1123 160.122 71.1123 159.599C71.1123 159.083 74.2299 158.644 78.0865 158.621C81.9431 158.598 85.0684 158.998 85.0684 159.522Z" fill="#1F76B7"/>
<path d="M84.4446 159.529C84.4446 160.022 81.4733 160.438 77.8091 160.461C74.1373 160.484 71.1659 160.099 71.1582 159.606C71.1505 159.114 74.1296 158.698 77.7937 158.675C81.4656 158.652 84.4369 159.037 84.4446 159.529Z" fill="#1E75B6"/>
<path d="M83.8217 159.529C83.8217 159.999 80.9966 160.391 77.5172 160.414C74.0301 160.437 71.205 160.068 71.1973 159.606C71.1896 159.144 74.0224 158.744 77.5018 158.721C80.9889 158.698 83.814 159.067 83.8217 159.529Z" fill="#1C74B6"/>
<path d="M83.1978 159.537C83.1978 159.984 80.5267 160.353 77.2243 160.377C73.922 160.4 71.2432 160.053 71.2432 159.607C71.2432 159.16 73.9143 158.791 77.2167 158.768C80.519 158.745 83.1978 159.091 83.1978 159.537Z" fill="#1A73B6"/>
<path d="M82.5739 159.537C82.5739 159.952 80.049 160.306 76.9314 160.329C73.8138 160.345 71.2812 160.022 71.2812 159.606C71.2812 159.19 73.8061 158.836 76.9237 158.813C80.0413 158.798 82.5739 159.121 82.5739 159.537Z" fill="#1972B5"/>
<path d="M81.951 159.545C81.951 159.938 79.5723 160.269 76.6395 160.292C73.7066 160.307 71.3203 159.999 71.3203 159.607C71.3203 159.214 73.6989 158.883 76.6318 158.86C79.5646 158.845 81.951 159.152 81.951 159.545Z" fill="#1771B5"/>
<path d="M81.3349 159.545C81.3349 159.914 79.1102 160.23 76.3544 160.245C73.5986 160.261 71.3662 159.976 71.3662 159.606C71.3662 159.237 73.5909 158.921 76.3467 158.906C79.1025 158.89 81.3349 159.175 81.3349 159.545Z" fill="#1670B4"/>
<path d="M80.7109 159.544C80.7109 159.891 78.6325 160.183 76.0615 160.199C73.4904 160.214 71.412 159.945 71.4043 159.598C71.3966 159.252 73.4827 158.959 76.0538 158.944C78.6248 158.929 80.7032 159.198 80.7109 159.544Z" fill="#146FB4"/>
<path d="M80.0881 159.552C80.0881 159.875 78.1559 160.145 75.7696 160.152C73.3833 160.168 71.4512 159.914 71.4512 159.598C71.4512 159.275 73.3833 159.005 75.7696 158.998C78.1559 158.982 80.0881 159.236 80.0881 159.552Z" fill="#136EB3"/>
<path d="M79.4642 159.552C79.4642 159.845 77.686 160.099 75.4767 160.106C73.2751 160.122 71.4893 159.891 71.4893 159.591C71.4893 159.298 73.2674 159.044 75.469 159.036C77.6706 159.029 79.4565 159.252 79.4565 159.552H79.4642Z" fill="#116EB3"/>
<path d="M78.8404 159.56C78.8404 159.829 77.2084 160.06 75.1916 160.068C73.1748 160.075 71.5352 159.868 71.5352 159.598C71.5352 159.329 73.1671 159.098 75.1839 159.09C77.2007 159.082 78.8404 159.29 78.8404 159.56Z" fill="#106DB2"/>
<path d="M78.2174 159.56C78.2174 159.807 76.7317 160.014 74.8997 160.022C73.0676 160.03 71.5742 159.837 71.5742 159.591C71.5742 159.345 73.0599 159.137 74.892 159.129C76.724 159.121 78.2174 159.314 78.2174 159.56Z" fill="#0E6CB2"/>
<path d="M77.6013 159.568C77.6013 159.791 76.2619 159.976 74.6146 159.983C72.9595 159.991 71.6201 159.822 71.6201 159.599C71.6201 159.375 72.9595 159.191 74.6069 159.183C76.2619 159.175 77.6013 159.345 77.6013 159.568Z" fill="#0D6BB1"/>
<path d="M76.9784 159.567C76.9784 159.768 75.7929 159.929 74.3227 159.937C72.8524 159.945 71.6669 159.791 71.6592 159.598C71.6515 159.406 72.8447 159.236 74.315 159.229C75.7852 159.221 76.9707 159.375 76.9784 159.567Z" fill="#0B6AB1"/>
<path d="M76.3545 159.568C76.3545 159.737 75.3153 159.883 74.0298 159.891C72.7443 159.891 71.7051 159.768 71.7051 159.591C71.7051 159.422 72.7443 159.275 74.0298 159.268C75.3153 159.268 76.3545 159.391 76.3545 159.568Z" fill="#0969B0"/>
<path d="M75.7306 159.575C75.7306 159.722 74.8377 159.845 73.7369 159.852C72.6361 159.86 71.7432 159.745 71.7432 159.598C71.7432 159.452 72.6361 159.329 73.7369 159.321C74.8377 159.321 75.7306 159.429 75.7306 159.575Z" fill="#0868B0"/>
<path d="M75.1077 159.576C75.1077 159.699 74.3687 159.807 73.4449 159.807C72.5212 159.807 71.7822 159.714 71.7822 159.591C71.7822 159.468 72.5212 159.36 73.4449 159.36C74.361 159.36 75.1077 159.453 75.1077 159.576Z" fill="#0667AF"/>
<path d="M74.4837 159.583C74.4837 159.683 73.891 159.768 73.152 159.768C72.4207 159.768 71.8203 159.699 71.8203 159.599C71.8203 159.499 72.413 159.414 73.152 159.414C73.8833 159.414 74.4837 159.483 74.4837 159.583Z" fill="#0566AF"/>
<path d="M73.8599 159.583C73.8599 159.66 73.4135 159.722 72.8669 159.722C72.3127 159.722 71.8662 159.668 71.8662 159.591C71.8662 159.514 72.3127 159.452 72.8592 159.452C73.4135 159.452 73.8599 159.506 73.8599 159.583Z" fill="#0365AE"/>
<path d="M73.2449 159.591C73.2449 159.637 72.9447 159.683 72.5829 159.683C72.2211 159.683 71.9209 159.644 71.9209 159.598C71.9209 159.552 72.2211 159.506 72.5829 159.506C72.9447 159.506 73.2449 159.544 73.2449 159.591Z" fill="#0264AE"/>
<path d="M72.621 159.591C72.621 159.591 72.4747 159.637 72.29 159.637C72.1052 159.637 71.959 159.622 71.959 159.591C71.959 159.568 72.1052 159.545 72.29 159.545C72.4747 159.545 72.621 159.56 72.621 159.591Z" fill="#0063AD"/>
</g>
</g>
</g>
<g clip-path="url(#clip1_6610_6615)">
<g opacity="0.5">
<path d="M1.30062 52.4069C1.33911 52.3376 1.3699 52.276 1.40839 52.2144C1.43148 52.1683 1.46228 52.1221 1.48537 52.0759C1.51616 52.0297 1.53925 51.9835 1.57005 51.9296C2.54766 50.1822 3.92557 48.7735 5.51131 48.0807L5.95779 47.8883L60.3581 24.2561L114.758 0.623841L115.205 0.431397C116.791 -0.253707 118.284 -0.0920531 119.446 0.723913C119.477 0.747006 119.508 0.770099 119.539 0.785495C119.569 0.808588 119.6 0.831682 119.631 0.854775L125.92 5.51194L121.848 6.71279L127.144 79.7032C127.283 81.5892 126.744 83.5829 125.759 85.3226C125.735 85.3688 125.705 85.4227 125.674 85.4689C125.651 85.5151 125.62 85.5613 125.597 85.6075C124.619 87.3549 123.241 88.7635 121.656 89.4563L13.1706 136.59L13.594 141.178L7.6359 136.752C7.6359 136.752 7.57432 136.705 7.54353 136.682C6.37347 135.874 5.58829 134.45 5.44973 132.572L0.0227892 57.8338C-0.108073 56.0171 0.384585 54.1004 1.30062 52.4069Z" fill="white"/>
<path d="M18.1515 141.694L127.845 94.0444C131.163 92.6049 133.603 88.0016 133.295 83.7601L127.945 10.0923C127.637 5.85081 124.697 3.57996 121.379 5.02715L11.693 52.6688C8.3753 54.1083 5.9351 58.7115 6.24301 62.953L11.593 136.621C11.9009 140.862 14.8414 143.133 18.1592 141.686L18.1515 141.694Z" fill="url(#paint0_linear_6610_6615)"/>
<path d="M12.1395 52.476L66.5398 28.8438L72.8289 115.444L18.6057 141.493C15.0416 143.04 11.9163 141.101 11.6315 137.152L6.20452 62.4138C5.9197 58.4648 8.57544 54.0155 12.1395 52.4683V52.476Z" fill="url(#paint1_linear_6610_6615)"/>
<path d="M120.94 5.21198L66.54 28.8442L72.7906 114.906L127.406 94.2369C130.971 92.6897 133.626 88.2327 133.341 84.2914L127.915 9.55354C127.63 5.60457 124.504 3.66473 120.94 5.21198Z" fill="url(#paint2_linear_6610_6615)"/>
<path d="M132.056 89.7184C130.978 91.7121 129.323 93.4056 127.399 94.237L18.5982 141.501C16.6737 142.34 14.8801 142.148 13.5869 141.178L68.9494 62.168L132.048 89.7184H132.056Z" fill="url(#paint3_linear_6610_6615)"/>
<path d="M7.48242 56.9951C8.56011 55.0014 10.2151 53.3078 12.1396 52.4765L120.94 5.21205C122.865 4.37299 124.658 4.56544 125.951 5.53536L70.5889 84.5455L7.48242 56.9951Z" fill="#9CC3FF"/>
</g>
<g opacity="0.5">
<path d="M23.4551 62.3903C23.4859 62.321 23.5167 62.2517 23.5552 62.1901C23.5783 62.1439 23.6013 62.0977 23.6244 62.0439C23.6475 61.9977 23.6706 61.9438 23.7014 61.8976C24.579 60.0963 25.8799 58.6106 27.4195 57.8332L27.8582 57.6099L80.819 30.914L133.78 4.22576L134.219 4.00252C135.758 3.22505 137.259 3.30203 138.468 4.04871C138.499 4.06411 138.537 4.0872 138.568 4.11029C138.599 4.13339 138.637 4.14878 138.668 4.17188L145.219 8.45954L141.224 9.89133L150.676 82.4584C150.923 84.329 150.499 86.3535 149.614 88.1471C149.591 88.201 149.568 88.2471 149.545 88.301C149.522 88.3472 149.499 88.3934 149.476 88.4396C148.598 90.2409 147.297 91.7265 145.758 92.504L40.1054 145.757L40.7905 150.314L34.5861 146.235C34.5861 146.235 34.5245 146.196 34.486 146.173C33.2698 145.434 32.4076 144.056 32.1613 142.186L22.4852 67.8788C22.2542 66.0775 22.6391 64.13 23.4551 62.3903Z" fill="white"/>
<path d="M45.3704 150.569L152.17 96.738C155.403 95.1137 157.573 90.3719 157.027 86.1612L147.489 12.9167C146.943 8.69833 143.879 6.60453 140.646 8.22877L33.8468 62.0594C30.6137 63.6837 28.4429 68.4255 28.9895 72.6362L38.527 145.881C39.0736 150.099 42.1373 152.193 45.3704 150.569Z" fill="url(#paint4_linear_6610_6615)"/>
<path d="M34.2781 61.8366L87.2389 35.1406L98.4546 121.248L45.8017 150.346C42.33 152.093 39.1046 150.33 38.5888 146.412L28.9127 72.1054C28.4047 68.1795 30.7987 63.584 34.2704 61.8366H34.2781Z" fill="url(#paint5_linear_6610_6615)"/>
<path d="M140.207 8.45189L87.2461 35.1478L98.3925 120.709L151.738 96.9611C155.21 95.2137 157.612 90.6104 157.096 86.6922L147.42 12.3855C146.912 8.45959 143.679 6.6968 140.207 8.45189Z" fill="url(#paint6_linear_6610_6615)"/>
<path d="M156.126 92.1809C155.164 94.2362 153.609 96.0144 151.731 96.9613L45.809 150.353C43.9307 151.3 42.1295 151.208 40.79 150.315L91.5647 68.2793L156.134 92.1809H156.126Z" fill="url(#paint7_linear_6610_6615)"/>
<path d="M29.8905 66.6163C30.8527 64.561 32.4077 62.7828 34.2859 61.836L140.208 8.45181C142.086 7.50499 143.887 7.59736 145.226 8.4903L94.4519 90.5257L29.8828 66.624L29.8905 66.6163Z" fill="#9CC3FF"/>
</g>
<path d="M47.7415 71.0581C47.7723 70.9888 47.7954 70.9195 47.8262 70.8502C47.8493 70.8041 47.8647 70.7502 47.8878 70.704C47.9109 70.6501 47.934 70.6039 47.9571 70.55C48.7346 68.7026 49.9431 67.1476 51.4365 66.2778L51.8599 66.0314L103.22 36.3641L154.579 6.70456L155.003 6.45823C156.496 5.59608 157.997 5.58838 159.252 6.26578C159.29 6.28118 159.321 6.30427 159.352 6.31967C159.383 6.34276 159.421 6.35816 159.452 6.37355L166.234 10.284L162.323 11.9391L175.887 83.8518C176.233 85.707 175.925 87.7546 175.148 89.5944C175.125 89.6483 175.101 89.6944 175.086 89.7483C175.063 89.7945 175.048 89.8484 175.024 89.8946C174.247 91.7421 173.038 93.3047 171.545 94.1669L69.1106 153.332L70.0574 157.843L63.6375 154.125C63.6375 154.125 63.5682 154.086 63.5374 154.071C62.2827 153.401 61.3435 152.077 60.9894 150.222L47.1026 76.5851C46.7639 74.7992 47.041 72.8363 47.7569 71.0504L47.7415 71.0581Z" fill="white"/>
<path d="M74.6445 157.843L178.211 98.0237C181.344 96.2148 183.245 91.3652 182.452 87.1853L168.765 14.6028C167.98 10.4229 164.801 8.50614 161.668 10.3151L58.0943 70.1347C54.9613 71.9436 53.0599 76.7932 53.8528 80.9731L67.5395 153.556C68.3247 157.736 71.5038 159.652 74.6368 157.843H74.6445Z" fill="url(#paint8_linear_6610_6615)"/>
<path d="M58.518 69.888L109.878 40.2207L125.974 125.551L75.0605 157.597C71.6966 159.544 68.3711 157.966 67.6399 154.079L53.753 80.4417C53.0217 76.5543 55.154 71.8278 58.518 69.8803V69.888Z" fill="url(#paint9_linear_6610_6615)"/>
<path d="M161.238 10.5611L109.878 40.2284L125.874 125.02L177.788 98.2774C181.152 96.3299 183.284 91.6034 182.553 87.716L168.666 14.079C167.935 10.1916 164.609 8.61355 161.245 10.5611H161.238Z" fill="url(#paint10_linear_6610_6615)"/>
<path d="M181.898 93.2509C181.059 95.3524 179.604 97.2229 177.787 98.2698L75.0679 157.597C73.2512 158.644 71.4499 158.659 70.0566 157.851L116.082 73.0596L181.906 93.2509H181.898Z" fill="url(#paint11_linear_6610_6615)"/>
<path d="M54.4071 74.9076C55.2462 72.8061 56.7011 70.9355 58.5177 69.8886L161.237 10.5617C163.054 9.51483 164.855 9.49944 166.248 10.3077L120.223 95.0989L54.3994 74.9076H54.4071Z" fill="#9CC3FF"/>
</g>
<defs>
<linearGradient id="paint0_linear_6610_6615" x1="41.7226" y1="85.6964" x2="-79.7285" y2="138.454" gradientUnits="userSpaceOnUse">
<stop stop-color="#7BDAFF"/>
<stop offset="1" stop-color="#59BDEF"/>
</linearGradient>
<linearGradient id="paint1_linear_6610_6615" x1="-76.9165" y1="222.427" x2="-34.4713" y2="118.509" gradientUnits="userSpaceOnUse">
<stop offset="0.77" stop-color="#8FBDEF"/>
<stop offset="0.82" stop-color="#8BB8F0"/>
<stop offset="0.88" stop-color="#80AAF3"/>
<stop offset="0.94" stop-color="#6E94F8"/>
<stop offset="1" stop-color="#5778FF"/>
</linearGradient>
<linearGradient id="paint2_linear_6610_6615" x1="111.98" y1="140.082" x2="7.05922" y2="100.179" gradientUnits="userSpaceOnUse">
<stop offset="0.77" stop-color="#8FBDEF"/>
<stop offset="0.82" stop-color="#8BB8F0"/>
<stop offset="0.88" stop-color="#80AAF3"/>
<stop offset="0.94" stop-color="#6E94F8"/>
<stop offset="1" stop-color="#5778FF"/>
</linearGradient>
<linearGradient id="paint3_linear_6610_6615" x1="31.0755" y1="227.366" x2="-18.3404" y2="113.609" gradientUnits="userSpaceOnUse">
<stop stop-color="#A7C2FF"/>
<stop offset="0.45" stop-color="#A5C0FF"/>
<stop offset="0.62" stop-color="#9EB9FF"/>
<stop offset="0.75" stop-color="#91AEFF"/>
<stop offset="0.85" stop-color="#809EFF"/>
<stop offset="0.94" stop-color="#6A8AFF"/>
<stop offset="1" stop-color="#5778FF"/>
</linearGradient>
<linearGradient id="paint4_linear_6610_6615" x1="70.6185" y1="90.7495" x2="-47.6254" y2="150.349" gradientUnits="userSpaceOnUse">
<stop stop-color="#7BDAFF"/>
<stop offset="1" stop-color="#59BDEF"/>
</linearGradient>
<linearGradient id="paint5_linear_6610_6615" x1="-40.0341" y1="234.029" x2="-3.57905" y2="127.856" gradientUnits="userSpaceOnUse">
<stop offset="0.77" stop-color="#8FBDEF"/>
<stop offset="0.82" stop-color="#8BB8F0"/>
<stop offset="0.88" stop-color="#80AAF3"/>
<stop offset="0.94" stop-color="#6E94F8"/>
<stop offset="1" stop-color="#5778FF"/>
</linearGradient>
<linearGradient id="paint6_linear_6610_6615" x1="143.96" y1="141.219" x2="36.934" y2="107.366" gradientUnits="userSpaceOnUse">
<stop offset="0.77" stop-color="#8FBDEF"/>
<stop offset="0.82" stop-color="#8BB8F0"/>
<stop offset="0.88" stop-color="#80AAF3"/>
<stop offset="0.94" stop-color="#6E94F8"/>
<stop offset="1" stop-color="#5778FF"/>
</linearGradient>
<linearGradient id="paint7_linear_6610_6615" x1="68.0695" y1="232.796" x2="12.2452" y2="122.043" gradientUnits="userSpaceOnUse">
<stop stop-color="#A7C2FF"/>
<stop offset="0.45" stop-color="#A5C0FF"/>
<stop offset="0.62" stop-color="#9EB9FF"/>
<stop offset="0.75" stop-color="#91AEFF"/>
<stop offset="0.85" stop-color="#809EFF"/>
<stop offset="0.94" stop-color="#6A8AFF"/>
<stop offset="1" stop-color="#5778FF"/>
</linearGradient>
<linearGradient id="paint8_linear_6610_6615" x1="101.514" y1="93.7987" x2="-13.1492" y2="160.026" gradientUnits="userSpaceOnUse">
<stop stop-color="#7BDAFF"/>
<stop offset="1" stop-color="#59BDEF"/>
</linearGradient>
<linearGradient id="paint9_linear_6610_6615" x1="-0.80553" y1="243.134" x2="29.5464" y2="135.063" gradientUnits="userSpaceOnUse">
<stop offset="0.77" stop-color="#8FBDEF"/>
<stop offset="0.82" stop-color="#8BB8F0"/>
<stop offset="0.88" stop-color="#80AAF3"/>
<stop offset="0.94" stop-color="#6E94F8"/>
<stop offset="1" stop-color="#5778FF"/>
</linearGradient>
<linearGradient id="paint10_linear_6610_6615" x1="177.556" y1="139.936" x2="68.7779" y2="112.225" gradientUnits="userSpaceOnUse">
<stop offset="0.77" stop-color="#8FBDEF"/>
<stop offset="0.82" stop-color="#8BB8F0"/>
<stop offset="0.88" stop-color="#80AAF3"/>
<stop offset="0.94" stop-color="#6E94F8"/>
<stop offset="1" stop-color="#5778FF"/>
</linearGradient>
<linearGradient id="paint11_linear_6610_6615" x1="107.047" y1="235.76" x2="45.0148" y2="128.36" gradientUnits="userSpaceOnUse">
<stop stop-color="#A7C2FF"/>
<stop offset="0.45" stop-color="#A5C0FF"/>
<stop offset="0.62" stop-color="#9EB9FF"/>
<stop offset="0.75" stop-color="#91AEFF"/>
<stop offset="0.85" stop-color="#809EFF"/>
<stop offset="0.94" stop-color="#6A8AFF"/>
<stop offset="1" stop-color="#5778FF"/>
</linearGradient>
<clipPath id="clip0_6610_6615">
<rect width="189.235" height="27.8352" fill="white" transform="translate(51.5752 144.719)"/>
</clipPath>
<clipPath id="clip1_6610_6615">
<rect width="182.699" height="158.528" fill="white"/>
</clipPath>
</defs>
</svg>
