<svg width="407" height="283" viewBox="0 0 407 283" fill="none" xmlns="http://www.w3.org/2000/svg">
<g filter="url(#filter0_d_6610_6614)">
<path d="M20 40C20 28.9543 28.9543 20 40 20H397V261C397 267.627 391.627 273 385 273H20V40Z" fill="white" fill-opacity="0.5" shape-rendering="crispEdges"/>
</g>
<path d="M20 40C20 28.9543 28.9543 20 40 20H397V64H20V40Z" fill="#88A9FF"/>
<circle cx="45" cy="43" r="7" fill="#FFB9B9"/>
<circle cx="69" cy="43" r="7" fill="#FFE3B9"/>
<circle cx="93" cy="43" r="7" fill="#BEFFB9"/>
<rect x="20" y="64" width="377" height="53" fill="#E1EFFF"/>
<path d="M113 90.5C113 83.0442 119.044 77 126.5 77H397V104H126.5C119.044 104 113 97.9558 113 90.5V90.5Z" fill="#E3E3E3"/>
<path d="M53 90.5625H41.5906L46.8313 85.3219L45.5 84L38 91.5L45.5 99L46.8219 97.6781L41.5906 92.4375H53V90.5625Z" fill="black" fill-opacity="0.6"/>
<path d="M69.5 84L68.1781 85.3219L73.4094 90.5625H62V92.4375H73.4094L68.1781 97.6781L69.5 99L77 91.5L69.5 84Z" fill="black" fill-opacity="0.2"/>
<path d="M97.9425 86.2031C96.6729 84.8437 94.9306 84 92.9956 84C89.1257 84 86 87.3562 86 91.5C86 95.6438 89.1257 99 92.9956 99C96.2614 99 98.9844 96.6094 99.7636 93.375H97.9425C97.2245 95.5594 95.2808 97.125 92.9956 97.125C90.0976 97.125 87.7423 94.6031 87.7423 91.5C87.7423 88.3969 90.0976 85.875 92.9956 85.875C94.449 85.875 95.7448 86.5219 96.6904 87.5438L93.8712 90.5625H100V84L97.9425 86.2031Z" fill="black" fill-opacity="0.6"/>
<path d="M129.2 87.76H130.576L130.912 89.36V96H129.44V89.712C129.44 89.488 129.429 89.2853 129.408 89.104C129.397 88.912 129.371 88.6987 129.328 88.464L129.2 87.76ZM130.672 90.272V89.12C130.992 88.672 131.376 88.3093 131.824 88.032C132.272 87.744 132.763 87.6 133.296 87.6C133.765 87.6 134.187 87.7173 134.56 87.952C134.944 88.176 135.248 88.5227 135.472 88.992C135.707 89.4613 135.824 90.064 135.824 90.8V96H134.352V90.992C134.352 90.2667 134.203 89.7547 133.904 89.456C133.605 89.1467 133.232 88.992 132.784 88.992C132.411 88.992 132.043 89.104 131.68 89.328C131.328 89.552 130.992 89.8667 130.672 90.272ZM135.44 89.152C135.664 88.8427 135.915 88.576 136.192 88.352C136.48 88.1173 136.795 87.936 137.136 87.808C137.477 87.6693 137.835 87.6 138.208 87.6C138.677 87.6 139.099 87.7173 139.472 87.952C139.856 88.176 140.16 88.5227 140.384 88.992C140.619 89.4613 140.736 90.064 140.736 90.8V96H139.264V90.992C139.264 90.2667 139.115 89.7547 138.816 89.456C138.517 89.1467 138.144 88.992 137.696 88.992C137.323 88.992 136.955 89.104 136.592 89.328C136.24 89.552 135.904 89.8667 135.584 90.272L135.44 89.152ZM142.254 87.76H143.838L146.318 94.56L146.334 96H145.486L142.254 87.76ZM142.478 98.928L142.686 97.728C142.824 97.7707 142.942 97.7973 143.038 97.808C143.144 97.8293 143.267 97.84 143.406 97.84C143.662 97.84 143.902 97.7813 144.126 97.664C144.35 97.5467 144.568 97.328 144.782 97.008C145.006 96.688 145.235 96.2293 145.47 95.632L145.902 94.56L148.35 87.76H149.87L146.478 96.416C146.222 97.0773 145.928 97.6053 145.598 98C145.267 98.4053 144.915 98.6933 144.542 98.864C144.179 99.0347 143.806 99.12 143.422 99.12C143.251 99.12 143.086 99.0987 142.926 99.056C142.776 99.024 142.627 98.9813 142.478 98.928ZM150.831 95.024L151.695 94.032C151.983 94.2667 152.319 94.4747 152.703 94.656C153.098 94.8373 153.557 94.928 154.079 94.928C154.623 94.928 155.029 94.8373 155.295 94.656C155.562 94.4747 155.695 94.2347 155.695 93.936C155.695 93.744 155.637 93.568 155.519 93.408C155.413 93.2373 155.215 93.0773 154.927 92.928C154.65 92.768 154.255 92.6133 153.743 92.464C152.805 92.176 152.133 91.824 151.727 91.408C151.322 90.9813 151.119 90.4853 151.119 89.92C151.119 89.472 151.247 89.0773 151.503 88.736C151.77 88.384 152.133 88.1067 152.591 87.904C153.05 87.7013 153.573 87.6 154.159 87.6C154.618 87.6 155.087 87.68 155.567 87.84C156.058 87.9893 156.49 88.2187 156.863 88.528L156.047 89.584C155.791 89.3707 155.487 89.1947 155.135 89.056C154.794 88.9067 154.421 88.832 154.015 88.832C153.525 88.832 153.151 88.9227 152.895 89.104C152.65 89.2853 152.527 89.504 152.527 89.76C152.527 89.9627 152.581 90.1387 152.687 90.288C152.805 90.4267 153.002 90.56 153.279 90.688C153.567 90.816 153.962 90.9547 154.463 91.104C155.167 91.3067 155.711 91.5467 156.095 91.824C156.49 92.0907 156.767 92.384 156.927 92.704C157.087 93.024 157.167 93.376 157.167 93.76C157.167 94.2187 157.034 94.6293 156.767 94.992C156.501 95.3547 156.127 95.6427 155.647 95.856C155.167 96.0587 154.602 96.16 153.951 96.16C153.333 96.16 152.751 96.0533 152.207 95.84C151.663 95.6267 151.205 95.3547 150.831 95.024ZM158.927 91.968C158.927 91.008 159.092 90.2027 159.423 89.552C159.754 88.9013 160.196 88.416 160.751 88.096C161.306 87.7653 161.924 87.6 162.607 87.6C163.236 87.6 163.807 87.7547 164.319 88.064C164.842 88.3627 165.252 88.8213 165.551 89.44C165.86 90.048 166.015 90.8107 166.015 91.728C166.015 91.824 166.01 91.9253 165.999 92.032C165.999 92.128 165.994 92.224 165.983 92.32H160.191V91.136H164.863L164.575 91.728C164.575 90.704 164.378 89.9787 163.983 89.552C163.599 89.1147 163.135 88.896 162.591 88.896C162.164 88.896 161.786 89.0133 161.455 89.248C161.135 89.472 160.884 89.8133 160.703 90.272C160.522 90.72 160.431 91.2853 160.431 91.968C160.431 92.5973 160.543 93.1253 160.767 93.552C161.002 93.968 161.311 94.2827 161.695 94.496C162.079 94.7093 162.511 94.816 162.991 94.816C163.375 94.816 163.727 94.752 164.047 94.624C164.367 94.496 164.65 94.336 164.895 94.144L165.583 95.312C165.22 95.6107 164.81 95.8293 164.351 95.968C163.903 96.096 163.434 96.16 162.943 96.16C162.175 96.16 161.487 96.0053 160.879 95.696C160.282 95.3867 159.807 94.9227 159.455 94.304C159.103 93.6747 158.927 92.896 158.927 91.968ZM168.091 87.76H169.467L169.803 89.36V96H168.331V89.712C168.331 89.488 168.32 89.2853 168.299 89.104C168.288 88.912 168.261 88.6987 168.219 88.464L168.091 87.76ZM169.563 90.496V89.36C169.861 88.8267 170.256 88.4 170.747 88.08C171.237 87.76 171.792 87.6 172.411 87.6V89.184C171.76 89.216 171.195 89.344 170.715 89.568C170.245 89.7813 169.861 90.0907 169.563 90.496ZM172.973 87.76H174.557L177.036 94.56L177.053 96H176.205L172.973 87.76ZM176.621 94.56L179.069 87.76H180.589L177.357 96H176.637L176.621 94.56ZM182.19 96V87.76H183.662V96H182.19ZM181.95 85.328C181.95 85.04 182.041 84.8 182.222 84.608C182.414 84.416 182.649 84.32 182.926 84.32C183.225 84.32 183.459 84.416 183.63 84.608C183.811 84.8 183.902 85.04 183.902 85.328C183.902 85.6053 183.811 85.84 183.63 86.032C183.459 86.224 183.225 86.32 182.926 86.32C182.649 86.32 182.414 86.224 182.222 86.032C182.041 85.84 181.95 85.6053 181.95 85.328ZM185.989 91.968C185.989 91.0613 186.165 90.2827 186.517 89.632C186.88 88.9813 187.365 88.48 187.973 88.128C188.581 87.776 189.259 87.6 190.005 87.6C190.475 87.6 190.939 87.6907 191.397 87.872C191.867 88.0427 192.261 88.2987 192.581 88.64L191.685 89.712C191.483 89.4773 191.232 89.2907 190.933 89.152C190.645 89.0133 190.315 88.944 189.941 88.944C189.504 88.944 189.099 89.0613 188.725 89.296C188.352 89.5307 188.053 89.8773 187.829 90.336C187.605 90.784 187.493 91.328 187.493 91.968C187.493 92.608 187.6 93.1413 187.813 93.568C188.037 93.984 188.331 94.2987 188.693 94.512C189.056 94.7147 189.445 94.816 189.861 94.816C190.277 94.816 190.645 94.7467 190.965 94.608C191.285 94.4587 191.552 94.272 191.765 94.048L192.613 95.12C192.293 95.4507 191.893 95.7067 191.413 95.888C190.933 96.0693 190.437 96.16 189.925 96.16C189.179 96.16 188.507 96.0053 187.909 95.696C187.323 95.3867 186.853 94.9227 186.501 94.304C186.16 93.6747 185.989 92.896 185.989 91.968ZM194.052 91.968C194.052 91.008 194.217 90.2027 194.548 89.552C194.879 88.9013 195.321 88.416 195.876 88.096C196.431 87.7653 197.049 87.6 197.732 87.6C198.361 87.6 198.932 87.7547 199.444 88.064C199.967 88.3627 200.377 88.8213 200.676 89.44C200.985 90.048 201.14 90.8107 201.14 91.728C201.14 91.824 201.135 91.9253 201.124 92.032C201.124 92.128 201.119 92.224 201.108 92.32H195.316V91.136H199.988L199.7 91.728C199.7 90.704 199.503 89.9787 199.108 89.552C198.724 89.1147 198.26 88.896 197.716 88.896C197.289 88.896 196.911 89.0133 196.58 89.248C196.26 89.472 196.009 89.8133 195.828 90.272C195.647 90.72 195.556 91.2853 195.556 91.968C195.556 92.5973 195.668 93.1253 195.892 93.552C196.127 93.968 196.436 94.2827 196.82 94.496C197.204 94.7093 197.636 94.816 198.116 94.816C198.5 94.816 198.852 94.752 199.172 94.624C199.492 94.496 199.775 94.336 200.02 94.144L200.708 95.312C200.345 95.6107 199.935 95.8293 199.476 95.968C199.028 96.096 198.559 96.16 198.068 96.16C197.3 96.16 196.612 96.0053 196.004 95.696C195.407 95.3867 194.932 94.9227 194.58 94.304C194.228 93.6747 194.052 92.896 194.052 91.968ZM202.816 95.168C202.816 94.88 202.906 94.64 203.088 94.448C203.28 94.256 203.514 94.16 203.792 94.16C204.09 94.16 204.325 94.256 204.496 94.448C204.677 94.64 204.768 94.88 204.768 95.168C204.768 95.4453 204.677 95.68 204.496 95.872C204.325 96.064 204.09 96.16 203.792 96.16C203.514 96.16 203.28 96.064 203.088 95.872C202.906 95.68 202.816 95.4453 202.816 95.168ZM206.363 95.024L207.227 94.032C207.515 94.2667 207.851 94.4747 208.235 94.656C208.629 94.8373 209.088 94.928 209.611 94.928C210.155 94.928 210.56 94.8373 210.827 94.656C211.093 94.4747 211.227 94.2347 211.227 93.936C211.227 93.744 211.168 93.568 211.051 93.408C210.944 93.2373 210.747 93.0773 210.459 92.928C210.181 92.768 209.787 92.6133 209.275 92.464C208.336 92.176 207.664 91.824 207.259 91.408C206.853 90.9813 206.651 90.4853 206.651 89.92C206.651 89.472 206.779 89.0773 207.035 88.736C207.301 88.384 207.664 88.1067 208.123 87.904C208.581 87.7013 209.104 87.6 209.691 87.6C210.149 87.6 210.619 87.68 211.099 87.84C211.589 87.9893 212.021 88.2187 212.395 88.528L211.579 89.584C211.323 89.3707 211.019 89.1947 210.667 89.056C210.325 88.9067 209.952 88.832 209.547 88.832C209.056 88.832 208.683 88.9227 208.427 89.104C208.181 89.2853 208.059 89.504 208.059 89.76C208.059 89.9627 208.112 90.1387 208.219 90.288C208.336 90.4267 208.533 90.56 208.811 90.688C209.099 90.816 209.493 90.9547 209.995 91.104C210.699 91.3067 211.243 91.5467 211.627 91.824C212.021 92.0907 212.299 92.384 212.459 92.704C212.619 93.024 212.699 93.376 212.699 93.76C212.699 94.2187 212.565 94.6293 212.299 94.992C212.032 95.3547 211.659 95.6427 211.179 95.856C210.699 96.0587 210.133 96.16 209.483 96.16C208.864 96.16 208.283 96.0533 207.739 95.84C207.195 95.6267 206.736 95.3547 206.363 95.024ZM215.018 96V84.56L216.49 84.24V96H215.018ZM216.394 93.344V91.488L219.754 87.76H221.626L216.394 93.344ZM217.338 91.792L218.346 90.816L221.866 96H220.074L217.338 91.792ZM223.069 93.888C223.069 93.408 223.197 92.9653 223.453 92.56C223.709 92.144 224.131 91.808 224.717 91.552C225.304 91.2853 226.093 91.136 227.085 91.104L228.093 91.072V92.112L227.149 92.208C226.456 92.272 225.923 92.384 225.549 92.544C225.176 92.704 224.92 92.8907 224.781 93.104C224.643 93.3067 224.573 93.5253 224.573 93.76C224.573 94.0907 224.669 94.352 224.861 94.544C225.064 94.7253 225.331 94.816 225.661 94.816C226.12 94.816 226.563 94.6987 226.989 94.464C227.427 94.2293 227.832 93.904 228.205 93.488V94.64C227.896 95.0667 227.491 95.4293 226.989 95.728C226.488 96.016 225.939 96.16 225.341 96.16C224.947 96.16 224.573 96.0693 224.221 95.888C223.88 95.7067 223.603 95.4453 223.389 95.104C223.176 94.7627 223.069 94.3573 223.069 93.888ZM223.309 88.448C223.683 88.2133 224.141 88.016 224.685 87.856C225.229 87.6853 225.747 87.6 226.237 87.6C226.845 87.6 227.389 87.7173 227.869 87.952C228.349 88.1867 228.728 88.544 229.005 89.024C229.293 89.4933 229.437 90.0853 229.437 90.8V94.048C229.437 94.272 229.443 94.48 229.453 94.672C229.475 94.8533 229.507 95.0613 229.549 95.296L229.677 96H228.301L227.965 94.4V90.976C227.965 90.272 227.8 89.7707 227.469 89.472C227.139 89.1627 226.68 89.008 226.093 89.008C225.667 89.008 225.272 89.072 224.909 89.2C224.547 89.328 224.184 89.4933 223.821 89.696L223.309 88.448ZM231.997 87.76H233.373L233.709 89.36V98.88L232.237 99.2V89.712C232.237 89.488 232.226 89.2853 232.205 89.104C232.194 88.912 232.168 88.6987 232.125 88.464L231.997 87.76ZM233.069 92.448L233.709 92.288C233.709 92.896 233.805 93.3973 233.997 93.792C234.189 94.176 234.429 94.464 234.717 94.656C235.016 94.8373 235.325 94.928 235.645 94.928C236.306 94.928 236.829 94.6453 237.213 94.08C237.597 93.504 237.789 92.7627 237.789 91.856C237.789 91.2267 237.704 90.6987 237.533 90.272C237.362 89.8453 237.128 89.52 236.829 89.296C236.53 89.072 236.194 88.96 235.821 88.96C235.394 88.96 234.984 89.0773 234.589 89.312C234.194 89.5467 233.821 89.8667 233.469 90.272V89.12C233.821 88.672 234.237 88.3093 234.717 88.032C235.197 87.744 235.698 87.6 236.221 87.6C236.786 87.6 237.298 87.7707 237.757 88.112C238.226 88.4427 238.6 88.9227 238.877 89.552C239.154 90.1813 239.293 90.9333 239.293 91.808C239.293 92.7147 239.149 93.4933 238.861 94.144C238.584 94.7947 238.189 95.296 237.677 95.648C237.176 95.9893 236.578 96.16 235.885 96.16C235.426 96.16 234.978 96.0373 234.541 95.792C234.114 95.5467 233.762 95.152 233.485 94.608C233.208 94.064 233.069 93.344 233.069 92.448ZM241.612 96V87.76H243.084V96H241.612ZM241.372 85.328C241.372 85.04 241.463 84.8 241.644 84.608C241.836 84.416 242.071 84.32 242.348 84.32C242.647 84.32 242.881 84.416 243.052 84.608C243.233 84.8 243.324 85.04 243.324 85.328C243.324 85.6053 243.233 85.84 243.052 86.032C242.881 86.224 242.647 86.32 242.348 86.32C242.071 86.32 241.836 86.224 241.644 86.032C241.463 85.84 241.372 85.6053 241.372 85.328ZM245.331 95.168C245.331 94.88 245.422 94.64 245.603 94.448C245.795 94.256 246.03 94.16 246.307 94.16C246.606 94.16 246.841 94.256 247.011 94.448C247.193 94.64 247.283 94.88 247.283 95.168C247.283 95.4453 247.193 95.68 247.011 95.872C246.841 96.064 246.606 96.16 246.307 96.16C246.03 96.16 245.795 96.064 245.603 95.872C245.422 95.68 245.331 95.4453 245.331 95.168ZM248.958 91.968C248.958 91.0613 249.134 90.2827 249.486 89.632C249.849 88.9813 250.334 88.48 250.942 88.128C251.55 87.776 252.227 87.6 252.974 87.6C253.443 87.6 253.907 87.6907 254.366 87.872C254.835 88.0427 255.23 88.2987 255.55 88.64L254.654 89.712C254.451 89.4773 254.201 89.2907 253.902 89.152C253.614 89.0133 253.283 88.944 252.91 88.944C252.473 88.944 252.067 89.0613 251.694 89.296C251.321 89.5307 251.022 89.8773 250.798 90.336C250.574 90.784 250.462 91.328 250.462 91.968C250.462 92.608 250.569 93.1413 250.782 93.568C251.006 93.984 251.299 94.2987 251.662 94.512C252.025 94.7147 252.414 94.816 252.83 94.816C253.246 94.816 253.614 94.7467 253.934 94.608C254.254 94.4587 254.521 94.272 254.734 94.048L255.582 95.12C255.262 95.4507 254.862 95.7067 254.382 95.888C253.902 96.0693 253.406 96.16 252.894 96.16C252.147 96.16 251.475 96.0053 250.878 95.696C250.291 95.3867 249.822 94.9227 249.47 94.304C249.129 93.6747 248.958 92.896 248.958 91.968ZM257.021 91.888C257.021 90.96 257.181 90.1813 257.501 89.552C257.821 88.912 258.258 88.4267 258.813 88.096C259.367 87.7653 260.002 87.6 260.717 87.6C261.431 87.6 262.066 87.7653 262.621 88.096C263.175 88.4267 263.613 88.912 263.933 89.552C264.253 90.1813 264.413 90.96 264.413 91.888C264.413 92.8053 264.253 93.584 263.933 94.224C263.613 94.864 263.175 95.3493 262.621 95.68C262.066 96 261.431 96.16 260.717 96.16C260.002 96.16 259.367 96 258.813 95.68C258.258 95.3493 257.821 94.864 257.501 94.224C257.181 93.584 257.021 92.8053 257.021 91.888ZM258.525 91.888C258.525 92.528 258.61 93.072 258.781 93.52C258.962 93.9573 259.213 94.2933 259.533 94.528C259.863 94.752 260.258 94.864 260.717 94.864C261.175 94.864 261.565 94.752 261.885 94.528C262.215 94.2933 262.466 93.9573 262.637 93.52C262.818 93.072 262.909 92.528 262.909 91.888C262.909 91.248 262.818 90.7093 262.637 90.272C262.466 89.824 262.215 89.4827 261.885 89.248C261.565 89.0133 261.175 88.896 260.717 88.896C260.258 88.896 259.863 89.0133 259.533 89.248C259.213 89.4827 258.962 89.824 258.781 90.272C258.61 90.7093 258.525 91.248 258.525 91.888ZM266.497 87.76H267.873L268.209 89.36V96H266.737V89.712C266.737 89.488 266.726 89.2853 266.705 89.104C266.694 88.912 266.668 88.6987 266.625 88.464L266.497 87.76ZM267.969 90.272V89.12C268.289 88.672 268.673 88.3093 269.121 88.032C269.569 87.744 270.06 87.6 270.593 87.6C271.062 87.6 271.484 87.7173 271.857 87.952C272.241 88.176 272.545 88.5227 272.769 88.992C273.004 89.4613 273.121 90.064 273.121 90.8V96H271.649V90.992C271.649 90.2667 271.5 89.7547 271.201 89.456C270.902 89.1467 270.529 88.992 270.081 88.992C269.708 88.992 269.34 89.104 268.977 89.328C268.625 89.552 268.289 89.8667 267.969 90.272ZM272.737 89.152C272.961 88.8427 273.212 88.576 273.489 88.352C273.777 88.1173 274.092 87.936 274.433 87.808C274.774 87.6693 275.132 87.6 275.505 87.6C275.974 87.6 276.396 87.7173 276.769 87.952C277.153 88.176 277.457 88.5227 277.681 88.992C277.916 89.4613 278.033 90.064 278.033 90.8V96H276.561V90.992C276.561 90.2667 276.412 89.7547 276.113 89.456C275.814 89.1467 275.441 88.992 274.993 88.992C274.62 88.992 274.252 89.104 273.889 89.328C273.537 89.552 273.201 89.8667 272.881 90.272L272.737 89.152Z" fill="black" fill-opacity="0.6"/>
<defs>
<filter id="filter0_d_6610_6614" x="0" y="0" width="407" height="283" filterUnits="userSpaceOnUse" color-interpolation-filters="sRGB">
<feFlood flood-opacity="0" result="BackgroundImageFix"/>
<feColorMatrix in="SourceAlpha" type="matrix" values="0 0 0 0 0 0 0 0 0 0 0 0 0 0 0 0 0 0 127 0" result="hardAlpha"/>
<feMorphology radius="5" operator="dilate" in="SourceAlpha" result="effect1_dropShadow_6610_6614"/>
<feOffset dx="-5" dy="-5"/>
<feGaussianBlur stdDeviation="5"/>
<feComposite in2="hardAlpha" operator="out"/>
<feColorMatrix type="matrix" values="0 0 0 0 0 0 0 0 0 0 0 0 0 0 0 0 0 0 0.05 0"/>
<feBlend mode="normal" in2="BackgroundImageFix" result="effect1_dropShadow_6610_6614"/>
<feBlend mode="normal" in="SourceGraphic" in2="effect1_dropShadow_6610_6614" result="shape"/>
</filter>
</defs>
</svg>
