<svg width="48" height="48" viewBox="0 0 48 48" fill="none" xmlns="http://www.w3.org/2000/svg">
<circle cx="24" cy="24" r="24" fill="white"/>
<g clip-path="url(#clip0_80_1933)">
<path d="M41.8079 27.6137C41.7975 27.6204 41.7835 27.6238 41.78 27.634C41.4538 28.2698 41.002 28.54 40.4508 28.4244C39.8595 28.302 39.5473 27.8584 39.5316 27.1258C39.4531 23.0447 35.9469 19.6231 31.7553 19.5892C28.1078 19.5603 24.4604 19.5824 20.8112 19.5807C20.7519 19.5807 20.6943 19.5875 20.5757 19.5943C20.5757 19.7166 20.5757 19.8373 20.5757 19.958C20.5757 21.3773 20.567 22.7966 20.5792 24.2159C20.5845 24.7513 20.4135 25.1745 19.8867 25.3887C19.3669 25.5995 18.9326 25.4397 18.5331 25.0674C15.8485 22.5603 13.1553 20.0617 10.4672 17.5597C9.79217 16.9307 9.79217 16.3171 10.4672 15.6899C13.096 13.244 15.723 10.7947 18.3622 8.35723C18.629 8.11077 18.9727 7.9442 19.2797 7.74023C19.3739 7.74023 19.4698 7.74023 19.564 7.74023C20.4135 8.05128 20.5757 8.28415 20.5757 9.17651C20.5757 10.5482 20.5757 11.9199 20.5757 13.2916C20.5757 13.4123 20.5879 13.5347 20.5949 13.6774H21.0589C23.9807 13.6774 26.9042 13.674 29.826 13.6808C30.358 13.6808 30.8918 13.7046 31.4186 13.759C36.2173 14.2621 40.3392 17.7925 41.4486 22.3563C41.6038 22.992 41.6876 23.643 41.8044 24.2872V27.6103L41.8079 27.6137Z" fill="url(#paint0_linear_80_1933)"/>
<path d="M26.6523 28.4312C26.6523 28.2749 26.6523 28.1508 26.6523 28.0267C26.6523 26.6074 26.6593 25.1881 26.6488 23.7688C26.6453 23.2436 26.8337 22.8391 27.343 22.6317C27.8489 22.426 28.2798 22.5705 28.6687 22.9326C31.3725 25.4533 34.0797 27.9689 36.7852 30.4862C37.4236 31.0811 37.4236 31.7168 36.7869 32.31C34.0989 34.8121 31.4074 37.3107 28.7193 39.8144C28.435 40.0796 28.1297 40.2836 27.7181 40.2547C27.0831 40.2105 26.6558 39.7549 26.6523 39.0954C26.6453 37.654 26.6488 36.211 26.6488 34.7696C26.6488 34.6455 26.6488 34.5197 26.6488 34.3463C26.4761 34.3463 26.34 34.3463 26.2022 34.3463C23.0519 34.3429 19.9017 34.3769 16.7531 34.3293C11.3648 34.2461 6.5539 30.182 5.61719 25.0113C5.35553 23.5428 5.42705 22.0674 5.43403 20.5937C5.43752 20.0141 5.98175 19.5739 6.57658 19.5824C7.19408 19.5909 7.68424 20.0668 7.69296 20.6991C7.7104 21.9671 7.98078 23.1756 8.61398 24.2839C10.1333 26.9406 12.4672 28.3751 15.5879 28.4278C19.1743 28.4873 22.7641 28.4431 26.3523 28.4414C26.4342 28.4414 26.5162 28.4346 26.654 28.4278L26.6523 28.4312Z" fill="url(#paint1_linear_80_1933)"/>
</g>
<defs>
<linearGradient id="paint0_linear_80_1933" x1="9.96312" y1="18.0951" x2="41.8079" y2="18.0951" gradientUnits="userSpaceOnUse">
<stop stop-color="#FF6A56"/>
<stop offset="0.13" stop-color="#F35849"/>
<stop offset="0.29" stop-color="#EB4B40"/>
<stop offset="0.43" stop-color="#E9473D"/>
<stop offset="0.52" stop-color="#E94A3E" stop-opacity="0.98"/>
<stop offset="0.63" stop-color="#E95643" stop-opacity="0.92"/>
<stop offset="0.74" stop-color="#E9694C" stop-opacity="0.81"/>
<stop offset="0.84" stop-color="#E97E56" stop-opacity="0.7"/>
<stop offset="0.87" stop-color="#D27D49" stop-opacity="0.57"/>
<stop offset="0.95" stop-color="#987A2B" stop-opacity="0.24"/>
<stop offset="1" stop-color="#6E7915" stop-opacity="0"/>
</linearGradient>
<linearGradient id="paint1_linear_80_1933" x1="5.42007" y1="29.9202" x2="37.2666" y2="29.9202" gradientUnits="userSpaceOnUse">
<stop stop-color="#FF6A56"/>
<stop offset="0.13" stop-color="#F35849"/>
<stop offset="0.29" stop-color="#EB4B40"/>
<stop offset="0.43" stop-color="#E9473D"/>
<stop offset="0.52" stop-color="#E94A3E" stop-opacity="0.98"/>
<stop offset="0.63" stop-color="#E95643" stop-opacity="0.92"/>
<stop offset="0.74" stop-color="#E9694C" stop-opacity="0.81"/>
<stop offset="0.84" stop-color="#E97E56" stop-opacity="0.7"/>
<stop offset="0.87" stop-color="#D27D49" stop-opacity="0.57"/>
<stop offset="0.95" stop-color="#987A2B" stop-opacity="0.24"/>
<stop offset="1" stop-color="#6E7915" stop-opacity="0"/>
</linearGradient>
<clipPath id="clip0_80_1933">
<rect width="36.3871" height="32.5161" fill="white" transform="translate(5.41992 7.74194)"/>
</clipPath>
</defs>
</svg>
