<svg width="99" height="152" viewBox="0 0 99 152" fill="none" xmlns="http://www.w3.org/2000/svg">
<g opacity="0.7" clip-path="url(#clip0_74_1595)">
<g opacity="0.67">
<path d="M49.7314 143.388C69.5689 143.388 85.6503 134.12 85.6503 122.687C85.6503 111.255 69.5689 101.987 49.7314 101.987C29.894 101.987 13.8125 111.255 13.8125 122.687C13.8125 134.12 29.894 143.388 49.7314 143.388Z" fill="#242993"/>
</g>
<path d="M93.721 107.077V97.3361H90.3481C88.2023 94.3579 85.0352 91.5705 80.8392 89.1498C63.6587 79.247 35.8083 79.247 18.6278 89.1498C14.4319 91.5705 11.2647 94.3579 9.119 97.3361H5.74609V107.077C5.74609 113.569 10.0449 120.054 18.6278 125.005C35.8083 134.908 63.6587 134.908 80.8392 125.005C89.4295 120.054 93.721 113.569 93.721 107.077Z" fill="url(#paint0_linear_74_1595)"/>
<path d="M49.7335 122.687C74.0271 122.687 93.721 111.337 93.721 97.3361C93.721 83.3351 74.0271 71.985 49.7335 71.985C25.4399 71.985 5.74609 83.3351 5.74609 97.3361C5.74609 111.337 25.4399 122.687 49.7335 122.687Z" fill="#BCD5FF"/>
<path d="M90.3629 96.9619V83.6629H87.2472C85.2631 80.9121 82.3385 78.3374 78.4659 76.1074C62.6007 66.9602 36.8813 66.9602 21.0162 76.1074C17.1362 78.3447 14.2116 80.9194 12.2349 83.6629H9.11914V96.9619C9.11914 102.955 13.0873 108.948 21.0162 113.518C36.8813 122.665 62.6007 122.665 78.4659 113.518C86.4021 108.948 90.3629 102.955 90.3629 96.9619Z" fill="#242993"/>
<g opacity="0.51">
<path d="M90.3629 93.7638V80.4647H87.2472C85.2631 77.7139 82.3385 75.1392 78.4659 72.9092C62.6007 63.762 36.8813 63.762 21.0162 72.9092C17.1362 75.1465 14.2116 77.7213 12.2349 80.4647H9.11914V93.7638C9.11914 99.7568 13.0873 105.75 21.0162 110.32C36.8813 119.467 62.6007 119.467 78.4659 110.32C86.4021 105.75 90.3629 99.7568 90.3629 93.7638Z" fill="#4553C7"/>
</g>
<path d="M49.7332 107.085C72.1681 107.085 90.3551 96.6017 90.3551 83.6702C90.3551 70.7387 72.1681 60.2557 49.7332 60.2557C27.2984 60.2557 9.11133 70.7387 9.11133 83.6702C9.11133 96.6017 27.2984 107.085 49.7332 107.085Z" fill="#BCD5FF"/>
<g opacity="0.51">
<path d="M77.7234 100.894C70.7424 109.77 61.5276 114.516 53.7383 117.061C62.7621 116.547 71.5508 114.303 78.4583 110.32C86.3945 105.75 90.3553 99.7568 90.3553 93.7637V89.788C86.2475 92.0839 81.8899 95.5829 77.7161 100.894H77.7234Z" fill="#5368D8"/>
</g>
<path d="M93.721 83.4575V73.7161H90.3481C88.2023 70.7379 85.0352 67.9505 80.8392 65.5298C63.6587 55.627 35.8083 55.627 18.6278 65.5298C14.4319 67.9505 11.2647 70.7379 9.119 73.7161H5.74609V83.4575C5.74609 89.9493 10.0449 96.4338 18.6278 101.385C35.8083 111.288 63.6587 111.288 80.8392 101.385C89.4295 96.4338 93.721 89.9493 93.721 83.4575Z" fill="url(#paint1_linear_74_1595)"/>
<path d="M49.7335 99.0599C74.0271 99.0599 93.721 87.7098 93.721 73.7088C93.721 59.7077 74.0271 48.3577 49.7335 48.3577C25.4399 48.3577 5.74609 59.7077 5.74609 73.7088C5.74609 87.7098 25.4399 99.0599 49.7335 99.0599Z" fill="#BCD5FF"/>
<path d="M90.3629 72.8505V59.5514H87.2472C85.2631 56.8007 82.3385 54.2259 78.4659 51.996C62.6007 42.8488 36.8813 42.8488 21.0162 51.996C17.1362 54.2333 14.2116 56.808 12.2349 59.5514H9.11914V72.8505C9.11914 78.8435 13.0873 84.8365 21.0162 89.4065C36.8813 98.5537 62.6007 98.5537 78.4659 89.4065C86.4021 84.8365 90.3629 78.8435 90.3629 72.8505Z" fill="#242993"/>
<g opacity="0.51">
<path d="M90.3629 69.8063V56.5072H87.2472C85.2631 53.7565 82.3385 51.1817 78.4659 48.9518C62.6007 39.8046 36.8813 39.8046 21.0162 48.9518C17.1362 51.1891 14.2116 53.7638 12.2349 56.5072H9.11914V69.8063C9.11914 75.7993 13.0873 81.7923 21.0162 86.3623C36.8813 95.5095 62.6007 95.5095 78.4659 86.3623C86.4021 81.7923 90.3629 75.7993 90.3629 69.8063Z" fill="#4553C7"/>
</g>
<path d="M49.7332 82.966C72.1681 82.966 90.3551 72.483 90.3551 59.5515C90.3551 46.62 72.1681 36.1369 49.7332 36.1369C27.2984 36.1369 9.11133 46.62 9.11133 59.5515C9.11133 72.483 27.2984 82.966 49.7332 82.966Z" fill="#BCD5FF"/>
<g opacity="0.51">
<path d="M77.7235 75.5353C69.0377 86.5751 56.9202 91.2257 48.3594 93.1842C59.2129 93.397 70.1767 91.1377 78.4584 86.3623C86.3946 81.7924 90.3554 75.7994 90.3554 69.8064V64.4222C86.2477 66.7182 81.8901 70.2171 77.7162 75.528L77.7235 75.5353Z" fill="#5368D8"/>
</g>
<path d="M93.721 59.3388V49.5974H90.3481C88.2023 46.6192 85.0352 43.8318 80.8392 41.4111C63.6587 31.5083 35.8083 31.5083 18.6278 41.4111C14.4319 43.8318 11.2647 46.6192 9.119 49.5974H5.74609V59.3388C5.74609 65.8233 10.0449 72.3151 18.6278 77.2665C35.8083 87.1692 63.6587 87.1692 80.8392 77.2665C89.4295 72.3151 93.721 65.8306 93.721 59.3388Z" fill="url(#paint2_linear_74_1595)"/>
<path d="M49.7335 74.9485C74.0271 74.9485 93.721 63.5984 93.721 49.5974C93.721 35.5964 74.0271 24.2463 49.7335 24.2463C25.4399 24.2463 5.74609 35.5964 5.74609 49.5974C5.74609 63.5984 25.4399 74.9485 49.7335 74.9485Z" fill="#BCD5FF"/>
<path d="M90.3629 48.7318V35.4328H87.2472C85.2631 32.682 82.3385 30.1073 78.4659 27.8773C62.6007 18.7301 36.8813 18.7301 21.0162 27.8773C17.1362 30.1146 14.2116 32.6893 12.2349 35.4328H9.11914V48.7318C9.11914 54.7248 13.0873 60.7179 21.0162 65.2878C36.8813 74.435 62.6007 74.435 78.4659 65.2878C86.4021 60.7179 90.3629 54.7248 90.3629 48.7318Z" fill="#242993"/>
<g opacity="0.51">
<path d="M90.3629 45.0128V31.7137H87.2472C85.2631 28.963 82.3385 26.3882 78.4659 24.1583C62.6007 15.011 36.8813 15.011 21.0162 24.1583C17.1362 26.3956 14.2116 28.9703 12.2349 31.7137H9.11914V45.0128C9.11914 51.0058 13.0873 56.9988 21.0162 61.5688C36.8813 70.716 62.6007 70.716 78.4659 61.5688C86.4021 56.9988 90.3629 51.0058 90.3629 45.0128Z" fill="#4553C7"/>
</g>
<path d="M49.7332 58.8473C72.1681 58.8473 90.3551 48.3643 90.3551 35.4327C90.3551 22.5012 72.1681 12.0182 49.7332 12.0182C27.2984 12.0182 9.11133 22.5012 9.11133 35.4327C9.11133 48.3643 27.2984 58.8473 49.7332 58.8473Z" fill="#BCD5FF"/>
<path d="M93.721 35.22V25.4786H90.3481C88.2023 22.5004 85.0352 19.713 80.8392 17.2923C63.6587 7.38954 35.8083 7.38954 18.6278 17.2923C14.4319 19.713 11.2647 22.5004 9.119 25.4786H5.74609V35.22C5.74609 41.7045 10.0449 48.1963 18.6278 53.1477C35.8083 63.0505 63.6587 63.0505 80.8392 53.1477C89.4295 48.1963 93.721 41.7118 93.721 35.22Z" fill="url(#paint3_linear_74_1595)"/>
<path d="M49.7335 50.8297C74.0271 50.8297 93.721 39.4796 93.721 25.4786C93.721 11.4776 74.0271 0.127502 49.7335 0.127502C25.4399 0.127502 5.74609 11.4776 5.74609 25.4786C5.74609 39.4796 25.4399 50.8297 49.7335 50.8297Z" fill="#BCD5FF"/>
<path d="M49.7335 50.8297C74.0271 50.8297 93.721 39.4796 93.721 25.4786C93.721 11.4776 74.0271 0.127502 49.7335 0.127502C25.4399 0.127502 5.74609 11.4776 5.74609 25.4786C5.74609 39.4796 25.4399 50.8297 49.7335 50.8297Z" fill="#BCD5FF"/>
<g opacity="0.51">
<path d="M77.7236 50.1695C68.1854 62.2949 54.5027 66.7108 45.9492 68.3246C57.567 68.9481 69.5669 66.6961 78.4585 61.5687C86.3947 56.9987 90.3555 51.0057 90.3555 45.0127V39.0637C86.2478 41.3597 81.8902 44.8587 77.7163 50.1695H77.7236Z" fill="#5368D8"/>
</g>
<path d="M93.721 35.22V25.4786H90.3481C88.2023 22.5004 85.0352 19.713 80.8392 17.2923C63.6587 7.38954 35.8083 7.38954 18.6278 17.2923C14.4319 19.713 11.2647 22.5004 9.119 25.4786H5.74609V35.22C5.74609 41.7045 10.0449 48.1963 18.6278 53.1477C35.8083 63.0505 63.6587 63.0505 80.8392 53.1477C89.4295 48.1963 93.721 41.7118 93.721 35.22Z" fill="url(#paint4_linear_74_1595)"/>
<path d="M49.7335 50.8297C74.0271 50.8297 93.721 39.4796 93.721 25.4786C93.721 11.4776 74.0271 0.127502 49.7335 0.127502C25.4399 0.127502 5.74609 11.4776 5.74609 25.4786C5.74609 39.4796 25.4399 50.8297 49.7335 50.8297Z" fill="#BCD5FF"/>
<path d="M49.7335 50.8297C74.0271 50.8297 93.721 39.4796 93.721 25.4786C93.721 11.4776 74.0271 0.127502 49.7335 0.127502C25.4399 0.127502 5.74609 11.4776 5.74609 25.4786C5.74609 39.4796 25.4399 50.8297 49.7335 50.8297Z" fill="#BCD5FF"/>
<path d="M81.0895 42.6361C63.909 52.5389 36.0586 52.5389 18.8781 42.6361C8.35519 36.5697 4.29153 28.2001 6.65771 20.3512C3.77715 28.4201 7.76732 37.1419 18.6282 43.4063C35.8088 53.3091 63.6592 53.3091 80.8397 43.4063C87.4973 39.5699 91.561 34.8092 93.0601 29.8359C91.3846 34.5232 87.4018 38.9978 81.0895 42.6361Z" fill="white"/>
<path d="M81.0895 66.7548C63.909 76.6576 36.0586 76.6576 18.8781 66.7548C8.35519 60.6885 4.29153 52.3188 6.65771 44.4699C3.77715 52.5388 7.76732 61.2606 18.6282 67.525C35.8088 77.4278 63.6592 77.4278 80.8397 67.525C87.4973 63.6886 91.561 58.928 93.0601 53.9546C91.3846 58.6419 87.4018 63.1165 81.0895 66.7548Z" fill="white"/>
<path d="M81.0895 90.8736C63.909 100.776 36.0586 100.776 18.8781 90.8736C8.35519 84.8072 4.29153 76.4375 6.65771 68.5887C3.77715 76.6576 7.76732 85.3794 18.6282 91.6438C35.8088 101.547 63.6592 101.547 80.8397 91.6438C87.4973 87.8074 91.561 83.0467 93.0601 78.0733C91.3846 82.7607 87.4018 87.2352 81.0895 90.8736Z" fill="white"/>
<path d="M81.0895 114.985C63.909 124.888 36.0586 124.888 18.8781 114.985C8.35519 108.919 4.29153 100.549 6.65771 92.7001C3.77715 100.769 7.76732 109.491 18.6282 115.755C35.8088 125.658 63.6592 125.658 80.8397 115.755C87.4973 111.919 91.561 107.158 93.0601 102.185C91.3846 106.872 87.4018 111.347 81.0895 114.985Z" fill="white"/>
<path opacity="0.78" d="M9.79426 36.1222H49.7327V12.6123H11.8151C4.45933 19.801 3.79063 28.6328 9.79426 36.1222Z" fill="url(#paint5_linear_74_1595)"/>
<path d="M72.3224 23.1093V18.1066H70.5882C69.4859 16.5808 67.8619 15.1504 65.7089 13.9034C56.8908 8.81996 42.5908 8.81996 33.7654 13.9034C31.6123 15.1431 29.981 16.5808 28.8788 18.1066H27.1445V23.1093C27.1445 26.4396 29.349 29.7698 33.7581 32.3152C42.5761 37.3986 56.8761 37.3986 65.7015 32.3152C70.1105 29.7698 72.3151 26.4396 72.3151 23.1093H72.3224Z" fill="url(#paint6_linear_74_1595)"/>
<path d="M49.7335 31.1195C62.209 31.1195 72.3224 25.2934 72.3224 18.1065C72.3224 10.9197 62.209 5.09357 49.7335 5.09357C37.2579 5.09357 27.1445 10.9197 27.1445 18.1065C27.1445 25.2934 37.2579 31.1195 49.7335 31.1195Z" fill="#BCD5FF"/>
<path d="M49.7335 31.1195C62.209 31.1195 72.3224 25.2934 72.3224 18.1065C72.3224 10.9197 62.209 5.09357 49.7335 5.09357C37.2579 5.09357 27.1445 10.9197 27.1445 18.1065C27.1445 25.2934 37.2579 31.1195 49.7335 31.1195Z" fill="url(#paint7_linear_74_1595)"/>
<path d="M60.4841 24.3049C54.5466 27.7306 44.9202 27.7306 38.9754 24.3049C37.1236 23.234 35.8449 21.9576 35.1469 20.6079C33.611 17.6224 37.4469 15.4658 41.5326 13.1111C47.4701 9.6855 51.6807 8.84193 57.6256 12.2602C61.7113 14.6149 65.8411 17.6224 64.3126 20.6079C63.6145 21.9649 62.3432 23.2413 60.4841 24.3123V24.3049Z" fill="#242993"/>
<path d="M38.9825 16.9109C44.92 13.4853 54.5464 13.4853 60.4912 16.9109C62.343 17.9818 63.6216 19.2509 64.3124 20.6079C65.8482 17.6224 64.5769 14.2628 60.4912 11.9081C54.5537 8.48252 44.9273 8.48252 38.9825 11.9081C34.8968 14.2628 33.6255 17.6224 35.1613 20.6079C35.8594 19.2582 37.1307 17.9818 38.9825 16.9109Z" fill="url(#paint8_linear_74_1595)"/>
<g opacity="0.51">
<path d="M74.4967 62.4783C71.5353 63.6446 69.3235 63.3292 69.5513 61.7741C69.7864 60.219 72.3731 58.0184 75.3345 56.8521C78.2959 55.6857 80.5077 56.0012 80.2799 57.5563C80.0448 59.1114 77.4581 61.312 74.4967 62.4783Z" fill="#677EEA"/>
</g>
<g opacity="0.51">
<path d="M74.4967 86.9418C71.5353 88.1081 69.3235 87.7927 69.5513 86.2376C69.7864 84.6825 72.3731 82.4819 75.3345 81.3156C78.2959 80.1492 80.5077 80.4647 80.2799 82.0198C80.0448 83.5749 77.4581 85.7755 74.4967 86.9418Z" fill="#677EEA"/>
</g>
<g opacity="0.51">
<path d="M74.6589 111.559C71.6975 112.726 69.4856 112.41 69.7134 110.855C69.9485 109.3 72.5352 107.099 75.4966 105.933C78.458 104.767 80.6698 105.082 80.442 106.637C80.2069 108.192 77.6203 110.393 74.6589 111.559Z" fill="#677EEA"/>
</g>
<g opacity="0.51">
<path d="M82.9332 56.3386C82.2351 56.8374 81.3606 56.808 80.9858 56.2799C80.6037 55.7517 80.8683 54.9155 81.5664 54.424C82.2645 53.9252 83.1389 53.9546 83.5137 54.4827C83.8958 55.0109 83.6313 55.8471 82.9332 56.3386Z" fill="#677EEA"/>
</g>
<g opacity="0.51">
<path d="M82.9332 80.9121C82.2351 81.4109 81.3606 81.3816 80.9858 80.8534C80.6037 80.3253 80.8683 79.4891 81.5664 78.9976C82.2645 78.4988 83.1389 78.5281 83.5137 79.0563C83.8958 79.5844 83.6313 80.4207 82.9332 80.9121Z" fill="#677EEA"/>
</g>
<g opacity="0.51">
<path d="M82.9332 105.398C82.2351 105.896 81.3606 105.867 80.9858 105.339C80.6037 104.811 80.8683 103.975 81.5664 103.483C82.2645 102.984 83.1389 103.014 83.5137 103.542C83.8958 104.07 83.6313 104.906 82.9332 105.398Z" fill="#677EEA"/>
</g>
</g>
<defs>
<linearGradient id="paint0_linear_74_1595" x1="5.74609" y1="107.077" x2="93.721" y2="107.077" gradientUnits="userSpaceOnUse">
<stop stop-color="#5778FF"/>
<stop offset="0.18" stop-color="#5B7CFF"/>
<stop offset="0.39" stop-color="#6A89FF"/>
<stop offset="0.61" stop-color="#819FFF"/>
<stop offset="0.85" stop-color="#A2BDFF"/>
<stop offset="1" stop-color="#BCD5FF"/>
</linearGradient>
<linearGradient id="paint1_linear_74_1595" x1="0.491998" y1="83.4575" x2="1.22684" y2="83.4575" gradientUnits="userSpaceOnUse">
<stop stop-color="#5778FF"/>
<stop offset="0.18" stop-color="#5B7CFF"/>
<stop offset="0.39" stop-color="#6A89FF"/>
<stop offset="0.61" stop-color="#819FFF"/>
<stop offset="0.85" stop-color="#A2BDFF"/>
<stop offset="1" stop-color="#BCD5FF"/>
</linearGradient>
<linearGradient id="paint2_linear_74_1595" x1="0.491998" y1="59.3388" x2="1.22684" y2="59.3388" gradientUnits="userSpaceOnUse">
<stop stop-color="#5778FF"/>
<stop offset="0.18" stop-color="#5B7CFF"/>
<stop offset="0.39" stop-color="#6A89FF"/>
<stop offset="0.61" stop-color="#819FFF"/>
<stop offset="0.85" stop-color="#A2BDFF"/>
<stop offset="1" stop-color="#BCD5FF"/>
</linearGradient>
<linearGradient id="paint3_linear_74_1595" x1="0.491998" y1="35.22" x2="1.22684" y2="35.22" gradientUnits="userSpaceOnUse">
<stop stop-color="#5778FF"/>
<stop offset="0.18" stop-color="#5B7CFF"/>
<stop offset="0.39" stop-color="#6A89FF"/>
<stop offset="0.61" stop-color="#819FFF"/>
<stop offset="0.85" stop-color="#A2BDFF"/>
<stop offset="1" stop-color="#BCD5FF"/>
</linearGradient>
<linearGradient id="paint4_linear_74_1595" x1="0.491998" y1="35.22" x2="1.22684" y2="35.22" gradientUnits="userSpaceOnUse">
<stop stop-color="#5778FF"/>
<stop offset="0.18" stop-color="#5B7CFF"/>
<stop offset="0.39" stop-color="#6A89FF"/>
<stop offset="0.61" stop-color="#819FFF"/>
<stop offset="0.85" stop-color="#A2BDFF"/>
<stop offset="1" stop-color="#BCD5FF"/>
</linearGradient>
<linearGradient id="paint5_linear_74_1595" x1="5.7453" y1="24.3709" x2="49.7328" y2="24.3709" gradientUnits="userSpaceOnUse">
<stop stop-color="#E9FFFF"/>
<stop offset="0.04" stop-color="#D3EAFF"/>
<stop offset="0.11" stop-color="#B2CCFF"/>
<stop offset="0.18" stop-color="#95B1FF"/>
<stop offset="0.27" stop-color="#7E9CFF"/>
<stop offset="0.36" stop-color="#6C8CFF"/>
<stop offset="0.48" stop-color="#6080FF"/>
<stop offset="0.64" stop-color="#5979FF"/>
<stop offset="1" stop-color="#5778FF"/>
</linearGradient>
<linearGradient id="paint6_linear_74_1595" x1="27.1519" y1="23.1093" x2="72.3224" y2="23.1093" gradientUnits="userSpaceOnUse">
<stop stop-color="#5778FF"/>
<stop offset="0.18" stop-color="#5B7CFF"/>
<stop offset="0.39" stop-color="#6A89FF"/>
<stop offset="0.61" stop-color="#819FFF"/>
<stop offset="0.85" stop-color="#A2BDFF"/>
<stop offset="1" stop-color="#BCD5FF"/>
</linearGradient>
<linearGradient id="paint7_linear_74_1595" x1="27.1519" y1="18.1065" x2="72.3224" y2="18.1065" gradientUnits="userSpaceOnUse">
<stop stop-color="#C0D6FF"/>
<stop offset="0.3" stop-color="#C4DAFF"/>
<stop offset="0.65" stop-color="#D3E9FF"/>
<stop offset="1" stop-color="#E9FFFF"/>
</linearGradient>
<linearGradient id="paint8_linear_74_1595" x1="34.5293" y1="14.9743" x2="64.937" y2="14.9743" gradientUnits="userSpaceOnUse">
<stop stop-color="#BCD5FF"/>
<stop offset="0.15" stop-color="#A2BDFF"/>
<stop offset="0.39" stop-color="#819FFF"/>
<stop offset="0.61" stop-color="#6A89FF"/>
<stop offset="0.82" stop-color="#5B7CFF"/>
<stop offset="1" stop-color="#5778FF"/>
</linearGradient>
<clipPath id="clip0_74_1595">
<rect width="98.4831" height="151.512" fill="white" transform="translate(0.490234 0.127502)"/>
</clipPath>
</defs>
</svg>
