<svg width="238" height="213" viewBox="0 0 238 213" fill="none" xmlns="http://www.w3.org/2000/svg">
<mask id="mask0_74_1688" style="mask-type:alpha" maskUnits="userSpaceOnUse" x="0" y="0" width="238" height="213">
<rect width="238" height="213" rx="12" fill="#0049FF"/>
<rect x="0.5" y="0.5" width="237" height="212" rx="11.5" stroke="black" stroke-opacity="0.05"/>
</mask>
<g mask="url(#mask0_74_1688)">
<path d="M152.66 194.141C115.617 194.141 80.7852 185.773 54.5937 170.569C27.6509 154.945 12.8125 133.911 12.8125 111.367C12.8125 88.8232 27.6509 67.7891 54.5937 52.1656C108.667 20.7926 196.654 20.7926 250.727 52.1656C277.67 67.8101 292.508 88.8232 292.508 111.367C292.508 133.911 277.67 154.945 250.727 170.569C224.536 185.773 189.704 194.141 152.66 194.141ZM152.66 33.7319C118.079 33.7319 83.4982 41.3654 57.1606 56.6324C31.8666 71.3123 17.9465 90.7316 17.9465 111.346C17.9465 131.961 31.8666 151.401 57.1606 166.081C82.58 180.824 116.493 188.961 152.66 188.961C188.828 188.961 222.72 180.845 248.139 166.081C273.434 151.401 287.354 131.982 287.354 111.367C287.354 90.7526 273.434 71.3123 248.139 56.6324C221.823 41.3654 187.221 33.7319 152.64 33.7319H152.66Z" fill="url(#paint0_linear_74_1688)"/>
<path d="M204.391 12.1954C200.162 14.6365 196.153 18.0789 192.592 22.1368C187.643 6.27027 172.556 1.34653 154.712 11.6426C139.948 20.1548 127.074 36.908 120.267 54.6627C118.012 54.7357 115.495 55.4764 112.833 57.0098C103.196 62.5699 95.3857 76.0893 95.3857 87.199C95.3857 87.439 95.4066 87.658 95.417 87.8875C92.671 88.0753 89.6326 89.0454 86.4377 90.8918C74.1171 98.0062 64.125 115.291 64.125 129.51C64.125 143.728 74.1171 149.486 86.4377 142.382L204.38 74.3472C219.259 65.762 231.318 44.8987 231.318 27.7386C231.318 10.5785 219.259 3.62063 204.38 12.2059L204.391 12.1954Z" fill="url(#paint1_linear_74_1688)"/>
<path d="M204.391 12.1957C201.937 13.6144 199.567 15.3669 197.301 17.3802L184.114 9.76512C176.868 4.67447 166.385 4.90397 154.712 11.6324C139.948 20.1446 127.074 36.8979 120.267 54.6525C118.012 54.7255 115.495 55.4662 112.833 56.9996C103.196 62.5597 95.3857 76.0791 95.3857 87.1889C95.3857 87.4288 95.4066 87.6478 95.417 87.8773C92.671 88.0651 89.6326 89.0353 86.4377 90.8817C74.1171 98.0065 64.125 115.292 64.125 129.51C64.125 136.551 66.5787 141.517 70.5567 143.874L70.6611 143.937C70.6611 143.937 70.6716 143.937 70.682 143.947L102.987 162.683L110.045 128.769L204.401 74.3475C219.28 65.7622 231.339 44.8989 231.339 27.7389C231.339 10.5788 219.28 3.62088 204.401 12.2061L204.391 12.1957Z" fill="url(#paint2_radial_74_1688)"/>
<path d="M256.304 29.3974L223.571 10.4013C218.685 7.50133 211.898 7.86644 204.38 12.206C201.927 13.6247 199.557 15.3772 197.291 17.3905L184.104 9.77543C176.858 4.68479 166.375 4.91429 154.702 11.6427C139.938 20.1549 127.064 36.9082 120.256 54.6628C118.001 54.7359 115.485 55.4765 112.822 57.01C103.185 62.57 95.3752 76.0894 95.3752 87.1992C95.3752 87.4391 95.3961 87.6581 95.4066 87.8876C92.6605 88.0754 89.6222 89.0456 86.4272 90.892C74.1171 98.0063 64.125 115.292 64.125 129.51C64.125 136.551 66.5787 141.517 70.5567 143.874L70.6611 143.937C70.6611 143.937 70.6716 143.937 70.682 143.947L102.987 162.683L110.045 128.769L204.401 74.3474C216.461 67.3894 226.662 52.3574 230.097 37.774L256.325 29.3974H256.304Z" fill="url(#paint3_linear_74_1688)"/>
<path d="M236.799 30.9934C232.57 33.4344 228.561 36.8768 225.001 40.9348C220.052 25.0578 204.975 20.1445 187.12 30.4301C172.357 38.9423 159.483 55.6955 152.675 73.4502C150.42 73.5232 147.903 74.2639 145.241 75.7973C135.604 81.3574 127.794 94.8769 127.794 105.987C127.794 106.226 127.815 106.446 127.825 106.675C125.079 106.863 122.041 107.833 118.846 109.679C106.525 116.783 96.5332 134.079 96.5332 148.297C96.5332 162.516 106.525 168.274 118.846 161.17L236.789 93.1348C251.667 84.5495 263.727 63.6862 263.727 46.5261C263.727 29.3661 251.667 22.4081 236.789 30.9934H236.799Z" fill="url(#paint4_linear_74_1688)"/>
<path d="M224.991 40.9348C228.551 36.8769 232.56 33.4345 236.789 30.9935C245.894 25.7359 253.944 26.3201 258.82 31.4942C254.048 25.5168 245.622 24.5676 236.016 30.1068C231.913 32.4747 228.039 35.7816 224.562 39.6726C224.709 40.0899 224.855 40.5071 224.991 40.9348Z" fill="white"/>
<path d="M96.5344 148.297C96.5344 134.079 106.527 116.794 118.847 109.679C122.042 107.833 125.08 106.863 127.826 106.675C127.826 106.446 127.795 106.227 127.795 105.987C127.795 94.8665 135.605 81.3575 145.242 75.7974C147.905 74.264 150.421 73.5233 152.676 73.4503C159.484 55.7061 172.347 38.9528 187.121 30.4302C200.643 22.6273 212.577 23.5766 219.719 31.3899C212.681 22.7629 200.371 21.459 186.349 29.5435C171.585 38.0557 158.711 54.809 151.904 72.5636C149.648 72.6366 147.132 73.3773 144.469 74.9107C134.832 80.4708 127.022 93.9902 127.022 105.1C127.022 105.34 127.043 105.559 127.054 105.788C124.308 105.976 121.269 106.946 118.074 108.793C105.754 115.897 95.7617 133.192 95.7617 147.411C95.7617 152.992 97.3174 157.248 99.9382 159.96C97.7873 157.248 96.5344 153.305 96.5344 148.297Z" fill="white"/>
</g>
<defs>
<linearGradient id="paint0_linear_74_1688" x1="12.8125" y1="111.388" x2="292.508" y2="111.388" gradientUnits="userSpaceOnUse">
<stop stop-color="#B5DBFF"/>
<stop offset="0.166667" stop-color="#B4D2FF"/>
<stop offset="0.333333" stop-color="#9AC2FF"/>
<stop offset="0.5" stop-color="#77B6FF"/>
<stop offset="0.75" stop-color="#5488FF"/>
<stop offset="0.921875" stop-color="#5177FF"/>
</linearGradient>
<linearGradient id="paint1_linear_74_1688" x1="-22.8506" y1="159.74" x2="144.274" y2="63.1625" gradientUnits="userSpaceOnUse">
<stop stop-color="#5778FF"/>
<stop offset="0.18" stop-color="#5B7CFF"/>
<stop offset="0.39" stop-color="#6A89FF"/>
<stop offset="0.61" stop-color="#819FFF"/>
<stop offset="0.85" stop-color="#A2BDFF"/>
<stop offset="1" stop-color="#BCD5FF"/>
</linearGradient>
<radialGradient id="paint2_radial_74_1688" cx="0" cy="0" r="1" gradientUnits="userSpaceOnUse" gradientTransform="translate(103.415 59.4302) scale(79.7596 79.6874)">
<stop stop-color="#2B3AA5"/>
<stop offset="1" stop-color="#182484"/>
</radialGradient>
<linearGradient id="paint3_linear_74_1688" x1="64.125" y1="84.4556" x2="256.304" y2="84.4556" gradientUnits="userSpaceOnUse">
<stop stop-color="#6271B2"/>
<stop offset="0.18" stop-color="#6779C1"/>
<stop offset="0.39" stop-color="#5B6DB2"/>
<stop offset="0.61" stop-color="#798FD5"/>
<stop offset="0.85" stop-color="#A2BDFF"/>
<stop offset="1" stop-color="#BCD5FF"/>
</linearGradient>
<linearGradient id="paint4_linear_74_1688" x1="25.8022" y1="169.16" x2="192.927" y2="72.5832" gradientUnits="userSpaceOnUse">
<stop stop-color="#A8B7D0"/>
<stop offset="0.3" stop-color="#869EC7"/>
<stop offset="0.65" stop-color="#A5C9F2"/>
<stop offset="1" stop-color="#90B2D9"/>
</linearGradient>
</defs>
</svg>
