<svg width="314" height="207" viewBox="0 0 314 207" fill="none" xmlns="http://www.w3.org/2000/svg">
<g opacity="0.5" clip-path="url(#clip0_74_1866)">
<path d="M441.854 -26.5989L445.694 -26.6456C445.877 -10.2653 428.256 1.25606 411.114 2.92532C404.412 3.58123 397.605 3.28228 391.013 2.9946C381.71 2.5917 372.93 2.21227 364.286 4.23082C346.709 8.34097 333.054 21.7731 319.845 34.7692C306.374 48.021 292.444 61.7237 274.04 66.2417C260.73 69.5015 246.997 67.408 233.716 65.3706C228.833 64.6231 223.78 63.8496 218.861 63.366C210.577 62.5541 182.716 61.3703 172.005 80.2721C167.54 88.1493 167.298 97.3902 167.03 107.174C166.765 116.968 166.497 127.095 161.611 135.795C151.758 153.32 127.373 156.849 108.381 151.273C97.8046 148.172 87.9695 142.956 78.4638 137.915C71.2938 134.111 63.8699 130.176 56.26 127.229C40.68 121.189 17.817 119.011 4.6486 132.73C-6.20832 144.04 -6.22134 160.221 -6.23789 177.361C-6.24578 185.134 -6.25641 193.181 -7.3618 200.742C-10.0414 219.014 -21.0122 236.233 -37.4595 247.982C-53.9069 259.73 -73.7508 264.541 -91.9058 261.158L-91.2058 257.38C-74.0816 260.571 -55.3066 256.014 -39.6974 244.858C-24.0974 233.705 -13.6919 217.425 -11.1653 200.182C-10.093 192.893 -10.0868 184.989 -10.0834 177.359C-10.0669 160.218 -10.0475 142.492 1.87459 130.072C16.3352 115.007 40.1674 116.874 57.6505 123.653C65.4813 126.689 73.0019 130.674 80.2686 134.528C89.6051 139.482 99.2679 144.603 109.465 147.593C126.998 152.741 149.397 149.691 158.261 133.917C162.686 126.043 162.927 116.832 163.195 107.078C163.46 97.2546 163.729 87.0967 168.661 78.3827C176.654 64.2621 195.567 57.2189 219.236 59.5516C224.258 60.0423 229.363 60.8193 234.3 61.5795C247.208 63.5554 260.559 65.5905 273.129 62.5086C290.498 58.2536 304.054 44.9238 317.157 32.0329C330.741 18.6638 344.794 4.84078 363.415 0.49503C372.576 -1.63985 382.031 -1.23543 391.182 -0.834058C397.64 -0.553792 404.314 -0.262259 410.742 -0.890521C426.151 -2.39487 442.013 -12.4211 441.854 -26.5989Z" fill="#F7F7F7"/>
<path d="M440.699 -25.298L444.544 -25.2657C444.382 -8.45142 426.309 3.01375 408.927 4.37687C402.212 4.92631 395.391 4.49054 388.804 4.06014C379.384 3.45257 370.493 2.88673 361.697 4.90376C344.252 8.89069 330.696 22.1902 317.582 35.0445C304.477 47.8959 290.924 61.1741 273.202 65.8357C260.103 69.2798 246.672 67.654 233.702 66.0814C228.967 65.5086 224.064 64.9188 219.283 64.5824C211.203 64.0278 183.984 63.6461 173.006 82.1899C168.378 89.9987 167.732 99.2993 167.098 108.293C166.439 117.709 165.749 127.438 160.603 135.736C149.948 152.904 125.24 155.427 106.791 150.504C96.2359 147.689 86.4616 142.786 77.0135 138.05C69.9956 134.529 62.7479 130.891 55.2724 128.173C38.9437 122.284 16.8253 120.662 3.7238 133.775C-7.22385 144.74 -7.58235 160.538 -7.95617 177.259C-8.12498 184.721 -8.29034 192.444 -9.48113 199.74C-12.4229 217.793 -23.495 234.823 -39.8624 246.476C-55.7618 257.795 -74.7487 262.572 -91.9507 259.578L-91.2932 255.794C-75.0978 258.607 -57.1643 254.07 -42.0911 243.349C-26.5527 232.287 -16.0456 216.165 -13.2719 199.125C-12.1292 192.086 -11.9592 184.503 -11.7887 177.172C-11.4116 160.43 -11.0259 143.12 1.01409 131.066C15.3798 116.678 39.1357 118.276 56.5842 124.572C64.2685 127.373 71.6249 131.067 78.7366 134.629C88.0063 139.281 97.5994 144.091 107.778 146.805C125.455 151.523 148.148 148.539 157.342 133.729C161.992 126.237 162.615 117.397 163.273 108.042C163.936 98.6052 164.626 88.8464 169.708 80.2554C177.878 66.4616 196.51 59.1756 219.558 60.77C224.439 61.1044 229.387 61.7098 234.175 62.2862C246.799 63.8189 259.851 65.3953 272.243 62.1385C288.969 57.7373 302.163 44.817 314.909 32.3234C328.406 19.0933 342.364 5.41204 360.86 1.17742C370.203 -0.955632 379.796 -0.343297 389.069 0.250674C395.52 0.664516 402.198 1.09583 408.637 0.564888C424.296 -0.666632 440.58 -10.6674 440.723 -25.2857L440.699 -25.298Z" fill="#EFF4F7"/>
<path d="M353.568 3.1032C355.094 2.6112 356.651 2.18025 358.252 1.82569C367.805 -0.314381 377.557 0.509141 386.993 1.29306C393.415 1.83723 400.052 2.39268 406.49 1.98322C422.049 1.00586 439.101 -9.21199 439.54 -24.0065L443.382 -23.8922C442.875 -6.70469 424.345 4.71641 406.728 5.82203C400.011 6.24084 393.227 5.67178 386.672 5.1202C377.109 4.31678 368.073 3.5551 359.096 5.57031C341.788 9.45231 328.316 22.6038 315.291 35.3284C302.558 47.7673 289.383 60.6514 272.343 65.4261C259.446 69.0576 246.338 67.9028 233.655 66.7827C229.063 66.3753 224.329 65.9634 219.689 65.7833C211.81 65.4767 185.224 65.9003 173.976 84.1072C169.2 91.8325 168.157 100.746 167.138 109.36C166.076 118.401 164.974 127.758 159.552 135.671C148.593 151.676 123.672 154.166 105.154 149.719C94.6757 147.203 85.0436 142.647 75.7199 138.235C68.8027 134.964 61.6588 131.584 54.254 129.086C37.9517 123.592 15.8554 122.196 2.76818 134.789C-8.28848 145.416 -8.97422 160.825 -9.71149 177.138C-10.0321 184.286 -10.3643 191.679 -11.6313 198.707C-14.7448 216.008 -25.4747 232.534 -41.0601 244.046C-56.6791 255.578 -75.2559 260.656 -92.0266 257.967L-91.4237 254.17C-58.4916 259.442 -21.5494 232.158 -15.4061 198.016C-14.1901 191.236 -13.8563 183.974 -13.5461 176.951C-12.8114 160.598 -12.053 143.693 0.104786 132.004C14.4341 118.224 38.1012 119.578 55.4782 125.432C63.0859 127.996 70.3478 131.428 77.3617 134.749C86.504 139.068 95.9577 143.54 106.045 145.971C123.327 150.12 146.455 147.985 156.375 133.486C161.261 126.351 162.263 117.874 163.325 108.893C164.39 99.8612 165.489 90.5257 170.707 82.0727C179.04 68.5995 197.401 61.0678 219.831 61.9331C224.562 62.1141 229.36 62.5357 233.991 62.9405C246.892 64.081 259.084 65.1477 271.308 61.713C287.416 57.1781 300.216 44.6669 312.615 32.5678C324.867 20.607 337.493 8.27329 353.583 3.08816L353.568 3.1032Z" fill="#E7F1F8"/>
<path d="M350.806 3.80154C352.388 3.29186 354.011 2.84944 355.661 2.48928C365.396 0.351037 375.286 1.38249 384.85 2.37728C391.262 3.04589 397.901 3.73198 404.343 3.43191C420.122 2.69672 437.626 -7.49534 438.367 -22.7L442.202 -22.5128C441.339 -4.92791 422.359 6.44617 404.521 7.27011C397.789 7.58247 391.014 6.87984 384.456 6.19762C374.767 5.19247 365.619 4.23525 356.486 6.2398C339.295 10.0136 325.921 23.0324 312.977 35.6302C300.618 47.6659 287.836 60.1105 271.466 65.0225C258.762 68.8442 245.965 68.1542 233.585 67.5018C229.149 67.2661 224.571 67.0259 220.07 66.993C210.229 66.9249 186.124 68.6582 174.927 86.0212C170.008 93.651 168.569 102.148 167.18 110.366C165.705 119.066 164.184 128.063 158.471 135.606C147.18 150.516 122.727 153.048 103.492 148.943C93.0771 146.719 83.5329 142.498 74.3032 138.409C67.5109 135.4 60.4949 132.293 53.2032 130.021C36.8846 124.946 14.81 123.804 1.78022 135.824C-9.3825 146.122 -10.4228 161.151 -11.5206 177.066C-11.9959 183.889 -12.4766 190.947 -13.82 197.707C-17.1503 214.523 -27.7521 230.695 -42.9202 242.092C-58.1281 253.522 -76.0775 258.731 -92.1501 256.393L-91.5987 252.592C-60.1238 257.163 -24.15 230.13 -17.5913 196.965C-16.2989 190.453 -15.8195 183.517 -15.3575 176.809C-14.2562 160.842 -13.116 144.338 -0.834232 133.004C17.0825 116.482 45.9212 123.739 54.3334 126.356C61.8371 128.691 68.959 131.846 75.845 134.894C84.8963 138.9 94.2439 143.043 104.277 145.178C121.736 148.907 145.177 146.772 155.39 133.278C160.54 126.492 161.909 118.341 163.369 109.717C164.825 101.114 166.329 92.2229 171.679 83.9293C183.913 64.9607 209.602 63.0701 220.078 63.1354C224.658 63.163 229.291 63.4159 233.766 63.649C246.374 64.3189 258.275 64.9543 270.337 61.3296C285.787 56.694 298.24 44.5772 310.268 32.8602C322.381 21.0651 334.881 8.90327 350.77 3.78296L350.806 3.80154Z" fill="#DFEEF8"/>
<path d="M347.843 4.5647C349.553 4.01378 351.298 3.5422 353.082 3.15909C363 1.02267 373.017 2.26498 382.707 3.46152C389.118 4.25161 395.762 5.07747 402.218 4.88386C418.228 4.39702 436.16 -5.78164 437.215 -21.3902L441.052 -21.1331C439.851 -3.37847 420.013 8.18143 402.335 8.72145C395.577 8.92116 388.791 8.09085 382.232 7.27799C372.426 6.06817 363.176 4.9216 353.889 6.91549C336.388 10.668 323.33 23.131 309.508 36.3246C297.799 47.4949 285.688 59.0471 270.706 64.6017C258.535 69.1092 246.133 68.7361 234.147 68.3701C229.662 68.2311 225.025 68.0906 220.492 68.2092C210.897 68.4656 187.365 70.9124 175.913 87.9539C170.872 95.4518 169.056 103.535 167.292 111.339C165.312 120.101 163.45 128.38 157.427 135.559C145.908 149.292 121.231 151.785 101.881 148.171C91.5181 146.232 82.0828 142.35 72.95 138.593C66.2827 135.847 59.3946 133.011 52.2161 130.964C44.2925 128.704 17.1628 122.461 0.855856 136.869C-10.4221 146.841 -11.8141 161.498 -13.2786 177.027C-13.8903 183.521 -14.5287 190.246 -15.9268 196.711C-19.4678 213.03 -29.9478 228.86 -44.6924 240.13C-59.4922 251.449 -76.799 256.804 -92.1826 254.819L-91.6949 251.009C-61.665 254.884 -26.6688 228.106 -19.6884 195.905C-18.3289 189.664 -17.713 183.058 -17.1055 176.676C-15.6283 161.093 -14.1122 144.972 -1.68514 133.994C2.41533 130.372 7.09929 127.934 11.9903 126.358C28.2907 121.105 46.8099 125.431 53.2766 127.272C60.6672 129.381 67.6582 132.255 74.4192 135.041C83.785 138.895 92.6273 142.535 102.593 144.399C120.848 147.811 143.973 145.636 154.493 133.093C159.919 126.632 161.683 118.798 163.559 110.493C165.393 102.344 167.297 93.9094 172.739 85.808C185.187 67.285 210.221 64.6467 220.403 64.3628C225.046 64.2391 229.743 64.3803 234.28 64.5229C246.43 64.8965 257.914 65.2423 269.384 61.0012C283.628 55.7247 295.445 44.449 306.878 33.5493C319.166 21.8288 331.838 9.73246 347.865 4.56795L347.843 4.5647Z" fill="#D7EBF8"/>
<path d="M345.033 5.26864C346.816 4.69415 348.637 4.20814 350.506 3.80766C360.6 1.68515 370.734 3.13215 380.54 4.53336C386.962 5.45114 393.604 6.39848 400.094 6.30545C416.326 6.0699 434.695 -4.0983 436.076 -20.1045L439.906 -19.7746C438.349 -1.6226 418.061 9.89027 400.152 10.1516C393.362 10.2507 386.571 9.28062 380.001 8.34008C370.089 6.92263 360.728 5.58967 351.295 7.56995C333.771 11.2493 320.066 24.2435 306.818 36.808C295.585 47.4515 283.975 58.4589 269.878 64.1621C257.987 68.9731 245.924 69.0256 234.253 69.0729C229.87 69.0928 225.335 69.1112 220.912 69.3859C211.575 69.9729 188.595 73.1299 176.888 89.8499C171.745 97.1888 169.563 104.825 167.449 112.197C165.028 120.657 162.737 128.641 156.362 135.478C143.872 148.889 118.33 150.267 100.252 147.374C89.9533 145.728 80.6058 142.181 71.567 138.746C65.0276 136.272 58.2673 133.707 51.199 131.878C43.2521 129.827 16.0797 124.203 -0.107517 137.886C-11.5219 147.528 -13.2659 161.845 -15.1063 176.99C-15.8545 183.155 -16.6289 189.52 -18.091 195.693C-26.0325 229.233 -61.3874 256.652 -92.2632 253.22L-91.8392 249.4C-63.2513 252.59 -29.2266 226.054 -21.8274 194.808C-20.4191 188.844 -19.6518 182.582 -18.9198 176.524C-17.0727 161.306 -15.1504 145.569 -2.58719 134.951C14.5283 120.485 41.3951 125.379 52.1597 128.157C59.4341 130.031 66.2881 132.636 72.9212 135.151C82.1871 138.664 90.9475 141.986 100.855 143.577C117.999 146.327 142.095 145.162 153.552 132.862C159.296 126.702 161.462 119.142 163.759 111.145C165.965 103.461 168.238 95.5135 173.745 87.6436C186.404 69.5571 210.784 66.1711 220.677 65.5563C225.218 65.2736 229.805 65.2588 234.246 65.2303C246.069 65.1845 257.232 65.1291 268.438 60.5999C281.863 55.1633 293.204 44.4145 304.173 34.0173C316.44 22.3847 329.089 10.4066 345.033 5.26864Z" fill="#CFE8F8"/>
<path d="M342.559 5.89394C344.305 5.33124 346.09 4.85701 347.917 4.48039C358.183 2.36265 368.437 4.02348 378.35 5.63231C384.783 6.67778 391.436 7.75281 397.955 7.75119C414.397 7.76075 433.207 -2.38786 434.911 -18.8009L438.731 -18.4073C436.805 0.135891 416.069 11.6018 397.95 11.5876C391.127 11.5861 384.322 10.4792 377.732 9.41396C367.725 7.79507 358.26 6.26363 348.69 8.22735C331.846 11.6978 318.709 24.3575 306.005 36.6054C294.795 47.4133 283.207 58.5849 268.915 63.7758C256.757 68.1984 244.858 68.9451 233.353 69.6653C229.417 69.9145 225.341 70.1684 221.322 70.5656C212.227 71.4679 189.802 75.3442 177.858 91.7369C172.66 98.8717 170.124 106.036 167.674 112.962C164.782 121.149 162.047 128.883 155.284 135.391C142.703 147.519 117.767 149.116 98.6161 146.559C88.378 145.196 79.1212 141.993 70.1702 138.893C63.7649 136.678 57.1325 134.385 50.1774 132.782C39.9614 130.423 14.5329 126.295 -1.07552 138.894C-12.6417 148.222 -14.7406 162.189 -16.9601 176.972C-17.8323 182.783 -18.737 188.806 -20.2506 194.663C-28.6312 227.154 -62.984 254.3 -92.3422 251.6L-91.9911 247.774C-64.839 250.266 -31.7798 223.991 -23.9711 193.702C-22.508 188.034 -21.6195 182.116 -20.7574 176.399C-18.4209 160.852 -16.2085 146.172 -3.48177 135.905C13.4403 122.248 40.2887 126.553 51.0502 129.039C58.2023 130.69 64.9254 133.014 71.4336 135.267C80.6117 138.444 89.2752 141.435 99.1341 142.749C117.387 145.182 141.03 143.8 152.623 132.616C158.733 126.742 161.196 119.762 164.051 111.677C166.589 104.491 169.218 97.0542 174.746 89.4701C187.608 71.823 211.333 67.6893 220.935 66.7344C225.021 66.3257 229.137 66.0692 233.103 65.8203C244.854 65.0813 255.96 64.3783 267.597 60.1541C281.12 55.2409 292.416 44.355 303.332 33.8236C315.089 22.4866 327.216 10.798 342.548 5.85737L342.559 5.89394Z" fill="#C7E6F9"/>
<path d="M339.816 6.58638C341.608 6.00895 343.45 5.52618 345.334 5.14103C355.768 3.04015 366.129 4.9086 376.15 6.72507C382.599 7.88613 389.266 9.09799 395.817 9.19694C412.482 9.45781 431.72 -0.677415 433.759 -17.4911L437.57 -17.0338C435.275 1.90057 414.089 13.3194 395.764 13.0389C388.906 12.9278 382.081 11.6961 375.471 10.5061C365.356 8.67959 355.808 6.95291 346.095 8.91217C329.358 12.2774 316.293 24.8437 303.656 36.989C292.848 47.3847 281.666 58.1229 268.072 63.3816C256.067 68.0275 244.454 69.2569 233.23 70.4417C229.475 70.8446 225.598 71.2462 221.753 71.7788C212.914 73.0026 191.031 77.5921 178.835 93.6724C173.624 100.549 170.784 107.206 168.028 113.655C164.632 121.622 161.419 129.156 154.212 135.353C138.362 149.019 106.408 146.813 96.9927 145.81C86.8247 144.728 77.6494 141.872 68.7862 139.107C62.5059 137.155 56.0105 135.13 49.1748 133.741C36.4338 131.156 12.8464 128.514 -2.02449 139.957C-13.7515 148.973 -16.2178 162.615 -18.8317 177.05C-19.8188 182.505 -20.8443 188.154 -22.3882 193.697C-31.1958 225.145 -64.5586 252.012 -92.3872 250.051L-92.1181 246.22C-66.3899 248.021 -34.2991 221.997 -26.0836 192.657C-24.584 187.29 -23.5778 181.738 -22.6036 176.369C-19.8577 161.184 -17.2538 146.842 -4.35729 136.914C11.7288 124.545 36.57 127.257 49.9505 129.979C56.9712 131.41 63.5635 133.453 69.9347 135.437C79.0312 138.268 87.6128 140.941 97.4046 141.984C106.435 142.949 137.029 145.099 151.708 132.437C158.234 126.822 161.139 120.022 164.496 112.149C167.202 105.797 170.272 98.6018 175.769 91.3606C188.827 74.1346 211.903 69.2715 221.217 67.9856C225.12 67.4445 229.033 67.0311 232.819 66.6285C244.304 65.4099 255.156 64.2639 266.686 59.8017C279.563 54.8244 290.458 44.3505 300.999 34.2225C312.648 23.0211 324.661 11.4802 339.819 6.59553L339.816 6.58638Z" fill="#BFE3F9"/>
<path d="M337.076 7.28798C338.922 6.69287 340.81 6.19537 342.746 5.81378C353.338 3.73269 363.809 5.81792 373.934 7.83287C380.403 9.11867 387.091 10.4553 393.674 10.6548C410.618 11.1584 430.293 0.499029 432.589 -16.1754L436.39 -15.6544C433.73 3.68032 412.083 15.0459 393.547 14.4899C386.648 14.2812 379.791 12.9186 373.17 11.6009C362.96 9.57296 353.32 7.65399 343.477 9.58462C326.832 12.8596 313.837 25.3324 301.262 37.3872C290.862 47.3587 280.1 57.679 267.195 62.978C255.325 67.853 243.99 69.5682 233.022 71.2354C229.472 71.774 225.797 72.3326 222.152 72.9826C213.558 74.5309 192.218 79.8336 179.78 95.5986C174.629 102.132 171.534 108.246 168.531 114.179C164.571 121.995 160.834 129.375 153.105 135.297C138.378 146.592 110.594 146.241 95.3486 145.028C85.2386 144.22 76.1479 141.72 67.3633 139.293C61.217 137.6 54.8588 135.845 48.1544 134.675C32.5051 131.928 10.9194 130.8 -3.00037 140.998C-14.9128 149.721 -17.7647 163.043 -20.7763 177.152C-21.8601 182.244 -22.991 187.503 -24.5648 192.703C-33.7902 223.105 -66.1569 249.681 -92.4713 248.474L-92.2961 244.633C-67.9887 245.751 -36.8602 219.967 -28.2443 191.588C-26.7115 186.543 -25.6056 181.363 -24.5379 176.346C-21.37 161.5 -18.3684 147.484 -5.28094 137.898C9.73429 126.904 32.4258 128.017 48.812 130.891C55.6982 132.093 62.1443 133.87 68.3814 135.594C77.3963 138.078 85.9114 140.42 95.6573 141.195C110.365 142.369 137.074 142.764 150.778 132.242C157.812 126.857 161.199 120.175 165.116 112.444C168.057 106.632 171.385 100.05 176.775 93.2266C190.02 76.4247 212.447 70.8322 221.479 69.2033C225.179 68.5356 228.875 67.9802 232.453 67.4328C243.691 65.7288 254.305 64.1248 265.746 59.4187C277.983 54.3955 288.466 44.3367 298.611 34.6087C310.158 23.5308 322.061 12.1163 337.063 7.28178L337.076 7.28798Z" fill="#B7E0F9"/>
<path d="M334.339 7.97748C336.232 7.36764 338.169 6.86456 340.165 6.48357C350.912 4.41315 361.493 6.71515 371.713 8.93152C378.202 10.3421 384.919 11.8005 391.541 12.0884C408.696 12.8372 428.817 2.1853 431.442 -14.8777L435.242 -14.296C432.211 5.42082 410.118 16.7486 391.375 15.9262C384.425 15.6228 377.545 14.1263 370.904 12.6839C360.605 10.4424 350.872 8.33119 340.896 10.2544C324.343 13.4392 311.41 25.8215 298.891 37.7979C288.902 47.3543 278.575 57.2415 266.366 62.5687C254.599 67.703 243.505 69.9157 232.782 72.0592C229.455 72.7276 226.022 73.4102 222.594 74.1717C214.244 76.0352 193.446 82.0511 180.77 97.5191C175.795 103.593 172.369 109.37 169.344 114.482C164.554 122.575 160.408 129.562 152.032 135.228C141.068 142.667 121.46 145.706 93.7329 144.247C83.6839 143.721 74.6656 141.571 65.9414 139.488C59.9292 138.055 53.7201 136.575 47.1534 135.613C24.211 132.249 7.01514 134.409 -3.95692 142.042C-16.0851 150.472 -19.3229 163.504 -22.7476 177.303C-23.9155 182.008 -25.1215 186.878 -26.7129 191.71C-36.347 221.062 -67.7116 247.366 -92.5084 246.891L-92.4336 243.052C-69.5287 243.482 -39.3656 217.958 -30.3582 190.513C-28.8137 185.817 -27.6265 181.014 -26.4745 176.384C-22.8695 161.862 -19.4608 148.139 -6.14282 138.892C5.66419 130.687 23.7888 128.308 47.726 131.816C54.4625 132.803 60.7595 134.306 66.8475 135.755C75.7899 137.889 84.2414 139.908 93.9413 140.416C120.806 141.829 139.628 139.014 149.879 132.057C157.543 126.872 161.477 120.226 166.04 112.529C169.13 107.305 172.634 101.393 177.8 95.0958C191.229 78.7089 213.01 72.3961 221.754 70.4362C225.218 69.6629 228.679 68.9715 232.024 68.2973C243.042 66.0989 253.442 64.019 264.831 59.0572C276.412 54.0031 286.496 44.3656 296.236 35.0406C307.688 24.0741 319.499 12.7802 334.345 7.99576L334.339 7.97748Z" fill="#AFDDF9"/>
<path d="M331.615 8.66405C333.553 8.03948 335.548 7.52786 337.593 7.14128C348.497 5.09067 359.167 7.60618 369.495 10.0302C376.013 11.5625 382.753 13.1548 389.413 13.5312C406.769 14.528 427.343 3.87157 430.3 -13.5708L434.09 -12.9254C430.681 7.18553 408.136 18.4571 389.199 17.3746C382.198 16.9765 375.295 15.3462 368.613 13.7758C358.228 11.3299 348.412 9.02344 338.308 10.9271C321.847 14.0218 308.954 26.3407 296.494 38.2477C286.934 47.3832 277.053 56.8344 265.53 62.1624C253.823 67.5798 242.937 70.311 232.416 72.9547C229.352 73.7199 226.197 74.5145 223.033 75.3729C205.897 80.0069 190.85 88.7715 181.755 99.4426C177.113 104.894 173.636 109.981 170.569 114.461C164.977 122.63 160.159 129.693 150.961 135.16C137.063 143.453 113.417 144.009 92.1289 143.462C82.1166 143.207 73.1617 141.411 64.5098 139.678C58.653 138.507 52.5992 137.289 46.1702 136.536C22.675 133.773 5.96539 135.909 -4.90773 143.066C-17.2791 151.21 -20.7576 163.401 -24.7777 177.513C-26.0054 181.814 -27.277 186.261 -28.8524 190.704C-38.8952 219.008 -69.2424 245.024 -92.537 245.296L-92.5836 241.456C-71.0875 241.209 -41.8776 215.922 -32.4755 189.419C-30.9347 185.088 -29.6848 180.699 -28.479 176.456C-24.4181 162.22 -20.584 148.783 -7.02313 139.852C4.64188 132.177 22.1829 129.835 46.6124 132.71C53.1901 133.486 59.3167 134.711 65.2493 135.897C74.1376 137.675 82.5318 139.36 92.2099 139.611C111.736 140.111 135.838 139.68 148.974 131.844C157.445 126.814 161.825 120.397 167.374 112.281C170.494 107.714 174.036 102.546 178.806 96.9314C191.927 81.5317 211.502 74.4769 222.013 71.6447C225.208 70.7867 228.381 69.9861 231.463 69.215C242.292 66.4924 252.517 63.9338 263.897 58.662C274.831 53.6046 284.059 44.7877 293.818 35.4568C305.184 24.5989 316.896 13.4073 331.606 8.667L331.615 8.66405Z" fill="#A7DAFA"/>
<path d="M328.88 9.35356C330.864 8.71425 332.904 8.1879 335.001 7.80488C346.063 5.77406 356.831 8.50015 367.236 11.1315C373.783 12.7856 380.552 14.4997 387.263 14.9708C404.82 16.2157 425.84 5.56669 429.126 -12.2643L432.904 -11.5643C429.117 8.94077 406.123 20.1653 386.985 18.8044C379.931 18.3025 372.998 16.5504 366.287 14.8582C355.816 12.208 345.917 9.70623 335.686 11.5904C319.29 14.6037 306.455 26.8533 294.038 38.7061C284.917 47.4177 275.477 56.4238 264.656 61.7376C252.928 67.4949 242.666 70.6302 231.816 73.945C229.05 74.7861 226.268 75.6422 223.44 76.5434C213.649 79.6379 195.371 87.0216 182.701 101.348C178.634 105.948 175.323 110.204 172.403 113.951C165.531 122.785 160.109 129.76 149.832 135.07C135.313 142.594 110.803 142.631 91.113 142.659L90.4781 142.662C80.4935 142.681 71.5957 141.249 62.9738 139.86C57.2814 138.949 51.3951 138 45.1432 137.452C28.682 136.005 7.99881 135.455 -5.89933 144.092C-18.5596 151.966 -22.4429 163.934 -26.9466 177.798C-28.2003 181.674 -29.504 185.676 -31.0418 189.704C-41.472 216.962 -70.8201 242.697 -92.6093 243.694L-92.7866 239.856C-72.6809 238.927 -44.4181 213.895 -34.6336 188.328C-33.1271 184.392 -31.8482 180.437 -30.6071 176.616C-26.0781 162.644 -21.7937 149.446 -7.93836 140.833C6.92569 131.593 28.411 132.127 45.464 133.625C51.8524 134.19 57.8116 135.145 63.5677 136.066C72.4231 137.491 80.7872 138.832 90.4498 138.816L91.0846 138.813C110.361 138.788 134.355 138.745 148.044 131.65C157.57 126.733 162.515 120.376 169.349 111.584C172.303 107.786 175.648 103.479 179.799 98.7912C193.083 83.7728 212.066 76.1015 222.247 72.8712C225.09 71.955 227.887 71.1142 230.659 70.261C241.363 66.9934 251.478 63.9052 262.938 58.2849C273.228 53.2331 282.033 44.8252 291.356 35.9273C302.639 25.1566 314.268 14.0523 328.841 9.35619L328.88 9.35356Z" fill="#9FD7FA"/>
<path d="M326.155 10.0401C328.184 9.38606 330.264 8.85708 332.422 8.47466C343.632 6.4666 354.489 9.4062 364.989 12.239C371.566 14.0149 378.376 15.8569 385.128 16.4257C402.895 17.9156 424.35 7.26798 427.977 -10.9453L431.742 -10.1908C427.706 10.0414 404.214 21.8807 384.799 20.2558C377.694 19.6592 370.72 17.7791 363.977 15.9559C353.419 13.1013 343.45 10.4106 333.088 12.2661C316.753 15.1889 303.959 27.4055 291.578 39.2161C282.902 47.4917 273.934 56.053 263.806 61.3251C251.889 67.527 241.651 71.2397 230.81 75.1773C228.524 76.005 226.21 76.8414 223.869 77.7171C214.396 81.234 196.564 89.2206 183.669 103.256C180.546 106.654 177.78 109.846 175.334 112.652C166.718 122.584 160.483 129.76 148.733 134.98C135.583 140.832 114.941 141.288 96.7208 141.68C94.0351 141.738 91.4009 141.8 88.8608 141.871C78.8826 142.16 70.3906 141.143 61.4042 140.063C55.9037 139.403 50.2151 138.724 44.1587 138.374C25.4947 137.295 6.39387 137.365 -6.84849 145.124C-19.8525 152.746 -24.1653 164.54 -29.1681 178.201C-30.4203 181.612 -31.7132 185.147 -33.1795 188.708C-43.9972 214.92 -72.3188 240.364 -92.6178 242.102L-92.944 238.272C-74.2166 236.667 -46.8979 211.868 -36.7309 187.238C-35.2926 183.747 -34.0063 180.255 -32.7756 176.871C-27.7415 163.119 -22.9884 150.123 -8.78662 141.803C5.32961 133.53 25.1113 133.412 44.3825 134.528C50.5513 134.881 56.3036 135.571 61.8677 136.24C70.7147 137.294 79.0609 138.298 88.7596 138.019C91.3088 137.944 93.9551 137.888 96.65 137.827C114.509 137.441 134.749 136.993 147.186 131.462C158.16 126.593 163.842 120.049 172.453 110.13C174.911 107.299 177.701 104.089 180.852 100.652C194.294 86.0266 212.745 77.7395 222.544 74.1074C224.897 73.2379 227.208 72.3923 229.513 71.5588C240.229 67.6716 250.357 63.9942 262.048 57.9054C271.685 52.8927 280.067 44.8936 288.933 36.4255C300.148 25.7271 311.692 14.7008 326.155 10.0401Z" fill="#97D4FA"/>
<path d="M323.438 10.7237C325.514 10.055 327.642 9.52039 329.839 9.13534C341.198 7.15002 352.144 10.3031 362.73 13.3403C369.348 15.2442 376.187 17.208 382.988 17.8623C400.944 19.5941 422.845 8.95396 426.822 -9.64465L430.583 -8.83852C426.182 11.7637 402.228 23.5801 382.625 21.6829C375.469 20.9917 368.451 18.9744 361.67 17.0324C351.035 13.9705 340.986 11.0937 330.494 12.9206C314.205 15.7679 301.441 27.9544 289.103 39.7412C280.893 47.584 272.395 55.6913 262.972 60.8976C250.489 67.7864 239.977 72.2436 228.849 76.9499C227.348 77.5849 225.847 78.2199 224.313 78.8758C215.128 82.7844 197.773 91.4045 184.647 105.161C183.047 106.837 181.534 108.435 180.1 109.966C168.492 122.265 161.489 129.688 147.644 134.887C135.682 139.387 118.308 139.961 101.49 140.506C96.4972 140.672 91.7723 140.822 87.2438 141.081C77.2233 141.646 68.7066 140.989 59.7012 140.289C54.4321 139.878 48.9778 139.455 43.1655 139.3C27.6721 138.884 6.46372 138.301 -7.81548 146.162C-21.2273 153.552 -26.0128 165.226 -31.5487 178.736C-32.7382 181.653 -33.9773 184.666 -35.3352 187.717C-46.5221 212.877 -73.8171 238.032 -92.629 240.501L-93.1286 236.696C-75.7766 234.425 -49.3928 209.857 -38.8553 186.157C-37.5222 183.154 -36.2955 180.165 -35.1063 177.279C-29.53 163.675 -24.274 150.83 -9.66809 142.793C5.51829 134.428 27.3371 135.026 43.2678 135.453C49.1712 135.609 54.6771 136.034 59.9978 136.449C68.8787 137.139 77.2619 137.788 87.0332 137.233C91.6134 136.978 96.3474 136.825 101.37 136.659C117.869 136.126 134.925 135.564 146.291 131.286C159.311 126.404 166.089 119.224 177.311 107.323C178.757 105.798 180.267 104.191 181.873 102.503C195.475 88.2498 213.361 79.3677 222.808 75.3342C224.333 74.6812 225.853 74.0403 227.344 73.4082C238.381 68.7314 248.807 64.3219 261.111 57.5315C270.097 52.567 278.04 44.9918 286.443 36.9656C297.594 26.3182 309.067 15.355 323.429 10.7267L323.438 10.7237Z" fill="#8FD1FA"/>
<path d="M320.713 11.4103C322.825 10.7297 325.002 10.1896 327.26 9.80514C338.771 7.85171 349.803 11.2092 360.466 14.4537C367.113 16.4794 373.993 18.5712 380.853 19.3172C399.007 21.2879 421.355 10.6553 425.676 -8.31655L429.421 -7.46501C424.646 13.5101 400.237 25.2916 380.439 23.1343C373.223 22.3513 366.173 20.2031 359.35 18.1331C348.633 14.876 338.516 11.7889 327.906 13.5933C311.651 16.3589 298.915 28.5366 286.595 40.3176C278.857 47.7155 270.868 55.3662 262.138 60.47C247.815 68.8501 236.093 74.5346 224.757 80.0346C215.872 84.341 198.969 93.5823 185.633 107.063C170.999 121.84 162.606 129.803 146.558 134.773C135.701 138.16 120.45 138.715 105.706 139.248C98.9423 139.49 91.9504 139.746 85.633 140.278C75.473 141.13 66.8797 140.831 57.7701 140.528C52.8023 140.362 47.6585 140.183 42.1755 140.204L38.9284 140.211C23.64 140.244 4.61857 140.278 -8.77922 147.179C-22.6869 154.345 -27.9914 165.975 -34.1192 179.434C-35.1938 181.798 -36.3118 184.247 -37.4938 186.717C-49.0407 210.823 -75.3182 235.69 -92.6218 238.895L-93.3251 235.115C-77.312 232.165 -51.8721 207.83 -40.9643 185.061C-39.7947 182.615 -38.6891 180.19 -37.6206 177.837C-31.1887 163.725 -25.6387 151.543 -10.5463 143.763C3.67287 136.435 23.2077 136.397 38.9121 136.372L42.1501 136.368C47.703 136.344 52.8772 136.524 57.8845 136.686C66.8726 136.989 75.3627 137.28 85.2948 136.441C91.7003 135.901 98.7347 135.652 105.547 135.404C120.042 134.881 135.025 134.341 145.394 131.101C160.633 126.372 168.305 119.086 182.884 104.357C196.625 90.4727 213.955 80.9927 223.066 76.5731C234.333 71.1058 245.993 65.4511 260.179 57.1456C268.517 52.2687 275.998 45.105 283.919 37.5266C295.012 26.9181 306.436 15.9909 320.698 11.395L320.713 11.4103Z" fill="#87CEFB"/>
<path d="M317.994 12.0848C320.152 11.3895 322.378 10.8437 324.675 10.4566C336.325 8.5289 347.446 12.0999 358.195 15.5487C364.881 17.6933 371.802 19.9131 378.71 20.7447C397.056 22.9664 419.847 12.3321 424.518 -7.02504L428.251 -6.11895C423.099 15.2199 398.237 26.9756 378.247 24.5673C370.969 23.6835 363.881 21.4164 357.013 19.2093C346.219 15.7448 336.024 12.4808 325.293 14.2537C309.055 16.9435 296.333 29.1365 284.032 40.9419C276.793 47.8863 269.307 55.062 261.277 60.0513C247.939 68.3258 237.48 74.4512 225.174 81.2021C216.589 85.9064 200.151 95.775 186.584 108.977C171.851 123.322 162.415 130.43 145.435 134.67C135.633 137.133 122.932 137.553 109.495 138.007C100.878 138.292 91.9625 138.591 83.9952 139.484C73.5434 140.652 64.7124 140.743 55.3709 140.847C50.8445 140.893 46.16 140.949 41.1706 141.124C39.0649 141.197 36.8742 141.257 34.6349 141.323C19.7257 141.717 2.83544 142.165 -9.75503 148.22C-24.2775 155.201 -29.8684 166.317 -36.95 180.386C-37.8272 182.142 -38.7259 183.926 -39.6644 185.742C-51.541 208.793 -76.7737 233.364 -92.6142 237.288L-93.5429 233.561C-78.8716 229.923 -54.3453 205.822 -43.0883 183.979C-42.156 182.175 -41.2634 180.404 -40.3924 178.66C-33.2737 164.519 -27.1281 152.305 -11.4274 144.753C1.89857 138.35 19.2293 137.891 34.5275 137.482C36.7576 137.42 38.93 137.365 41.0237 137.286C46.0526 137.108 50.7675 137.052 55.3121 137.001C64.5534 136.899 73.2933 136.807 83.5596 135.658C91.6729 134.749 100.661 134.456 109.354 134.157C122.584 133.719 135.082 133.294 144.494 130.937C160.609 126.924 169.672 120.068 183.899 106.22C197.788 92.7017 214.562 82.6238 223.319 77.824C235.557 71.115 245.973 65.0135 259.245 56.7808C266.932 52.0128 273.937 45.2849 281.362 38.1693C292.409 27.5755 303.778 16.6659 317.976 12.0906L317.994 12.0848Z" fill="#7FCBFB"/>
<path d="M315.276 12.7684C317.48 12.0584 319.742 11.5008 322.085 11.1294C333.877 9.23649 345.075 13.0148 355.907 16.6589C362.634 18.9314 369.594 21.2701 376.562 22.1934C395.106 24.654 418.331 14.021 423.358 -5.70314L427.085 -4.7546C421.549 16.9601 396.232 28.6809 376.056 26.0095C368.718 25.034 361.585 22.6298 354.68 20.3038C343.812 16.6412 333.543 13.1789 322.691 14.9202C306.447 17.531 293.731 29.7727 281.441 41.6147C274.718 48.0903 267.765 54.7914 260.439 59.6147C256.675 62.0891 253.176 64.4173 249.837 66.6438C241.318 72.3056 233.973 77.1955 225.611 82.3425C217.316 87.4477 201.349 97.9315 187.556 110.873C171.949 125.51 161.451 131.264 144.332 134.541C135.555 136.239 124.583 136.515 112.971 136.806C102.61 137.067 91.8912 137.342 82.3674 138.666C71.1919 140.218 61.8066 140.75 51.8561 141.313C48.1178 141.518 44.2548 141.744 40.1666 142.022C37.0845 142.228 33.8965 142.388 30.5171 142.548C16.7231 143.209 1.08745 143.949 -10.7358 149.222C-26.0344 156.049 -32.2649 167.341 -40.1386 181.645C-40.6986 182.664 -41.2647 183.694 -41.8401 184.727C-54.0401 206.712 -78.2308 230.977 -92.5934 235.636L-93.7719 231.979C-80.4149 227.644 -56.8052 203.768 -45.1962 182.862C-44.6208 181.828 -44.0546 180.798 -43.5008 179.792C-35.5995 165.449 -28.7717 153.067 -12.2894 145.717C0.195989 140.149 16.2176 139.386 30.349 138.707C33.7071 138.543 36.8676 138.393 39.9194 138.186C44.026 137.902 47.901 137.683 51.6484 137.474C61.5108 136.92 70.8262 136.39 81.8374 134.86C91.5742 133.509 102.403 133.228 112.873 132.962C124.324 132.673 135.144 132.395 143.61 130.767C159.905 127.655 169.941 122.13 184.929 108.077C198.961 94.9065 215.176 84.252 223.599 79.0753C231.903 73.9672 239.233 69.0923 247.706 63.4452C251.055 61.2157 254.553 58.8875 258.326 56.4102C265.362 51.7815 271.876 45.5043 278.784 38.8482C289.797 28.245 301.124 17.3289 315.285 12.7654L315.276 12.7684Z" fill="#78C9FB"/>
<path d="M312.57 13.449C314.81 12.7272 317.121 12.1641 319.515 11.7962C331.45 9.93817 342.734 13.9209 353.643 17.7723C360.408 20.1637 367.409 22.6303 374.437 23.6453C393.17 26.3478 416.841 15.7223 422.219 -4.38713L425.93 -3.39319C420.016 18.6853 394.247 30.3803 373.886 27.4458C366.479 26.3815 359.302 23.8402 352.358 21.3954C341.416 17.5345 331.086 13.8803 320.103 15.593C303.827 18.1336 291.116 30.4543 278.819 42.3691C272.344 48.6437 266.231 54.5695 259.599 59.1992C253.289 63.6043 247.841 67.6505 242.581 71.5558C237.042 75.6619 231.815 79.5462 226.046 83.5042C218.057 88.9951 202.558 100.115 188.54 112.797C171.632 128.095 159.574 132.202 143.25 134.436C135.49 135.503 126.124 135.625 116.202 135.745C104.19 135.892 91.7561 136.044 80.7539 137.884C67.3876 140.123 56.6542 141.2 44.2303 142.449L39.186 142.954C35.1876 143.354 30.9991 143.634 26.5614 143.924C13.2087 144.796 -0.587814 145.7 -11.6902 150.267C-27.9869 156.972 -34.9716 168.648 -43.8008 183.431L-43.9984 183.757C-56.4883 204.655 -79.6218 228.6 -92.5309 234.011L-94.0172 230.464C-81.9318 225.409 -59.2325 201.745 -47.2987 181.783L-47.1011 181.457C-37.9013 166.07 -30.6384 153.911 -13.1582 146.713C-1.47927 141.9 13.2868 140.936 26.3021 140.082C30.7003 139.795 34.8614 139.524 38.7899 139.126L43.8343 138.62C56.1913 137.383 66.8547 136.308 80.1084 134.096C91.3966 132.204 103.983 132.053 116.144 131.899C125.944 131.778 135.191 131.664 142.717 130.621C158.637 128.448 169.686 124.655 185.944 109.94C200.134 97.1023 215.783 85.8832 223.854 80.3354C229.562 76.4072 234.767 72.5499 240.282 68.4619C245.567 64.5386 251.042 60.4836 257.392 56.0454C263.767 51.5893 269.773 45.7687 276.134 39.6115C287.115 28.9684 298.427 18.0066 312.552 13.4549L312.57 13.449Z" fill="#70C6FB"/>
<path d="M309.853 14.1327C312.139 13.3961 314.489 12.8304 316.932 12.4569C329.009 10.6337 340.371 14.8237 351.353 18.8733C358.166 21.3806 365.202 23.9873 372.296 25.0819C393.532 28.3805 415.865 15.4817 421.075 -3.08027L424.78 -2.04385C419.075 18.3023 394.776 32.4602 371.714 28.8822C364.247 27.7261 357.02 25.0597 350.032 22.4778C339.016 18.4188 328.615 14.5755 317.52 16.2536C301.19 18.7208 288.466 31.1568 276.153 43.1777C270.266 48.9297 264.701 54.3659 258.771 58.7596C251.757 63.9566 245.9 68.831 240.24 73.5311C235.645 77.3429 231.299 80.9536 226.484 84.6446C218.819 90.5155 203.821 102.221 189.514 114.693C172.869 129.21 160.033 132.781 142.163 134.291C135.408 134.874 127.532 134.828 119.182 134.784C106.231 134.709 91.554 134.635 79.1365 137.063C64.3177 139.961 52.8411 141.863 38.2015 143.846C33.3288 144.508 28.1547 144.924 22.6828 145.356C10.4073 146.345 -2.28463 147.357 -12.6667 151.278C-28.9335 157.418 -36.4969 167.737 -46.1698 182.752C-58.9035 202.517 -80.9677 226.147 -92.4597 232.323L-94.2758 228.942C-83.4373 223.118 -61.6179 199.668 -49.3901 180.681C-39.6122 165.491 -31.3408 154.238 -14.0159 147.686C-3.11861 143.579 9.84399 142.53 22.3778 141.528C27.7981 141.093 32.9144 140.686 37.6899 140.035C52.2442 138.07 63.663 136.176 78.3966 133.295C91.1916 130.786 106.075 130.874 119.196 130.945C127.446 130.991 135.249 131.03 141.828 130.464C158.88 129.015 171.134 125.611 186.976 111.797C201.369 99.247 216.429 87.4813 224.136 81.5866C228.896 77.9436 233.203 74.3659 237.772 70.5722C243.482 65.836 249.381 60.9378 256.475 55.6748C262.191 51.4308 267.664 46.0848 273.461 40.4322C284.437 29.7101 295.729 18.6844 309.862 14.1297L309.853 14.1327Z" fill="#68C3FC"/>
<path d="M307.134 14.8071C309.456 14.0588 311.855 13.4875 314.341 13.1205C326.551 11.335 337.989 15.7324 349.046 19.9802C355.9 22.6154 362.983 25.3381 370.137 26.5244C391.58 30.0893 414.369 17.1344 419.902 -1.77371L423.591 -0.691894C417.537 19.9788 392.775 34.1746 369.51 30.309C361.971 29.055 354.703 26.2607 347.674 23.5507C336.593 19.2906 326.12 15.2583 314.904 16.9048C298.474 19.3133 285.727 31.8979 273.395 44.0766C268.118 49.2788 263.142 54.1923 257.919 58.3076C250.678 64.0217 244.782 69.4941 239.079 74.7831C235.017 78.5546 231.181 82.1218 226.895 85.7635C216.611 94.4968 203.18 105.899 190.476 116.583C173.968 130.46 160.382 133.456 141.065 134.141C135.31 134.35 128.805 134.176 121.924 133.992C107.56 133.605 91.2803 133.16 77.5106 136.245C74.6306 136.89 71.8845 137.513 69.2236 138.118C58.2788 140.606 48.8225 142.765 37.2055 144.732C31.5704 145.691 25.5149 146.158 19.113 146.647C7.74068 147.527 -4.01762 148.43 -13.5542 152.25C-30.142 158.897 -38.8728 168.099 -48.3498 181.749C-61.0043 199.975 -82.4074 223.715 -92.3878 230.604L-94.5675 227.442C-84.8838 220.759 -63.9562 197.485 -51.5082 179.557C-41.609 165.307 -32.467 155.69 -14.9857 148.685C-4.90613 144.639 7.14999 143.721 18.8171 142.817C25.128 142.327 31.0953 141.868 36.56 140.944C48.0705 138.991 57.4811 136.846 68.3711 134.376C71.0319 133.771 73.7872 133.146 76.6672 132.5C90.9058 129.304 107.441 129.758 122.029 130.153C128.85 130.337 135.294 130.511 140.93 130.309C159.806 129.635 172.269 126.88 188.006 113.645C200.709 102.961 214.134 91.5712 224.418 82.8379C228.643 79.2563 232.448 75.7192 236.477 71.9686C242.232 66.6224 248.183 61.102 255.546 55.298C260.601 51.3177 265.506 46.4672 270.697 41.3432C281.677 30.5087 292.979 19.3585 307.149 14.7921L307.134 14.8071Z" fill="#60C0FC"/>
<path d="M304.607 15.4501C306.92 14.7047 309.31 14.1363 311.771 13.7873C324.114 12.0397 335.629 16.6444 346.763 21.0994C353.658 23.8627 360.792 26.7104 368.005 27.9885C389.655 31.8197 412.898 18.7994 418.759 -0.436484L422.429 0.681598C416.028 21.686 390.796 35.9227 367.327 31.7695C359.728 30.4238 352.406 27.4952 345.33 24.6694C334.175 20.2111 323.634 15.9989 312.303 17.6017C295.741 19.942 282.946 32.754 270.575 45.1267C265.951 49.7552 261.585 54.1191 257.073 57.9043C249.788 64.0158 244.008 70.0058 238.416 75.7941C234.883 79.4554 231.228 83.2371 227.312 86.931C218.514 95.2054 205.149 107.404 191.432 118.515C173.309 133.206 157.403 134.234 139.961 134.032C135.192 133.985 129.958 133.713 124.424 133.418C108.728 132.593 90.9281 131.658 75.8693 135.472C70.5979 136.807 65.7792 138.138 61.1188 139.428C52.9739 141.679 45.2766 143.817 36.2062 145.67C29.8904 146.959 23.0682 147.553 15.8509 148.173C5.33492 149.079 -5.53374 150.018 -14.5365 153.303C-29.9871 158.938 -39.7362 166.389 -50.533 180.797C-62.8137 197.177 -83.5038 221.001 -92.2944 228.889L-94.8599 226.033C-87.0931 219.069 -66.9574 196.313 -53.6053 178.498C-42.3159 163.426 -32.0742 155.624 -15.8491 149.7C-6.37685 146.243 4.7563 145.279 15.5276 144.351C22.6356 143.736 29.3513 143.156 35.448 141.908C44.3845 140.078 52.0208 137.97 60.1079 135.727C64.7865 134.431 69.6327 133.092 74.9406 131.745C90.5597 127.791 108.669 128.747 124.641 129.584C130.133 129.873 135.328 130.146 140.026 130.196C157.305 130.391 171.874 129.44 189.029 115.535C202.647 104.496 215.934 92.3638 224.694 84.1316C228.543 80.5098 232.008 76.9207 235.66 73.1299C241.317 67.2603 247.174 61.1951 254.611 54.9636C258.989 51.2925 263.299 46.9767 267.865 42.4174C278.404 31.8763 290.147 20.12 304.61 15.4592L304.607 15.4501Z" fill="#58BDFC"/>
<path d="M301.888 16.1246C304.247 15.3645 306.676 14.7934 309.189 14.448C321.678 12.7443 333.258 17.5501 344.465 22.2034C351.408 25.0825 358.586 28.0674 365.865 29.4251C387.722 33.5227 411.421 20.4462 417.616 0.870377L421.28 2.03092C414.53 23.3599 388.835 37.6345 365.165 33.2028C357.498 31.7684 350.123 28.7056 343.005 25.7518C331.776 21.0953 321.174 16.6911 309.722 18.2624C292.971 20.5522 280.113 33.6369 267.681 46.2915C263.744 50.2951 260.03 54.0853 256.245 57.4646C249.021 63.9201 243.416 70.3887 238.001 76.6344C234.741 80.3896 231.382 84.2774 227.739 88.0653C219.331 96.7992 206.374 109.512 192.419 120.417C174.234 134.633 157.427 134.933 138.906 133.888C137.312 133.796 135.67 133.71 133.982 133.608C115.876 132.57 93.3503 131.282 74.0855 134.695C66.1342 136.107 59.5858 138.489 52.638 141.011C47.1901 142.988 41.5623 145.034 35.232 146.559C27.8421 148.335 19.4313 149.229 11.3033 150.093C2.12016 151.064 -7.38234 152.078 -15.5821 154.347C-30.8944 158.595 -41.2995 165.732 -52.7004 179.801C-63.2527 192.838 -77.9738 210.257 -86.7683 220.67C-88.9754 223.279 -90.8291 225.481 -92.194 227.101L-95.1308 224.626C-93.775 223.009 -91.9122 220.804 -89.7052 218.196C-80.9168 207.795 -66.2202 190.394 -55.6865 177.392C-45.7157 165.087 -35.2651 155.836 -16.6113 150.652C-8.09775 148.292 1.55363 147.27 10.901 146.277C19.2814 145.382 27.1965 144.547 34.3429 142.83C40.4691 141.36 45.9872 139.35 51.3345 137.404C58.1269 134.933 65.1478 132.388 73.4217 130.912C93.1247 127.419 115.906 128.716 134.208 129.771C135.893 129.864 137.53 129.962 139.123 130.054C157.49 131.088 172.899 130.805 190.062 117.393C203.845 106.613 216.658 94.0478 224.983 85.4011C228.553 81.6976 231.736 78.0176 235.104 74.1267C240.599 67.7846 246.284 61.2197 253.689 54.605C257.379 51.3067 261.059 47.5679 264.95 43.6094C275.528 32.8438 287.312 20.8419 301.912 16.137L301.888 16.1246Z" fill="#50BAFC"/>
<path d="M299.159 16.802C301.564 16.0272 304.033 15.4535 306.6 15.1207C319.216 13.4669 330.87 18.4709 342.148 23.3132C349.141 26.3174 356.37 29.4273 363.709 30.8767C385.773 35.2406 409.925 22.0988 416.449 2.19522L420.103 3.38908C413.006 25.0517 386.837 39.3581 362.964 34.6389C355.224 33.1064 347.799 29.9187 340.631 26.8398C329.337 21.9822 318.67 17.4072 307.1 18.9257C290.088 21.1582 276.57 35.2326 264.645 47.6432C261.45 50.9738 258.426 54.1178 255.384 57.0156C248.272 63.788 242.89 70.6993 237.681 77.3936C234.662 81.2727 231.536 85.2875 228.131 89.1901C220.093 98.4106 207.534 111.641 193.363 122.313C174.987 136.157 158.039 135.735 137.798 133.74L137.641 133.72C119.03 131.897 93.536 129.416 72.444 133.891C64.6788 135.536 58.3095 138.224 51.556 141.067C46.1446 143.345 40.5471 145.704 34.2084 147.454C25.9904 149.729 16.5699 150.747 7.47459 151.74C-0.705305 152.63 -9.15886 153.548 -16.5977 155.36C-32.8733 159.344 -43.6221 165.916 -54.9262 178.812C-69.1156 195 -86.9846 216.774 -92.1604 225.264L-95.4392 223.263C-90.1492 214.595 -72.1046 192.583 -57.8109 176.281C-46.0858 162.905 -34.4109 155.762 -17.5081 151.627C-9.82861 149.748 -1.23821 148.816 7.06023 147.918C16.0125 146.95 25.2658 145.946 33.1854 143.747C39.2804 142.056 44.765 139.753 50.0605 137.522C56.6799 134.733 63.5219 131.852 71.6434 130.123C93.3198 125.519 119.15 128.044 138.01 129.888L138.168 129.908C157.565 131.821 173.778 132.247 191.04 119.237C204.95 108.76 217.304 95.737 225.225 86.655C228.556 82.8367 231.646 78.8641 234.637 75.0242C239.923 68.2244 245.4 61.2017 252.721 54.2308C255.701 51.3932 258.694 48.2793 261.859 44.9788C272.489 33.9039 284.355 21.5626 299.147 16.7958L299.159 16.802Z" fill="#48B7FD"/>
<path d="M296.43 17.4794C298.88 16.6898 301.407 16.1076 304.026 15.7784C316.778 14.1715 328.509 19.3829 339.849 24.4171C346.893 27.5464 354.169 30.7722 361.577 32.3104C383.845 36.9315 408.447 23.7456 415.305 3.50208L418.941 4.7322C411.494 26.7194 384.863 41.0636 360.789 36.066C352.981 34.4448 345.514 31.1291 338.283 27.9189C326.919 22.8723 316.189 18.1053 304.504 19.5801C287.117 21.7724 273.505 36.3714 261.487 49.2458C259.086 51.8159 256.814 54.2536 254.549 56.5577C247.586 63.6354 242.446 70.9834 237.47 78.0871C234.65 82.114 231.741 86.2706 228.551 90.306C220.869 100.007 208.712 113.764 194.346 124.206C175.736 137.731 157.994 136.536 136.745 133.575C115.642 130.657 91.4113 127.961 70.8538 133.061C62.7995 135.062 56.2254 138.179 49.2639 141.472C44.2647 143.84 39.0915 146.294 33.303 148.311C24.1219 151.512 13.4222 152.568 3.066 153.595C-3.90602 154.287 -11.1151 154.996 -17.5471 156.362C-34.5783 159.974 -46.0282 166.186 -57.0858 177.813C-70.6055 192.039 -88.3118 214.255 -92.097 223.396L-95.6484 221.927C-91.6422 212.25 -73.9167 189.937 -59.8752 175.169C-48.2375 162.932 -36.2071 156.391 -18.354 152.606C-11.715 151.193 -4.39938 150.47 2.68204 149.773C12.8132 148.768 23.2817 147.746 32.0361 144.693C37.6326 142.738 42.7111 140.334 47.6127 138.008C54.4401 134.768 61.4963 131.425 69.9252 129.334C91.1465 124.07 115.821 126.795 137.272 129.762C157.653 132.599 174.64 133.766 192.09 121.088C206.097 110.913 218.009 97.4269 225.54 87.9157C228.666 83.9617 231.541 79.8564 234.327 75.8807C239.393 68.6474 244.631 61.1667 251.815 53.8664C254.049 51.5924 256.3 49.1818 258.686 46.6268C269.405 35.1397 281.361 22.3254 296.436 17.4673L296.43 17.4794Z" fill="#40B4FD"/>
<path d="M293.674 18.1657C296.17 17.3614 298.758 16.7798 301.437 16.4512C314.317 14.8942 326.112 20.3066 337.527 25.5391C344.617 28.7842 351.937 32.1471 359.415 33.7741C381.88 38.6645 406.945 25.4103 414.14 4.83607L417.766 6.09952C409.959 28.4051 382.869 42.7964 358.603 37.5174C350.722 35.7983 343.196 32.3604 335.924 29.0223C324.498 23.7836 313.7 18.8368 301.897 20.2588C283.997 22.4247 270.25 37.7331 258.123 51.2383C256.615 52.9151 255.137 54.5618 253.697 56.1361C246.922 63.5164 242.027 71.28 237.292 78.79C234.66 82.9585 231.943 87.2751 228.943 91.4612C221.63 101.649 209.856 115.938 195.308 126.126C176.388 139.378 157.891 137.407 135.665 133.449L132.099 132.812C112.797 129.344 88.7706 125.027 69.3675 132.239C62.8154 134.673 57.0325 137.647 51.4328 140.531C45.4606 143.606 39.2899 146.785 32.2272 149.263C22.3477 152.74 10.8538 153.931 -0.241613 155.074C-6.67874 155.736 -12.7631 156.364 -18.551 157.412C-36.5597 160.652 -48.3683 166.284 -59.2999 176.861C-72.8541 189.978 -89.6762 211.556 -92.1243 221.558L-95.8604 220.643C-93.213 209.85 -76.1985 187.867 -61.9757 174.1C-50.4429 162.947 -38.0663 157.01 -19.2361 153.627C-13.3023 152.562 -6.8681 151.891 -0.646849 151.249C10.2327 150.125 21.4712 148.955 30.9452 145.63C37.752 143.234 43.5349 140.261 49.6628 137.105C55.3572 134.17 61.253 131.14 68.0216 128.626C88.4094 121.057 113.003 125.473 132.766 129.024L136.323 129.664C157.651 133.468 175.374 135.386 193.082 122.978C207.193 113.093 218.66 99.1648 225.806 89.2124C228.745 85.1168 231.43 80.8607 234.035 76.7314C238.857 69.0825 243.844 61.1679 250.859 53.5288C252.293 51.9666 253.764 50.332 255.254 48.661C266.088 36.5919 278.163 23.144 293.659 18.1503L293.674 18.1657Z" fill="#38B1FD"/>
<path d="M291.086 18.808C293.591 18.0008 296.179 17.4192 298.855 17.1118C311.864 15.6138 323.731 21.2153 335.207 26.6398C342.348 30.01 349.719 33.4979 357.265 35.2137C379.934 40.3613 405.446 27.0538 412.979 6.14883L416.599 7.45473C408.441 30.0849 380.88 44.517 356.413 38.9596C348.455 37.1546 340.885 33.5796 333.562 30.1165C322.074 24.6858 311.217 19.5562 299.287 20.9283C280.655 23.0778 266.153 40.0827 254.492 53.7504L252.845 55.6841C246.277 63.3611 241.636 71.5373 237.149 79.4417C234.688 83.7668 232.155 88.2462 229.326 92.5889C219.214 108.119 208.09 120.039 196.254 128.031C175.434 142.087 152.783 137.216 134.585 133.292L133.403 133.037C113.171 128.689 87.9769 123.285 67.7202 131.417C61.1631 134.055 55.3978 137.396 49.831 140.633C44.0503 143.99 38.0771 147.469 31.2189 150.143C20.4697 154.334 7.91869 155.532 -4.22184 156.69C-9.58819 157.198 -14.6505 157.679 -19.5422 158.408C-35.6011 160.777 -48.8928 164.657 -61.5104 175.858C-75.1394 187.96 -91.1599 209.269 -92.1936 219.683L-96.0173 219.311C-94.8715 207.71 -78.2565 185.584 -64.0668 172.998C-49.9413 160.464 -34.595 156.76 -20.1087 154.614C-15.1106 153.871 -9.7625 153.369 -4.58459 152.871C7.29143 151.738 19.5717 150.576 29.8241 146.566C36.4109 143.989 41.996 140.746 47.902 137.309C53.5879 134.004 59.4694 130.584 66.2887 127.852C87.6464 119.284 113.459 124.822 134.2 129.279L135.382 129.533C157.624 134.324 176.068 137.009 194.096 124.842C205.491 117.143 216.26 105.59 226.097 90.4911C228.858 86.2509 231.369 81.8291 233.802 77.5431C238.379 69.4787 243.11 61.1424 249.92 53.1853L251.571 51.2608C262.052 38.9724 274.758 24.0698 291.077 18.811L291.086 18.808Z" fill="#30AEFD"/>
<path d="M288.27 19.4937C290.848 18.6629 293.505 18.0789 296.272 17.7725C309.412 16.3335 321.343 22.1361 332.878 27.7434C340.07 31.2386 347.5 34.8487 355.115 36.6532C377.989 42.058 403.957 28.6944 411.83 7.46778L415.428 8.80081C406.921 31.7555 378.895 46.2164 354.23 40.3897C346.2 38.4868 338.567 34.7806 331.198 31.2015C319.638 25.5819 308.726 20.2785 296.687 21.5948C278.545 23.5761 264.67 39.2994 252.002 55.2291C245.662 63.2061 241.281 71.7828 237.04 80.0724C234.744 84.5662 232.374 89.2052 229.717 93.7045C220.126 109.945 209.196 122.125 197.226 129.918C175.943 143.76 152.419 137.869 133.524 133.13C113.941 128.228 87.114 121.514 66.0945 130.599C59.5568 133.422 53.8515 137.138 48.3359 140.722C42.7286 144.365 36.9317 148.141 30.2232 151.029C18.6032 156.025 4.9349 157.17 -8.29545 158.265C-12.5516 158.617 -16.5797 158.957 -20.53 159.412C-37.4383 161.37 -51.2536 164.752 -63.7267 174.867C-77.4861 186.032 -92.6292 206.776 -92.2934 217.839L-96.131 217.955C-96.51 205.443 -80.6303 183.634 -66.1421 171.881C-52.9492 161.181 -38.5431 157.628 -20.9718 155.599C-16.9545 155.132 -12.7076 154.782 -8.60955 154.441C4.3047 153.367 17.6598 152.252 28.7032 147.503C35.1097 144.742 40.5182 141.233 46.2388 137.502C51.8859 133.826 57.7348 130.023 64.5654 127.075C66.1243 126.401 67.7006 125.813 69.3096 125.294C90.6016 118.433 115.738 124.723 134.454 129.409C156.773 135.002 176.745 138.668 195.12 126.702C206.591 119.241 217.113 107.484 226.395 91.7576C228.993 87.3579 231.339 82.7674 233.601 78.3248C237.919 69.8689 242.393 61.1109 248.97 52.8356C260.279 38.6054 272.567 24.5338 288.236 19.4842L288.27 19.4937Z" fill="#28ACFE"/>
<path d="M285.721 20.1334C288.29 19.3055 290.947 18.7216 293.702 18.4393C306.966 17.0714 318.968 23.0631 330.565 28.8624C337.807 32.4827 345.287 36.2177 352.981 38.1081C376.049 43.773 402.473 30.3532 410.684 8.79586L414.272 10.1622C405.404 33.4353 376.918 47.9432 352.062 41.8351C343.954 39.8464 336.277 36.0031 328.845 32.2928C317.223 26.4811 306.243 20.9978 294.095 22.2584C275.882 24.1417 261.586 40.6263 251.168 54.7712C245.077 63.0514 240.954 72.0195 236.961 80.7034C234.818 85.3598 232.607 90.1795 230.115 94.8476C221.055 111.795 210.32 124.235 198.206 131.833C178.05 144.474 156.512 139.829 132.48 132.992C109.003 126.308 84.4171 120.567 64.4744 129.799C57.9773 132.811 52.3474 136.886 46.8951 140.823C41.4458 144.769 35.8068 148.846 29.233 151.934C16.711 157.826 1.87481 158.822 -12.4781 159.785C-15.6089 159.996 -18.5634 160.191 -21.5002 160.442C-36.4727 161.704 -52.2311 163.785 -65.9253 173.9C-79.8154 184.159 -94.0842 204.358 -92.406 216.048L-96.2054 216.597C-98.1341 203.221 -82.9896 181.73 -68.2029 170.809C-53.7008 160.101 -37.3371 157.926 -21.8234 156.62C-18.8471 156.367 -15.7346 156.162 -12.7315 155.961C1.26579 155.022 15.7373 154.052 27.6001 148.464C33.8474 145.522 39.0947 141.732 44.642 137.714C50.232 133.672 56.0179 129.487 62.8568 126.314C64.7885 125.419 66.7524 124.655 68.7545 124.01C88.6111 117.611 111.566 123.05 133.529 129.293C156.664 135.885 177.335 140.375 196.158 128.577C207.703 121.345 217.978 109.385 226.725 93.0337C229.168 88.4623 231.357 83.7001 233.468 79.1041C237.539 70.2539 241.743 61.0983 248.066 52.5015C257.427 39.7767 269.868 25.2419 285.712 20.1363L285.721 20.1334Z" fill="#20A9FE"/>
<path d="M283.096 20.7876C285.756 19.9303 288.422 19.3737 291.113 19.1121C304.479 17.8121 316.519 23.9833 328.163 29.9592C335.477 33.7078 343.035 37.5894 350.821 39.5506C374.078 45.5182 400.958 32.0421 409.525 10.1178L413.104 11.5174C403.871 35.1605 374.914 49.7092 349.873 43.2773C341.668 41.2087 333.916 37.2279 326.41 33.3802C314.745 27.401 303.729 21.7473 291.488 22.9371C277.386 24.3026 263.536 34.8714 250.319 54.3284C244.486 62.9088 240.623 72.2774 236.881 81.3344C234.886 86.1654 232.828 91.1477 230.492 95.9874C221.96 113.632 211.42 126.333 199.162 133.734C176.792 147.24 150.567 138.919 131.422 132.838C108.906 125.693 83.191 118.924 62.839 128.984C56.3888 132.173 50.8434 136.604 45.4757 140.897C40.1722 145.139 34.6821 149.522 28.2277 152.823C14.7844 159.708 -1.28254 160.455 -16.8238 161.175C-18.7322 161.265 -20.6225 161.349 -22.4976 161.449C-39.4531 162.352 -54.5888 163.828 -68.1512 172.912C-82.1631 182.291 -95.5703 201.971 -92.5526 214.279L-96.2828 215.199C-99.7735 200.984 -85.3795 179.826 -70.2882 169.725C-55.9339 160.124 -39.5879 158.52 -22.7023 157.62C-20.8271 157.52 -18.9278 157.433 -17.0102 157.34C-1.8762 156.64 13.7623 155.91 26.4697 149.403C32.5761 146.275 37.6713 142.201 43.0665 137.899C48.5874 133.486 54.3011 128.92 61.1268 125.55C82.7549 114.846 109.352 121.816 132.573 129.177C156.494 136.767 177.864 142.112 197.166 130.452C208.773 123.442 218.812 111.286 227.019 94.3215C229.308 89.5876 231.35 84.6508 233.312 79.8711C237.125 70.6295 241.072 61.0825 247.121 52.1701C258.565 35.3229 270.626 24.806 283.077 20.7935L283.096 20.7876Z" fill="#18A6FE"/>
<path d="M280.393 21.447C282.998 20.6074 285.707 20.0269 288.541 19.7698C302.043 18.547 314.154 24.9073 325.857 31.0661C333.217 34.9306 340.826 38.9373 348.672 40.9902C372.13 47.2058 399.464 33.6644 408.364 11.4305L411.931 12.8544C402.342 36.8037 372.924 51.3903 347.691 44.7074C339.414 42.5409 331.612 38.435 324.055 34.4623C312.319 28.2941 301.238 22.4696 288.873 23.5882C269.941 25.3095 256.056 43.2865 249.459 53.8489C243.915 62.7299 240.309 72.4899 236.809 81.923C234.958 86.9194 233.044 92.0975 230.853 97.1028C222.85 115.455 212.506 128.416 200.113 135.618C178.891 147.957 155.007 141.263 130.355 132.657C107.731 124.77 81.8597 117.264 61.1867 128.144C54.7954 131.516 49.3346 136.303 44.0667 140.937C38.9 145.478 33.5586 150.166 27.2144 153.684C12.8126 161.666 -5.34061 162.046 -21.3579 162.384L-23.4938 162.426C-38.6666 162.754 -55.872 163.132 -70.3788 171.884C-84.5066 180.403 -97.0552 199.584 -92.7102 212.504L-96.3523 213.728C-101.405 198.705 -87.771 177.882 -72.3659 168.599C-56.979 159.321 -39.2328 158.931 -23.5799 158.589L-21.4441 158.547C-5.11682 158.2 11.7633 157.846 25.3435 150.321C31.3211 147.012 36.5032 142.456 41.5198 138.044C46.9623 133.263 52.5856 128.322 59.3831 124.739C81.4181 113.138 108.217 120.86 131.604 129.016C155.377 137.309 178.358 143.799 198.169 132.279C209.837 125.491 219.642 113.138 227.314 95.5486C229.456 90.6401 231.348 85.5195 233.184 80.5684C236.746 70.9537 240.424 61.0091 246.172 51.79C252.179 42.1542 263.995 26.6807 280.35 21.4101L280.393 21.447Z" fill="#10A3FE"/>
<path d="M277.555 22.1294C280.215 21.2721 283.013 20.6834 285.962 20.4396C299.591 19.2971 311.772 25.8464 323.543 32.185C330.954 36.1746 338.61 40.2972 346.529 42.448C370.185 48.9025 397.975 35.305 407.219 12.7586L410.776 14.2158C405.922 26.0531 396.398 35.9241 383.962 41.9902C371.545 48.0504 357.901 49.5208 345.523 46.1529C337.174 43.8884 329.322 39.6575 321.726 35.5659C309.922 29.2178 298.774 23.2134 286.285 24.261C266.33 25.9386 253.3 45.1939 248.626 53.391C243.391 62.5758 240.021 72.724 236.776 82.5393C235.063 87.7133 233.287 93.069 231.252 98.2458C223.768 117.298 213.627 130.517 201.1 137.52C179.293 149.735 153.687 141.739 129.33 132.513C104.87 123.25 79.4922 116.211 59.5761 127.341C53.2407 130.887 48.1249 135.805 42.7085 141.012C37.6785 145.852 32.4706 150.86 26.2337 154.586C10.8661 163.766 -8.71533 163.598 -24.4453 163.45L-24.7399 163.444C-41.1867 163.294 -58.1802 163.139 -72.5709 170.905C-86.8087 178.582 -98.4958 197.273 -92.8355 210.798L-96.383 212.285C-103.002 196.475 -90.1121 176.003 -74.4052 167.53C-59.1443 159.303 -41.6465 159.456 -24.7137 159.611L-24.4191 159.616C-9.16595 159.757 9.808 159.919 24.2558 151.298C30.1107 147.796 35.159 142.95 40.0356 138.26C45.3907 133.114 50.9206 127.789 57.6866 124.015C78.9866 112.105 105.35 119.352 130.681 128.94C154.191 137.853 178.845 145.59 199.21 134.194C210.94 127.628 220.507 115.07 227.657 96.8612C229.652 91.7781 231.412 86.4678 233.113 81.3483C236.423 71.3606 239.847 61.0338 245.276 51.5137C249.576 43.972 260.575 27.6215 277.543 22.1536L277.555 22.1294Z" fill="#08A0FF"/>
<path d="M274.961 22.7838C277.722 21.8941 280.546 21.327 283.392 21.1064C297.147 20.0442 309.391 26.7855 321.23 33.304C328.688 37.4095 336.392 41.648 344.391 43.8938C368.245 50.5872 396.494 36.9426 406.072 14.0867L409.618 15.568C404.598 27.5495 394.888 37.5006 382.288 43.5894C369.688 49.6782 355.856 51.0981 343.352 47.5892C334.931 45.2268 327.029 40.8708 319.377 36.6663C307.501 30.1291 296.291 23.9632 283.675 24.9305C269.722 26.0059 256.292 36.4696 247.771 52.9299C242.855 62.4156 239.74 72.9459 236.725 83.1311C235.14 88.4856 233.505 94.028 231.611 99.3915C224.561 119.414 214.895 132.51 202.059 139.432C179.609 151.53 152.207 142.125 128.275 132.369C103.619 122.311 78.0379 114.641 57.9257 126.541C51.6464 130.26 46.6304 135.52 41.3289 141.083C36.4265 146.225 31.3583 151.542 25.2196 155.478C10.3251 165.031 -8.7395 165.119 -25.4395 164.466L-27.4314 164.392C-43.6696 163.731 -60.4665 163.059 -74.8026 169.929C-83.4067 174.044 -90.6341 182.055 -93.6651 190.812C-95.9173 197.32 -95.683 203.653 -92.9918 209.123L-96.4411 210.82C-99.5968 204.409 -99.8969 197.059 -97.2977 189.561C-93.9444 179.862 -85.9583 171.011 -76.463 166.468C-61.251 159.184 -43.9804 159.886 -27.2745 160.557L-25.2918 160.634C-8.43404 161.307 9.19387 161.207 23.1407 152.252C28.8943 148.562 33.7967 143.419 38.5487 138.437C43.8071 132.928 49.2376 127.232 55.9752 123.244C77.5296 110.495 104.163 118.392 129.735 128.821C153.903 138.682 179.268 147.371 200.246 136.06C212.196 129.615 221.278 117.213 227.994 98.1251C229.848 92.8553 231.479 87.3646 233.048 82.0554C236.11 71.7037 239.279 60.9947 244.359 51.1734C251.799 36.8074 262.847 26.6874 274.952 22.7868L274.961 22.7838Z" fill="#009DFF"/>
</g>
<defs>
<clipPath id="clip0_74_1866">
<rect width="599.953" height="122.244" fill="white" transform="translate(481.557 84.6416) rotate(162.138)"/>
</clipPath>
</defs>
</svg>
