<svg width="196" height="170" viewBox="0 0 196 170" fill="none" xmlns="http://www.w3.org/2000/svg">
<g clip-path="url(#clip0_74_1838)">
<g opacity="0.5">
<path d="M1.38933 55.9863C1.43045 55.9123 1.46334 55.8465 1.50446 55.7807C1.52913 55.7314 1.56203 55.682 1.5867 55.6327C1.61959 55.5833 1.64426 55.534 1.67716 55.4764C2.72156 53.6097 4.19358 52.1048 5.88764 51.3646L6.36461 51.159L64.4808 25.9126L122.597 0.666111L123.074 0.460521C124.768 -0.27138 126.363 -0.0986842 127.605 0.773018C127.638 0.797689 127.671 0.82236 127.704 0.838807C127.737 0.863478 127.77 0.888148 127.803 0.912819L134.521 5.8881L130.171 7.17098L135.829 85.1472C135.977 87.162 135.401 89.2919 134.349 91.1504C134.324 91.1998 134.291 91.2573 134.258 91.3067C134.233 91.356 134.201 91.4054 134.176 91.4547C133.132 93.3215 131.659 94.8264 129.965 95.5665L14.0701 145.92L14.5224 150.821L8.15736 146.092C8.15736 146.092 8.09157 146.043 8.05868 146.018C6.80869 145.155 5.96988 143.633 5.82185 141.627L0.0242124 61.7839C-0.115589 59.8432 0.410722 57.7955 1.38933 55.9863Z" fill="white"/>
<path d="M19.3905 151.372L136.577 100.468C140.121 98.93 142.728 94.0123 142.399 89.481L136.684 10.7811C136.355 6.24994 133.213 3.82398 129.669 5.37001L12.4909 56.2659C8.94657 57.8037 6.33968 62.7214 6.66863 67.2526L12.384 145.953C12.713 150.484 15.8544 152.91 19.3988 151.364L19.3905 151.372Z" fill="url(#paint0_linear_74_1838)"/>
<path d="M12.9682 56.0603L71.0844 30.8139L77.8031 123.329L19.8761 151.158C16.0685 152.811 12.7297 150.739 12.4255 146.52L6.62783 66.677C6.32355 62.4583 9.1607 57.705 12.9682 56.0521V56.0603Z" fill="url(#paint1_linear_74_1838)"/>
<path d="M129.2 5.56738L71.084 30.8139L77.7615 122.754L136.108 100.673C139.916 99.0204 142.753 94.259 142.448 90.0485L136.651 10.2055C136.347 5.98678 133.008 3.91444 129.2 5.56738Z" fill="url(#paint2_linear_74_1838)"/>
<path d="M141.075 95.8461C139.924 97.976 138.156 99.7852 136.1 100.673L19.8672 151.166C17.8113 152.063 15.8952 151.857 14.5137 150.821L73.6578 66.4138L141.067 95.8461H141.075Z" fill="url(#paint3_linear_74_1838)"/>
<path d="M7.99219 60.8876C9.14349 58.7577 10.9116 56.9485 12.9675 56.0603L129.2 5.56738C131.256 4.67101 133.172 4.8766 134.553 5.91277L75.4093 90.3199L7.99219 60.8876Z" fill="#7092C7"/>
</g>
<g opacity="0.5">
<path d="M25.0581 66.6523C25.091 66.5783 25.1239 66.5043 25.165 66.4385C25.1897 66.3892 25.2143 66.3398 25.239 66.2823C25.2637 66.2329 25.2884 66.1754 25.3212 66.126C26.2587 64.2017 27.6485 62.6145 29.2932 61.7839L29.762 61.5455L86.3404 33.026L142.919 4.51476L143.388 4.27627C145.032 3.44569 146.636 3.52793 147.927 4.32562C147.96 4.34206 148.001 4.36673 148.034 4.3914C148.067 4.41607 148.108 4.43252 148.141 4.45719L155.139 9.03774L150.871 10.5673L160.97 88.0913C161.233 90.0896 160.78 92.2524 159.835 94.1685C159.81 94.2261 159.785 94.2754 159.761 94.333C159.736 94.3823 159.711 94.4317 159.687 94.481C158.749 96.4053 157.359 97.9925 155.715 98.8231L42.8458 155.714L43.5777 160.582L36.9494 156.224C36.9494 156.224 36.8836 156.183 36.8425 156.158C35.5432 155.369 34.6221 153.897 34.359 151.898L24.0219 72.5157C23.7752 70.5914 24.1864 68.5109 25.0581 66.6523Z" fill="white"/>
<path d="M48.4707 160.854L162.565 103.346C166.019 101.611 168.338 96.5451 167.754 92.0468L157.565 13.7992C156.981 9.29267 153.708 7.05585 150.254 8.79103L36.1599 66.2987C32.706 68.0339 30.3869 73.0996 30.9708 77.5979L41.1599 155.846C41.7437 160.352 45.0167 162.589 48.4707 160.854Z" fill="url(#paint4_linear_74_1838)"/>
<path d="M36.6209 66.0602L93.1993 37.5408L105.181 129.53L48.9316 160.615C45.2228 162.482 41.7771 160.599 41.2261 156.413L30.889 77.0305C30.3463 72.8365 32.9038 67.927 36.6127 66.0602H36.6209Z" fill="url(#paint5_linear_74_1838)"/>
<path d="M149.785 9.02952L93.207 37.549L105.115 128.954L162.104 103.585C165.813 101.718 168.379 96.8001 167.828 92.6143L157.491 13.2318C156.948 9.03774 153.494 7.15454 149.785 9.02952Z" fill="url(#paint6_linear_74_1838)"/>
<path d="M166.792 98.4777C165.764 100.673 164.103 102.573 162.097 103.585L48.9399 160.623C46.9334 161.635 45.009 161.536 43.5781 160.582L97.821 72.9434L166.801 98.4777H166.792Z" fill="url(#paint7_linear_74_1838)"/>
<path d="M31.934 71.1671C32.962 68.9714 34.6231 67.0717 36.6297 66.0602L149.787 9.02952C151.793 8.01802 153.717 8.1167 155.148 9.07064L100.905 96.7096L31.9258 71.1753L31.934 71.1671Z" fill="#7092C7"/>
</g>
<path d="M51.002 75.9121C51.0349 75.8381 51.0596 75.7641 51.0925 75.6901C51.1172 75.6407 51.1336 75.5832 51.1583 75.5338C51.1829 75.4763 51.2076 75.4269 51.2323 75.3694C52.0629 73.3957 53.354 71.7345 54.9494 70.8053L55.4017 70.5421L110.27 38.8483L165.137 7.16276L165.59 6.89961C167.185 5.97856 168.789 5.97034 170.129 6.69402C170.17 6.71046 170.203 6.73513 170.236 6.75158C170.269 6.77625 170.31 6.7927 170.343 6.80915L177.588 10.9867L173.41 12.7548L187.9 89.5797C188.27 91.5616 187.942 93.7491 187.111 95.7146C187.086 95.7721 187.062 95.8215 187.045 95.879C187.02 95.9284 187.004 95.9859 186.979 96.0353C186.149 98.0089 184.858 99.6783 183.262 100.599L73.8308 163.806L74.8423 168.625L67.9838 164.653C67.9838 164.653 67.9098 164.612 67.8769 164.595C66.5364 163.88 65.5331 162.466 65.1549 160.484L50.3195 81.8167C49.9576 79.9088 50.2537 77.8118 51.0185 75.9039L51.002 75.9121Z" fill="white"/>
<path d="M79.7441 168.625L190.384 104.719C193.731 102.787 195.763 97.606 194.916 93.1406L180.294 15.6002C179.455 11.1348 176.059 9.08708 172.712 11.0196L62.0633 74.9253C58.7163 76.8578 56.6851 82.0387 57.5321 86.5041L72.1537 164.044C72.9925 168.51 76.3888 170.558 79.7358 168.625H79.7441Z" fill="url(#paint8_linear_74_1838)"/>
<path d="M62.5154 74.6621L117.383 42.9683L134.579 134.127L80.1879 168.362C76.5942 170.442 73.0416 168.757 72.2603 164.604L57.425 85.9367C56.6437 81.7838 58.9217 76.7345 62.5154 74.6539V74.6621Z" fill="url(#paint9_linear_74_1838)"/>
<path d="M172.251 11.2828L117.383 42.9766L134.471 133.56L189.931 104.991C193.525 102.91 195.803 97.8609 195.022 93.708L180.186 15.041C179.405 10.8881 175.853 9.20221 172.259 11.2828H172.251Z" fill="url(#paint10_linear_74_1838)"/>
<path d="M194.323 99.6208C193.426 101.866 191.872 103.864 189.931 104.983L80.1954 168.362C78.2546 169.48 76.3303 169.497 74.8418 168.633L124.011 78.0502L194.331 99.6208H194.323Z" fill="url(#paint11_linear_74_1838)"/>
<path d="M58.1235 80.0239C59.0198 77.7789 60.5741 75.7805 62.5149 74.6621L172.251 11.2828C174.191 10.1644 176.116 10.1479 177.604 11.0114L128.435 101.594L58.1152 80.0239H58.1235Z" fill="#7092C7"/>
</g>
<defs>
<linearGradient id="paint0_linear_74_1838" x1="44.5717" y1="91.5495" x2="-85.1753" y2="147.911" gradientUnits="userSpaceOnUse">
<stop stop-color="#7BDAFF"/>
<stop offset="1" stop-color="#59BDEF"/>
</linearGradient>
<linearGradient id="paint1_linear_74_1838" x1="-82.171" y1="237.62" x2="-36.8265" y2="126.604" gradientUnits="userSpaceOnUse">
<stop offset="0.77" stop-color="#8FBDEF"/>
<stop offset="0.82" stop-color="#8BB8F0"/>
<stop offset="0.88" stop-color="#80AAF3"/>
<stop offset="0.94" stop-color="#6E94F8"/>
<stop offset="1" stop-color="#5778FF"/>
</linearGradient>
<linearGradient id="paint2_linear_74_1838" x1="119.628" y1="149.65" x2="7.54019" y2="107.022" gradientUnits="userSpaceOnUse">
<stop offset="0.77" stop-color="#8FBDEF"/>
<stop offset="0.82" stop-color="#8BB8F0"/>
<stop offset="0.88" stop-color="#80AAF3"/>
<stop offset="0.94" stop-color="#6E94F8"/>
<stop offset="1" stop-color="#5778FF"/>
</linearGradient>
<linearGradient id="paint3_linear_74_1838" x1="33.1969" y1="242.896" x2="-19.5945" y2="121.369" gradientUnits="userSpaceOnUse">
<stop stop-color="#A7C2FF"/>
<stop offset="0.45" stop-color="#A5C0FF"/>
<stop offset="0.62" stop-color="#9EB9FF"/>
<stop offset="0.75" stop-color="#91AEFF"/>
<stop offset="0.85" stop-color="#809EFF"/>
<stop offset="0.94" stop-color="#6A8AFF"/>
<stop offset="1" stop-color="#5778FF"/>
</linearGradient>
<linearGradient id="paint4_linear_74_1838" x1="75.4434" y1="96.9485" x2="-50.8774" y2="160.619" gradientUnits="userSpaceOnUse">
<stop stop-color="#7BDAFF"/>
<stop offset="1" stop-color="#59BDEF"/>
</linearGradient>
<linearGradient id="paint5_linear_74_1838" x1="-42.7673" y1="250.014" x2="-3.82216" y2="136.59" gradientUnits="userSpaceOnUse">
<stop offset="0.77" stop-color="#8FBDEF"/>
<stop offset="0.82" stop-color="#8BB8F0"/>
<stop offset="0.88" stop-color="#80AAF3"/>
<stop offset="0.94" stop-color="#6E94F8"/>
<stop offset="1" stop-color="#5778FF"/>
</linearGradient>
<linearGradient id="paint6_linear_74_1838" x1="153.795" y1="150.866" x2="39.4582" y2="114.7" gradientUnits="userSpaceOnUse">
<stop offset="0.77" stop-color="#8FBDEF"/>
<stop offset="0.82" stop-color="#8BB8F0"/>
<stop offset="0.88" stop-color="#80AAF3"/>
<stop offset="0.94" stop-color="#6E94F8"/>
<stop offset="1" stop-color="#5778FF"/>
</linearGradient>
<linearGradient id="paint7_linear_74_1838" x1="72.7209" y1="248.698" x2="13.0835" y2="130.379" gradientUnits="userSpaceOnUse">
<stop stop-color="#A7C2FF"/>
<stop offset="0.45" stop-color="#A5C0FF"/>
<stop offset="0.62" stop-color="#9EB9FF"/>
<stop offset="0.75" stop-color="#91AEFF"/>
<stop offset="0.85" stop-color="#809EFF"/>
<stop offset="0.94" stop-color="#6A8AFF"/>
<stop offset="1" stop-color="#5778FF"/>
</linearGradient>
<linearGradient id="paint8_linear_74_1838" x1="108.449" y1="100.206" x2="-14.0467" y2="170.957" gradientUnits="userSpaceOnUse">
<stop stop-color="#7BDAFF"/>
<stop offset="1" stop-color="#59BDEF"/>
</linearGradient>
<linearGradient id="paint9_linear_74_1838" x1="-0.860359" y1="259.742" x2="31.5648" y2="144.29" gradientUnits="userSpaceOnUse">
<stop offset="0.77" stop-color="#8FBDEF"/>
<stop offset="0.82" stop-color="#8BB8F0"/>
<stop offset="0.88" stop-color="#80AAF3"/>
<stop offset="0.94" stop-color="#6E94F8"/>
<stop offset="1" stop-color="#5778FF"/>
</linearGradient>
<linearGradient id="paint10_linear_74_1838" x1="189.683" y1="149.495" x2="73.4754" y2="119.891" gradientUnits="userSpaceOnUse">
<stop offset="0.77" stop-color="#8FBDEF"/>
<stop offset="0.82" stop-color="#8BB8F0"/>
<stop offset="0.88" stop-color="#80AAF3"/>
<stop offset="0.94" stop-color="#6E94F8"/>
<stop offset="1" stop-color="#5778FF"/>
</linearGradient>
<linearGradient id="paint11_linear_74_1838" x1="114.359" y1="251.864" x2="48.0895" y2="137.129" gradientUnits="userSpaceOnUse">
<stop stop-color="#A7C2FF"/>
<stop offset="0.45" stop-color="#A5C0FF"/>
<stop offset="0.62" stop-color="#9EB9FF"/>
<stop offset="0.75" stop-color="#91AEFF"/>
<stop offset="0.85" stop-color="#809EFF"/>
<stop offset="0.94" stop-color="#6A8AFF"/>
<stop offset="1" stop-color="#5778FF"/>
</linearGradient>
<clipPath id="clip0_74_1838">
<rect width="195.179" height="169.357" fill="white"/>
</clipPath>
</defs>
</svg>
