<svg width="313" height="220" viewBox="0 0 313 220" fill="none" xmlns="http://www.w3.org/2000/svg">
<path d="M0.773438 20.7689C0.773438 9.72322 9.72774 0.768921 20.7734 0.768921H312.637V207.2C312.637 213.827 307.264 219.2 300.637 219.2H0.773438V20.7689Z" fill="white" fill-opacity="0.5"/>
<path d="M0.773438 20.7689C0.773438 9.72324 9.72774 0.768921 20.7734 0.768921H312.637V51.2731H0.773438V20.7689Z" fill="#4E639C"/>
<circle cx="27.2885" cy="26.021" r="7.57563" fill="#FFB9B9"/>
<circle cx="55.0659" cy="26.021" r="7.57563" fill="#FFE3B9"/>
<circle cx="82.8432" cy="26.021" r="7.57563" fill="#BEFFB9"/>
<rect x="0.773438" y="51.2731" width="311.863" height="59.3424" fill="#E1EFFF"/>
<path d="M105.57 80.313C105.57 71.9452 112.354 65.1618 120.722 65.1618H312.638V95.4643H120.722C112.354 95.4643 105.57 88.6808 105.57 80.313Z" fill="#E3E3E3"/>
<path d="M36.1257 81.1811H22.6805L28.8562 75.4465L27.2875 74L18.4492 82.2069L27.2875 90.4139L28.8452 88.9674L22.6805 83.2328H36.1257V81.1811Z" fill="black" fill-opacity="0.6"/>
<path d="M55.0648 74L53.5071 75.4465L59.6717 81.1811H46.2266V83.2328H59.6717L53.5071 88.9674L55.0648 90.4139L63.903 82.2069L55.0648 74Z" fill="black" fill-opacity="0.2"/>
<path d="M88.1921 76.2253C86.8182 74.8523 84.9325 74 82.8385 74C78.6503 74 75.2676 77.3901 75.2676 81.5756C75.2676 85.7612 78.6503 89.1513 82.8385 89.1513C86.3728 89.1513 89.3197 86.7365 90.163 83.4695H88.1921C87.4151 85.6759 85.3116 87.2574 82.8385 87.2574C79.7021 87.2574 77.1532 84.71 77.1532 81.5756C77.1532 78.4412 79.7021 75.8939 82.8385 75.8939C84.4114 75.8939 85.8138 76.5473 86.8371 77.5795L83.786 80.6287H90.4188V74L88.1921 76.2253Z" fill="black" fill-opacity="0.6"/>
<path d="M123.034 77.79H124.238L124.448 78.812C124.728 78.4573 125.05 78.1773 125.414 77.972C125.788 77.7573 126.189 77.65 126.618 77.65C127.029 77.65 127.407 77.7527 127.752 77.958C128.098 78.1633 128.364 78.4853 128.55 78.924C128.849 78.5413 129.194 78.2333 129.586 78C129.988 77.7667 130.431 77.65 130.916 77.65C131.327 77.65 131.696 77.7527 132.022 77.958C132.358 78.154 132.624 78.4573 132.82 78.868C133.026 79.2787 133.128 79.806 133.128 80.45V85H131.84V80.618C131.84 79.9833 131.71 79.5353 131.448 79.274C131.187 79.0033 130.86 78.868 130.468 78.868C130.179 78.868 129.89 78.9473 129.6 79.106C129.32 79.2647 129.05 79.4933 128.788 79.792C128.807 79.8853 128.816 79.988 128.816 80.1C128.826 80.212 128.83 80.3287 128.83 80.45V85H127.542V80.618C127.542 79.9833 127.412 79.5353 127.15 79.274C126.889 79.0033 126.562 78.868 126.17 78.868C125.881 78.868 125.596 78.9473 125.316 79.106C125.046 79.2553 124.784 79.4653 124.532 79.736V85H123.244V79.498C123.244 79.302 123.235 79.1247 123.216 78.966C123.207 78.798 123.184 78.6113 123.146 78.406L123.034 77.79ZM134.456 77.79H135.842L137.83 83.236L139.79 77.79H141.12L138.152 85.364C137.928 85.9427 137.672 86.4047 137.382 86.75C137.093 87.1047 136.785 87.3567 136.458 87.506C136.141 87.6553 135.814 87.73 135.478 87.73C135.329 87.73 135.184 87.7113 135.044 87.674C134.914 87.646 134.783 87.6087 134.652 87.562L134.834 86.512C134.956 86.5493 135.058 86.5727 135.142 86.582C135.236 86.6007 135.343 86.61 135.464 86.61C135.791 86.61 136.08 86.498 136.332 86.274C136.594 86.05 136.85 85.6393 137.102 85.042L137.2 84.804L134.456 77.79ZM141.962 84.146L142.718 83.278C142.97 83.4833 143.264 83.6653 143.6 83.824C143.945 83.9827 144.346 84.062 144.804 84.062C145.28 84.062 145.634 83.9827 145.868 83.824C146.101 83.6653 146.218 83.4553 146.218 83.194C146.218 83.026 146.166 82.872 146.064 82.732C145.97 82.5827 145.798 82.4427 145.546 82.312C145.303 82.172 144.958 82.0367 144.51 81.906C143.688 81.654 143.1 81.346 142.746 80.982C142.391 80.6087 142.214 80.1747 142.214 79.68C142.214 79.288 142.326 78.9427 142.55 78.644C142.783 78.336 143.1 78.0933 143.502 77.916C143.903 77.7387 144.36 77.65 144.874 77.65C145.275 77.65 145.686 77.72 146.106 77.86C146.535 77.9907 146.913 78.1913 147.24 78.462L146.526 79.386C146.302 79.1993 146.036 79.0453 145.728 78.924C145.429 78.7933 145.102 78.728 144.748 78.728C144.318 78.728 143.992 78.8073 143.768 78.966C143.553 79.1247 143.446 79.316 143.446 79.54C143.446 79.7173 143.492 79.8713 143.586 80.002C143.688 80.1233 143.861 80.24 144.104 80.352C144.356 80.464 144.701 80.5853 145.14 80.716C145.756 80.8933 146.232 81.1033 146.568 81.346C146.913 81.5793 147.156 81.836 147.296 82.116C147.436 82.396 147.506 82.704 147.506 83.04C147.506 83.4413 147.389 83.8007 147.156 84.118C146.922 84.4353 146.596 84.6873 146.176 84.874C145.756 85.0513 145.261 85.14 144.692 85.14C144.15 85.14 143.642 85.0467 143.166 84.86C142.69 84.6733 142.288 84.4353 141.962 84.146ZM149.045 81.472C149.045 80.632 149.19 79.9273 149.479 79.358C149.769 78.7887 150.156 78.364 150.641 78.084C151.127 77.7947 151.668 77.65 152.265 77.65C152.816 77.65 153.315 77.7853 153.763 78.056C154.221 78.3173 154.58 78.7187 154.841 79.26C155.112 79.792 155.247 80.4593 155.247 81.262C155.247 81.346 155.243 81.4347 155.233 81.528C155.233 81.612 155.229 81.696 155.219 81.78H150.151V80.744H154.239L153.987 81.262C153.987 80.366 153.815 79.7313 153.469 79.358C153.133 78.9753 152.727 78.784 152.251 78.784C151.878 78.784 151.547 78.8867 151.257 79.092C150.977 79.288 150.758 79.5867 150.599 79.988C150.441 80.38 150.361 80.8747 150.361 81.472C150.361 82.0227 150.459 82.4847 150.655 82.858C150.861 83.222 151.131 83.4973 151.467 83.684C151.803 83.8707 152.181 83.964 152.601 83.964C152.937 83.964 153.245 83.908 153.525 83.796C153.805 83.684 154.053 83.544 154.267 83.376L154.869 84.398C154.552 84.6593 154.193 84.8507 153.791 84.972C153.399 85.084 152.989 85.14 152.559 85.14C151.887 85.14 151.285 85.0047 150.753 84.734C150.231 84.4633 149.815 84.0573 149.507 83.516C149.199 82.9653 149.045 82.284 149.045 81.472ZM157.064 77.79H158.268L158.506 78.938C158.776 78.5367 159.108 78.224 159.5 78C159.901 77.7667 160.349 77.65 160.844 77.65V79.036C160.349 79.0547 159.91 79.1433 159.528 79.302C159.145 79.4513 158.823 79.6613 158.562 79.932V85H157.274V79.498C157.274 79.302 157.264 79.1247 157.246 78.966C157.236 78.798 157.213 78.6113 157.176 78.406L157.064 77.79ZM161.335 77.79H162.721L164.919 83.81H164.499L166.669 77.79H167.999L165.171 85H164.163L161.335 77.79ZM169.401 85V77.79H170.689V85H169.401ZM169.191 75.662C169.191 75.41 169.27 75.2 169.429 75.032C169.597 74.864 169.802 74.78 170.045 74.78C170.306 74.78 170.511 74.864 170.661 75.032C170.819 75.2 170.899 75.41 170.899 75.662C170.899 75.9047 170.819 76.11 170.661 76.278C170.511 76.446 170.306 76.53 170.045 76.53C169.802 76.53 169.597 76.446 169.429 76.278C169.27 76.11 169.191 75.9047 169.191 75.662ZM172.725 81.472C172.725 80.6787 172.879 79.9973 173.187 79.428C173.504 78.8587 173.929 78.42 174.461 78.112C174.993 77.804 175.586 77.65 176.239 77.65C176.65 77.65 177.056 77.7293 177.457 77.888C177.868 78.0373 178.213 78.2613 178.493 78.56L177.709 79.498C177.532 79.2927 177.312 79.1293 177.051 79.008C176.799 78.8867 176.51 78.826 176.183 78.826C175.8 78.826 175.446 78.9287 175.119 79.134C174.792 79.3393 174.531 79.6427 174.335 80.044C174.139 80.436 174.041 80.912 174.041 81.472C174.041 82.032 174.134 82.4987 174.321 82.872C174.517 83.236 174.774 83.5113 175.091 83.698C175.408 83.8753 175.749 83.964 176.113 83.964C176.477 83.964 176.799 83.9033 177.079 83.782C177.359 83.6513 177.592 83.488 177.779 83.292L178.521 84.23C178.241 84.5193 177.891 84.7433 177.471 84.902C177.051 85.0607 176.617 85.14 176.169 85.14C175.516 85.14 174.928 85.0047 174.405 84.734C173.892 84.4633 173.481 84.0573 173.173 83.516C172.874 82.9653 172.725 82.284 172.725 81.472ZM179.78 81.472C179.78 80.632 179.924 79.9273 180.214 79.358C180.503 78.7887 180.89 78.364 181.376 78.084C181.861 77.7947 182.402 77.65 183 77.65C183.55 77.65 184.05 77.7853 184.498 78.056C184.955 78.3173 185.314 78.7187 185.576 79.26C185.846 79.792 185.982 80.4593 185.982 81.262C185.982 81.346 185.977 81.4347 185.968 81.528C185.968 81.612 185.963 81.696 185.954 81.78H180.886V80.744H184.974L184.722 81.262C184.722 80.366 184.549 79.7313 184.204 79.358C183.868 78.9753 183.462 78.784 182.986 78.784C182.612 78.784 182.281 78.8867 181.992 79.092C181.712 79.288 181.492 79.5867 181.334 79.988C181.175 80.38 181.096 80.8747 181.096 81.472C181.096 82.0227 181.194 82.4847 181.39 82.858C181.595 83.222 181.866 83.4973 182.202 83.684C182.538 83.8707 182.916 83.964 183.336 83.964C183.672 83.964 183.98 83.908 184.26 83.796C184.54 83.684 184.787 83.544 185.002 83.376L185.604 84.398C185.286 84.6593 184.927 84.8507 184.526 84.972C184.134 85.084 183.723 85.14 183.294 85.14C182.622 85.14 182.02 85.0047 181.488 84.734C180.965 84.4633 180.55 84.0573 180.242 83.516C179.934 82.9653 179.78 82.284 179.78 81.472ZM187.448 84.272C187.448 84.02 187.527 83.81 187.686 83.642C187.854 83.474 188.059 83.39 188.302 83.39C188.563 83.39 188.769 83.474 188.918 83.642C189.077 83.81 189.156 84.02 189.156 84.272C189.156 84.5147 189.077 84.72 188.918 84.888C188.769 85.056 188.563 85.14 188.302 85.14C188.059 85.14 187.854 85.056 187.686 84.888C187.527 84.72 187.448 84.5147 187.448 84.272ZM190.552 84.146L191.308 83.278C191.56 83.4833 191.854 83.6653 192.19 83.824C192.535 83.9827 192.936 84.062 193.394 84.062C193.87 84.062 194.224 83.9827 194.458 83.824C194.691 83.6653 194.808 83.4553 194.808 83.194C194.808 83.026 194.756 82.872 194.654 82.732C194.56 82.5827 194.388 82.4427 194.136 82.312C193.893 82.172 193.548 82.0367 193.1 81.906C192.278 81.654 191.69 81.346 191.336 80.982C190.981 80.6087 190.804 80.1747 190.804 79.68C190.804 79.288 190.916 78.9427 191.14 78.644C191.373 78.336 191.69 78.0933 192.092 77.916C192.493 77.7387 192.95 77.65 193.464 77.65C193.865 77.65 194.276 77.72 194.696 77.86C195.125 77.9907 195.503 78.1913 195.83 78.462L195.116 79.386C194.892 79.1993 194.626 79.0453 194.318 78.924C194.019 78.7933 193.692 78.728 193.338 78.728C192.908 78.728 192.582 78.8073 192.358 78.966C192.143 79.1247 192.036 79.316 192.036 79.54C192.036 79.7173 192.082 79.8713 192.176 80.002C192.278 80.1233 192.451 80.24 192.694 80.352C192.946 80.464 193.291 80.5853 193.73 80.716C194.346 80.8933 194.822 81.1033 195.158 81.346C195.503 81.5793 195.746 81.836 195.886 82.116C196.026 82.396 196.096 82.704 196.096 83.04C196.096 83.4413 195.979 83.8007 195.746 84.118C195.512 84.4353 195.186 84.6873 194.766 84.874C194.346 85.0513 193.851 85.14 193.282 85.14C192.74 85.14 192.232 85.0467 191.756 84.86C191.28 84.6733 190.878 84.4353 190.552 84.146ZM198.125 85V74.99L199.413 74.71V80.954L202.269 77.79H203.907L201.191 80.688L204.117 85H202.549L200.337 81.598L199.413 82.592V85H198.125ZM205.17 83.152C205.17 82.732 205.282 82.3447 205.506 81.99C205.73 81.6353 206.099 81.3413 206.612 81.108C207.125 80.8747 207.816 80.744 208.684 80.716L209.454 80.688V80.604C209.454 79.988 209.309 79.5493 209.02 79.288C208.731 79.0173 208.329 78.882 207.816 78.882C207.443 78.882 207.097 78.938 206.78 79.05C206.463 79.162 206.145 79.3067 205.828 79.484L205.38 78.392C205.707 78.1867 206.108 78.014 206.584 77.874C207.06 77.7247 207.513 77.65 207.942 77.65C208.474 77.65 208.95 77.7527 209.37 77.958C209.79 78.1633 210.121 78.476 210.364 78.896C210.616 79.3067 210.742 79.8247 210.742 80.45V83.292C210.742 83.488 210.747 83.67 210.756 83.838C210.775 83.9967 210.803 84.1787 210.84 84.384L210.952 85H209.748L209.538 83.978C209.258 84.314 208.908 84.594 208.488 84.818C208.077 85.0327 207.634 85.14 207.158 85.14C206.813 85.14 206.486 85.0607 206.178 84.902C205.879 84.7433 205.637 84.5147 205.45 84.216C205.263 83.9173 205.17 83.5627 205.17 83.152ZM206.486 83.04C206.486 83.3293 206.57 83.558 206.738 83.726C206.915 83.8847 207.149 83.964 207.438 83.964C207.793 83.964 208.138 83.88 208.474 83.712C208.819 83.544 209.146 83.3153 209.454 83.026V81.612L208.74 81.682C208.133 81.738 207.667 81.836 207.34 81.976C207.013 82.116 206.789 82.2793 206.668 82.466C206.547 82.6433 206.486 82.8347 206.486 83.04ZM212.982 77.79H214.186L214.396 78.826C214.704 78.4713 215.054 78.1867 215.446 77.972C215.838 77.7573 216.248 77.65 216.678 77.65C217.172 77.65 217.62 77.7993 218.022 78.098C218.432 78.3873 218.759 78.8073 219.002 79.358C219.244 79.9087 219.366 80.5667 219.366 81.332C219.366 82.1253 219.24 82.8067 218.988 83.376C218.745 83.9453 218.4 84.384 217.952 84.692C217.513 84.9907 216.99 85.14 216.384 85.14C216.038 85.14 215.693 85.0607 215.348 84.902C215.012 84.734 214.722 84.4727 214.48 84.118V87.52L213.192 87.8V79.498C213.192 79.302 213.182 79.1247 213.164 78.966C213.154 78.798 213.131 78.6113 213.094 78.406L212.982 77.79ZM214.48 81.752C214.48 82.284 214.564 82.7227 214.732 83.068C214.9 83.404 215.11 83.656 215.362 83.824C215.623 83.9827 215.894 84.062 216.174 84.062C216.752 84.062 217.21 83.8147 217.546 83.32C217.882 82.816 218.05 82.1673 218.05 81.374C218.05 80.8233 217.975 80.3613 217.826 79.988C217.676 79.6147 217.471 79.33 217.21 79.134C216.948 78.938 216.654 78.84 216.328 78.84C216.001 78.84 215.679 78.924 215.362 79.092C215.054 79.2507 214.76 79.4747 214.48 79.764V81.752ZM221.395 85V77.79H222.683V85H221.395ZM221.185 75.662C221.185 75.41 221.264 75.2 221.423 75.032C221.591 74.864 221.796 74.78 222.039 74.78C222.3 74.78 222.505 74.864 222.655 75.032C222.813 75.2 222.893 75.41 222.893 75.662C222.893 75.9047 222.813 76.11 222.655 76.278C222.505 76.446 222.3 76.53 222.039 76.53C221.796 76.53 221.591 76.446 221.423 76.278C221.264 76.11 221.185 75.9047 221.185 75.662ZM224.649 84.272C224.649 84.02 224.729 83.81 224.887 83.642C225.055 83.474 225.261 83.39 225.503 83.39C225.765 83.39 225.97 83.474 226.119 83.642C226.278 83.81 226.357 84.02 226.357 84.272C226.357 84.5147 226.278 84.72 226.119 84.888C225.97 85.056 225.765 85.14 225.503 85.14C225.261 85.14 225.055 85.056 224.887 84.888C224.729 84.72 224.649 84.5147 224.649 84.272ZM227.823 81.472C227.823 80.6787 227.977 79.9973 228.285 79.428C228.602 78.8587 229.027 78.42 229.559 78.112C230.091 77.804 230.683 77.65 231.337 77.65C231.747 77.65 232.153 77.7293 232.555 77.888C232.965 78.0373 233.311 78.2613 233.591 78.56L232.807 79.498C232.629 79.2927 232.41 79.1293 232.149 79.008C231.897 78.8867 231.607 78.826 231.281 78.826C230.898 78.826 230.543 78.9287 230.217 79.134C229.89 79.3393 229.629 79.6427 229.433 80.044C229.237 80.436 229.139 80.912 229.139 81.472C229.139 82.032 229.232 82.4987 229.419 82.872C229.615 83.236 229.871 83.5113 230.189 83.698C230.506 83.8753 230.847 83.964 231.211 83.964C231.575 83.964 231.897 83.9033 232.177 83.782C232.457 83.6513 232.69 83.488 232.877 83.292L233.619 84.23C233.339 84.5193 232.989 84.7433 232.569 84.902C232.149 85.0607 231.715 85.14 231.267 85.14C230.613 85.14 230.025 85.0047 229.503 84.734C228.989 84.4633 228.579 84.0573 228.271 83.516C227.972 82.9653 227.823 82.284 227.823 81.472ZM234.877 81.402C234.877 80.59 235.017 79.9087 235.297 79.358C235.577 78.798 235.96 78.3733 236.445 78.084C236.931 77.7947 237.486 77.65 238.111 77.65C238.737 77.65 239.292 77.7947 239.777 78.084C240.263 78.3733 240.645 78.798 240.925 79.358C241.205 79.9087 241.345 80.59 241.345 81.402C241.345 82.2047 241.205 82.886 240.925 83.446C240.645 84.006 240.263 84.4307 239.777 84.72C239.292 85 238.737 85.14 238.111 85.14C237.486 85.14 236.931 85 236.445 84.72C235.96 84.4307 235.577 84.006 235.297 83.446C235.017 82.886 234.877 82.2047 234.877 81.402ZM236.193 81.402C236.193 81.962 236.268 82.438 236.417 82.83C236.576 83.2127 236.795 83.5067 237.075 83.712C237.365 83.908 237.71 84.006 238.111 84.006C238.513 84.006 238.853 83.908 239.133 83.712C239.423 83.5067 239.642 83.2127 239.791 82.83C239.95 82.438 240.029 81.962 240.029 81.402C240.029 80.842 239.95 80.3707 239.791 79.988C239.642 79.596 239.423 79.2973 239.133 79.092C238.853 78.8867 238.513 78.784 238.111 78.784C237.71 78.784 237.365 78.8867 237.075 79.092C236.795 79.2973 236.576 79.596 236.417 79.988C236.268 80.3707 236.193 80.842 236.193 81.402ZM243.169 77.79H244.373L244.583 78.812C244.863 78.4573 245.185 78.1773 245.549 77.972C245.922 77.7573 246.324 77.65 246.753 77.65C247.164 77.65 247.542 77.7527 247.887 77.958C248.232 78.1633 248.498 78.4853 248.685 78.924C248.984 78.5413 249.329 78.2333 249.721 78C250.122 77.7667 250.566 77.65 251.051 77.65C251.462 77.65 251.83 77.7527 252.157 77.958C252.493 78.154 252.759 78.4573 252.955 78.868C253.16 79.2787 253.263 79.806 253.263 80.45V85H251.975V80.618C251.975 79.9833 251.844 79.5353 251.583 79.274C251.322 79.0033 250.995 78.868 250.603 78.868C250.314 78.868 250.024 78.9473 249.735 79.106C249.455 79.2647 249.184 79.4933 248.923 79.792C248.942 79.8853 248.951 79.988 248.951 80.1C248.96 80.212 248.965 80.3287 248.965 80.45V85H247.677V80.618C247.677 79.9833 247.546 79.5353 247.285 79.274C247.024 79.0033 246.697 78.868 246.305 78.868C246.016 78.868 245.731 78.9473 245.451 79.106C245.18 79.2553 244.919 79.4653 244.667 79.736V85H243.379V79.498C243.379 79.302 243.37 79.1247 243.351 78.966C243.342 78.798 243.318 78.6113 243.281 78.406L243.169 77.79Z" fill="black" fill-opacity="0.6"/>
</svg>
