<svg width="318" height="170" viewBox="0 0 318 170" fill="none" xmlns="http://www.w3.org/2000/svg">
<mask id="mask0_74_1908" style="mask-type:alpha" maskUnits="userSpaceOnUse" x="0" y="0" width="318" height="170">
<rect x="317.209" y="169.345" width="316.914" height="169.189" rx="12" transform="rotate(-180 317.209 169.345)" fill="#0049FF"/>
</mask>
<g mask="url(#mask0_74_1908)">
<g clip-path="url(#clip0_74_1908)">
<path d="M313.447 124.116L232.279 123.795C212.946 123.718 197.277 107.92 197.353 88.5807L197.394 78.1889C197.476 58.8548 213.265 43.181 232.603 43.2576L313.771 43.5789C333.104 43.6555 348.773 59.4538 348.697 78.793L348.655 89.1847C348.579 108.524 332.785 124.198 313.452 124.121L313.447 124.116ZM232.552 56.246C220.377 56.1978 210.437 66.0672 210.389 78.2404L210.348 88.6321C210.3 100.81 220.166 110.753 232.336 110.801L313.503 111.123C325.678 111.171 335.618 101.301 335.666 89.1283L335.707 78.7365C335.755 66.5583 325.889 56.6155 313.719 56.5673L232.552 56.246Z" fill="#83B1E8"/>
<path d="M198.678 123.662L117.516 123.34C98.1821 123.264 82.513 107.471 82.5895 88.1314L82.6307 77.7396C82.7072 58.4004 98.5009 42.7266 117.834 42.8032L199.002 43.1245C218.335 43.2011 234.005 58.9994 233.928 78.3386L233.887 88.7304C233.81 108.07 218.017 123.743 198.683 123.667L198.678 123.662ZM204.718 56.9007C202.879 56.3952 200.943 56.1208 198.945 56.1129L117.783 55.7916C105.608 55.7434 95.6685 65.6128 95.6203 77.786L95.5792 88.1778C95.5309 100.356 105.397 110.299 117.567 110.347L198.734 110.668C210.909 110.717 220.849 100.847 220.897 88.6739L220.938 78.2822C220.979 68.1018 214.095 59.4842 204.723 56.9007L204.718 56.9007Z" fill="url(#paint0_linear_74_1908)"/>
<path d="M213.209 67.5376C217.009 60.779 224.261 56.2131 232.547 56.2459L313.715 56.5673C322 56.6001 329.217 61.2233 332.963 68.0117L347.054 68.0675C342.577 53.9339 329.367 43.6406 313.766 43.5789L232.599 43.2575C216.998 43.1958 203.711 53.3841 199.113 67.4818L213.204 67.5376L213.209 67.5376Z" fill="#77ADEC"/>
</g>
</g>
<defs>
<linearGradient id="paint0_linear_74_1908" x1="53.7386" y1="120.155" x2="205.038" y2="91.561" gradientUnits="userSpaceOnUse">
<stop stop-color="#8397DE"/>
<stop offset="1" stop-color="#4369CD"/>
</linearGradient>
<clipPath id="clip0_74_1908">
<rect width="266.063" height="80.5379" fill="white" transform="translate(82.7695 42.6643) rotate(0.226841)"/>
</clipPath>
</defs>
</svg>
