<svg width="282" height="200" viewBox="0 0 282 200" fill="none" xmlns="http://www.w3.org/2000/svg">
<g clip-path="url(#clip0_152_7)">
<path d="M47.9715 105.399C46.2452 105.799 44.446 104.85 43.7973 103.123L37.0228 84.9539C35.4104 80.6377 31.0005 78.1108 26.5257 78.9411C23.8053 79.4547 21.469 81.1281 20.1164 83.5618C18.7618 85.987 18.5376 88.887 19.5111 91.5184L24.1584 104.107C24.8511 105.986 23.9147 108.071 22.052 108.764C20.1874 109.447 18.1301 108.495 17.4354 106.608L12.7881 94.0197C11.0754 89.3853 11.4679 84.2631 13.8608 79.9622C16.2661 75.6763 20.3941 72.6983 25.1929 71.8109C33.095 70.3392 40.8992 74.8018 43.7418 82.4357L50.5143 100.596C51.2154 102.473 50.281 104.567 48.4268 105.257C48.2792 105.31 48.1231 105.364 47.9715 105.399Z" fill="url(#paint0_linear_152_7)"/>
<path d="M35.848 73.5645C33.2603 72.5829 30.3963 72.2853 27.5119 72.8189C22.9593 73.6582 19.0453 76.4878 16.7754 80.5536C14.5055 84.6194 14.1335 89.4853 15.7552 93.8802L20.1602 105.806C20.354 106.336 20.6603 106.777 21.0454 107.137C19.7989 107.004 18.6737 106.168 18.2049 104.911L13.7999 92.9856C12.1698 88.5927 12.5502 83.7249 14.8201 79.659C17.0796 75.5866 21.004 72.7636 25.5566 71.9243C29.1879 71.2446 32.7981 71.8904 35.848 73.5645Z" fill="url(#paint1_linear_152_7)"/>
<path d="M47.1282 104.175C45.8816 104.041 44.7603 103.223 44.2896 101.957L37.8667 84.7313C37.1414 82.7881 35.8229 81.2338 34.1777 80.2225C36.7051 81.0204 38.8237 82.9642 39.8136 85.6278L46.2365 102.854C46.4283 103.375 46.7366 103.825 47.1197 104.177L47.1282 104.175Z" fill="url(#paint2_linear_152_7)"/>
<path d="M66.4647 145.426L27.9225 156.962C27.9225 156.962 24.9243 157.387 22.924 154.805L9.41309 116.258C9.41309 116.258 9.61579 106.526 17.782 104.777C21.8483 103.907 65.2215 135.274 71.4554 141.116C70.9407 143.643 66.4647 145.426 66.4647 145.426Z" fill="url(#paint3_linear_152_7)"/>
<path d="M30.922 150.877L16.3103 108.766C15.6493 106.87 16.7907 104.827 18.727 104.414L52.5163 97.2943C55.1387 96.7405 57.7711 98.2598 58.6427 100.834L71.4897 138.853C72.1037 140.66 71.0981 142.6 69.2841 143.119L34.9368 153.001C33.2556 153.48 31.4875 152.551 30.9051 150.88L30.922 150.877Z" fill="url(#paint4_linear_152_7)"/>
<path style="mix-blend-mode:multiply" opacity="0.32" d="M49.6697 125.14L51.688 131.438C52.204 133.052 51.3332 134.808 49.7292 135.315L49.0188 135.542C48.3927 135.75 47.7488 135.729 47.1556 135.543C46.2534 135.249 45.4896 134.518 45.1762 133.549L43.2158 127.463C40.8471 127.005 38.7799 125.283 37.9722 122.793L36.1501 117.151C35.5456 115.269 35.79 113.299 36.6627 111.704C37.4729 110.223 38.8035 109.034 40.513 108.485C44.0777 107.327 47.9496 109.331 49.1063 112.944L50.9323 118.604C51.6856 120.936 51.1175 123.385 49.6781 125.138L49.6697 125.14Z" fill="url(#paint5_linear_152_7)"/>
<path d="M44.9819 128.57L47.0002 134.868C47.0788 135.092 47.1173 135.335 47.1518 135.56C46.2496 135.266 45.4859 134.536 45.1725 133.566L43.212 127.48C40.8434 127.023 38.7762 125.301 37.9684 122.81L36.1464 117.168C35.5418 115.287 35.7862 113.316 36.6589 111.722C39.9707 111.08 43.3562 113.054 44.4225 116.391L46.2485 122.051C47.0018 124.383 46.4337 126.832 44.9943 128.585L44.9819 128.57Z" fill="#DDDDDD"/>
</g>
<mask id="mask0_152_7" style="mask-type:alpha" maskUnits="userSpaceOnUse" x="90" y="0" width="192" height="200">
<rect x="90.7402" y="0.0882568" width="190.653" height="199.492" rx="12" fill="#0049FF"/>
<rect x="91.2402" y="0.588257" width="189.653" height="198.492" rx="11.5" stroke="black" stroke-opacity="0.05"/>
</mask>
<g mask="url(#mask0_152_7)">
<rect x="101.162" y="62.3951" width="236.112" height="42.0605" rx="8" fill="#344054" fill-opacity="0.8"/>
<path d="M123.631 83.8221V76.7821H125.167V83.6621C125.167 84.2807 125.279 84.8087 125.503 85.2461C125.727 85.6727 126.037 85.9981 126.431 86.2221C126.837 86.4461 127.311 86.5581 127.855 86.5581C128.399 86.5581 128.874 86.4461 129.279 86.2221C129.685 85.9981 129.994 85.6727 130.207 85.2461C130.431 84.8087 130.543 84.2807 130.543 83.6621V76.7821H132.047V83.8221C132.047 84.7074 131.861 85.4647 131.487 86.0941C131.125 86.7127 130.623 87.1821 129.983 87.5021C129.354 87.8221 128.639 87.9821 127.839 87.9821C127.05 87.9821 126.335 87.8221 125.695 87.5021C125.055 87.1821 124.549 86.7127 124.175 86.0941C123.813 85.4647 123.631 84.7074 123.631 83.8221ZM134.288 86.8461L135.152 85.8541C135.44 86.0887 135.776 86.2967 136.16 86.4781C136.555 86.6594 137.014 86.7501 137.536 86.7501C138.08 86.7501 138.486 86.6594 138.752 86.4781C139.019 86.2967 139.152 86.0567 139.152 85.7581C139.152 85.5661 139.094 85.3901 138.976 85.2301C138.87 85.0594 138.672 84.8994 138.384 84.7501C138.107 84.5901 137.712 84.4354 137.2 84.2861C136.262 83.9981 135.59 83.6461 135.184 83.2301C134.779 82.8034 134.576 82.3074 134.576 81.7421C134.576 81.2941 134.704 80.8994 134.96 80.5581C135.227 80.2061 135.59 79.9287 136.048 79.7261C136.507 79.5234 137.03 79.4221 137.616 79.4221C138.075 79.4221 138.544 79.5021 139.024 79.6621C139.515 79.8114 139.947 80.0407 140.32 80.3501L139.504 81.4061C139.248 81.1927 138.944 81.0167 138.592 80.8781C138.251 80.7287 137.878 80.6541 137.472 80.6541C136.982 80.6541 136.608 80.7447 136.352 80.9261C136.107 81.1074 135.984 81.3261 135.984 81.5821C135.984 81.7847 136.038 81.9607 136.144 82.1101C136.262 82.2487 136.459 82.3821 136.736 82.5101C137.024 82.6381 137.419 82.7767 137.92 82.9261C138.624 83.1287 139.168 83.3687 139.552 83.6461C139.947 83.9127 140.224 84.2061 140.384 84.5261C140.544 84.8461 140.624 85.1981 140.624 85.5821C140.624 86.0407 140.491 86.4514 140.224 86.8141C139.958 87.1767 139.584 87.4647 139.104 87.6781C138.624 87.8807 138.059 87.9821 137.408 87.9821C136.79 87.9821 136.208 87.8754 135.664 87.6621C135.12 87.4487 134.662 87.1767 134.288 86.8461ZM142.384 83.7901C142.384 82.8301 142.549 82.0247 142.88 81.3741C143.211 80.7234 143.653 80.2381 144.208 79.9181C144.763 79.5874 145.381 79.4221 146.064 79.4221C146.693 79.4221 147.264 79.5767 147.776 79.8861C148.299 80.1847 148.709 80.6434 149.008 81.2621C149.317 81.8701 149.472 82.6327 149.472 83.5501C149.472 83.6461 149.467 83.7474 149.456 83.8541C149.456 83.9501 149.451 84.0461 149.44 84.1421H143.648V82.9581H148.32L148.032 83.5501C148.032 82.5261 147.835 81.8007 147.44 81.3741C147.056 80.9367 146.592 80.7181 146.048 80.7181C145.621 80.7181 145.243 80.8354 144.912 81.0701C144.592 81.2941 144.341 81.6354 144.16 82.0941C143.979 82.5421 143.888 83.1074 143.888 83.7901C143.888 84.4194 144 84.9474 144.224 85.3741C144.459 85.7901 144.768 86.1047 145.152 86.3181C145.536 86.5314 145.968 86.6381 146.448 86.6381C146.832 86.6381 147.184 86.5741 147.504 86.4461C147.824 86.3181 148.107 86.1581 148.352 85.9661L149.04 87.1341C148.677 87.4327 148.267 87.6514 147.808 87.7901C147.36 87.9181 146.891 87.9821 146.4 87.9821C145.632 87.9821 144.944 87.8274 144.336 87.5181C143.739 87.2087 143.264 86.7447 142.912 86.1261C142.56 85.4967 142.384 84.7181 142.384 83.7901ZM151.548 79.5821H152.924L153.196 80.8941C153.505 80.4354 153.884 80.0781 154.332 79.8221C154.79 79.5554 155.302 79.4221 155.868 79.4221V81.0061C155.302 81.0274 154.801 81.1287 154.364 81.3101C153.926 81.4807 153.558 81.7207 153.26 82.0301V87.8221H151.788V81.5341C151.788 81.3101 151.777 81.1074 151.756 80.9261C151.745 80.7341 151.718 80.5207 151.676 80.2861L151.548 79.5821ZM161.55 87.8221V86.5261H163.15V78.0781H161.55V76.7821H166.286V78.0781H164.686V86.5261H166.286V87.8221H161.55ZM169.166 87.8221V76.7821H172.734C173.684 76.7821 174.542 76.9954 175.31 77.4221C176.078 77.8487 176.686 78.4727 177.134 79.2941C177.593 80.1154 177.822 81.1181 177.822 82.3021C177.822 83.4861 177.593 84.4887 177.134 85.3101C176.686 86.1314 176.078 86.7554 175.31 87.1821C174.542 87.6087 173.684 87.8221 172.734 87.8221H169.166ZM170.702 86.4461H172.654C173.337 86.4461 173.945 86.2861 174.478 85.9661C175.022 85.6461 175.449 85.1767 175.758 84.5581C176.078 83.9394 176.238 83.1874 176.238 82.3021C176.238 81.4167 176.078 80.6647 175.758 80.0461C175.449 79.4274 175.022 78.9581 174.478 78.6381C173.945 78.3181 173.337 78.1581 172.654 78.1581H170.702V86.4461Z" fill="white" fill-opacity="0.8"/>
<rect x="101.162" y="119.751" width="236.112" height="42.0605" rx="8" fill="#344054" fill-opacity="0.8"/>
<path d="M123.791 145.177V134.137H130.927V135.513H125.327V138.889H130.127V140.265H125.327V143.801H131.007V145.177H123.791ZM133.329 136.937H134.705L134.945 138.121C135.297 137.716 135.697 137.391 136.145 137.145C136.604 136.9 137.078 136.777 137.569 136.777C138.113 136.777 138.598 136.9 139.025 137.145C139.462 137.391 139.804 137.759 140.049 138.249C140.305 138.74 140.433 139.364 140.433 140.121V145.177H138.961V140.313C138.961 139.812 138.881 139.407 138.721 139.097C138.572 138.777 138.364 138.543 138.097 138.393C137.83 138.244 137.526 138.169 137.185 138.169C136.812 138.169 136.444 138.26 136.081 138.441C135.718 138.623 135.372 138.873 135.041 139.193V145.177H133.569V138.889C133.569 138.665 133.558 138.463 133.537 138.281C133.526 138.089 133.5 137.876 133.457 137.641L133.329 136.937ZM142.105 138.217V136.937H143.545V135.033L145.017 134.713V136.937H147.449V138.217H145.017V142.681C145.017 143.108 145.118 143.439 145.321 143.673C145.524 143.897 145.838 144.009 146.265 144.009C146.446 144.009 146.628 143.988 146.809 143.945C147.001 143.892 147.209 143.823 147.433 143.737L147.689 145.001C147.433 145.097 147.161 145.177 146.873 145.241C146.585 145.305 146.297 145.337 146.009 145.337C145.561 145.337 145.15 145.236 144.777 145.033C144.404 144.831 144.105 144.537 143.881 144.153C143.657 143.769 143.545 143.3 143.545 142.745V138.217H142.105ZM148.962 141.145C148.962 140.185 149.127 139.38 149.458 138.729C149.789 138.079 150.231 137.593 150.786 137.273C151.341 136.943 151.959 136.777 152.642 136.777C153.271 136.777 153.842 136.932 154.354 137.241C154.877 137.54 155.287 137.999 155.586 138.617C155.895 139.225 156.05 139.988 156.05 140.905C156.05 141.001 156.045 141.103 156.034 141.209C156.034 141.305 156.029 141.401 156.018 141.497H150.226V140.313H154.898L154.61 140.905C154.61 139.881 154.413 139.156 154.018 138.729C153.634 138.292 153.17 138.073 152.626 138.073C152.199 138.073 151.821 138.191 151.49 138.425C151.17 138.649 150.919 138.991 150.738 139.449C150.557 139.897 150.466 140.463 150.466 141.145C150.466 141.775 150.578 142.303 150.802 142.729C151.037 143.145 151.346 143.46 151.73 143.673C152.114 143.887 152.546 143.993 153.026 143.993C153.41 143.993 153.762 143.929 154.082 143.801C154.402 143.673 154.685 143.513 154.93 143.321L155.618 144.489C155.255 144.788 154.845 145.007 154.386 145.145C153.938 145.273 153.469 145.337 152.978 145.337C152.21 145.337 151.522 145.183 150.914 144.873C150.317 144.564 149.842 144.1 149.49 143.481C149.138 142.852 148.962 142.073 148.962 141.145ZM158.126 136.937H159.502L159.774 138.249C160.083 137.791 160.462 137.433 160.91 137.177C161.368 136.911 161.88 136.777 162.446 136.777V138.361C161.88 138.383 161.379 138.484 160.942 138.665C160.504 138.836 160.136 139.076 159.838 139.385V145.177H158.366V138.889C158.366 138.665 158.355 138.463 158.334 138.281C158.323 138.089 158.296 137.876 158.254 137.641L158.126 136.937ZM168.448 145.177V134.137H172.096C172.853 134.137 173.536 134.281 174.144 134.569C174.762 134.847 175.253 135.257 175.616 135.801C175.978 136.345 176.16 137.017 176.16 137.817C176.16 138.607 175.978 139.279 175.616 139.833C175.253 140.377 174.762 140.793 174.144 141.081C173.536 141.359 172.853 141.497 172.096 141.497H169.984V145.177H168.448ZM169.984 140.121H172.016C172.741 140.121 173.349 139.924 173.84 139.529C174.33 139.135 174.576 138.564 174.576 137.817C174.576 137.071 174.33 136.5 173.84 136.105C173.36 135.711 172.752 135.513 172.016 135.513H169.984V140.121ZM177.761 143.065C177.761 142.585 177.889 142.143 178.145 141.737C178.401 141.332 178.822 140.996 179.409 140.729C179.995 140.463 180.785 140.313 181.777 140.281L182.657 140.249V140.153C182.657 139.449 182.491 138.948 182.161 138.649C181.83 138.34 181.371 138.185 180.785 138.185C180.358 138.185 179.963 138.249 179.601 138.377C179.238 138.505 178.875 138.671 178.513 138.873L178.001 137.625C178.374 137.391 178.833 137.193 179.377 137.033C179.921 136.863 180.438 136.777 180.929 136.777C181.537 136.777 182.081 136.895 182.561 137.129C183.041 137.364 183.419 137.721 183.697 138.201C183.985 138.671 184.129 139.263 184.129 139.977V143.225C184.129 143.449 184.134 143.657 184.145 143.849C184.166 144.031 184.198 144.239 184.241 144.473L184.369 145.177H182.993L182.753 144.009C182.433 144.393 182.033 144.713 181.553 144.969C181.083 145.215 180.577 145.337 180.033 145.337C179.638 145.337 179.265 145.247 178.913 145.065C178.571 144.884 178.294 144.623 178.081 144.281C177.867 143.94 177.761 143.535 177.761 143.065ZM179.265 142.937C179.265 143.268 179.361 143.529 179.553 143.721C179.755 143.903 180.022 143.993 180.353 143.993C180.758 143.993 181.153 143.897 181.537 143.705C181.931 143.513 182.305 143.252 182.657 142.921V141.305L181.841 141.385C181.147 141.449 180.614 141.561 180.241 141.721C179.867 141.881 179.611 142.068 179.473 142.281C179.334 142.484 179.265 142.703 179.265 142.937ZM186.288 144.201L187.152 143.209C187.44 143.444 187.776 143.652 188.16 143.833C188.555 144.015 189.014 144.105 189.536 144.105C190.08 144.105 190.486 144.015 190.752 143.833C191.019 143.652 191.152 143.412 191.152 143.113C191.152 142.921 191.094 142.745 190.976 142.585C190.87 142.415 190.672 142.255 190.384 142.105C190.107 141.945 189.712 141.791 189.2 141.641C188.262 141.353 187.59 141.001 187.184 140.585C186.779 140.159 186.576 139.663 186.576 139.097C186.576 138.649 186.704 138.255 186.96 137.913C187.227 137.561 187.59 137.284 188.048 137.081C188.507 136.879 189.03 136.777 189.616 136.777C190.075 136.777 190.544 136.857 191.024 137.017C191.515 137.167 191.947 137.396 192.32 137.705L191.504 138.761C191.248 138.548 190.944 138.372 190.592 138.233C190.251 138.084 189.878 138.009 189.472 138.009C188.982 138.009 188.608 138.1 188.352 138.281C188.107 138.463 187.984 138.681 187.984 138.937C187.984 139.14 188.038 139.316 188.144 139.465C188.262 139.604 188.459 139.737 188.736 139.865C189.024 139.993 189.419 140.132 189.92 140.281C190.624 140.484 191.168 140.724 191.552 141.001C191.947 141.268 192.224 141.561 192.384 141.881C192.544 142.201 192.624 142.553 192.624 142.937C192.624 143.396 192.491 143.807 192.224 144.169C191.958 144.532 191.584 144.82 191.104 145.033C190.624 145.236 190.059 145.337 189.408 145.337C188.79 145.337 188.208 145.231 187.664 145.017C187.12 144.804 186.662 144.532 186.288 144.201ZM194.304 144.201L195.168 143.209C195.456 143.444 195.792 143.652 196.176 143.833C196.571 144.015 197.029 144.105 197.552 144.105C198.096 144.105 198.501 144.015 198.768 143.833C199.035 143.652 199.168 143.412 199.168 143.113C199.168 142.921 199.109 142.745 198.992 142.585C198.885 142.415 198.688 142.255 198.4 142.105C198.123 141.945 197.728 141.791 197.216 141.641C196.277 141.353 195.605 141.001 195.2 140.585C194.795 140.159 194.592 139.663 194.592 139.097C194.592 138.649 194.72 138.255 194.976 137.913C195.243 137.561 195.605 137.284 196.064 137.081C196.523 136.879 197.045 136.777 197.632 136.777C198.091 136.777 198.56 136.857 199.04 137.017C199.531 137.167 199.963 137.396 200.336 137.705L199.52 138.761C199.264 138.548 198.96 138.372 198.608 138.233C198.267 138.084 197.893 138.009 197.488 138.009C196.997 138.009 196.624 138.1 196.368 138.281C196.123 138.463 196 138.681 196 138.937C196 139.14 196.053 139.316 196.16 139.465C196.277 139.604 196.475 139.737 196.752 139.865C197.04 139.993 197.435 140.132 197.936 140.281C198.64 140.484 199.184 140.724 199.568 141.001C199.963 141.268 200.24 141.561 200.4 141.881C200.56 142.201 200.64 142.553 200.64 142.937C200.64 143.396 200.507 143.807 200.24 144.169C199.973 144.532 199.6 144.82 199.12 145.033C198.64 145.236 198.075 145.337 197.424 145.337C196.805 145.337 196.224 145.231 195.68 145.017C195.136 144.804 194.677 144.532 194.304 144.201ZM201.68 136.937H203.248L205.248 143.641H204.848L206.944 136.937H208.144L210.272 143.641H209.872L211.84 136.937H213.344L210.592 145.177H209.44L207.296 138.729H207.744L205.584 145.177H204.432L201.68 136.937ZM214.384 141.065C214.384 140.137 214.544 139.359 214.864 138.729C215.184 138.089 215.621 137.604 216.176 137.273C216.731 136.943 217.365 136.777 218.08 136.777C218.795 136.777 219.429 136.943 219.984 137.273C220.539 137.604 220.976 138.089 221.296 138.729C221.616 139.359 221.776 140.137 221.776 141.065C221.776 141.983 221.616 142.761 221.296 143.401C220.976 144.041 220.539 144.527 219.984 144.857C219.429 145.177 218.795 145.337 218.08 145.337C217.365 145.337 216.731 145.177 216.176 144.857C215.621 144.527 215.184 144.041 214.864 143.401C214.544 142.761 214.384 141.983 214.384 141.065ZM215.888 141.065C215.888 141.705 215.973 142.249 216.144 142.697C216.325 143.135 216.576 143.471 216.896 143.705C217.227 143.929 217.621 144.041 218.08 144.041C218.539 144.041 218.928 143.929 219.248 143.705C219.579 143.471 219.829 143.135 220 142.697C220.181 142.249 220.272 141.705 220.272 141.065C220.272 140.425 220.181 139.887 220 139.449C219.829 139.001 219.579 138.66 219.248 138.425C218.928 138.191 218.539 138.073 218.08 138.073C217.621 138.073 217.227 138.191 216.896 138.425C216.576 138.66 216.325 139.001 216.144 139.449C215.973 139.887 215.888 140.425 215.888 141.065ZM223.86 136.937H225.236L225.508 138.249C225.817 137.791 226.196 137.433 226.644 137.177C227.103 136.911 227.615 136.777 228.18 136.777V138.361C227.615 138.383 227.113 138.484 226.676 138.665C226.239 138.836 225.871 139.076 225.572 139.385V145.177H224.1V138.889C224.1 138.665 224.089 138.463 224.068 138.281C224.057 138.089 224.031 137.876 223.988 137.641L223.86 136.937ZM229.462 141.129C229.462 140.223 229.601 139.444 229.878 138.793C230.166 138.143 230.561 137.647 231.062 137.305C231.574 136.953 232.171 136.777 232.854 136.777C233.259 136.777 233.659 136.873 234.054 137.065C234.449 137.247 234.779 137.54 235.046 137.945V133.737L236.518 133.417V143.225C236.518 143.449 236.523 143.657 236.534 143.849C236.555 144.031 236.587 144.239 236.63 144.473L236.758 145.177H235.382L235.142 143.993C234.79 144.388 234.39 144.713 233.942 144.969C233.494 145.215 233.025 145.337 232.534 145.337C231.979 145.337 231.467 145.172 230.998 144.841C230.529 144.5 230.155 144.015 229.878 143.385C229.601 142.756 229.462 142.004 229.462 141.129ZM230.966 141.081C230.966 141.7 231.051 142.228 231.222 142.665C231.393 143.092 231.627 143.417 231.926 143.641C232.225 143.865 232.561 143.977 232.934 143.977C233.307 143.977 233.67 143.887 234.022 143.705C234.385 143.513 234.726 143.252 235.046 142.921V140.649C235.046 140.031 234.95 139.529 234.758 139.145C234.577 138.761 234.337 138.479 234.038 138.297C233.739 138.105 233.43 138.009 233.11 138.009C232.449 138.009 231.926 138.297 231.542 138.873C231.158 139.439 230.966 140.175 230.966 141.081Z" fill="white" fill-opacity="0.8"/>
</g>
<defs>
<linearGradient id="paint0_linear_152_7" x1="34.2117" y1="108.587" x2="25.6605" y2="71.6846" gradientUnits="userSpaceOnUse">
<stop stop-color="#FFFFD6"/>
<stop offset="0.14" stop-color="#F0F2D2"/>
<stop offset="0.4" stop-color="#CBD1C9"/>
<stop offset="0.76" stop-color="#909CBA"/>
<stop offset="1" stop-color="#6475B0"/>
</linearGradient>
<linearGradient id="paint1_linear_152_7" x1="29.8136" y1="105.114" x2="22.2938" y2="72.6624" gradientUnits="userSpaceOnUse">
<stop/>
<stop offset="1" stop-color="white"/>
</linearGradient>
<linearGradient id="paint2_linear_152_7" x1="43.6166" y1="104.988" x2="37.6893" y2="79.4088" gradientUnits="userSpaceOnUse">
<stop/>
<stop offset="1" stop-color="white"/>
</linearGradient>
<linearGradient id="paint3_linear_152_7" x1="46.0106" y1="152.771" x2="34.0176" y2="101.015" gradientUnits="userSpaceOnUse">
<stop stop-color="#A190F0"/>
<stop offset="1" stop-color="#D4BDF0"/>
</linearGradient>
<linearGradient id="paint4_linear_152_7" x1="49.8672" y1="149.541" x2="38.3562" y2="99.8657" gradientUnits="userSpaceOnUse">
<stop stop-color="#8D78ED"/>
<stop offset="1" stop-color="#BE9BE8"/>
</linearGradient>
<linearGradient id="paint5_linear_152_7" x1="47.7007" y1="135.866" x2="41.3071" y2="108.274" gradientUnits="userSpaceOnUse">
<stop stop-color="#D6CAFF"/>
<stop offset="0.21" stop-color="#C8BBF2"/>
<stop offset="0.6" stop-color="#A496D3"/>
<stop offset="1" stop-color="#7A6AAD"/>
</linearGradient>
<clipPath id="clip0_152_7">
<rect width="55.3998" height="83.5857" fill="white" transform="translate(0.439453 77.5288) rotate(-13.0465)"/>
</clipPath>
</defs>
</svg>
