<svg width="488" height="241" viewBox="0 0 488 241" fill="none" xmlns="http://www.w3.org/2000/svg">
<g opacity="0.5" clip-path="url(#clip0_6610_6910)">
<path d="M455.874 4.09677L458.952 4.05939C459.098 17.187 444.976 26.4205 431.238 27.7583C425.867 28.284 420.412 28.0444 415.129 27.8139C407.673 27.491 400.636 27.1869 393.709 28.8046C379.622 32.0986 368.679 42.8635 358.092 53.2789C347.297 63.8993 336.133 74.881 321.383 78.5019C310.716 81.1144 299.71 79.4365 289.066 77.8037C285.153 77.2047 281.103 76.5848 277.161 76.1972C270.522 75.5465 248.194 74.5977 239.609 89.7462C236.031 96.0593 235.838 103.465 235.623 111.307C235.41 119.155 235.195 127.272 231.279 134.244C223.383 148.289 203.841 151.117 188.619 146.648C180.143 144.163 172.261 139.983 164.643 135.943C158.897 132.894 152.947 129.74 146.848 127.379C134.362 122.538 116.039 120.792 105.485 131.788C96.7844 140.851 96.774 153.819 96.7607 167.556C96.7544 173.786 96.7459 180.234 95.86 186.294C93.7125 200.937 84.9202 214.738 71.7388 224.153C58.5574 233.569 42.654 237.424 28.1041 234.713L28.6651 231.685C42.3889 234.242 57.4358 230.59 69.9454 221.65C82.4477 212.712 90.7869 199.664 92.8118 185.845C93.6711 180.004 93.6761 173.67 93.6788 167.555C93.6921 153.817 93.7076 139.611 103.262 129.657C114.851 117.584 133.951 119.08 147.963 124.513C154.239 126.946 160.266 130.14 166.089 133.229C173.572 137.199 181.316 141.303 189.489 143.699C203.54 147.825 221.491 145.38 228.595 132.739C232.141 126.428 232.334 119.047 232.549 111.23C232.762 103.356 232.977 95.2156 236.93 88.232C243.336 76.9154 258.493 71.2707 277.462 73.1402C281.487 73.5335 285.578 74.1562 289.535 74.7654C299.88 76.349 310.58 77.98 320.653 75.51C334.573 72.1 345.438 61.4171 355.938 51.0859C366.825 40.3716 378.087 29.2934 393.011 25.8106C400.353 24.0997 407.93 24.4238 415.264 24.7455C420.44 24.9701 425.789 25.2037 430.94 24.7002C443.289 23.4946 456.002 15.4593 455.874 4.09677Z" fill="#F7F7F7"/>
<path d="M454.95 5.13912L458.031 5.16508C457.901 18.6405 443.417 27.829 429.487 28.9214C424.105 29.3618 418.638 29.0125 413.359 28.6676C405.81 28.1807 398.684 27.7272 391.635 29.3437C377.654 32.5389 366.79 43.1975 356.28 53.4993C345.777 63.7988 334.916 74.4404 320.713 78.1762C310.215 80.9365 299.451 79.6335 289.057 78.3732C285.261 77.9141 281.332 77.4415 277.501 77.1719C271.025 76.7273 249.211 76.4215 240.413 91.283C236.704 97.5412 236.186 104.995 235.678 112.203C235.15 119.749 234.597 127.546 230.473 134.197C221.934 147.955 202.132 149.977 187.346 146.032C178.887 143.776 171.054 139.846 163.482 136.051C157.857 133.229 152.049 130.313 146.058 128.135C132.972 123.416 115.245 122.116 104.745 132.625C95.9716 141.413 95.6843 154.074 95.3847 167.474C95.2494 173.454 95.1169 179.643 94.1626 185.491C91.805 199.959 82.9315 213.608 69.8142 222.946C57.072 232.018 41.8553 235.846 28.0691 233.447L28.5961 230.414C41.5755 232.669 55.9479 229.032 68.028 220.44C80.4809 211.575 88.9017 198.655 91.1245 184.998C92.0403 179.357 92.1766 173.28 92.3133 167.405C92.6155 153.987 92.9246 140.114 102.574 130.454C114.087 118.923 133.125 120.204 147.109 125.249C153.268 127.494 159.163 130.455 164.863 133.309C172.292 137.037 179.98 140.892 188.138 143.067C202.304 146.849 220.491 144.457 227.859 132.588C231.586 126.583 232.085 119.499 232.613 112.002C233.144 104.439 233.697 96.6177 237.77 89.7326C244.317 78.6779 259.25 72.8387 277.721 74.1165C281.633 74.3845 285.598 74.8696 289.435 75.3316C299.552 76.5599 310.013 77.8233 319.944 75.2132C333.349 71.686 343.923 61.3313 354.138 51.3186C364.955 40.7156 376.141 29.751 390.964 26.3573C398.452 24.6478 406.14 25.1386 413.572 25.6146C418.742 25.9463 424.094 26.2919 429.254 25.8664C441.804 24.8794 454.854 16.8646 454.969 5.14905L454.95 5.13912Z" fill="#EFF4F7"/>
<path d="M385.12 27.9007C386.344 27.5064 387.591 27.1611 388.874 26.8769C396.531 25.1618 404.346 25.8218 411.908 26.45C417.055 26.8862 422.374 27.3313 427.533 27.0032C440.003 26.2199 453.669 18.031 454.021 6.17425L457.099 6.26591C456.694 20.0404 441.843 29.1936 427.724 30.0797C422.341 30.4153 416.905 29.9593 411.651 29.5172C403.986 28.8733 396.745 28.2629 389.55 29.878C375.68 32.9891 364.882 43.529 354.444 53.7269C344.239 63.6958 333.68 74.0215 320.024 77.8481C309.688 80.7584 299.183 79.833 289.019 78.9352C285.339 78.6087 281.545 78.2787 277.826 78.1344C271.511 77.8886 250.205 78.2281 241.19 92.8196C237.363 99.0109 236.527 106.155 235.71 113.058C234.859 120.304 233.976 127.802 229.63 134.144C220.848 146.971 200.875 148.967 186.035 145.403C177.637 143.386 169.917 139.735 162.445 136.199C156.901 133.577 151.176 130.869 145.242 128.867C132.177 124.464 114.468 123.345 103.979 133.438C95.1184 141.954 94.5688 154.303 93.9779 167.377C93.721 173.105 93.4548 179.03 92.4393 184.663C89.9441 198.529 81.3448 211.773 68.8543 220.999C56.3368 230.241 41.4488 234.311 28.0083 232.156L28.4915 229.113C54.8841 233.338 84.4907 211.471 89.4141 184.109C90.3886 178.676 90.6561 172.856 90.9048 167.227C91.4935 154.122 92.1014 140.573 101.845 131.206C113.329 120.162 132.296 121.247 146.223 125.939C152.32 127.993 158.14 130.744 163.761 133.405C171.088 136.867 178.664 140.451 186.749 142.399C200.599 145.724 219.134 144.013 227.084 132.393C231 126.675 231.803 119.881 232.654 112.684C233.508 105.445 234.388 97.9636 238.57 91.1892C245.249 80.3913 259.964 74.3552 277.94 75.0487C281.731 75.1937 285.577 75.5316 289.288 75.856C299.628 76.7701 309.398 77.6249 319.195 74.8723C332.104 71.2379 342.363 61.211 352.3 51.5145C362.118 41.9288 372.237 32.0442 385.132 27.8887L385.12 27.9007Z" fill="#E7F1F8"/>
<path d="M382.907 28.4602C384.175 28.0517 385.476 27.6972 386.798 27.4085C394.6 25.6949 402.526 26.5215 410.191 27.3188C415.329 27.8546 420.65 28.4045 425.814 28.164C438.459 27.5748 452.487 19.4066 453.081 7.22116L456.154 7.37119C455.463 21.4642 440.252 30.5797 425.956 31.24C420.561 31.4904 415.131 30.9273 409.875 30.3805C402.111 29.5749 394.779 28.8078 387.459 30.4143C373.682 33.4387 362.964 43.8724 352.59 53.9686C342.685 63.6144 332.441 73.5878 319.322 77.5244C309.14 80.5872 298.885 80.0343 288.963 79.5114C285.408 79.3225 281.739 79.13 278.131 79.1036C270.244 79.0491 250.926 80.4382 241.952 94.3534C238.011 100.468 236.857 107.278 235.744 113.864C234.562 120.836 233.343 128.047 228.765 134.092C219.716 146.042 200.118 148.071 184.703 144.781C176.356 142.998 168.707 139.616 161.31 136.338C155.866 133.927 150.244 131.437 144.4 129.616C131.322 125.548 113.63 124.634 103.188 134.267C94.2419 142.52 93.4082 154.564 92.5283 167.319C92.1474 172.788 91.7622 178.444 90.6856 183.862C88.0166 197.338 79.52 210.299 67.3638 219.433C55.1758 228.593 40.7907 232.768 27.9097 230.894L28.3515 227.848C53.5764 231.511 82.4068 209.846 87.6632 183.267C88.6989 178.048 89.0831 172.489 89.4533 167.113C90.336 154.317 91.2497 141.09 101.093 132.006C115.452 118.766 138.564 124.581 145.306 126.679C151.319 128.55 157.027 131.078 162.546 133.522C169.8 136.732 177.291 140.052 185.332 141.764C199.324 144.752 218.11 143.041 226.295 132.227C230.423 126.788 231.52 120.255 232.69 113.344C233.856 106.449 235.062 99.3236 239.35 92.6768C249.154 77.4749 269.742 75.9597 278.138 76.0121C281.809 76.0342 285.522 76.2368 289.108 76.4237C299.213 76.9605 308.75 77.4697 318.417 74.5649C330.799 70.8497 340.78 61.139 350.419 51.7487C360.127 42.2957 370.144 32.5489 382.878 28.4453L382.907 28.4602Z" fill="#DFEEF8"/>
<path d="M380.531 29.0722C381.901 28.6306 383.3 28.2527 384.729 27.9457C392.678 26.2335 400.706 27.2291 408.472 28.188C413.609 28.8212 418.934 29.4831 424.109 29.3279C436.939 28.9378 451.311 20.7803 452.156 8.27121L455.231 8.47725C454.269 22.7063 438.37 31.9707 424.202 32.4035C418.786 32.5636 413.347 31.8981 408.091 31.2467C400.233 30.2771 392.819 29.3582 385.376 30.9562C371.351 33.9635 360.885 43.9517 349.808 54.5254C340.424 63.4777 330.718 72.7359 318.711 77.1875C308.957 80.7999 299.018 80.5009 289.412 80.2076C285.818 80.0962 282.101 79.9836 278.468 80.0787C270.779 80.2841 251.919 82.245 242.741 95.9026C238.701 101.912 237.246 108.39 235.833 114.644C234.246 121.666 232.753 128.302 227.926 134.054C218.695 145.06 198.917 147.058 183.41 144.162C175.105 142.609 167.543 139.497 160.224 136.486C154.88 134.285 149.36 132.012 143.607 130.372C137.257 128.561 115.514 123.558 102.446 135.105C93.4071 143.096 92.2915 154.843 91.1178 167.288C90.6276 172.493 90.116 177.882 88.9954 183.064C86.1576 196.142 77.7587 208.829 65.9419 217.861C54.0809 226.932 40.2108 231.224 27.8819 229.633L28.2728 226.579C52.3396 229.685 80.3865 208.224 85.9809 182.417C87.0704 177.416 87.5639 172.121 88.0508 167.007C89.2347 154.518 90.4497 141.599 100.409 132.801C103.695 129.898 107.449 127.944 111.369 126.681C124.433 122.471 139.274 125.938 144.457 127.413C150.38 129.104 155.983 131.407 161.401 133.64C168.907 136.729 175.994 139.645 183.981 141.139C198.611 143.874 217.144 142.131 225.575 132.079C229.923 126.9 231.337 120.622 232.84 113.966C234.31 107.435 235.836 100.675 240.198 94.1828C250.174 79.338 270.237 77.2236 278.397 76.996C282.118 76.8969 285.882 77.0101 289.518 77.1243C299.255 77.4238 308.459 77.7009 317.651 74.3019C329.067 70.0732 338.537 61.0366 347.7 52.3012C357.548 42.9081 367.704 33.2138 380.548 29.0748L380.531 29.0722Z" fill="#D7EBF8"/>
<path d="M378.278 29.636C379.707 29.1756 381.166 28.7861 382.664 28.4651C390.754 26.7641 398.875 27.9237 406.734 29.0467C411.881 29.7822 417.204 30.5415 422.405 30.4669C435.414 30.2781 450.136 22.129 451.242 9.3012L454.312 9.56561C453.064 24.1131 436.805 33.3399 422.452 33.5493C417.01 33.6287 411.568 32.8513 406.302 32.0975C398.358 30.9615 390.856 29.8932 383.296 31.4803C369.252 34.429 358.269 44.843 347.651 54.9125C338.649 63.4425 329.344 72.2641 318.047 76.8349C308.517 80.6905 298.849 80.7326 289.496 80.7705C285.983 80.7864 282.348 80.8012 278.804 81.0214C271.321 81.4918 252.904 84.0219 243.522 97.4218C239.4 103.303 237.652 109.423 235.957 115.331C234.017 122.111 232.181 128.51 227.072 133.99C217.061 144.737 196.592 145.842 182.104 143.523C173.85 142.204 166.358 139.361 159.114 136.608C153.874 134.625 148.456 132.57 142.791 131.104C136.422 129.46 114.645 124.953 101.673 135.919C92.5247 143.647 91.127 155.121 89.6521 167.258C89.0525 172.199 88.4318 177.3 87.2601 182.247C80.8955 209.127 52.5611 231.101 27.8164 228.351L28.1562 225.29C51.0673 227.846 78.3357 206.58 84.2656 181.538C85.3943 176.759 86.0092 171.74 86.5958 166.885C88.0762 154.689 89.6167 142.077 99.6853 133.567C113.402 121.973 134.934 125.896 143.561 128.122C149.391 129.624 154.884 131.712 160.2 133.727C167.626 136.543 174.647 139.205 182.587 140.48C196.326 142.684 215.638 141.75 224.819 131.893C229.423 126.956 231.159 120.897 233 114.489C234.768 108.33 236.589 101.961 241.003 95.6536C251.148 81.1586 270.687 78.4449 278.616 77.9522C282.255 77.7257 285.931 77.7137 289.49 77.6909C298.965 77.6542 307.912 77.6099 316.892 73.98C327.652 69.623 336.74 61.0085 345.532 52.676C355.362 43.3533 365.5 33.7537 378.278 29.636Z" fill="#CFE8F8"/>
<path d="M376.297 30.1369C377.696 29.686 379.126 29.3059 380.59 29.0041C388.818 27.3069 397.035 28.6379 404.98 29.9273C410.135 30.7651 415.468 31.6267 420.692 31.6254C433.869 31.6331 448.944 23.4997 450.31 10.3458L453.371 10.6613C451.828 25.5223 435.209 34.7114 420.688 34.7C415.22 34.6988 409.767 33.8117 404.485 32.958C396.465 31.6606 388.879 30.4332 381.21 32.007C367.71 34.7883 357.182 44.9342 347.001 54.75C338.017 63.4117 328.73 72.3649 317.276 76.5251C307.532 80.0695 297.996 80.6679 288.776 81.2451C285.621 81.4448 282.355 81.6483 279.133 81.9666C271.845 82.6897 253.872 85.7964 244.3 98.9339C240.134 104.652 238.102 110.394 236.138 115.944C233.821 122.506 231.629 128.704 226.209 133.92C216.126 143.639 196.141 144.919 180.794 142.87C172.588 141.777 165.17 139.21 157.996 136.726C152.863 134.951 147.547 133.114 141.973 131.828C133.786 129.938 113.407 126.63 100.898 136.727C91.6285 144.203 89.9463 155.396 88.1676 167.243C87.4686 171.901 86.7435 176.728 85.5305 181.422C78.814 207.461 51.2827 229.216 27.7542 227.053L28.0356 223.986C49.796 225.983 76.2906 204.926 82.5488 180.652C83.7213 176.109 84.4334 171.366 85.1243 166.785C86.9969 154.325 88.7699 142.56 98.9695 134.332C112.531 123.386 134.048 126.837 142.673 128.829C148.405 130.152 153.793 132.015 159.009 133.82C166.364 136.367 173.308 138.763 181.209 139.816C195.837 141.766 214.785 140.658 224.077 131.695C228.973 126.988 230.947 121.394 233.235 114.914C235.269 109.156 237.376 103.195 241.806 97.1172C252.114 82.9744 271.128 79.6615 278.823 78.8962C282.098 78.5687 285.396 78.3631 288.575 78.1636C297.993 77.5713 306.893 77.008 316.219 73.6225C327.058 69.685 336.111 60.9607 344.859 52.5206C354.281 43.4348 364 34.0672 376.287 30.1076L376.297 30.1369Z" fill="#C7E6F9"/>
<path d="M374.097 30.6923C375.533 30.2295 377.01 29.8426 378.52 29.534C386.882 27.8503 395.185 29.3477 403.216 30.8035C408.385 31.734 413.728 32.7052 418.978 32.7845C432.334 32.9936 447.752 24.8709 449.386 11.3959L452.44 11.7624C450.601 26.937 433.622 36.0884 418.935 35.8636C413.44 35.7745 407.97 34.7874 402.672 33.8337C394.566 32.3699 386.914 30.9861 379.13 32.5563C365.716 35.2533 355.245 45.3242 345.118 55.0578C336.456 63.3892 327.494 71.9952 316.6 76.2096C306.978 79.9329 297.672 80.9182 288.677 81.8677C285.667 82.1906 282.56 82.5125 279.479 82.9394C272.395 83.9202 254.857 87.5983 245.083 100.486C240.907 105.997 238.631 111.332 236.422 116.5C233.7 122.885 231.125 128.923 225.349 133.89C212.647 144.842 187.038 143.074 179.492 142.27C171.343 141.402 163.99 139.114 156.887 136.898C151.853 135.333 146.648 133.711 141.169 132.597C130.958 130.526 112.055 128.409 100.137 137.579C90.7385 144.805 88.7619 155.738 86.6671 167.307C85.876 171.678 85.0541 176.205 83.8168 180.648C76.7582 205.851 50.0203 227.383 27.7176 225.812L27.9333 222.742C48.5527 224.185 74.2711 203.328 80.8552 179.815C82.057 175.513 82.8635 171.064 83.6441 166.76C85.8448 154.591 87.9316 143.097 98.2673 135.141C111.159 125.228 131.068 127.401 141.791 129.583C147.418 130.729 152.701 132.367 157.807 133.957C165.097 136.225 171.975 138.368 179.822 139.204C187.059 139.977 211.578 141.7 223.343 131.552C228.573 127.052 230.901 121.603 233.591 115.293C235.76 110.203 238.22 104.436 242.626 98.6327C253.091 84.8274 271.585 80.9299 279.049 79.8994C282.177 79.4657 285.313 79.1344 288.347 78.8117C297.551 77.8351 306.249 76.9167 315.489 73.3406C325.809 69.3516 334.54 60.9576 342.988 52.8407C352.324 43.8636 361.952 34.6143 374.1 30.6996L374.097 30.6923Z" fill="#BFE3F9"/>
<path d="M371.902 31.2549C373.382 30.778 374.895 30.3793 376.447 30.0735C384.935 28.4056 393.327 30.0768 401.441 31.6916C406.626 32.7221 411.986 33.7933 417.262 33.9532C430.842 34.3568 446.609 25.8141 448.449 12.4507L451.495 12.8683C449.364 28.3637 432.015 37.4724 417.16 37.0268C411.631 36.8595 406.136 35.7675 400.829 34.7114C392.647 33.0862 384.921 31.5483 377.032 33.0955C363.693 35.7202 353.278 45.7163 343.201 55.3773C334.866 63.3688 326.241 71.6397 315.898 75.8865C306.385 79.7934 297.3 81.168 288.511 82.5042C285.666 82.9359 282.721 83.3835 279.799 83.9045C272.912 85.1453 255.809 89.395 245.841 102.03C241.713 107.266 239.232 112.166 236.826 116.92C233.652 123.184 230.657 129.099 224.463 133.845C212.66 142.897 190.394 142.616 178.175 141.644C170.073 140.996 162.787 138.992 155.747 137.047C150.821 135.691 145.726 134.284 140.353 133.347C127.811 131.145 110.512 130.241 99.3558 138.414C89.8089 145.405 87.5233 156.081 85.1097 167.389C84.2412 171.47 83.3348 175.685 82.0735 179.852C74.68 204.217 48.7404 225.516 27.6514 224.548L27.7917 221.47C47.2724 222.366 72.2196 201.702 79.1247 178.958C80.3531 174.915 81.2394 170.763 82.0951 166.743C84.6339 154.845 87.0395 143.612 97.5281 135.93C109.562 127.118 127.747 128.011 140.88 130.314C146.399 131.277 151.565 132.702 156.563 134.083C163.788 136.074 170.612 137.951 178.423 138.572C190.21 139.513 211.615 139.829 222.598 131.397C228.236 127.081 230.95 121.726 234.089 115.53C236.446 110.872 239.113 105.597 243.433 100.129C254.047 86.6631 272.021 82.181 279.26 80.8756C282.225 80.3405 285.188 79.8954 288.055 79.4567C297.061 78.091 305.567 76.8056 314.736 73.0339C324.543 69.0082 332.945 60.9468 341.076 53.1505C350.33 44.2724 359.869 35.1245 371.893 31.25L371.902 31.2549Z" fill="#B7E0F9"/>
<path d="M369.711 31.8074C371.227 31.3187 372.78 30.9155 374.38 30.6101C382.992 28.9509 391.472 30.7957 399.663 32.572C404.864 33.7025 410.247 34.8712 415.554 35.102C429.302 35.7021 445.427 27.1654 447.531 13.4906L450.577 13.9569C448.147 29.7584 430.442 38.8368 415.421 38.1778C409.851 37.9346 404.337 36.7353 399.015 35.5793C390.761 33.7829 382.961 32.0909 374.965 33.6322C361.699 36.1846 351.334 46.1081 341.301 55.7063C333.296 63.3651 325.02 71.289 315.235 75.5584C305.804 79.6731 296.913 81.4464 288.32 83.1643C285.654 83.7 282.902 84.247 280.155 84.8573C273.463 86.3508 256.795 91.1721 246.636 103.569C242.649 108.436 239.903 113.066 237.479 117.163C233.64 123.649 230.317 129.249 223.604 133.79C214.817 139.751 199.103 142.187 176.882 141.017C168.828 140.596 161.601 138.873 154.609 137.204C149.791 136.055 144.815 134.869 139.552 134.098C121.165 131.402 107.384 133.134 98.5906 139.251C88.8707 146.006 86.2759 156.451 83.5312 167.509C82.5952 171.281 81.6287 175.183 80.3533 179.055C72.6323 202.579 47.4958 223.66 27.6229 223.279L27.6829 220.203C46.0395 220.547 70.213 200.092 77.4319 178.096C78.6697 174.333 79.6211 170.484 80.5443 166.773C83.4335 155.134 86.1653 144.136 96.8388 136.726C106.301 130.15 120.827 128.243 140.011 131.055C145.41 131.846 150.456 133.051 155.335 134.212C162.502 135.922 169.275 137.541 177.049 137.947C198.579 139.08 213.664 136.823 221.879 131.248C228.021 127.093 231.174 121.767 234.831 115.598C237.307 111.411 240.115 106.673 244.255 101.626C255.018 88.4936 272.474 83.4343 279.481 81.8636C282.258 81.2438 285.031 80.6898 287.712 80.1494C296.542 78.3876 304.877 76.7206 314.004 72.7441C323.286 68.6936 331.367 60.9699 339.174 53.4965C348.352 44.7077 357.817 35.6565 369.716 31.8221L369.711 31.8074Z" fill="#AFDDF9"/>
<path d="M367.525 32.3571C369.079 31.8566 370.677 31.4466 372.316 31.1368C381.055 29.4933 389.606 31.5093 397.883 33.452C403.107 34.6801 408.509 35.9561 413.847 36.2579C427.756 37.0567 444.244 28.5163 446.614 14.5375L449.652 15.0548C446.92 31.1722 428.851 40.2056 413.674 39.338C408.064 39.019 402.532 37.7124 397.176 36.4538C388.853 34.4936 380.987 32.6452 372.89 34.1709C359.697 36.651 349.364 46.5237 339.378 56.0663C331.717 63.3878 323.797 70.9622 314.563 75.2323C305.181 79.5738 296.456 81.7627 288.024 83.8815C285.569 84.4947 283.041 85.1316 280.504 85.8195C266.771 89.5333 254.712 96.5575 247.423 105.11C243.703 109.479 240.917 113.555 238.458 117.146C233.977 123.693 230.115 129.353 222.744 133.734C211.606 140.381 192.655 140.827 175.594 140.388C167.57 140.184 160.393 138.744 153.46 137.355C148.766 136.417 143.914 135.441 138.762 134.837C119.932 132.623 106.54 134.335 97.8265 140.07C87.9117 146.598 85.1239 156.368 81.9021 167.678C80.9182 171.125 79.8991 174.688 78.6365 178.249C70.5879 200.932 46.2669 221.783 27.5979 222L27.5605 218.923C44.7882 218.725 68.1978 198.459 75.7329 177.219C76.9677 173.748 77.9694 170.231 78.9358 166.83C82.1903 155.421 85.263 144.653 96.1311 137.495C105.48 131.344 119.538 129.467 139.116 131.771C144.388 132.393 149.298 133.375 154.052 134.325C161.176 135.75 167.903 137.1 175.659 137.302C191.308 137.702 210.624 137.357 221.152 131.077C227.94 127.046 231.451 121.903 235.898 115.399C238.398 111.738 241.237 107.597 245.06 103.097C255.576 90.7553 271.263 85.1014 279.687 82.8316C282.248 82.144 284.791 81.5024 287.26 80.8844C295.939 78.7024 304.134 76.6519 313.254 72.4269C322.017 68.3737 329.413 61.3077 337.234 53.8296C346.343 45.1278 355.729 36.1585 367.518 32.3595L367.525 32.3571Z" fill="#A7DAFA"/>
<path d="M365.334 32.9098C366.924 32.3974 368.559 31.9756 370.239 31.6686C379.104 30.0411 387.734 32.2258 396.073 34.3346C401.32 35.6603 406.745 37.034 412.124 37.4116C426.194 38.4092 443.04 29.8749 445.674 15.5846L448.701 16.1456C445.667 32.5789 427.238 41.5746 411.901 40.484C406.247 40.0817 400.691 38.6775 395.313 37.3213C386.921 35.1974 378.988 33.1924 370.788 34.7025C357.648 37.1174 347.362 46.9346 337.41 56.4338C330.1 63.4155 322.535 70.6332 313.862 74.8918C304.463 79.5058 296.239 82.0186 287.544 84.6752C285.327 85.3492 283.097 86.0353 280.831 86.7576C272.985 89.2376 258.336 95.1551 248.182 106.636C244.922 110.323 242.268 113.734 239.928 116.737C234.421 123.817 230.076 129.406 221.839 133.662C210.204 139.693 190.56 139.722 174.78 139.745L174.272 139.747C166.27 139.762 159.139 138.615 152.229 137.501C147.667 136.771 142.949 136.011 137.939 135.571C124.746 134.412 108.17 133.971 97.032 140.893C86.8857 147.203 83.7735 156.795 80.1642 167.906C79.1593 171.012 78.1146 174.22 76.8821 177.448C68.523 199.293 45.0027 219.918 27.5402 220.717L27.3981 217.641C43.5114 216.896 66.1619 196.835 74.0036 176.345C75.2109 173.19 76.2358 170.021 77.2305 166.959C80.8602 155.761 84.2938 145.184 95.3979 138.281C107.31 130.876 124.529 131.304 138.196 132.504C143.316 132.957 148.092 133.723 152.705 134.46C159.802 135.603 166.505 136.677 174.249 136.665L174.758 136.663C190.206 136.642 209.436 136.608 220.406 130.921C228.041 126.981 232.004 121.887 237.481 114.84C239.848 111.797 242.529 108.345 245.856 104.588C256.502 92.5515 271.715 86.4035 279.875 83.8146C282.153 83.0803 284.395 82.4065 286.617 81.7227C295.195 79.104 303.302 76.629 312.486 72.1247C320.732 68.0761 327.789 61.3377 335.261 54.2067C344.303 45.5748 353.623 36.6754 365.302 32.9119L365.334 32.9098Z" fill="#9FD7FA"/>
<path d="M363.15 33.46C364.777 32.9359 366.444 32.5119 368.173 32.2055C377.157 30.5961 385.858 32.952 394.273 35.2223C399.544 36.6455 405.002 38.1218 410.414 38.5776C424.653 39.7717 441.847 31.2384 444.753 16.6417L447.771 17.2464C444.536 33.4611 425.709 42.9494 410.149 41.6472C404.455 41.1691 398.866 39.6623 393.462 38.2011C385.001 35.9134 377.011 33.7569 368.707 35.244C355.616 37.5864 345.362 47.3771 335.44 56.8425C328.486 63.4748 321.3 70.336 313.183 74.5612C303.631 79.5316 295.427 82.5072 286.739 85.6628C284.906 86.3261 283.052 86.9965 281.175 87.6983C273.584 90.5168 259.293 96.9175 248.959 108.166C246.456 110.889 244.239 113.447 242.279 115.696C235.373 123.656 230.376 129.407 220.96 133.59C210.421 138.28 193.878 138.646 179.276 138.96C177.123 139.006 175.012 139.056 172.976 139.113C164.98 139.345 158.174 138.529 150.972 137.664C146.564 137.135 142.005 136.591 137.151 136.311C122.193 135.445 106.885 135.502 96.2723 141.72C85.8505 147.828 82.3941 157.28 78.3847 168.229C77.3812 170.963 76.345 173.796 75.1699 176.649C66.5003 197.656 43.8026 218.048 27.5343 219.441L27.273 216.371C42.2816 215.085 64.1756 195.211 72.3237 175.472C73.4764 172.674 74.5073 169.875 75.4936 167.163C79.528 156.142 83.3373 145.727 94.719 139.058C106.032 132.428 121.886 132.334 137.33 133.228C142.274 133.511 146.884 134.064 151.343 134.6C158.434 135.445 165.123 136.25 172.895 136.026C174.938 135.966 177.059 135.921 179.219 135.872C193.531 135.563 209.753 135.204 219.72 130.771C228.515 126.869 233.069 121.625 239.969 113.675C241.939 111.406 244.176 108.833 246.701 106.079C257.473 94.3578 272.261 87.7162 280.114 84.8054C282 84.1085 283.852 83.4308 285.699 82.7628C294.287 79.6475 302.404 76.7004 311.774 71.8207C319.497 67.8033 326.214 61.3926 333.32 54.606C342.308 46.032 351.559 37.1953 363.15 33.46Z" fill="#97D4FA"/>
<path d="M360.972 34.0079C362.635 33.472 364.341 33.0435 366.102 32.7349C375.205 31.1439 383.978 33.6709 392.462 36.1049C397.765 37.6308 403.247 39.2046 408.697 39.729C423.087 41.1169 440.639 32.5896 443.826 17.6841L446.841 18.3302C443.314 34.8414 424.117 44.3114 408.406 42.791C402.671 42.237 397.047 40.6203 391.612 39.0639C383.089 36.61 375.035 34.3044 366.627 35.7686C353.572 38.0504 343.343 47.8171 333.455 57.2633C326.875 63.5488 320.065 70.0462 312.513 74.2186C302.508 79.7395 294.084 83.3117 285.165 87.0834C283.963 87.5923 282.76 88.1012 281.53 88.6269C274.169 91.7594 260.26 98.6678 249.741 109.692C248.459 111.036 247.246 112.316 246.097 113.544C236.794 123.4 231.181 129.349 220.085 133.516C210.499 137.122 196.575 137.582 183.096 138.019C179.095 138.152 175.308 138.272 171.679 138.48C163.648 138.932 156.823 138.406 149.606 137.845C145.383 137.515 141.012 137.177 136.353 137.053C123.937 136.719 106.94 136.252 95.4959 142.552C84.7473 148.475 80.912 157.83 76.4754 168.658C75.5221 170.995 74.5291 173.41 73.4408 175.855C64.4753 196.02 42.6004 216.179 27.524 218.158L27.1236 215.109C41.0299 213.288 62.1747 193.599 70.6197 174.605C71.6881 172.198 72.6712 169.803 73.6243 167.49C78.0933 156.588 82.3055 146.293 94.0111 139.852C106.182 133.148 123.668 133.627 136.435 133.969C141.167 134.094 145.579 134.435 149.843 134.768C156.961 135.321 163.679 135.841 171.51 135.396C175.181 135.192 178.975 135.069 183 134.936C196.223 134.509 209.892 134.059 219.002 130.63C229.435 126.717 234.868 120.963 243.861 111.425C245.02 110.203 246.231 108.915 247.517 107.562C258.418 96.1395 272.753 89.0211 280.324 85.7886C281.547 85.2652 282.764 84.7516 283.959 84.245C292.805 80.4969 301.161 76.963 311.021 71.521C318.222 67.5423 324.588 61.4713 331.323 55.0389C340.26 46.5057 349.454 37.7195 360.965 34.0103L360.972 34.0079Z" fill="#8FD1FA"/>
<path d="M358.789 34.5588C360.482 34.0134 362.227 33.5805 364.036 33.2724C373.261 31.7069 382.102 34.3977 390.648 36.9979C395.975 38.6213 401.489 40.2978 406.987 40.8957C421.536 42.475 439.446 33.9537 442.909 18.7492L445.911 19.4316C442.084 36.2417 422.522 45.6837 406.655 43.9548C400.872 43.3273 395.222 41.6057 389.754 39.9467C381.165 37.3363 373.057 34.8622 364.553 36.3084C351.527 38.5248 341.319 48.2844 331.446 57.7259C325.245 63.6549 318.842 69.7863 311.846 73.8767C300.366 80.5927 290.973 85.1484 281.887 89.5562C274.766 93.0076 261.22 100.414 250.533 111.218C238.805 123.06 232.078 129.442 219.216 133.425C210.515 136.14 198.293 136.585 186.477 137.012C181.056 137.206 175.452 137.41 170.389 137.837C162.247 138.52 155.36 138.28 148.059 138.037C144.078 137.905 139.956 137.761 135.561 137.778L132.959 137.784C120.707 137.81 105.462 137.837 94.7248 143.368C83.5788 149.111 79.3276 158.431 74.4167 169.217C73.5554 171.113 72.6594 173.075 71.7121 175.055C62.4581 194.374 41.3986 214.303 27.5311 216.871L26.9674 213.842C39.8007 211.478 60.189 191.975 68.9308 173.727C69.8682 171.767 70.7542 169.823 71.6105 167.938C76.7652 156.628 81.2131 146.865 93.3086 140.63C104.704 134.758 120.36 134.727 132.946 134.707L135.541 134.703C139.991 134.685 144.138 134.828 148.151 134.958C155.354 135.201 162.159 135.435 170.118 134.762C175.252 134.329 180.89 134.13 186.349 133.931C197.966 133.512 209.974 133.079 218.284 130.482C230.496 126.692 236.645 120.853 248.329 109.049C259.342 97.9216 273.23 90.3241 280.532 86.7821C289.561 82.4005 298.906 77.8686 310.276 71.2124C316.958 67.3039 322.953 61.5627 329.302 55.4892C338.192 46.9872 347.348 38.2298 358.777 34.5465L358.789 34.5588Z" fill="#87CEFB"/>
<path d="M356.61 35.0993C358.339 34.5421 360.123 34.1047 361.964 33.7945C371.3 32.2495 380.213 35.1114 388.828 37.8754C394.186 39.5941 399.733 41.3732 405.269 42.0396C419.972 43.8201 438.237 35.2975 441.981 19.7842L444.973 20.5103C440.843 37.6119 420.919 47.0332 404.898 45.1032C399.065 44.3948 393.384 42.578 387.881 40.8091C379.23 38.0326 371.059 35.4167 362.459 36.8375C349.445 38.9932 339.25 48.765 329.391 58.2262C323.59 63.7916 317.59 69.5424 311.155 73.541C300.465 80.1725 292.083 85.0815 282.221 90.4919C275.34 94.262 262.167 102.171 251.293 112.752C239.486 124.248 231.924 129.944 218.316 133.343C210.46 135.316 200.281 135.653 189.512 136.017C182.606 136.245 175.461 136.485 169.076 137.2C160.7 138.137 153.622 138.209 146.136 138.293C142.508 138.33 138.754 138.375 134.755 138.515C133.068 138.573 131.312 138.622 129.517 138.674C117.569 138.99 104.032 139.349 93.9421 144.202C82.3034 149.797 77.8227 158.706 72.1473 169.981C71.4443 171.388 70.724 172.817 69.9718 174.273C60.4536 192.747 40.2315 212.439 27.5364 215.583L26.7921 212.596C38.5501 209.681 58.2062 190.366 67.2279 172.86C67.9751 171.414 68.6904 169.995 69.3884 168.597C75.0935 157.264 80.0188 147.476 92.6018 141.423C103.282 136.291 117.171 135.924 129.431 135.596C131.219 135.546 132.96 135.503 134.638 135.439C138.668 135.297 142.447 135.252 146.089 135.21C153.495 135.129 160.499 135.055 168.727 134.134C175.229 133.406 182.432 133.171 189.4 132.932C200.002 132.58 210.018 132.24 217.562 130.351C230.477 127.135 237.74 121.64 249.142 110.542C260.273 99.7079 273.716 91.6313 280.734 87.7846C290.542 82.4078 298.89 77.5178 309.526 70.92C315.687 67.0988 321.301 61.7068 327.251 56.0041C336.105 47.514 345.217 38.7708 356.595 35.104L356.61 35.0993Z" fill="#7FCBFB"/>
<path d="M354.432 35.6472C356.198 35.0782 358.011 34.6313 359.889 34.3337C369.339 32.8166 378.314 35.8447 386.995 38.7652C392.386 40.5864 397.964 42.4607 403.548 43.2006C418.41 45.1727 437.023 36.6511 441.052 20.8436L444.038 21.6038C439.602 39.0066 419.312 48.3999 403.143 46.259C397.262 45.4772 391.546 43.5504 386.011 41.6863C377.301 38.751 369.072 35.9762 360.374 37.3717C347.356 39.4641 337.165 49.2749 327.316 58.7654C321.928 63.9552 316.355 69.3256 310.484 73.1911C307.467 75.1742 304.664 77.0401 301.987 78.8245C295.16 83.362 289.273 87.2809 282.571 91.4059C275.924 95.4973 263.127 103.899 252.074 114.271C239.565 126.001 231.152 130.613 217.433 133.239C210.398 134.6 201.606 134.821 192.299 135.054C183.996 135.263 175.405 135.484 167.772 136.545C158.816 137.789 151.294 138.215 143.32 138.666C140.324 138.831 137.228 139.012 133.951 139.235C131.481 139.4 128.926 139.528 126.218 139.656C115.163 140.186 102.632 140.779 93.1569 145.005C80.8962 150.477 75.9028 159.526 69.5926 170.99C69.1439 171.806 68.6901 172.632 68.229 173.459C58.4516 191.079 39.0645 210.526 27.5539 214.259L26.6095 211.329C37.3141 207.855 56.2355 188.72 65.5394 171.965C66.0005 171.137 66.4542 170.311 66.898 169.505C73.2304 158.01 78.7024 148.086 91.9118 142.196C101.918 137.734 114.758 137.122 126.083 136.578C128.775 136.447 131.308 136.326 133.753 136.161C137.044 135.933 140.15 135.757 143.153 135.59C151.057 135.146 158.523 134.721 167.348 133.495C175.151 132.412 183.829 132.187 192.22 131.974C201.398 131.742 210.069 131.52 216.854 130.215C229.913 127.721 237.957 123.293 249.968 112.03C261.214 101.475 274.209 92.9362 280.959 88.7874C287.614 84.6936 293.489 80.7868 300.28 76.261C302.963 74.4743 305.767 72.6084 308.791 70.623C314.429 66.9134 319.65 61.8826 325.186 56.5483C334.013 48.0506 343.09 39.3021 354.439 35.6448L354.432 35.6472Z" fill="#78C9FB"/>
<path d="M352.262 36.1926C354.057 35.6141 355.91 35.1628 357.828 34.868C367.393 33.3789 376.437 36.5707 385.179 39.6574C390.601 41.5739 396.212 43.5507 401.844 44.3642C416.857 46.53 435.828 38.0145 440.138 21.8982L443.112 22.6948C438.373 40.3891 417.721 49.7618 401.402 47.41C395.466 46.557 389.715 44.5204 384.15 42.561C375.381 39.4668 367.101 36.5382 358.299 37.9108C345.255 39.9469 335.068 49.8211 325.213 59.3699C320.024 64.3986 315.125 69.1477 309.81 72.8581C304.753 76.3885 300.387 79.6312 296.171 82.761C291.732 86.0517 287.543 89.1648 282.92 92.3368C276.517 96.7374 264.096 105.65 252.861 115.813C239.311 128.073 229.647 131.365 216.564 133.155C210.346 134.01 202.839 134.108 194.888 134.204C185.261 134.322 175.296 134.444 166.479 135.918C155.766 137.712 147.164 138.576 137.208 139.576L133.165 139.981C129.96 140.302 126.604 140.527 123.047 140.759C112.346 141.458 101.289 142.182 92.3912 145.842C79.3306 151.216 73.7329 160.573 66.6569 172.421L66.4985 172.683C56.4888 189.431 37.9489 208.62 27.6032 212.957L26.4121 210.114C36.0976 206.063 54.2895 187.099 63.8535 171.101L64.012 170.839C71.3849 158.507 77.2056 148.762 91.2147 142.994C100.575 139.137 112.408 138.364 122.839 137.68C126.364 137.45 129.699 137.232 132.847 136.913L136.89 136.508C146.793 135.517 155.339 134.655 165.961 132.882C175.008 131.366 185.095 131.245 194.841 131.121C202.695 131.025 210.106 130.933 216.137 130.098C228.896 128.356 237.751 125.316 250.781 113.523C262.153 103.235 274.694 94.2434 281.163 89.7972C285.737 86.649 289.909 83.5577 294.329 80.2814C298.564 77.1372 302.952 73.8874 308.041 70.3306C313.15 66.7593 317.963 62.0945 323.062 57.1599C331.862 48.6302 340.928 39.8452 352.248 36.1973L352.262 36.1926Z" fill="#70C6FB"/>
<path d="M350.086 36.7398C351.918 36.1496 353.802 35.6961 355.76 35.3968C365.439 33.9356 374.544 37.2936 383.346 40.5391C388.805 42.5485 394.444 44.6376 400.13 45.5149C417.149 48.1584 435.047 37.821 439.223 22.9449L442.192 23.7755C437.62 40.0815 418.146 51.4281 399.663 48.5605C393.679 47.634 387.887 45.4971 382.287 43.4278C373.458 40.1748 365.122 37.0947 356.231 38.4396C343.143 40.4169 332.946 50.3834 323.078 60.0174C318.36 64.6271 313.9 68.9839 309.147 72.5051C303.526 76.6701 298.833 80.5766 294.296 84.3434C290.614 87.3983 287.131 90.292 283.272 93.2501C277.129 97.9551 265.109 107.336 253.643 117.332C240.303 128.966 230.016 131.828 215.695 133.038C210.281 133.505 203.969 133.469 197.277 133.433C186.898 133.373 175.135 133.314 165.184 135.26C153.307 137.582 144.11 139.107 132.377 140.696C128.472 141.226 124.325 141.56 119.94 141.906C110.102 142.698 99.9303 143.509 91.6098 146.652C78.5732 151.572 72.5116 159.842 64.7595 171.876C54.5544 187.716 36.8715 206.654 27.6614 211.604L26.206 208.894C34.8923 204.227 52.379 185.433 62.1786 170.216C70.015 158.043 76.6439 149.024 90.5285 143.773C99.2619 140.482 109.651 139.641 119.695 138.838C124.039 138.49 128.14 138.163 131.967 137.642C143.631 136.066 152.783 134.549 164.591 132.24C174.845 130.229 186.773 130.3 197.288 130.356C203.9 130.393 210.153 130.424 215.426 129.971C229.092 128.81 238.913 126.082 251.609 115.011C263.144 104.953 275.213 95.5235 281.39 90.7993C285.205 87.8797 288.656 85.0125 292.319 81.972C296.894 78.1764 301.622 74.2508 307.307 70.0329C311.889 66.6316 316.275 62.3472 320.921 57.817C329.717 49.224 338.766 40.3877 350.094 36.7375L350.086 36.7398Z" fill="#68C3FC"/>
<path d="M347.907 37.2805C349.768 36.6808 351.691 36.2229 353.683 35.9288C363.469 34.4979 372.635 38.0221 381.496 41.4263C386.989 43.5383 392.666 45.7203 398.399 46.6711C415.584 49.5281 433.849 39.1456 438.282 23.9922L441.239 24.8592C436.387 41.4253 416.542 52.8022 397.897 49.7042C391.855 48.6992 386.03 46.4597 380.397 44.2879C371.516 40.8737 363.123 37.6421 354.134 38.9617C340.967 40.8919 330.751 50.9776 320.867 60.7379C316.639 64.9071 312.651 68.845 308.465 72.143C302.662 76.7225 297.936 81.1082 293.366 85.347C290.11 88.3696 287.036 91.2284 283.601 94.147C275.359 101.146 264.595 110.284 254.414 118.846C241.184 129.968 230.296 132.369 214.815 132.918C210.202 133.086 204.989 132.946 199.475 132.798C187.963 132.488 174.916 132.131 163.881 134.604C161.572 135.121 159.372 135.62 157.239 136.105C148.468 138.099 140.889 139.829 131.579 141.406C127.063 142.174 122.21 142.549 117.079 142.941C107.965 143.646 98.5415 144.369 90.8986 147.431C77.6047 152.758 70.6076 160.133 63.0125 171.072C52.8708 185.679 35.7177 204.705 27.7191 210.227L25.9722 207.692C33.7331 202.336 50.5051 183.684 60.4812 169.316C68.4147 157.895 75.7414 150.188 89.7514 144.574C97.8294 141.332 107.492 140.596 116.842 139.871C121.9 139.479 126.682 139.11 131.062 138.37C140.286 136.805 147.828 135.086 156.556 133.107C158.688 132.622 160.896 132.12 163.205 131.603C174.616 129.042 187.867 129.406 199.559 129.722C205.025 129.869 210.189 130.009 214.707 129.847C229.835 129.307 239.823 127.099 252.434 116.492C262.615 107.93 273.374 98.8014 281.616 91.8023C285.002 88.9319 288.052 86.0972 291.28 83.0914C295.893 78.8068 300.662 74.3825 306.563 69.731C310.614 66.5411 314.546 62.6538 318.706 58.5473C327.505 49.8642 336.563 40.9282 347.919 37.2685L347.907 37.2805Z" fill="#60C0FC"/>
<path d="M345.88 37.7963C347.734 37.199 349.649 36.7434 351.621 36.4637C361.514 35.0631 370.743 38.7534 379.665 42.3239C385.191 44.5384 390.909 46.8206 396.69 47.8449C414.04 50.9154 432.668 40.4806 437.365 25.0644L440.306 25.9604C435.177 42.794 414.954 54.2036 396.146 50.8751C390.056 49.7967 384.188 47.4497 378.517 45.1849C369.577 41.6119 361.129 38.2361 352.049 39.5207C338.775 41.3963 328.521 51.6642 318.606 61.58C314.9 65.2894 311.401 68.7867 307.785 71.8203C301.947 76.7183 297.315 81.5188 292.833 86.1577C290.002 89.092 287.072 92.1227 283.934 95.0832C276.883 101.714 266.172 111.491 255.179 120.395C240.655 132.169 227.907 132.993 213.928 132.831C210.107 132.793 205.912 132.576 201.476 132.339C188.897 131.678 174.632 130.929 162.564 133.985C158.339 135.055 154.477 136.122 150.742 137.156C144.215 138.96 138.046 140.673 130.776 142.158C125.715 143.191 120.247 143.667 114.463 144.164C106.035 144.89 97.3249 145.643 90.1098 148.276C77.7272 152.792 69.9141 158.763 61.2612 170.31C51.4192 183.438 34.8375 202.53 27.7924 208.852L25.7364 206.563C31.9609 200.982 48.0983 182.745 58.799 168.467C67.8467 156.388 76.0546 150.136 89.0579 145.388C96.6492 142.618 105.572 141.845 114.204 141.101C119.901 140.608 125.283 140.144 130.169 139.143C137.331 137.676 143.451 135.987 149.932 134.19C153.682 133.151 157.565 132.078 161.819 130.998C174.337 127.83 188.85 128.595 201.651 129.266C206.052 129.498 210.215 129.717 213.981 129.757C227.829 129.913 239.504 129.151 253.253 118.008C264.167 109.161 274.815 99.4371 281.836 92.8396C284.92 89.937 287.697 87.0606 290.625 84.0226C295.158 79.3184 299.852 74.4577 305.812 69.4636C309.32 66.5214 312.775 63.0626 316.434 59.4087C324.881 50.9607 334.291 41.5389 345.882 37.8037L345.88 37.7963Z" fill="#58BDFC"/>
<path d="M343.701 38.3367C345.592 37.7276 347.539 37.2699 349.552 36.9931C359.562 35.6277 368.842 39.4792 377.824 43.2085C383.388 45.5159 389.141 47.908 394.975 48.9961C412.491 52.2801 431.484 41.8002 436.449 26.1116L439.386 27.0417C433.976 44.1353 413.383 55.5754 394.414 52.0238C388.269 50.8741 382.358 48.4196 376.654 46.0523C367.655 42.3204 359.158 38.7908 349.979 40.05C336.555 41.8852 326.25 52.3716 316.287 62.5134C313.132 65.722 310.156 68.7595 307.122 71.4678C301.332 76.6414 296.84 81.8255 292.501 86.831C289.888 89.8405 287.196 92.9564 284.276 95.992C277.538 102.992 267.153 113.18 255.97 121.92C241.396 133.313 227.927 133.553 213.083 132.716C211.806 132.642 210.489 132.573 209.137 132.491C194.626 131.66 176.573 130.627 161.134 133.362C154.762 134.494 149.514 136.403 143.945 138.424C139.579 140.009 135.069 141.648 129.996 142.871C124.073 144.294 117.333 145.011 110.819 145.703C103.459 146.481 95.8435 147.293 89.2719 149.112C77.0003 152.516 68.6613 158.237 59.5243 169.511C51.0674 179.96 39.2695 193.92 32.2213 202.265C30.4525 204.356 28.9669 206.12 27.8731 207.419L25.5194 205.436C26.6059 204.14 28.0988 202.373 29.8676 200.282C36.9109 191.947 48.6891 178.001 57.1311 167.581C65.122 157.719 73.4974 150.305 88.4471 146.151C95.2701 144.259 103.005 143.441 110.496 142.644C117.213 141.927 123.556 141.258 129.283 139.882C134.193 138.704 138.615 137.093 142.901 135.534C148.344 133.553 153.971 131.513 160.602 130.331C176.393 127.531 194.65 128.571 209.318 129.416C210.669 129.49 211.98 129.569 213.257 129.643C227.977 130.472 240.326 130.245 254.081 119.496C265.127 110.857 275.396 100.787 282.067 93.8569C284.928 90.8888 287.48 87.9395 290.179 84.8213C294.583 79.7386 299.139 74.4772 305.073 69.1761C308.031 66.5327 310.98 63.5363 314.098 60.3638C322.576 51.736 332.02 42.1173 343.721 38.3467L343.701 38.3367Z" fill="#50BAFC"/>
<path d="M341.515 38.8798C343.442 38.2588 345.421 37.799 347.478 37.5323C357.589 36.2069 366.928 40.2173 375.967 44.098C381.572 46.5057 387.365 48.998 393.247 50.1596C410.929 53.657 430.286 43.1248 435.514 27.1735L438.442 28.1303C432.755 45.4914 411.782 56.9568 392.649 53.1747C386.447 51.9466 380.496 49.3919 374.751 46.9244C365.7 43.0313 357.151 39.3648 347.878 40.5818C334.245 42.371 323.411 53.6506 313.854 63.5968C311.293 66.266 308.87 68.7857 306.432 71.1081C300.732 76.5357 296.419 82.0746 292.244 87.4396C289.825 90.5484 287.319 93.7659 284.591 96.8936C278.148 104.283 268.083 114.886 256.727 123.439C242 134.534 228.417 134.196 212.196 132.597L212.069 132.582C197.154 131.12 176.722 129.131 159.819 132.719C153.595 134.037 148.491 136.191 143.078 138.469C138.742 140.295 134.256 142.186 129.176 143.588C122.589 145.411 115.04 146.227 107.75 147.023C101.195 147.736 94.4198 148.472 88.4581 149.924C75.4145 153.117 66.8 158.384 57.7406 168.719C46.3688 181.693 32.0481 199.143 27.9001 205.947L25.2723 204.343C29.5119 197.396 43.9733 179.755 55.4287 166.69C64.8256 155.971 74.1821 150.246 87.7285 146.932C93.8831 145.426 100.768 144.679 107.418 143.96C114.593 143.184 122.009 142.38 128.356 140.617C133.24 139.262 137.636 137.417 141.88 135.628C147.185 133.393 152.668 131.084 159.177 129.698C176.549 126.009 197.25 128.032 212.365 129.51L212.492 129.526C228.037 131.059 241.031 131.401 254.865 120.974C266.013 112.577 275.913 102.141 282.262 94.8619C284.931 91.8019 287.407 88.6181 289.804 85.5407C294.041 80.0911 298.431 74.4629 304.297 68.8763C306.686 66.6022 309.085 64.1066 311.621 61.4614C320.14 52.5857 329.65 42.695 341.505 38.8748L341.515 38.8798Z" fill="#48B7FD"/>
<path d="M339.328 39.4226C341.292 38.7899 343.317 38.3232 345.415 38.0594C355.636 36.7716 365.037 40.9481 374.125 44.9827C379.77 47.4906 385.601 50.0758 391.538 51.3086C409.384 55.0121 429.101 44.4445 434.597 28.2208L437.511 29.2067C431.544 46.8279 410.201 58.3237 390.907 54.3185C384.649 53.0192 378.665 50.3619 372.87 47.7892C363.762 43.7446 355.163 39.9243 345.799 41.1062C331.864 42.8632 320.955 54.5632 311.324 64.8812C309.4 66.9409 307.579 68.8945 305.764 70.7411C300.183 76.4133 296.064 82.3023 292.075 87.9953C289.816 91.2226 287.484 94.5539 284.927 97.7879C278.771 105.563 269.028 116.588 257.515 124.956C242.6 135.796 228.381 134.838 211.352 132.465C194.439 130.127 175.02 127.965 158.545 132.053C152.09 133.656 146.821 136.155 141.242 138.794C137.235 140.692 133.089 142.658 128.45 144.275C121.092 146.84 112.517 147.687 104.218 148.509C98.63 149.064 92.8525 149.632 87.6977 150.727C74.0484 153.621 64.8721 158.6 56.0103 167.918C45.1752 179.32 30.9849 197.124 27.9514 204.45L25.1051 203.273C28.3158 195.517 42.5215 177.635 53.7748 165.8C63.1016 155.993 72.7431 150.75 87.051 147.717C92.3717 146.584 98.2347 146.005 103.91 145.446C112.029 144.641 120.419 143.822 127.435 141.375C131.92 139.808 135.99 137.882 139.919 136.018C145.39 133.421 151.045 130.742 157.8 129.066C174.808 124.847 194.582 127.031 211.774 129.409C228.108 131.683 241.722 132.618 255.707 122.458C266.933 114.303 276.479 103.495 282.515 95.8723C285.02 92.7034 287.324 89.4133 289.556 86.2271C293.616 80.4301 297.815 74.4348 303.572 68.5842C305.363 66.7617 307.166 64.8298 309.078 62.7822C317.669 53.5761 327.251 43.3064 339.333 39.4129L339.328 39.4226Z" fill="#40B4FD"/>
<path d="M337.12 39.9727C339.12 39.3282 341.194 38.8621 343.342 38.5987C353.664 37.3509 363.117 41.6886 372.265 45.882C377.947 48.4828 383.814 51.1779 389.806 52.4818C407.811 56.4011 427.898 45.7788 433.665 29.29L436.571 30.3026C430.314 48.1789 408.603 59.7125 389.156 55.4817C382.84 54.104 376.808 51.3488 370.981 48.6736C361.823 44.4752 353.17 40.5106 343.71 41.6502C329.364 43.3861 318.348 55.6547 308.628 66.4781C307.42 67.8219 306.236 69.1417 305.081 70.4033C299.652 76.3181 295.729 82.54 291.934 88.5588C289.824 91.8996 287.647 95.359 285.243 98.7138C279.382 106.879 269.946 118.33 258.286 126.495C243.124 137.116 228.299 135.536 210.487 132.364L207.629 131.853C192.16 129.074 172.905 125.615 157.354 131.394C152.103 133.345 147.469 135.728 142.981 138.04C138.195 140.504 133.249 143.052 127.589 145.038C119.671 147.824 110.46 148.779 101.568 149.695C96.4089 150.225 91.5327 150.729 86.8941 151.569C72.4614 154.166 62.9977 158.679 54.2368 167.156C43.3741 177.668 29.8924 194.961 27.9304 202.977L24.9362 202.244C27.0578 193.594 40.6938 175.976 52.0923 164.943C61.335 156.004 71.254 151.247 86.345 148.535C91.1006 147.682 96.2571 147.144 101.243 146.629C109.962 145.728 118.969 144.791 126.562 142.126C132.017 140.206 136.651 137.823 141.563 135.294C146.126 132.942 150.851 130.513 156.276 128.499C172.615 122.432 192.325 125.972 208.164 128.818L211.014 129.331C228.107 132.379 242.311 133.916 256.503 123.973C267.812 116.05 277.001 104.888 282.729 96.9116C285.084 93.6293 287.236 90.2183 289.324 86.909C293.188 80.7789 297.185 74.436 302.807 68.3138C303.956 67.0618 305.135 65.7517 306.329 64.4126C315.012 54.7401 324.689 43.9625 337.108 39.9605L337.12 39.9727Z" fill="#38B1FD"/>
<path d="M335.044 40.4872C337.052 39.8403 339.126 39.3741 341.271 39.1278C351.697 37.9273 361.207 42.4165 370.404 46.7638C376.127 49.4648 382.034 52.2601 388.082 53.6352C406.25 57.7606 426.696 47.0956 432.733 30.3418L435.634 31.3884C429.096 49.5248 407.008 61.0911 387.4 56.6372C381.021 55.1907 374.954 52.3256 369.086 49.5501C359.879 45.1979 351.178 41.0868 341.617 42.1864C326.685 43.9091 315.063 57.5373 305.717 68.491L304.397 70.0407C299.133 76.1933 295.414 82.7459 291.818 89.0807C289.846 92.547 287.816 96.1369 285.549 99.6173C277.444 112.064 268.529 121.617 259.044 128.022C242.358 139.287 224.205 135.383 209.62 132.238L208.673 132.034C192.458 128.549 172.267 124.218 156.033 130.735C150.778 132.849 146.157 135.527 141.696 138.122C137.063 140.811 132.276 143.6 126.78 145.743C118.165 149.101 108.106 150.062 98.3765 150.99C94.0758 151.397 90.0187 151.782 86.0984 152.366C73.2283 154.265 62.576 157.375 52.4638 166.351C41.5411 176.05 28.7019 193.128 27.8735 201.474L24.8091 201.176C25.7274 191.879 39.0431 174.146 50.4151 164.06C61.7357 154.014 74.0346 151.046 85.6443 149.326C89.65 148.731 93.9361 148.328 98.0858 147.929C107.604 147.021 117.445 146.09 125.662 142.876C130.941 140.811 135.417 138.212 140.15 135.457C144.707 132.808 149.42 130.068 154.886 127.878C172.002 121.012 192.689 125.449 209.312 129.021L210.259 129.226C228.084 133.065 242.866 135.217 257.314 125.465C266.446 119.296 275.076 110.036 282.961 97.936C285.174 94.5378 287.186 90.9941 289.136 87.5592C292.803 81.0961 296.595 74.4151 302.053 68.0381L303.376 66.4958C311.776 56.6475 321.959 44.7041 335.037 40.4896L335.044 40.4872Z" fill="#30AEFD"/>
<path d="M332.787 41.0371C334.853 40.3713 336.983 39.9033 339.201 39.6577C349.731 38.5045 359.293 43.1548 368.538 47.6487C374.301 50.4499 380.256 53.343 386.359 54.7893C404.69 59.1208 425.502 48.4108 431.812 31.3992L434.695 32.4676C427.878 50.8641 405.417 62.4534 385.65 57.7838C379.214 56.2587 373.097 53.2885 367.191 50.4201C357.927 45.9164 349.181 41.6661 339.533 42.721C324.994 44.3089 313.874 56.9099 303.721 69.6765C298.64 76.0695 295.129 82.9431 291.73 89.5866C289.89 93.1881 287.991 96.9059 285.861 100.512C278.175 113.527 269.415 123.289 259.822 129.534C242.766 140.628 223.912 135.906 208.77 132.108C193.076 128.18 171.575 122.799 154.73 130.08C149.49 132.343 144.918 135.321 140.497 138.193C136.004 141.113 131.358 144.139 125.981 146.453C116.669 150.457 105.715 151.375 95.1115 152.252C91.7006 152.535 88.4723 152.807 85.3064 153.172C71.7556 154.74 60.6837 157.451 50.6874 165.557C39.6602 174.505 27.5241 191.13 27.7932 199.996L24.7177 200.09C24.4139 190.062 37.1404 172.584 48.7516 163.165C59.3247 154.589 70.8702 151.742 84.9523 150.116C88.1719 149.741 91.5755 149.461 94.8598 149.187C105.21 148.327 115.913 147.434 124.763 143.627C129.898 141.414 134.232 138.602 138.817 135.612C143.343 132.666 148.03 129.619 153.504 127.256C154.754 126.716 156.017 126.244 157.306 125.829C174.37 120.33 194.516 125.371 209.515 129.126C227.402 133.609 243.408 136.547 258.134 126.957C267.328 120.977 275.76 111.555 283.199 98.9515C285.281 95.4254 287.161 91.7464 288.974 88.186C292.435 81.4093 296.021 74.3903 301.292 67.7582C310.354 56.3538 320.202 45.0764 332.76 41.0295L332.787 41.0371Z" fill="#28ACFE"/>
<path d="M330.745 41.5489C332.804 40.8855 334.934 40.4175 337.141 40.1912C347.771 39.095 357.39 43.8969 366.684 48.5446C372.488 51.446 378.483 54.4394 384.649 55.9544C403.136 60.4944 424.313 49.7394 430.894 32.4627L433.77 33.5577C426.662 52.2094 403.833 63.8365 383.913 58.9413C377.414 57.3475 371.262 54.2673 365.306 51.2938C355.992 46.6362 347.192 42.2417 337.456 43.252C322.859 44.7613 311.403 57.9725 303.054 69.3086C298.172 75.9446 294.867 83.1319 291.667 90.0914C289.95 93.8232 288.178 97.6858 286.181 101.427C278.92 115.009 270.317 124.979 260.608 131.068C244.455 141.199 227.193 137.477 207.934 131.997C189.118 126.64 169.414 122.039 153.432 129.438C148.225 131.852 143.713 135.118 139.343 138.273C134.976 141.435 130.457 144.703 125.188 147.177C115.153 151.899 103.263 152.698 91.7599 153.469C89.2508 153.639 86.883 153.795 84.5294 153.996C72.53 155.008 59.9008 156.676 48.9258 164.782C37.794 173.003 26.3584 189.192 27.7034 198.561L24.6585 199C23.1128 188.281 35.2501 171.057 47.1005 162.305C58.7229 153.723 71.8373 151.98 84.2703 150.933C86.6556 150.731 89.1501 150.566 91.5568 150.405C102.775 149.653 114.372 148.875 123.88 144.396C128.886 142.039 133.092 139.001 137.538 135.781C142.018 132.542 146.655 129.188 152.135 126.645C153.684 125.928 155.257 125.316 156.862 124.798C172.776 119.67 191.172 124.029 208.774 129.033C227.315 134.316 243.881 137.914 258.967 128.459C268.22 122.663 276.454 113.078 283.464 99.9733C285.422 96.3096 287.176 92.493 288.868 88.8097C292.131 81.7169 295.5 74.3793 300.567 67.4896C308.069 57.2916 318.04 45.643 330.738 41.5513L330.745 41.5489Z" fill="#20A9FE"/>
<path d="M328.642 42.0734C330.774 41.3864 332.911 40.9403 335.067 40.7306C345.779 39.6888 355.429 44.6346 364.76 49.4238C370.621 52.4281 376.679 55.5389 382.919 57.1107C401.558 61.8932 423.1 51.0932 429.966 33.5224L432.835 34.6441C425.434 53.5923 402.228 65.2521 382.159 60.0974C375.583 58.4395 369.371 55.2492 363.355 52.1655C354.006 47.3736 345.178 42.8426 335.368 43.7961C324.066 44.8905 312.966 53.3606 302.374 68.954C297.699 75.8306 294.603 83.3389 291.604 90.5974C290.005 94.4691 288.356 98.462 286.484 102.341C279.646 116.482 271.199 126.661 261.375 132.592C243.447 143.416 222.43 136.748 207.086 131.874C189.041 126.148 168.433 120.722 152.122 128.785C146.953 131.341 142.508 134.892 138.207 138.332C133.956 141.732 129.556 145.245 124.384 147.89C113.61 153.408 100.733 154.007 88.2781 154.584C86.7485 154.656 85.2337 154.724 83.7309 154.804C70.1422 155.527 58.0121 156.71 47.1428 163.99C35.9133 171.507 25.1684 187.279 27.5869 197.143L24.5974 197.88C21.7998 186.488 33.3355 169.531 45.4302 161.436C56.9341 153.742 70.0342 152.456 83.5668 151.735C85.0696 151.655 86.5918 151.585 88.1286 151.51C100.257 150.95 112.791 150.364 122.975 145.149C127.868 142.642 131.952 139.377 136.276 135.93C140.7 132.393 145.28 128.734 150.75 126.033C168.083 117.454 189.399 123.04 208.009 128.94C227.18 135.023 244.306 139.306 259.775 129.962C269.077 124.344 277.123 114.602 283.7 101.006C285.535 97.2117 287.172 93.2552 288.744 89.4246C291.8 82.0182 294.963 74.3669 299.811 67.2243C308.982 53.7224 318.648 45.294 328.627 42.0782L328.642 42.0734Z" fill="#18A6FE"/>
<path d="M326.474 42.6022C328.562 41.9293 330.733 41.4642 333.004 41.258C343.825 40.2781 353.531 45.3754 362.91 50.3112C368.809 53.4083 374.907 56.6194 381.195 58.2647C399.995 63.246 421.901 52.3936 429.034 34.5747L431.893 35.7158C424.208 54.9095 400.631 66.5996 380.408 61.2438C373.775 59.5074 367.522 56.2169 361.466 53.033C352.06 48.0896 343.18 43.4218 333.27 44.3183C318.098 45.6977 306.97 60.105 301.683 68.57C297.239 75.6875 294.349 83.5095 291.545 91.0694C290.061 95.0737 288.527 99.2236 286.771 103.235C280.358 117.943 272.067 128.33 262.136 134.102C245.127 143.991 225.986 138.626 206.229 131.729C188.098 125.408 167.364 119.393 150.796 128.112C145.674 130.814 141.297 134.651 137.075 138.365C132.935 142.004 128.654 145.762 123.57 148.581C112.028 154.977 97.4791 155.282 84.6423 155.553L82.9306 155.587C70.7707 155.85 56.9818 156.153 45.3557 163.167C34.0333 169.994 23.9764 185.366 27.4587 195.72L24.5398 196.701C20.4901 184.662 31.417 167.974 43.7631 160.534C56.0946 153.098 70.3169 152.785 82.8616 152.512L84.5733 152.478C97.6584 152.2 111.187 151.916 122.07 145.886C126.861 143.234 131.014 139.582 135.034 136.047C139.396 132.215 143.903 128.255 149.35 125.384C167.01 116.086 188.487 122.274 207.23 128.811C226.283 135.457 244.701 140.659 260.578 131.426C269.929 125.986 277.786 116.086 283.935 101.989C285.652 98.0555 287.168 93.9517 288.639 89.9838C291.494 82.2783 294.441 74.3084 299.048 66.9199C303.863 59.1976 313.332 46.7966 326.44 42.5727L326.474 42.6022Z" fill="#10A3FE"/>
<path d="M324.199 43.1493C326.331 42.4622 328.573 41.9904 330.937 41.795C341.859 40.8794 351.622 46.1282 361.056 51.2082C366.995 54.4055 373.131 57.7095 379.477 59.4332C398.435 64.606 420.707 53.7086 428.115 35.6393L430.966 36.8071C427.076 46.2939 419.443 54.2047 409.477 59.0663C399.525 63.9231 388.591 65.1015 378.671 62.4024C371.98 60.5875 365.687 57.1968 359.599 53.9177C350.139 48.8301 341.205 44.0181 331.196 44.8576C315.203 46.2021 304.761 61.6338 301.014 68.2032C296.819 75.5642 294.119 83.6972 291.518 91.5634C290.145 95.71 288.722 100.002 287.091 104.151C281.093 119.42 272.966 130.014 262.926 135.627C245.449 145.416 224.928 139.008 205.408 131.614C185.805 124.19 165.466 118.549 149.505 127.469C144.428 130.31 140.328 134.252 135.987 138.425C131.956 142.304 127.782 146.318 122.783 149.304C110.467 156.661 94.7742 156.526 82.1678 156.407L81.9317 156.402C68.7507 156.283 55.1316 156.159 43.5986 162.382C32.188 168.534 22.8216 183.514 27.358 194.354L24.5148 195.545C19.2105 182.875 29.5406 166.468 42.1285 159.678C54.3591 153.084 68.3823 153.207 81.9527 153.33L82.1887 153.335C94.4131 153.448 109.619 153.578 121.198 146.668C125.891 143.862 129.936 139.978 133.845 136.22C138.136 132.095 142.568 127.828 147.991 124.803C165.061 115.258 186.189 121.066 206.491 128.75C225.332 135.893 245.09 142.094 261.412 132.961C270.812 127.699 278.479 117.634 284.21 103.041C285.808 98.9677 287.219 94.7119 288.582 90.609C291.235 82.6045 293.979 74.3283 298.33 66.6987C301.776 60.6545 310.591 47.5508 324.189 43.1687L324.199 43.1493Z" fill="#08A0FF"/>
<path d="M322.121 43.6732C324.334 42.9602 326.598 42.5057 328.878 42.3289C339.902 41.4776 349.715 46.8803 359.203 52.1044C365.18 55.3946 371.354 58.7915 377.765 60.5913C396.882 65.9556 419.522 55.0205 427.198 36.7031L430.039 37.8903C426.016 47.4926 418.234 55.4677 408.136 60.3474C398.038 65.2271 386.953 66.3651 376.932 63.5529C370.183 61.6596 363.85 58.1687 357.717 54.799C348.2 49.56 339.216 44.6184 329.105 45.3936C317.923 46.2555 307.159 54.6414 300.331 67.8331C296.391 75.4352 293.894 83.8746 291.478 92.0372C290.208 96.3285 288.898 100.77 287.38 105.069C281.73 121.116 273.983 131.611 263.696 137.158C245.704 146.854 223.743 139.317 204.563 131.498C184.804 123.437 164.302 117.29 148.183 126.827C143.151 129.808 139.131 134.023 134.882 138.481C130.953 142.603 126.892 146.863 121.972 150.018C110.035 157.674 94.756 157.745 81.3722 157.222L79.7758 157.162C66.7621 156.632 53.3005 156.094 41.8111 161.6C34.9157 164.897 29.1234 171.317 26.6942 178.336C24.8893 183.552 25.0771 188.627 27.2339 193.011L24.4695 194.371C21.9404 189.233 21.6999 183.342 23.783 177.333C26.4704 169.56 32.8707 162.467 40.4805 158.826C52.6718 152.988 66.513 153.55 79.9015 154.088L81.4905 154.151C95.0008 154.69 109.128 154.61 120.306 147.433C124.917 144.475 128.846 140.354 132.654 136.361C136.868 131.946 141.22 127.381 146.62 124.185C163.895 113.968 185.239 120.296 205.733 128.654C225.102 136.558 245.43 143.521 262.243 134.456C271.82 129.291 279.099 119.351 284.481 104.054C285.967 99.8305 287.274 95.43 288.531 91.1752C290.985 82.879 293.525 74.2965 297.596 66.4255C303.559 54.9121 312.413 46.8017 322.114 43.6756L322.121 43.6732Z" fill="#009DFF"/>
</g>
<defs>
<clipPath id="clip0_6610_6910">
<rect width="480.819" height="97.9698" fill="white" transform="translate(487.693 93.248) rotate(162.138)"/>
</clipPath>
</defs>
</svg>
