<svg width="266" height="90" viewBox="0 0 266 90" fill="none" xmlns="http://www.w3.org/2000/svg">
<g style="mix-blend-mode:multiply" opacity="0.5">
<mask id="mask0_6610_6494" style="mask-type:luminance" maskUnits="userSpaceOnUse" x="14" y="64" width="76" height="17">
<path d="M52.0329 80.8284C72.7514 80.8284 89.5472 77.2097 89.5472 72.7458C89.5472 68.2818 72.7514 64.6631 52.0329 64.6631C31.3143 64.6631 14.5186 68.2818 14.5186 72.7458C14.5186 77.2097 31.3143 80.8284 52.0329 80.8284Z" fill="white"/>
</mask>
<g mask="url(#mask0_6610_6494)">
<path d="M89.5502 64.6631H14.5186V80.8284H89.5502V64.6631Z" fill="white"/>
<path d="M51.9701 79.6907C70.5206 79.5389 85.5475 76.4597 85.5336 72.8131C85.5197 69.1664 70.4703 66.3332 51.9197 66.485C33.3692 66.6367 18.3423 69.716 18.3562 73.3626C18.3701 77.0093 33.4196 79.8424 51.9701 79.6907Z" fill="white"/>
<path d="M51.8582 79.6685C70.3362 79.5174 85.3044 76.4486 85.2906 72.8143C85.2767 69.18 70.2861 66.3564 51.808 66.5076C33.33 66.6587 18.3618 69.7274 18.3757 73.3617C18.3895 76.996 33.3802 79.8197 51.8582 79.6685Z" fill="white"/>
<path d="M51.7414 79.6433C70.147 79.4927 85.0564 76.4365 85.0426 72.817C85.0288 69.1975 70.097 66.3854 51.6914 66.536C33.2859 66.6865 18.3764 69.7428 18.3902 73.3623C18.404 76.9817 33.3359 79.7939 51.7414 79.6433Z" fill="white"/>
<path d="M51.6246 79.6171C69.9577 79.4671 84.8084 76.4234 84.7947 72.8187C84.7809 69.214 69.9079 66.4134 51.5748 66.5634C33.2418 66.7134 18.391 69.7571 18.4048 73.3618C18.4185 76.9665 33.2915 79.7671 51.6246 79.6171Z" fill="white"/>
<path d="M51.5127 79.587C69.7733 79.4376 84.5653 76.4063 84.5516 72.8165C84.5379 69.2266 69.7237 66.4376 51.4631 66.5869C33.2025 66.7363 18.4105 69.7676 18.4242 73.3574C18.4379 76.9473 33.2521 79.7364 51.5127 79.587Z" fill="white"/>
<path d="M51.3968 79.5702C69.5832 79.4215 84.3152 76.4007 84.3015 72.8232C84.2879 69.2457 69.5338 66.4661 51.3474 66.6149C33.161 66.7637 18.429 69.7844 18.4427 73.3619C18.4563 76.9395 33.2104 79.719 51.3968 79.5702Z" fill="#FEFFFF"/>
<path d="M51.28 79.544C69.3939 79.3958 84.0672 76.3876 84.0536 72.8249C84.04 69.2622 69.3447 66.4942 51.2308 66.6423C33.1169 66.7905 18.4436 69.7988 18.4572 73.3615C18.4708 76.9242 33.1661 79.6922 51.28 79.544Z" fill="#FEFFFF"/>
<path d="M51.1671 79.5178C69.2086 79.3702 83.8231 76.3745 83.8096 72.8266C83.796 69.2787 69.1596 66.5222 51.1181 66.6698C33.0767 66.8174 18.4621 69.8131 18.4757 73.361C18.4892 76.9089 33.1257 79.6654 51.1671 79.5178Z" fill="#FEFEFF"/>
<path d="M51.0513 79.4926C69.0202 79.3456 83.5761 76.3623 83.5626 72.8292C83.5491 69.2962 68.9715 66.5512 51.0025 66.6982C33.0335 66.8452 18.4777 69.8285 18.4912 73.3616C18.5047 76.8946 33.0823 79.6396 51.0513 79.4926Z" fill="#FEFEFF"/>
<path d="M50.9345 79.4625C68.831 79.3161 83.3281 76.3453 83.3147 72.827C83.3012 69.3088 68.7824 66.5753 50.8859 66.7217C32.9894 66.8681 18.4923 69.8389 18.5057 73.3572C18.5192 76.8755 33.038 79.6089 50.9345 79.4625Z" fill="#FEFEFF"/>
<path d="M50.8187 79.4403C68.6427 79.2945 83.0811 76.3342 83.0677 72.8283C83.0543 69.3224 68.5943 66.5985 50.7703 66.7443C32.9463 66.8901 18.5079 69.8504 18.5213 73.3563C18.5346 76.8622 32.9947 79.5861 50.8187 79.4403Z" fill="#FDFEFF"/>
<path d="M50.7058 79.4195C68.4573 79.2743 82.837 76.3265 82.8237 72.8354C82.8104 69.3443 68.4091 66.6319 50.6576 66.7771C32.9061 66.9223 18.5264 69.8701 18.5397 73.3612C18.553 76.8523 32.9543 79.5647 50.7058 79.4195Z" fill="#FDFEFE"/>
<path d="M50.5899 79.3933C68.2672 79.2487 82.5868 76.3134 82.5735 72.8371C82.5603 69.3608 68.2192 66.66 50.5419 66.8046C32.8645 66.9492 18.5449 69.8845 18.5582 73.3608C18.5714 76.8371 32.9125 79.5379 50.5899 79.3933Z" fill="#FDFEFE"/>
<path d="M50.474 79.3632C68.0789 79.2192 82.3398 76.2964 82.3266 72.8349C82.3134 69.3734 68.0311 66.6841 50.4262 66.8281C32.8214 66.9721 18.5605 69.8949 18.5737 73.3564C18.5869 76.8179 32.8692 79.5072 50.474 79.3632Z" fill="#FDFEFE"/>
<path d="M50.3611 79.337C67.8935 79.1936 82.0957 76.2832 82.0826 72.8366C82.0694 69.3899 67.8459 66.7121 50.3136 66.8555C32.7812 66.999 18.579 69.9093 18.5922 73.356C18.6053 76.8026 32.8288 79.4804 50.3611 79.337Z" fill="#FCFDFE"/>
<path d="M50.2444 79.3158C67.7043 79.173 81.8477 76.2732 81.8346 72.8388C81.8215 69.4045 67.6569 66.7362 50.197 66.8791C32.7371 67.0219 18.5936 69.9218 18.6067 73.3561C18.6198 76.7904 32.7845 79.4587 50.2444 79.3158Z" fill="#FCFDFE"/>
<path d="M50.1286 79.294C67.516 79.1518 81.6007 76.2644 81.5877 72.8449C81.5746 69.4254 67.4688 66.7687 50.0813 66.9109C32.6939 67.0532 18.6092 69.9405 18.6222 73.36C18.6353 76.7795 32.7411 79.4363 50.1286 79.294Z" fill="#FCFDFE"/>
<path d="M50.0157 79.2688C67.3306 79.1272 81.3566 76.2523 81.3436 72.8476C81.3307 69.4429 67.2836 66.7977 49.9687 66.9393C32.6537 67.081 18.6277 69.9558 18.6407 73.3605C18.6537 76.7652 32.7007 79.4104 50.0157 79.2688Z" fill="#FBFDFE"/>
<path d="M49.8997 79.2377C67.1405 79.0967 81.1064 76.2343 81.0935 72.8445C81.0806 69.4546 67.0937 66.8209 49.8529 66.9619C32.6122 67.103 18.6462 69.9653 18.6591 73.3552C18.6721 76.7451 32.659 79.3788 49.8997 79.2377Z" fill="#FBFDFE"/>
<path d="M49.7829 79.2125C66.9512 79.0721 80.8584 76.2222 80.8456 72.8471C80.8327 69.4721 66.9046 66.8499 49.7363 66.9903C32.568 67.1308 18.6608 69.9807 18.6737 73.3557C18.6866 76.7308 32.6146 79.353 49.7829 79.2125Z" fill="#FBFCFE"/>
<path d="M49.6701 79.1904C66.7659 79.0505 80.6144 76.2111 80.6015 72.8484C80.5887 69.4857 66.7194 66.873 49.6236 67.0129C32.5278 67.1527 18.6793 69.9921 18.6922 73.3549C18.705 76.7176 32.5743 79.3302 49.6701 79.1904Z" fill="#FAFCFE"/>
<path d="M49.5543 79.1695C66.5776 79.0303 80.3674 76.2034 80.3546 72.8555C80.3418 69.5076 66.5313 66.9064 49.508 67.0457C32.4847 67.185 18.6949 70.0119 18.7077 73.3598C18.7205 76.7077 32.5309 79.3088 49.5543 79.1695Z" fill="#FAFCFD"/>
<path d="M49.4384 79.1433C66.3893 79.0047 80.1203 76.1902 80.1076 72.8572C80.0949 69.5241 66.3432 66.9345 49.3924 67.0731C32.4416 67.2118 18.7105 70.0262 18.7232 73.3593C18.7359 76.6924 32.4876 79.282 49.4384 79.1433Z" fill="#FAFCFD"/>
<path d="M49.3255 79.1132C66.2039 78.9751 79.8763 76.1732 79.8636 72.8549C79.8509 69.5367 66.1581 66.9586 49.2797 67.0967C32.4014 67.2347 18.729 70.0367 18.7417 73.3549C18.7543 76.6732 32.4472 79.2513 49.3255 79.1132Z" fill="#F9FCFD"/>
<path d="M49.2086 79.087C66.0128 78.9496 79.6251 76.1601 79.6125 72.8567C79.5999 69.5532 65.9672 66.9867 49.163 67.1241C32.3588 67.2616 18.7465 70.051 18.7591 73.3545C18.7717 76.658 32.4044 79.2245 49.2086 79.087Z" fill="#F9FBFD"/>
<path d="M49.0928 79.0659C65.8245 78.929 79.3781 76.1501 79.3655 72.8589C79.353 69.5678 65.7791 67.0108 49.0474 67.1477C32.3157 67.2845 18.7621 70.0635 18.7747 73.3546C18.7872 76.6457 32.3611 79.2027 49.0928 79.0659Z" fill="#F8FBFD"/>
<path d="M48.9799 79.0441C65.6392 78.9078 79.134 76.1413 79.1215 72.865C79.109 69.5887 65.5939 67.0432 48.9347 67.1795C32.2755 67.3158 18.7806 70.0822 18.7931 73.3585C18.8056 76.6348 32.3207 79.1803 48.9799 79.0441Z" fill="#F8FBFD"/>
<path d="M48.8641 79.0144C65.4509 78.8787 78.887 76.1248 78.8746 72.8633C78.8621 69.6018 65.4058 67.0678 48.8191 67.2035C32.2323 67.3392 18.7962 70.0932 18.8087 73.3547C18.8211 76.6162 32.2774 79.1501 48.8641 79.0144Z" fill="#F8FAFD"/>
<path d="M48.7473 78.9877C65.2616 78.8526 78.639 76.1112 78.6266 72.8645C78.6142 69.6178 65.2168 67.0954 48.7025 67.2305C32.1882 67.3656 18.8108 70.107 18.8232 73.3537C18.8356 76.6004 32.2331 79.1228 48.7473 78.9877Z" fill="#F7FAFC"/>
<path d="M48.6325 78.9625C65.0743 78.828 78.393 76.099 78.3806 72.8672C78.3683 69.6353 65.0296 67.1244 48.5879 67.2589C32.1461 67.3934 18.8274 70.1224 18.8397 73.3542C18.852 76.5861 32.1907 79.097 48.6325 78.9625Z" fill="#F7FAFC"/>
<path d="M78.1318 72.8667C78.144 76.0854 64.8854 78.8035 48.5165 78.9376C32.1477 79.0717 18.8677 76.5727 18.8555 73.3539C18.8433 70.1352 32.1019 67.4171 48.4708 67.283C64.8396 67.1489 78.1196 69.6479 78.1318 72.8667Z" fill="#F6FAFC"/>
<path d="M48.4027 78.9196C64.6978 78.7863 77.8977 76.0803 77.8855 72.8756C77.8733 69.6709 64.6536 67.181 48.3584 67.3143C32.0633 67.4476 18.8634 70.1536 18.8756 73.3583C18.8879 76.563 32.1076 79.0529 48.4027 78.9196Z" fill="#F6F9FC"/>
<path d="M48.2869 78.889C64.5095 78.7563 77.6507 76.0628 77.6386 72.8729C77.6264 69.683 64.4655 67.2046 48.2428 67.3373C32.0202 67.4701 18.879 70.1636 18.8912 73.3534C18.9033 76.5433 32.0642 79.0217 48.2869 78.889Z" fill="#F5F9FC"/>
<path d="M48.173 78.8632C64.3232 78.7311 77.4057 76.0501 77.3935 72.875C77.3814 69.7 64.2793 67.2332 48.1292 67.3653C31.979 67.4974 18.8965 70.1784 18.9086 73.3535C18.9207 76.5286 32.0229 78.9954 48.173 78.8632Z" fill="#F5F9FC"/>
<path d="M48.0572 78.837C64.1349 78.7055 77.1586 76.037 77.1466 72.8767C77.1345 69.7165 64.0912 67.2612 48.0136 67.3927C31.9359 67.5242 18.9121 70.1928 18.9242 73.353C18.9362 76.5133 31.9795 78.9686 48.0572 78.837Z" fill="#F4F9FC"/>
<path d="M47.9414 78.8159C63.9466 78.6849 76.9116 76.0269 76.8996 72.879C76.8876 69.7311 63.9031 67.2853 47.8979 67.4163C31.8927 67.5472 18.9277 70.2052 18.9397 73.3531C18.9517 76.501 31.9362 78.9468 47.9414 78.8159Z" fill="#F4F8FB"/>
<path d="M47.8285 78.7897C63.7612 78.6593 76.6676 76.0138 76.6556 72.8807C76.6437 69.7476 63.718 67.3134 47.7853 67.4437C31.8525 67.574 18.9462 70.2196 18.9582 73.3527C18.9701 76.4858 31.8958 78.92 47.8285 78.7897Z" fill="#F3F8FB"/>
<path d="M47.7116 78.7645C63.5701 78.6347 76.4164 76.0017 76.4045 72.8834C76.3926 69.7651 63.5271 67.3424 47.6685 67.4721C31.81 67.6019 18.9637 70.2349 18.9756 73.3532C18.9875 76.4715 31.8531 78.8942 47.7116 78.7645Z" fill="#F3F8FB"/>
<path d="M47.5967 78.7383C63.3828 78.6091 76.1703 75.9886 76.1585 72.8851C76.1467 69.7816 63.34 67.3704 47.5539 67.4996C31.7678 67.6287 18.9803 70.2493 18.9921 73.3527C19.004 76.4562 31.8107 78.8674 47.5967 78.7383Z" fill="#F2F7FB"/>
<path d="M47.4829 78.7171C63.1965 78.5885 75.9253 75.9785 75.9135 72.8873C75.9017 69.7962 63.1538 67.3946 47.4402 67.5231C31.7267 67.6517 18.9978 70.2617 19.0096 73.3528C19.0214 76.444 31.7693 78.8456 47.4829 78.7171Z" fill="#F2F7FB"/>
<path d="M47.3671 78.6909C63.0082 78.5629 75.6783 75.9654 75.6666 72.889C75.6548 69.8127 62.9657 67.4226 47.3246 67.5505C31.6835 67.6785 19.0134 70.2761 19.0251 73.3524C19.0369 76.4287 31.726 78.8188 47.3671 78.6909Z" fill="#F1F7FB"/>
<path d="M47.2513 78.6608C62.8199 78.5334 75.4313 75.9483 75.4196 72.8868C75.4079 69.8253 62.7776 67.4467 47.209 67.5741C31.6404 67.7014 19.029 70.2865 19.0407 73.348C19.0523 76.4095 31.6827 78.7881 47.2513 78.6608Z" fill="#F1F6FA"/>
<path d="M47.1355 78.639C62.6316 78.5122 75.1843 75.9396 75.1726 72.8929C75.161 69.8462 62.5895 67.4792 47.0934 67.6059C31.5973 67.7327 19.0446 70.3053 19.0562 73.352C19.0678 76.3987 31.6393 78.7657 47.1355 78.639Z" fill="#F0F6FA"/>
<path d="M47.0185 78.6133C62.4405 78.4871 74.9331 75.927 74.9215 72.8951C74.91 69.8633 62.3986 67.5077 46.9767 67.6339C31.5547 67.76 19.0621 70.3201 19.0737 73.352C19.0852 76.3839 31.5966 78.7394 47.0185 78.6133Z" fill="#F0F6FA"/>
<path d="M46.9027 78.5916C62.2522 78.466 74.6861 75.9164 74.6746 72.8969C74.6631 69.8774 62.2105 67.5314 46.861 67.6569C31.5116 67.7825 19.0777 70.3321 19.0892 73.3516C19.1007 76.3712 31.5533 78.7172 46.9027 78.5916Z" fill="#EFF5FA"/>
<path d="M46.7899 78.5659C62.0669 78.4409 74.442 75.9038 74.4306 72.8991C74.4191 69.8944 62.0254 67.5599 46.7484 67.6848C31.4714 67.8098 19.0962 70.3469 19.1077 73.3517C19.1191 76.3564 31.5129 78.6909 46.7899 78.5659Z" fill="#EEF5FA"/>
<path d="M46.674 78.5363C61.8785 78.4119 74.195 75.8873 74.1836 72.8974C74.1722 69.9075 61.8373 67.5845 46.6327 67.7089C31.4282 67.8333 19.1118 70.3579 19.1232 73.3478C19.1346 76.3377 31.4695 78.6607 46.674 78.5363Z" fill="#EEF5FA"/>
<path d="M46.5582 78.5145C61.6902 78.3907 73.948 75.8785 73.9366 72.9034C73.9253 69.9284 61.6492 67.6169 46.5171 67.7407C31.3851 67.8645 19.1274 70.3766 19.1387 73.3517C19.15 76.3268 31.4262 78.6383 46.5582 78.5145Z" fill="#EDF4F9"/>
<path d="M46.4414 78.4887C61.501 78.3656 73.7 75.8659 73.6887 72.9056C73.6774 69.9454 61.4601 67.6454 46.4005 67.7686C31.341 67.8918 19.142 70.3915 19.1533 73.3518C19.1645 76.312 31.3819 78.6119 46.4414 78.4887Z" fill="#EDF4F9"/>
<path d="M46.3286 78.4671C61.3156 78.3445 73.4559 75.8553 73.4447 72.9074C73.4334 69.9595 61.2749 67.6691 46.2879 67.7917C31.3008 67.9143 19.1605 70.4034 19.1717 73.3514C19.183 76.2993 31.3415 78.5897 46.3286 78.4671Z" fill="#ECF3F9"/>
<path d="M46.2126 78.4414C61.1255 78.3194 73.2057 75.8427 73.1945 72.9096C73.1834 69.9765 61.085 67.6976 46.1721 67.8196C31.2592 67.9416 19.179 70.4183 19.1902 73.3514C19.2014 76.2845 31.2997 78.5634 46.2126 78.4414Z" fill="#EBF3F9"/>
<path d="M72.9527 72.9065C72.9649 75.8258 60.9424 78.289 46.1027 78.4142C31.263 78.5349 19.2222 76.2684 19.21 73.3536C19.1978 70.4343 31.2203 67.9711 46.06 67.8459C60.8997 67.7252 72.9405 69.9918 72.9527 72.9065Z" fill="#EBF3F9"/>
<path d="M72.7058 72.9067C72.7181 75.8125 60.7535 78.2623 45.9871 78.3875C31.2176 78.5082 19.2378 76.2551 19.2256 73.3492C19.2134 70.4434 31.1779 67.9936 45.9444 67.8684C60.7138 67.7477 72.6936 70.0008 72.7058 72.9067Z" fill="#EAF2F8"/>
<path d="M72.458 72.9107C72.4702 75.7986 60.5667 78.2395 45.8705 78.3647C31.1743 78.4899 19.2525 76.2368 19.2402 73.3488C19.228 70.4609 31.1315 68.02 45.8278 67.8948C60.524 67.7741 72.4458 70.0183 72.455 72.9062L72.458 72.9107Z" fill="#EAF2F8"/>
<path d="M45.7513 78.3426C60.3743 78.223 72.2196 75.7943 72.2087 72.9179C72.1977 70.0416 60.3346 67.8068 45.7116 67.9265C31.0886 68.0461 19.2433 70.4748 19.2542 73.3511C19.2652 76.2275 31.1283 78.4622 45.7513 78.3426Z" fill="#E9F2F8"/>
<path d="M45.6384 78.3159C60.1889 78.1969 71.9756 75.7807 71.9646 72.9191C71.9537 70.0576 60.1494 67.8344 45.5989 67.9534C31.0484 68.0725 19.2618 70.4887 19.2727 73.3502C19.2836 76.2117 31.0879 78.4349 45.6384 78.3159Z" fill="#E8F1F8"/>
<path d="M45.5225 78.2863C59.9988 78.1679 71.7254 75.7642 71.7145 72.9175C71.7037 70.0708 59.9595 67.859 45.4832 67.9775C31.0069 68.0959 19.2803 70.4996 19.2911 73.3463C19.302 76.193 31.0462 78.4047 45.5225 78.2863Z" fill="#E8F1F7"/>
<path d="M71.4685 72.9154C71.4807 75.7497 59.8122 78.1414 45.4059 78.2576C31.0027 78.3783 19.3159 76.1789 19.3037 73.3446C19.2915 70.5103 30.96 68.1185 45.3663 68.0023C59.7695 67.8816 71.4563 70.0811 71.4685 72.9154Z" fill="#E7F0F7"/>
<path d="M71.2254 72.92C71.2376 75.7364 59.6271 78.1192 45.2941 78.2354C30.9611 78.3517 19.3353 76.1656 19.3262 73.3492C19.314 70.5327 30.9245 68.15 45.2575 68.0337C59.5905 67.9175 71.2162 70.1036 71.2254 72.92Z" fill="#E6F0F7"/>
<path d="M45.177 78.2171C59.4359 78.1005 70.9863 75.7322 70.9756 72.9275C70.9649 70.1228 59.3971 67.9436 45.1383 68.0603C30.8794 68.1769 19.329 70.5452 19.3397 73.3499C19.3504 76.1546 30.9181 78.3338 45.177 78.2171Z" fill="#E6EFF7"/>
<path d="M70.7306 72.9242C70.7428 75.7138 59.2513 78.0697 45.0648 78.1859C30.8783 78.3022 19.3685 76.1385 19.3594 73.3489C19.3502 70.5593 30.8386 68.1988 45.0251 68.0826C59.2117 67.9664 70.7214 70.1301 70.7306 72.9197V72.9242Z" fill="#E5EFF7"/>
<path d="M70.4837 72.9247C70.4929 75.7009 59.0625 78.0434 44.9492 78.1597C30.8359 78.2759 19.3872 76.1211 19.375 73.3449C19.3628 70.5687 30.7963 68.2262 44.9095 68.11C59.0228 67.9937 70.4715 70.1485 70.4837 72.9247Z" fill="#E4EFF6"/>
<path d="M70.2359 72.9247C70.245 75.6875 58.8726 78.0167 44.8326 78.1329C30.7926 78.2491 19.4019 76.1033 19.3897 73.345C19.3805 70.5822 30.7529 68.2531 44.7929 68.1368C58.8329 68.0206 70.2237 70.1664 70.2359 72.9247Z" fill="#E4EEF6"/>
<path d="M69.9889 72.9288C69.998 75.6737 58.6836 77.9939 44.7169 78.1101C30.7501 78.2263 19.4174 76.0939 19.4082 73.3445C19.3991 70.5997 30.7135 68.2795 44.6802 68.1632C58.647 68.047 69.9797 70.1794 69.9889 72.9288Z" fill="#E3EEF6"/>
<path d="M69.7449 72.9288C69.7541 75.6603 58.5007 77.9671 44.6042 78.0833C30.7076 78.1996 19.4359 76.0761 19.4268 73.3446C19.4176 70.6131 30.671 68.3063 44.5675 68.1901C58.4641 68.0739 69.7358 70.1974 69.7449 72.9288Z" fill="#E2EDF6"/>
<path d="M44.4859 78.0615C58.3082 77.9485 69.505 75.6532 69.4946 72.9348C69.4842 70.2165 58.2706 68.1046 44.4484 68.2176C30.6261 68.3307 19.4293 70.626 19.4397 73.3443C19.45 76.0626 30.6636 78.1746 44.4859 78.0615Z" fill="#E1EDF6"/>
<path d="M44.3711 78.0363C58.1209 77.9238 69.2589 75.641 69.2486 72.9375C69.2383 70.234 58.0835 68.1336 44.3337 68.246C30.5839 68.3585 19.4459 70.6413 19.4562 73.3448C19.4665 76.0483 30.6212 78.1488 44.3711 78.0363Z" fill="#E1ECF5"/>
<path d="M69.0033 72.9375C69.0124 75.6288 57.9361 77.8998 44.2593 78.0116C30.5825 78.1233 19.4878 76.0356 19.4756 73.3488C19.4664 70.6576 30.5428 68.3866 44.2196 68.2748C57.8964 68.163 68.9911 70.2508 69.0033 72.9375Z" fill="#E0ECF5"/>
<path d="M68.7554 72.9381C68.7646 75.6115 57.7462 77.8736 44.1427 77.9854C30.5391 78.0971 19.5024 76.0183 19.4902 73.345C19.4811 70.6716 30.4994 68.4095 44.103 68.2978C57.7065 68.186 68.7432 70.2648 68.7554 72.9381Z" fill="#DFECF5"/>
<path d="M68.5084 72.9426C68.5176 75.6026 57.5572 77.8512 44.0269 77.963C30.4966 78.0747 19.518 76.0094 19.5088 73.3494C19.4996 70.6895 30.46 68.4408 43.9903 68.329C57.5206 68.2173 68.4993 70.2826 68.5084 72.9426Z" fill="#DFEBF5"/>
<path d="M43.9087 77.937C57.3668 77.8269 68.2687 75.5921 68.2586 72.9454C68.2485 70.2987 57.3303 68.2423 43.8721 68.3524C30.4139 68.4625 19.5121 70.6973 19.5222 73.3441C19.5323 75.9908 30.4505 78.0471 43.9087 77.937Z" fill="#DEEBF4"/>
<path d="M68.0167 72.9423C68.0258 75.5754 57.1845 77.7973 43.7976 77.909C30.4108 78.0208 19.5512 75.9733 19.542 73.3446C19.5328 70.716 30.3742 68.4897 43.761 68.3779C57.1479 68.2661 68.0075 70.3136 68.0167 72.9423Z" fill="#DDEAF4"/>
<path d="M67.7698 72.9473C67.779 75.567 56.9956 77.7755 43.682 77.8872C30.3684 77.999 19.5698 75.9649 19.5576 73.3452C19.5485 70.7255 30.3318 68.517 43.6454 68.4053C56.959 68.2935 67.7576 70.3276 67.7698 72.9473Z" fill="#DCEAF4"/>
<path d="M67.523 72.947C67.5321 75.5489 56.8068 77.7484 43.5664 77.8601C30.3261 77.9674 19.5855 75.9467 19.5732 73.3449C19.5641 70.7431 30.2894 68.5436 43.5298 68.4318C56.7701 68.3245 67.5107 70.3452 67.523 72.947Z" fill="#DCE9F4"/>
<path d="M67.275 72.9511C67.2841 75.5395 56.6198 77.7256 43.4497 77.8373C30.2826 77.9446 19.6 75.9374 19.5908 73.3445C19.5817 70.7561 30.246 68.57 43.4161 68.4582C56.5832 68.3509 67.2658 70.3582 67.275 72.9511Z" fill="#DBE9F3"/>
<path d="M67.028 72.9511C67.0372 75.5261 56.4309 77.7033 43.337 77.8106C30.2432 77.9179 19.6185 75.9195 19.6094 73.3445C19.6002 70.7695 30.2065 68.5924 43.3004 68.4851C56.3942 68.3778 67.0189 70.3761 67.028 72.9511Z" fill="#DAE8F3"/>
<path d="M66.7811 72.9561C66.7903 75.5177 56.242 77.6815 43.2214 77.7888C30.2008 77.896 19.6342 75.9067 19.625 73.3451C19.6158 70.7835 30.1642 68.6197 43.1848 68.5124C56.2053 68.4052 66.772 70.3945 66.7811 72.9561Z" fill="#D9E8F3"/>
<path d="M43.1056 77.7601C56.0548 77.6542 66.5442 75.5048 66.5345 72.9593C66.5248 70.4138 56.0196 68.4362 43.0705 68.5421C30.1214 68.648 19.6319 70.7974 19.6416 73.3429C19.6513 75.8884 30.1565 77.8661 43.1056 77.7601Z" fill="#D8E7F3"/>
<path d="M66.2894 72.9558C66.2985 75.4861 55.8692 77.6274 42.9921 77.7347C30.115 77.842 19.6704 75.875 19.6582 73.3447C19.6491 70.8144 30.0783 68.673 42.9555 68.5657C55.8326 68.4584 66.2772 70.4254 66.2894 72.9558Z" fill="#D8E7F2"/>
<path d="M42.874 77.7128C55.6782 77.608 66.0502 75.4816 66.0406 72.9633C66.031 70.4449 55.6434 68.4883 42.8392 68.5931C30.0351 68.6978 19.6631 70.8242 19.6727 73.3426C19.6823 75.8609 30.0699 77.8175 42.874 77.7128Z" fill="#D7E6F2"/>
<path d="M42.7602 77.687C55.4918 77.5829 65.8051 75.469 65.7956 72.9654C65.7861 70.4619 55.4573 68.5168 42.7256 68.621C29.9939 68.7251 19.6806 70.8391 19.6901 73.3426C19.6997 75.8461 30.0285 77.7912 42.7602 77.687Z" fill="#D6E6F2"/>
<path d="M65.5477 72.9645C65.5568 75.4546 55.3046 77.5557 42.6441 77.663C29.9868 77.7659 19.7162 75.8346 19.707 73.3445C19.6979 70.8544 29.9501 68.7533 42.6106 68.646C55.268 68.5432 65.5385 70.4745 65.5477 72.9645Z" fill="#D5E5F2"/>
<path d="M65.2999 72.9646C65.309 75.4412 55.1147 77.529 42.5276 77.6318C29.9434 77.7346 19.7308 75.8123 19.7217 73.3401C19.7125 70.8634 29.9068 68.7757 42.494 68.6729C55.0812 68.5701 65.2907 70.4924 65.2999 72.9646Z" fill="#D4E5F1"/>
<path d="M65.0568 72.9696C65.0659 75.4284 54.9296 77.5072 42.4188 77.61C29.9048 77.7128 19.7533 75.8039 19.7441 73.3406C19.735 70.8819 29.8713 68.8031 42.3821 68.7003C54.8961 68.5974 65.0476 70.5063 65.0568 72.9696Z" fill="#D4E4F1"/>
<path d="M64.8089 72.9692C64.8181 75.4145 54.7428 77.4799 42.3022 77.5827C29.8615 77.6855 19.768 75.7856 19.7588 73.3402C19.7496 70.8948 29.8279 68.8295 42.2655 68.7266C54.7062 68.6238 64.7967 70.5238 64.8059 72.9692H64.8089Z" fill="#D3E4F1"/>
<path d="M64.5619 72.9693C64.5711 75.4012 54.5539 77.4577 42.1864 77.556C29.819 77.6588 19.7865 75.7678 19.7774 73.3359C19.7682 70.9039 29.7854 68.8475 42.1529 68.7491C54.5203 68.6463 64.5528 70.5373 64.5619 72.9693Z" fill="#D2E3F0"/>
<path d="M42.0671 77.5363C54.3622 77.4358 64.3218 75.3948 64.3126 72.9777C64.3034 70.5606 54.3288 68.6826 42.0337 68.7832C29.7386 68.8838 19.779 70.9248 19.7882 73.3419C19.7974 75.759 29.772 77.6369 42.0671 77.5363Z" fill="#D1E3F0"/>
<path d="M64.0672 72.9733C64.0764 75.3784 54.1751 77.408 41.9542 77.5064C29.7333 77.6092 19.8168 75.7405 19.8076 73.3399C19.7985 70.9347 29.6997 68.9051 41.9206 68.8068C54.1416 68.704 64.0581 70.5726 64.0672 72.9733Z" fill="#D0E2F0"/>
<path d="M41.8383 77.4846C53.9867 77.3852 63.8276 75.3672 63.8185 72.9773C63.8094 70.5873 53.9537 68.7304 41.8053 68.8298C29.6568 68.9292 19.816 70.9472 19.8251 73.3372C19.8342 75.7271 29.6899 77.584 41.8383 77.4846Z" fill="#CFE2F0"/>
<path d="M63.5765 72.978C63.5856 75.3519 53.8034 77.3591 41.7259 77.4575C29.6484 77.5558 19.851 75.714 19.8418 73.3401C19.8326 70.9663 29.6149 68.959 41.6923 68.8607C53.7698 68.7623 63.5673 70.6042 63.5765 72.978Z" fill="#CEE1EF"/>
<path d="M41.6096 77.4371C53.6131 77.3389 63.3365 75.3459 63.3275 72.9855C63.3185 70.6252 53.5805 68.7914 41.577 68.8896C29.5735 68.9878 19.8501 70.9808 19.8591 73.3411C19.8681 75.7014 29.6061 77.5353 41.6096 77.4371Z" fill="#CEE1EF"/>
<path d="M41.4928 77.4109C53.4238 77.3133 63.0885 75.3327 63.0796 72.9872C63.0706 70.6417 53.3914 68.8194 41.4604 68.917C29.5294 69.0146 19.8647 70.9952 19.8736 73.3407C19.8826 75.6862 29.5618 77.5085 41.4928 77.4109Z" fill="#CDE0EF"/>
<path d="M62.8346 72.9871C62.8438 75.3207 53.2386 77.2878 41.3809 77.3861C29.5232 77.4845 19.9027 75.6739 19.8936 73.3403C19.8844 71.0067 29.4896 69.0397 41.3473 68.9413C53.205 68.843 62.8255 70.6535 62.8346 72.9871Z" fill="#CCE0EF"/>
<path d="M62.5868 72.9872C62.596 75.3029 53.0487 77.261 41.2643 77.3593C29.4798 77.4577 19.9174 75.6561 19.9082 73.3404C19.8991 71.0246 29.4463 69.0665 41.2307 68.9682C53.0152 68.8698 62.5776 70.6715 62.5868 72.9872Z" fill="#CBDFEE"/>
<path d="M62.3399 72.9868C62.3491 75.2891 52.8599 77.2338 41.1487 77.3322C29.4375 77.4305 19.933 75.6423 19.9238 73.3355C19.9147 71.0287 29.4039 69.0885 41.1151 68.9902C52.8263 68.8918 62.3308 70.6801 62.3399 72.9868Z" fill="#CADFEE"/>
<path d="M62.0959 72.9918C62.105 75.2807 52.6769 77.2119 41.0359 77.3103C29.3949 77.4086 19.9514 75.6294 19.9453 73.3405C19.9362 71.0516 29.3643 69.1203 41.0053 69.022C52.6463 68.9236 62.0898 70.7029 62.0959 72.9918Z" fill="#C9DEEE"/>
<path d="M40.9185 77.2864C52.4854 77.1917 61.8552 75.2717 61.8465 72.9978C61.8378 70.7239 52.454 68.9572 40.8871 69.0518C29.3202 69.1464 19.9504 71.0665 19.9591 73.3404C19.9677 75.6143 29.3516 77.381 40.9185 77.2864Z" fill="#C8DEED"/>
<path d="M40.8026 77.2602C52.2971 77.1661 61.6081 75.2585 61.5995 72.9995C61.5909 70.7404 52.2659 68.9852 40.7715 69.0793C29.277 69.1733 19.966 71.0809 19.9746 73.34C19.9832 75.5991 29.3082 77.3542 40.8026 77.2602Z" fill="#C7DDED"/>
<path d="M61.3543 72.9966C61.3635 75.2407 52.1123 77.1407 40.688 77.2346C29.2668 77.3285 20.0004 75.585 19.9912 73.3408C19.9821 71.0966 29.2332 69.1966 40.6575 69.1027C52.0788 69.0089 61.3452 70.7524 61.3543 72.9966Z" fill="#C6DCED"/>
<path d="M61.1064 73.0006C61.1155 75.2314 51.9224 77.1179 40.5744 77.2118C29.2264 77.3057 20.018 75.5711 20.0088 73.3403C19.9996 71.1096 29.1928 69.223 40.5408 69.1291C51.8888 69.0352 61.0972 70.7698 61.1064 73.0006Z" fill="#C6DCED"/>
<path d="M60.8604 73.0006C60.8695 75.218 51.7343 77.0912 40.4596 77.185C29.1849 77.2789 20.0344 75.5578 20.0283 73.3404C20.0222 71.123 29.1543 69.2499 40.4291 69.156C51.7038 69.0621 60.8542 70.7833 60.8604 73.0006Z" fill="#C5DBEC"/>
<path d="M40.3412 77.1619C51.544 77.0702 60.6189 75.2106 60.6105 73.0083C60.6021 70.806 51.5136 69.095 40.3108 69.1866C29.108 69.2782 20.0332 71.1379 20.0416 73.3402C20.05 75.5425 29.1384 77.2535 40.3412 77.1619Z" fill="#C4DBEC"/>
<path d="M60.3686 73.0052C60.3777 75.1958 51.3616 77.0421 40.2303 77.136C29.099 77.2298 20.0707 75.5266 20.0615 73.3405C20.0524 71.15 29.0685 69.3036 40.1998 69.2098C51.3311 69.1159 60.3594 70.8191 60.3686 73.0052Z" fill="#C3DAEC"/>
<path d="M60.1217 73.005C60.1309 75.1777 51.1727 77.0151 40.1147 77.109C29.0567 77.1984 20.0863 75.513 20.0772 73.3358C20.068 71.1632 29.0261 69.3258 40.0842 69.2319C51.1422 69.1425 60.1126 70.8279 60.1217 73.005Z" fill="#C2DAEB"/>
<path d="M59.8739 73.0095C59.883 75.1687 50.9829 76.9927 39.9981 77.0866C29.0133 77.176 20.101 75.4995 20.0918 73.3403C20.0826 71.181 28.9828 69.3571 39.9676 69.2632C50.9524 69.1738 59.8647 70.8502 59.8739 73.0095Z" fill="#C1D9EB"/>
<path d="M59.6269 73.0091C59.636 75.155 50.7969 76.9655 39.8824 77.0594C28.9708 77.1488 20.1165 75.4813 20.1104 73.3355C20.1043 71.1896 28.9403 69.3791 39.8549 69.2852C50.7664 69.1958 59.6208 70.8633 59.6269 73.0091Z" fill="#C0D8EB"/>
<path d="M39.767 77.0364C50.6074 76.9477 59.3887 75.1485 59.3806 73.0178C59.3725 70.8871 50.578 69.2317 39.7376 69.3204C28.8972 69.4091 20.116 71.2082 20.1241 73.3389C20.1322 75.4697 28.9267 77.125 39.767 77.0364Z" fill="#BFD8EA"/>
<path d="M39.6511 77.0108C50.4173 76.9228 59.1385 75.1341 59.1305 73.0157C59.1224 70.8974 50.3881 69.2515 39.6219 69.3396C28.8557 69.4276 20.1345 71.2163 20.1426 73.3347C20.1506 75.453 28.8849 77.0989 39.6511 77.0108Z" fill="#BED7EA"/>
<path d="M39.5343 76.9846C50.2281 76.8971 58.8905 75.121 58.8825 73.0174C58.8745 70.9139 50.199 69.2795 39.5053 69.367C28.8116 69.4545 20.1491 71.2307 20.1571 73.3342C20.1651 75.4378 28.8406 77.0721 39.5343 76.9846Z" fill="#BDD7EA"/>
<path d="M58.6413 73.0188C58.6504 75.1066 50.0463 76.8724 39.4248 76.9574C28.8032 77.0468 20.1869 75.424 20.1777 73.3362C20.1686 71.2485 28.7727 69.4827 39.3942 69.3977C50.0158 69.3128 58.6321 70.9311 58.6413 73.0188Z" fill="#BCD6E9"/>
<path d="M58.3934 73.0185C58.4026 75.0928 49.8565 76.8452 39.3082 76.9302C28.7599 77.0151 20.2015 75.4057 20.1924 73.3314C20.1832 71.2571 28.7293 69.5047 39.2777 69.4197C49.826 69.3348 58.3843 70.9442 58.3934 73.0185Z" fill="#BBD5E9"/>
<path d="M39.1898 76.9119C49.6661 76.8262 58.1524 75.0875 58.1446 73.0283C58.1367 70.9692 49.6376 69.3695 39.1614 69.4552C28.6851 69.5409 20.1987 71.2796 20.2066 73.3387C20.2145 75.3978 28.7135 76.9976 39.1898 76.9119Z" fill="#BAD5E9"/>
<path d="M57.8986 73.0226C57.9078 75.0701 49.4807 76.7957 39.0758 76.8806C28.674 76.9656 20.2317 75.3785 20.2256 73.331C20.2164 71.2835 28.6435 69.5579 39.0484 69.473C49.4502 69.388 57.8925 70.9751 57.8986 73.0226Z" fill="#B9D4E9"/>
<path d="M57.6518 73.0275C57.6609 75.0571 49.2918 76.7738 38.9602 76.8587C28.6286 76.9437 20.2504 75.3656 20.2412 73.336C20.2321 71.3064 28.6011 69.5897 38.9328 69.5047C49.2644 69.4198 57.6426 70.9979 57.6518 73.0275Z" fill="#B8D4E8"/>
<path d="M57.4078 73.0276C57.417 75.0438 49.1059 76.7471 38.8475 76.832C28.5892 76.917 20.2689 75.3523 20.2598 73.3316C20.2506 71.3154 28.5617 69.6122 38.8201 69.5272C49.0784 69.4423 57.3987 71.007 57.4078 73.0276Z" fill="#B7D3E8"/>
<path d="M57.1599 73.0316C57.169 75.0344 48.9159 76.7242 38.7339 76.8092C28.5488 76.8941 20.2865 75.3384 20.2774 73.3356C20.2682 71.3328 28.5213 69.6429 38.7033 69.558C48.8885 69.4731 57.1507 71.0288 57.1599 73.0316Z" fill="#B6D2E8"/>
<path d="M38.6155 76.7864C48.7277 76.7037 56.9191 75.0254 56.9115 73.0379C56.9039 71.0504 48.7002 69.5063 38.588 69.589C28.4759 69.6717 20.2845 71.35 20.292 73.3375C20.2996 75.325 28.5033 76.8691 38.6155 76.7864Z" fill="#B5D2E7"/>
<path d="M38.4987 76.7608C48.5384 76.6787 56.6711 75.0109 56.6636 73.0358C56.656 71.0606 48.5111 69.526 38.4715 69.6081C28.4318 69.6903 20.2991 71.358 20.3066 73.3332C20.3141 75.3084 28.459 76.843 38.4987 76.7608Z" fill="#B4D1E7"/>
<path d="M56.4182 73.0364C56.4243 74.9945 48.3513 76.653 38.3859 76.7335C28.4205 76.814 20.3323 75.294 20.3262 73.3359C20.3201 71.3778 28.3931 69.7193 38.3584 69.6388C48.3238 69.5583 56.4121 71.0783 56.4182 73.0364Z" fill="#B3D1E7"/>
<path d="M56.1713 73.0365C56.1774 74.9812 48.1654 76.6263 38.2703 76.7068C28.3751 76.7873 20.351 75.2762 20.3418 73.3316C20.3357 71.3869 28.3477 69.7417 38.2428 69.6613C48.138 69.5808 56.1622 71.0918 56.1713 73.0365Z" fill="#B2D0E6"/>
<path d="M55.9244 73.0405C55.9306 74.9717 47.9766 76.6035 38.1547 76.6839C28.3328 76.7644 20.3666 75.2668 20.3574 73.3355C20.3513 71.4043 28.3053 69.7725 38.1272 69.6921C47.9491 69.6116 55.9153 71.1092 55.9244 73.0405Z" fill="#B1CFE6"/>
<path d="M55.6794 73.0411C55.6855 74.9589 47.7895 76.5773 38.0409 76.6577C28.2922 76.7382 20.384 75.2495 20.3779 73.3317C20.3718 71.4138 28.2678 69.7955 38.0165 69.715C47.7651 69.6346 55.6733 71.1232 55.6794 73.0411Z" fill="#B0CFE6"/>
<path d="M37.9254 76.6354C47.601 76.5562 55.4387 74.9489 55.4315 73.0453C55.4242 71.1418 47.5747 69.6628 37.8991 69.7419C28.2235 69.8211 20.3858 71.4284 20.393 73.332C20.4003 75.2355 28.2498 76.7145 37.9254 76.6354Z" fill="#AFCEE5"/>
<path d="M55.1856 73.0452C55.1917 74.9317 47.4147 76.5277 37.8126 76.6082C28.2104 76.6886 20.4182 75.2223 20.4121 73.3313C20.406 71.4447 28.183 69.8488 37.7851 69.7683C47.3873 69.6878 55.1795 71.1542 55.1856 73.0452Z" fill="#AECDE5"/>
<path d="M54.9377 73.0452C54.9438 74.9184 47.2249 76.5009 37.696 76.5814C28.1671 76.6619 20.4329 75.2045 20.4268 73.3313C20.4207 71.4582 28.1396 69.8756 37.6685 69.7952C47.1974 69.7147 54.9316 71.1721 54.9377 73.0452Z" fill="#ADCDE5"/>
<path d="M54.6918 73.0499C54.6979 74.9096 47.037 76.4788 37.5813 76.5593C28.1257 76.6397 20.4525 75.1913 20.4434 73.3316C20.4373 71.4718 28.0982 69.9027 37.5539 69.8222C47.0126 69.7462 54.6827 71.1902 54.6918 73.0499Z" fill="#ACCCE4"/>
<path d="M54.444 73.05C54.4501 74.8963 46.8502 76.452 37.4647 76.5325C28.0793 76.6085 20.4672 75.1779 20.458 73.3316C20.4519 71.4853 28.0518 69.9296 37.4373 69.8491C46.8227 69.7731 54.4348 71.2036 54.444 73.05Z" fill="#ABCCE4"/>
<path d="M54.1999 73.0539C54.2061 74.8868 46.6641 76.4336 37.3519 76.5096C28.0397 76.5856 20.4856 75.164 20.4795 73.3356C20.4734 71.5071 28.0153 69.9559 37.3275 69.8799C46.6397 69.8039 54.1938 71.2255 54.1999 73.0539Z" fill="#AACBE4"/>
<path d="M53.9531 73.0545C53.9592 74.8696 46.4753 76.4074 37.2363 76.4834C27.9974 76.5594 20.5012 75.1467 20.4951 73.3317C20.489 71.5167 27.973 69.9788 37.2119 69.9028C46.4508 69.8268 53.947 71.2395 53.9531 73.0545Z" fill="#A9CAE3"/>
<path d="M53.7052 73.0585C53.7113 74.8601 46.2885 76.3846 37.1197 76.4606C27.954 76.5366 20.5159 75.1373 20.5098 73.3357C20.5037 71.5341 27.9266 70.0096 37.0953 69.9336C46.261 69.8576 53.6991 71.2569 53.7052 73.0585Z" fill="#A8CAE3"/>
<path d="M53.4584 73.0586C53.4645 74.8468 46.0996 76.3579 37.0041 76.4339C27.9117 76.5099 20.5346 75.1195 20.5254 73.3313C20.5193 71.5431 27.8842 70.0321 36.9797 69.9561C46.0721 69.8801 53.4492 71.2704 53.4584 73.0586Z" fill="#A7C9E3"/>
<path d="M36.8897 76.4075C45.9113 76.3337 53.2193 74.8368 53.2125 73.0641C53.2057 71.2914 45.8868 69.9142 36.8653 69.988C27.8437 70.0618 20.5358 71.5586 20.5425 73.3314C20.5493 75.1041 27.8682 76.4813 36.8897 76.4075Z" fill="#A6C8E2"/>
<path d="M52.9634 73.0627C52.9695 74.8241 45.7206 76.3083 36.7747 76.3843C27.8257 76.4603 20.5676 75.0923 20.5615 73.331C20.5554 71.5696 27.8043 70.0854 36.7503 70.0094C45.6993 69.9334 52.9573 71.3013 52.9634 73.0627Z" fill="#A4C8E2"/>
<path d="M52.7195 73.0634C52.7256 74.8069 45.5377 76.2822 36.662 76.3582C27.7863 76.4297 20.5862 75.0752 20.5801 73.3317C20.574 71.5882 27.7619 70.1129 36.6376 70.0369C45.5133 69.9654 52.7134 71.3199 52.7195 73.0634Z" fill="#A3C7E2"/>
<path d="M52.4726 73.0675C52.4787 74.7975 45.3489 76.2594 36.5464 76.3354C27.7439 76.4069 20.6018 75.0658 20.5957 73.3312C20.5896 71.6011 27.7195 70.1393 36.522 70.0633C45.3244 69.9918 52.4665 71.3329 52.4726 73.0675Z" fill="#A2C6E1"/>
<path d="M52.2248 73.0675C52.2309 74.7842 45.159 76.2326 36.4298 76.3042C27.7006 76.3757 20.6165 75.0435 20.6104 73.3268C20.6043 71.6101 27.6761 70.1617 36.4054 70.0902C45.1346 70.0186 52.2187 71.3508 52.2248 73.0675Z" fill="#A1C6E1"/>
<path d="M51.9779 73.0725C51.9841 74.7758 44.9732 76.2108 36.3142 76.2823C27.6582 76.3539 20.6351 75.0306 20.626 73.3273C20.6168 71.6241 27.6307 70.189 36.2898 70.1175C44.9457 70.046 51.9688 71.3693 51.9779 73.0725Z" fill="#A0C5E0"/>
<path d="M51.731 73.0721C51.7371 74.7619 44.7842 76.188 36.1984 76.2551C27.6127 76.3266 20.6506 75.0168 20.6445 73.3269C20.6384 71.6371 27.5913 70.211 36.1771 70.1439C44.7628 70.0724 51.7249 71.3822 51.731 73.0721Z" fill="#9FC4E0"/>
<path d="M51.4831 73.0765C51.4892 74.7485 44.5944 76.1657 36.0818 76.2327C27.5693 76.3042 20.6653 75.0033 20.6592 73.3314C20.6531 71.6594 27.5479 70.2422 36.0605 70.1752C44.573 70.1036 51.477 71.4046 51.4831 73.0765Z" fill="#9EC4E0"/>
<path d="M51.24 73.0768C51.2461 74.7354 44.4093 76.1391 35.9731 76.2062C27.5338 76.2777 20.6877 74.9857 20.6816 73.3272C20.6755 71.6686 27.5124 70.2649 35.9486 70.1978C44.3849 70.1308 51.2339 71.4183 51.24 73.0768Z" fill="#9DC3DF"/>
<path d="M50.9922 73.0769C50.9983 74.722 44.2225 76.1124 35.8565 76.1794C27.4904 76.2465 20.7024 74.9724 20.6963 73.3272C20.6902 71.6821 27.466 70.2918 35.832 70.2247C44.1981 70.1576 50.9861 71.4317 50.9922 73.0769Z" fill="#9CC2DF"/>
<path d="M50.7444 73.0809C50.7505 74.7127 44.0326 76.0896 35.7399 76.1566C27.4471 76.2237 20.717 74.9585 20.7109 73.3268C20.7048 71.6951 27.4227 70.3181 35.7154 70.2511C44.0082 70.184 50.7383 71.4492 50.7444 73.0809Z" fill="#9AC2DF"/>
<path d="M35.6224 76.1364C43.8433 76.0691 50.5026 74.7036 50.4965 73.0865C50.4903 71.4693 43.821 70.2128 35.6001 70.2801C27.3792 70.3473 20.7198 71.7128 20.726 73.33C20.7322 74.9472 27.4015 76.2036 35.6224 76.1364Z" fill="#99C1DE"/>
<path d="M50.2505 73.086C50.2566 74.6864 43.6578 76.041 35.5085 76.108C27.3592 76.1751 20.7512 74.9323 20.7451 73.3274C20.739 71.7269 27.3378 70.3724 35.4871 70.3053C43.6364 70.2383 50.2444 71.4811 50.2505 73.086Z" fill="#98C0DE"/>
<path d="M50.0027 73.0855C50.0088 74.6726 43.468 76.0137 35.3919 76.0808C27.3158 76.1478 20.7659 74.914 20.7598 73.327C20.7537 71.7399 27.2945 70.3988 35.3705 70.3317C43.4466 70.2647 49.9966 71.4985 50.0027 73.0855Z" fill="#97BFDE"/>
<path d="M49.7568 73.0901C49.7629 74.6637 43.2801 75.9914 35.2773 76.0585C27.2745 76.1255 20.7825 74.9006 20.7764 73.327C20.7703 71.7534 27.2531 70.4256 35.2559 70.3586C43.2587 70.2915 49.7507 71.5164 49.7568 73.0901Z" fill="#96BFDD"/>
<path d="M49.5119 73.0901C49.518 74.6503 43.0932 75.9647 35.1636 76.0317C27.234 76.0988 20.8001 74.8873 20.7939 73.3271C20.7878 71.7669 27.2127 70.4525 35.1422 70.3855C43.0718 70.3184 49.5058 71.5299 49.5119 73.0901Z" fill="#95BEDD"/>
<path d="M35.0471 76.0109C42.9039 75.9466 49.2683 74.6416 49.2624 73.096C49.2565 71.5505 42.8826 70.3496 35.0258 70.4139C27.169 70.4782 20.8046 71.7832 20.8105 73.3288C20.8164 74.8743 27.1903 76.0752 35.0471 76.0109Z" fill="#94BDDC"/>
<path d="M49.0169 73.0944C49.023 74.6233 42.7172 75.9197 34.9342 75.9823C27.1511 76.0449 20.8362 74.8557 20.8301 73.3268C20.824 71.7979 27.1298 70.5015 34.9128 70.4389C42.6959 70.3763 49.0108 71.5655 49.0169 73.0944Z" fill="#92BDDC"/>
<path d="M48.7701 73.0944C48.7762 74.6099 42.5284 75.893 34.8186 75.9556C27.1057 76.0181 20.8518 74.8424 20.8457 73.3269C20.8396 71.8114 27.0874 70.5284 34.7972 70.4658C42.5101 70.4032 48.764 71.5789 48.7701 73.0944Z" fill="#91BCDC"/>
<path d="M48.5232 73.0994C48.5293 74.6015 42.3426 75.8711 34.703 75.9337C27.0634 75.9963 20.8674 74.8295 20.8613 73.3274C20.8552 71.8253 27.042 70.5557 34.6816 70.4931C42.3212 70.4305 48.5171 71.5973 48.5232 73.0994Z" fill="#90BBDB"/>
<path d="M48.2754 73.099C48.2815 74.5877 42.1527 75.8439 34.5864 75.9065C27.02 75.9691 20.8821 74.8157 20.876 73.327C20.8699 71.8383 26.9986 70.5821 34.565 70.5195C42.1313 70.4569 48.2693 71.6103 48.2754 73.099Z" fill="#8FBADB"/>
<path d="M48.0314 73.1035C48.0375 74.5788 41.9668 75.8216 34.4737 75.8842C26.9806 75.9468 20.9006 74.8023 20.8945 73.3271C20.8884 71.8518 26.9592 70.609 34.4523 70.5464C41.9454 70.4838 48.0253 71.6283 48.0314 73.1035Z" fill="#8EBADB"/>
<path d="M34.357 75.8602C41.7772 75.7995 47.7879 74.5674 47.7824 73.1082C47.7768 71.6491 41.757 70.5154 34.3368 70.5761C26.9166 70.6368 20.9059 71.8689 20.9114 73.3281C20.917 74.7872 26.9368 75.9209 34.357 75.8602Z" fill="#8DB9DA"/>
<path d="M47.5366 73.1076C47.5427 74.5516 41.591 75.772 34.2413 75.8346C26.8947 75.8972 20.9338 74.7751 20.9277 73.3267C20.9216 71.8827 26.8734 70.6623 34.223 70.5997C41.5696 70.5371 47.5305 71.6592 47.5366 73.1076Z" fill="#8BB8DA"/>
<path d="M47.2896 73.1078C47.2957 74.5384 41.402 75.7454 34.1286 75.808C26.8523 75.8661 20.9524 74.7574 20.9463 73.3269C20.9402 71.8963 26.8339 70.6893 34.1073 70.6267C41.3837 70.5686 47.2835 71.6773 47.2896 73.1078Z" fill="#8AB8D9"/>
<path d="M47.0428 73.1079C47.0489 74.525 41.2131 75.7187 34.013 75.7812C26.8099 75.8394 20.968 74.7396 20.9619 73.3269C20.9558 71.9143 26.7916 70.7162 33.9917 70.6536C41.1948 70.5955 47.0367 71.6952 47.0428 73.1079Z" fill="#89B7D9"/>
<path d="M46.7949 73.1129C46.801 74.5166 41.0263 75.6968 33.8964 75.7594C26.7665 75.8176 20.9827 74.7312 20.9766 73.3275C20.9705 71.9237 26.7452 70.7435 33.8751 70.6809C41.005 70.6228 46.7888 71.7092 46.7949 73.1129Z" fill="#88B6D9"/>
<path d="M46.5509 73.112C46.557 74.4978 40.8402 75.6736 33.7836 75.7317C26.727 75.7898 21.0011 74.7124 20.998 73.3266C20.995 71.9407 26.7087 70.765 33.7653 70.7068C40.8219 70.6487 46.5478 71.7261 46.5509 73.112Z" fill="#87B5D8"/>
<path d="M46.304 73.117C46.3101 74.4894 40.6514 75.6518 33.668 75.7099C26.6846 75.768 21.0198 74.6995 21.0137 73.3271C21.0076 71.9546 26.6663 70.7923 33.6497 70.7342C40.6331 70.6761 46.2979 71.7445 46.304 73.117Z" fill="#85B5D8"/>
<path d="M46.0562 73.117C46.0623 74.4761 40.4615 75.625 33.5514 75.6831C26.6413 75.7412 21.0344 74.6862 21.0283 73.3272C21.0222 71.9681 26.6199 70.8192 33.5331 70.7611C40.4432 70.703 46.0501 71.758 46.0562 73.117Z" fill="#84B4D8"/>
<path d="M45.8093 73.1211C45.8154 74.4667 40.2757 75.6022 33.4358 75.6603C26.5989 75.7184 21.0501 74.6723 21.044 73.3267C21.0378 71.9811 26.5775 70.8456 33.4175 70.7875C40.2544 70.7293 45.8032 71.7754 45.8093 73.1211Z" fill="#83B3D7"/>
<path d="M33.3214 75.6364C40.0876 75.581 45.5685 74.4574 45.5634 73.1266C45.5584 71.7958 40.0692 70.7619 33.303 70.8173C26.5368 70.8726 21.0559 71.9963 21.0609 73.327C21.066 74.6578 26.5552 75.6917 33.3214 75.6364Z" fill="#82B2D7"/>
<path d="M33.2056 75.6102C39.8993 75.5554 45.3215 74.4442 45.3165 73.1283C45.3115 71.8123 39.8811 70.7899 33.1874 70.8447C26.4937 70.8995 21.0715 72.0106 21.0765 73.3266C21.0815 74.6425 26.5119 75.6649 33.2056 75.6102Z" fill="#81B2D6"/>
<path d="M45.0675 73.1259C45.0736 74.4268 39.7109 75.5265 33.0908 75.5802C26.4706 75.6338 21.0988 74.6235 21.0957 73.3226C21.0896 72.0216 26.4523 70.9219 33.0725 70.8683C39.6926 70.8146 45.0645 71.8249 45.0675 73.1259Z" fill="#7FB1D6"/>
<path d="M44.8236 73.1255C44.8297 74.413 39.525 75.4993 32.9781 75.553C26.4312 75.6066 21.1204 74.6052 21.1143 73.3177C21.1082 72.0302 26.4128 70.9439 32.9598 70.8902C39.5067 70.8366 44.8175 71.838 44.8236 73.1255Z" fill="#7EB0D6"/>
<path d="M44.5757 73.1304C44.5818 74.4045 39.3351 75.4775 32.8615 75.5311C26.3878 75.5847 21.135 74.5968 21.1289 73.3227C21.1228 72.0486 26.3695 70.9757 32.8432 70.922C39.3168 70.8684 44.5696 71.8563 44.5757 73.1304Z" fill="#7DAFD5"/>
<path d="M44.3289 73.1305C44.335 74.3912 39.1493 75.4507 32.7459 75.5043C26.3454 75.558 21.1506 74.5789 21.1445 73.3227C21.1384 72.0665 26.3241 71.0025 32.7275 70.9489C39.131 70.8952 44.3228 71.8743 44.3289 73.1305Z" fill="#7CAFD5"/>
<path d="M44.082 73.1345C44.0881 74.3773 38.9605 75.4324 32.6302 75.4815C26.3 75.5352 21.1663 74.5651 21.1602 73.3223C21.1541 72.0795 26.2817 71.0244 32.6119 70.9753C38.9421 70.9216 44.0759 71.8917 44.082 73.1345Z" fill="#7AAED4"/>
<path d="M43.8341 73.1346C43.8402 74.364 38.7705 75.4056 32.5135 75.4548C26.2566 75.504 21.1808 74.5517 21.1777 73.3223C21.1716 72.093 26.2413 71.0513 32.4983 71.0022C38.7552 70.9485 43.831 71.9052 43.8341 73.1346Z" fill="#79ADD4"/>
<path d="M43.5872 73.1349C43.5933 74.3508 38.5816 75.3791 32.3979 75.4282C26.2142 75.4774 21.1964 74.5341 21.1934 73.3182C21.1873 72.1022 26.1989 71.074 32.3826 71.0248C38.5664 70.9756 43.5841 71.9189 43.5872 73.1349Z" fill="#78ACD4"/>
<path d="M43.3431 73.1393C43.3492 74.3419 38.3986 75.3567 32.2881 75.4059C26.1777 75.455 21.221 74.5252 21.2148 73.3226C21.2087 72.12 26.1594 71.1052 32.2698 71.0561C38.3803 71.0069 43.337 71.9368 43.3431 73.1393Z" fill="#77ACD3"/>
<path d="M43.0963 73.139C43.0993 74.3281 38.2097 75.3295 32.1725 75.3787C26.1353 75.4279 21.2366 74.5069 21.2305 73.3178C21.2244 72.1286 26.117 71.1272 32.1542 71.0781C38.1914 71.0289 43.0902 71.9498 43.0963 73.139Z" fill="#75ABD3"/>
<path d="M32.054 75.3558C38.0195 75.307 42.8519 74.3168 42.8474 73.144C42.8429 71.9712 38.0033 71.0601 32.0378 71.1089C26.0723 71.1577 21.24 72.148 21.2444 73.3207C21.2489 74.4935 26.0885 75.4046 32.054 75.3558Z" fill="#74AAD2"/>
<path d="M42.6014 73.144C42.6045 74.3019 37.8339 75.2809 31.9402 75.3301C26.0464 75.3793 21.2667 74.4807 21.2637 73.3184C21.2606 72.156 26.0312 71.1815 31.9249 71.1323C37.8187 71.0831 42.5984 71.9817 42.6014 73.144Z" fill="#73A9D2"/>
<path d="M42.3546 73.148C42.3576 74.2924 37.6451 75.2581 31.8246 75.3072C26.0041 75.3564 21.2824 74.4668 21.2793 73.3223C21.2762 72.1779 25.9888 71.2123 31.8093 71.1631C37.6298 71.1139 42.3515 72.0035 42.3546 73.148Z" fill="#72A8D2"/>
<path d="M42.1077 73.148C42.1108 74.2791 37.4562 75.2313 31.709 75.2805C25.9617 75.3296 21.298 74.449 21.2949 73.3224C21.2919 72.1913 25.9464 71.2391 31.6937 71.19C37.4409 71.1408 42.1047 72.0215 42.1077 73.148Z" fill="#70A8D1"/>
<path d="M41.8628 73.1527C41.8659 74.2704 37.2693 75.2092 31.5953 75.2583C25.9213 75.303 21.3186 74.4402 21.3125 73.3226C21.3094 72.205 25.906 71.2662 31.58 71.217C37.254 71.1723 41.8567 72.0351 41.8628 73.1527Z" fill="#6FA7D1"/>
<path d="M41.6159 73.1528C41.619 74.2525 37.0835 75.1869 31.4797 75.2316C25.8789 75.2763 21.3342 74.4224 21.3281 73.3227C21.3251 72.2229 25.8606 71.2886 31.4644 71.2439C37.0652 71.1992 41.6098 72.053 41.6159 73.1528Z" fill="#6EA6D0"/>
<path d="M41.3688 73.1524C41.3719 74.2387 36.8943 75.1597 31.3669 75.2044C25.8394 75.2491 21.3527 74.4042 21.3496 73.3178C21.3466 72.2315 25.8241 71.3106 31.3516 71.2659C36.8791 71.2212 41.3658 72.0661 41.3688 73.1524Z" fill="#6CA5D0"/>
<path d="M41.121 73.1574C41.1241 74.2303 36.7045 75.1378 31.2503 75.1825C25.793 75.2272 21.3673 74.3957 21.3643 73.3228C21.3612 72.2498 25.7808 71.3423 31.235 71.2976C36.6923 71.2529 41.118 72.0844 41.121 73.1574Z" fill="#6BA5CF"/>
<path d="M40.8741 73.1575C40.8772 74.217 36.5187 75.1111 31.1346 75.1558C25.7506 75.2005 21.3829 74.3779 21.3799 73.3184C21.3768 72.2589 25.7353 71.3648 31.1194 71.3201C36.5034 71.2754 40.8711 72.098 40.8741 73.1575Z" fill="#6AA4CF"/>
<path d="M40.6273 73.1614C40.6303 74.2075 36.3298 75.0882 31.019 75.1329C25.7082 75.1776 21.3986 74.364 21.3955 73.3224C21.3925 72.2763 25.693 71.3956 31.0038 71.3509C36.3145 71.3062 40.6242 72.1198 40.6273 73.1614Z" fill="#68A3CF"/>
<path d="M30.9025 75.1058C36.1398 75.063 40.3822 74.1937 40.3783 73.1641C40.3744 72.1345 36.1255 71.3347 30.8882 71.3775C25.6509 71.4203 21.4085 72.2897 21.4124 73.3193C21.4163 74.3488 25.6652 75.1487 30.9025 75.1058Z" fill="#67A2CE"/>
<path d="M40.1354 73.1665C40.1384 74.1813 35.9539 75.0396 30.7896 75.0844C25.6253 75.1291 21.4347 74.3378 21.4316 73.323C21.4286 72.3082 25.6131 71.4498 30.7774 71.4051C35.9417 71.3604 40.1323 72.1517 40.1354 73.1665Z" fill="#66A1CE"/>
<path d="M39.8885 73.1663C39.8916 74.1677 35.7681 75.0126 30.674 75.0573C25.583 75.0976 21.4503 74.3197 21.4473 73.3183C21.4442 72.3169 25.5677 71.472 30.6618 71.4273C35.7528 71.387 39.8855 72.1649 39.8885 73.1663Z" fill="#65A1CD"/>
<path d="M39.6407 73.1662C39.6437 74.1542 35.5782 74.9857 30.5574 75.0304C25.5366 75.0706 21.465 74.3062 21.4619 73.3182C21.4589 72.3302 25.5244 71.4987 30.5452 71.454C35.566 71.4093 39.6376 72.1782 39.6407 73.1662Z" fill="#63A0CD"/>
<path d="M39.3937 73.1703C39.3968 74.1449 35.3892 74.963 30.4447 75.0077C25.4971 75.0479 21.4835 74.2924 21.4805 73.3223C21.4774 72.3477 25.4849 71.5296 30.4295 71.4849C35.377 71.4447 39.3906 72.2002 39.3937 73.1703Z" fill="#629FCC"/>
<path d="M30.3283 74.9813C35.2032 74.9414 39.1521 74.1325 39.1484 73.1746C39.1448 72.2166 35.1899 71.4724 30.315 71.5123C25.4402 71.5521 21.4912 72.361 21.4949 73.319C21.4985 74.277 25.4534 75.0212 30.3283 74.9813Z" fill="#619ECC"/>
<path d="M38.899 73.1749C38.902 74.1182 35.0136 74.9184 30.2125 74.9542C25.4114 74.9944 21.5168 74.2612 21.5107 73.318C21.5077 72.3747 25.3962 71.5745 30.1972 71.5387C34.9983 71.4985 38.8929 72.2316 38.899 73.1749Z" fill="#5F9DCC"/>
<path d="M30.0956 74.934C34.8238 74.8953 38.6539 74.1094 38.6504 73.1786C38.6468 72.2478 34.8109 71.5246 30.0827 71.5633C25.3545 71.6019 21.5244 72.3879 21.5279 73.3187C21.5315 74.2495 25.3673 74.9727 30.0956 74.934Z" fill="#5E9CCB"/>
<path d="M38.4081 73.18C38.4111 74.0964 34.6386 74.8698 29.9841 74.9056C25.3295 74.9458 21.5509 74.235 21.5479 73.3186C21.5448 72.4021 25.3173 71.6287 29.9719 71.5929C34.6264 71.5527 38.405 72.2635 38.4081 73.18Z" fill="#5D9CCB"/>
<path d="M38.1612 73.1798C38.1643 74.0828 34.4528 74.8428 29.8685 74.8786C25.2841 74.9143 21.5665 74.2169 21.5635 73.3139C21.5604 72.4108 25.2719 71.6508 29.8562 71.6151C34.4406 71.5793 38.1582 72.2767 38.1612 73.1798Z" fill="#5B9BCA"/>
<path d="M37.9134 73.1793C37.9164 74.0645 34.263 74.8155 29.7519 74.8513C25.2407 74.8871 21.5812 74.1986 21.5781 73.3134C21.5751 72.4283 25.2285 71.6772 29.7396 71.6415C34.2508 71.6057 37.9103 72.2942 37.9134 73.1793Z" fill="#5A9ACA"/>
<path d="M37.6665 73.1839C37.6696 74.0556 34.0741 74.7932 29.6362 74.829C25.1984 74.8648 21.5999 74.1897 21.5938 73.3135C21.5907 72.4417 25.1862 71.7041 29.624 71.6684C34.0619 71.6326 37.6604 72.3076 37.6665 73.1839Z" fill="#5899C9"/>
<path d="M37.4194 73.1839C37.4225 74.0422 33.888 74.7665 29.5234 74.8022C25.1588 74.838 21.6183 74.1719 21.6152 73.3135C21.6122 72.4552 25.1466 71.731 29.5112 71.6952C33.8758 71.6595 37.4164 72.3256 37.4194 73.1839Z" fill="#5798C9"/>
<path d="M37.1745 73.1883C37.1776 74.0333 33.7011 74.7441 29.4098 74.7798C25.1184 74.8156 21.6359 74.1584 21.6328 73.318C21.6298 72.4731 25.1062 71.7623 29.3976 71.7265C33.6889 71.6907 37.1714 72.3479 37.1745 73.1883Z" fill="#5697C9"/>
<path d="M36.9276 73.1885C36.9307 74.02 33.5123 74.7174 29.2941 74.7532C25.076 74.7889 21.6515 74.1452 21.6484 73.3137C21.6454 72.4821 25.0638 71.7847 29.2819 71.749C33.5 71.7132 36.9246 72.357 36.9276 73.1885Z" fill="#5497C8"/>
<path d="M36.6808 73.1929C36.6838 74.0066 33.3234 74.695 29.1785 74.7308C25.0306 74.7665 21.6671 74.1317 21.6641 73.3181C21.661 72.5045 25.0184 71.816 29.1663 71.7802C33.3142 71.7445 36.6777 72.3793 36.6808 73.1929Z" fill="#5396C8"/>
<path d="M36.4329 73.1926C36.436 73.9928 33.1366 74.6723 29.0619 74.7036C24.9873 74.7394 21.6818 74.1135 21.6787 73.3133C21.6757 72.5131 24.9751 71.8335 29.0497 71.8022C33.1244 71.7665 36.4299 72.3923 36.4329 73.1926Z" fill="#5295C7"/>
<path d="M36.1859 73.1972C36.1859 73.984 32.9476 74.6501 28.9462 74.6814C24.9448 74.7127 21.7003 74.1047 21.6973 73.3179C21.6973 72.5311 24.9356 71.865 28.937 71.8337C32.9384 71.8024 36.1829 72.4104 36.1859 73.1972Z" fill="#5094C7"/>
<path d="M35.9391 73.1973C35.9391 73.9707 32.7587 74.6234 28.8306 74.6547C24.9024 74.686 21.7159 74.0869 21.7129 73.3135C21.7129 72.5401 24.8933 71.8874 28.8214 71.8562C32.7496 71.8249 35.936 72.4239 35.9391 73.1973Z" fill="#4F93C6"/>
<path d="M35.6942 73.1974C35.6942 73.9573 32.5749 74.5966 28.7169 74.6279C24.862 74.6592 21.7335 74.0691 21.7305 73.3136C21.7305 72.5536 24.8498 71.9143 28.7077 71.883C32.5626 71.8517 35.6911 72.4418 35.6942 73.1974Z" fill="#4E92C6"/>
<path d="M35.4472 73.2014C35.4472 73.9435 32.3859 74.5738 28.6042 74.6051C24.8226 74.6364 21.7521 74.0597 21.749 73.3132C21.749 72.5711 24.8104 71.9407 28.592 71.9094C32.3737 71.8781 35.4441 72.4548 35.4472 73.2014Z" fill="#4C92C5"/>
<path d="M35.2003 73.2019C35.2003 73.9306 32.197 74.5476 28.4886 74.5789C24.7771 74.6101 21.7677 74.0424 21.7646 73.3137C21.7646 72.585 24.768 71.9681 28.4764 71.9368C32.1848 71.9055 35.1973 72.4732 35.2003 73.2019Z" fill="#4B91C5"/>
<path d="M34.9525 73.2065C34.9525 73.9217 32.0102 74.5253 28.372 74.5566C24.7338 74.5878 21.7823 74.029 21.7793 73.3137C21.7793 72.5985 24.7216 71.9949 28.3598 71.9637C31.998 71.9324 34.9494 72.4912 34.9525 73.2065Z" fill="#4990C5"/>
<path d="M34.7055 73.206C34.7055 73.9079 31.8212 74.498 28.2563 74.5293C24.6913 74.5606 21.8009 74.0152 21.7979 73.3133C21.7979 72.6115 24.6822 72.0213 28.2471 71.9901C31.812 71.9588 34.7025 72.5042 34.7055 73.206Z" fill="#488FC4"/>
<path d="M34.4586 73.2106C34.4586 73.8991 31.6323 74.4758 28.1406 74.5071C24.6489 74.5339 21.8165 74.0019 21.8135 73.3179C21.8135 72.6295 24.6398 72.0528 28.1315 72.0215C31.6232 71.9947 34.4556 72.5266 34.4586 73.2106Z" fill="#478EC4"/>
<path d="M34.2108 73.2111C34.2108 73.8817 31.4425 74.4494 28.024 74.4807C24.6056 74.512 21.8312 73.989 21.8281 73.3139C21.8251 72.6389 24.5965 72.0756 28.0149 72.0443C31.4333 72.013 34.2078 72.5361 34.2108 73.2111Z" fill="#458DC3"/>
<path d="M27.9084 74.4602C31.2544 74.4328 33.9648 73.8763 33.9623 73.217C33.9598 72.5578 31.2453 72.0456 27.8993 72.073C24.5533 72.1004 21.8429 72.657 21.8454 73.3162C21.8479 73.9754 24.5624 74.4876 27.9084 74.4602Z" fill="#448CC3"/>
<path d="M33.72 73.2148C33.72 73.8586 31.0707 74.404 27.7957 74.4308C24.5208 74.4576 21.8654 73.957 21.8623 73.3132C21.8623 72.6694 24.5116 72.124 27.7866 72.0972C31.0616 72.0704 33.717 72.5711 33.72 73.2148Z" fill="#428CC2"/>
<path d="M33.4729 73.2154C33.4729 73.8457 30.8816 74.3777 27.6829 74.4046C24.4812 74.4314 21.8838 73.9441 21.8838 73.3137C21.8838 72.6834 24.4751 72.1514 27.6738 72.1246C30.8755 72.0978 33.4729 72.5851 33.4729 73.2154Z" fill="#418BC2"/>
<path d="M33.2251 73.2199C33.2251 73.8368 30.6948 74.3554 27.5663 74.3822C24.4378 74.4091 21.9015 73.9307 21.8984 73.3138C21.8984 72.6969 24.4287 72.1783 27.5572 72.1515C30.6857 72.1246 33.222 72.603 33.2251 73.2199Z" fill="#3F8AC1"/>
<path d="M32.9782 73.2195C32.9782 73.8185 30.5059 74.3282 27.4507 74.355C24.3955 74.3818 21.9171 73.9124 21.9141 73.3134C21.9141 72.7143 24.3863 72.2047 27.4416 72.1779C30.4968 72.151 32.9752 72.6204 32.9782 73.2195Z" fill="#3E89C1"/>
<path d="M32.7304 73.224C32.7304 73.8097 30.3161 74.3059 27.3341 74.3327C24.3521 74.3595 21.9318 73.9035 21.9287 73.3134C21.9257 72.7233 24.343 72.2316 27.325 72.2047C30.3069 72.1779 32.7273 72.6339 32.7304 73.224Z" fill="#3D88C0"/>
<path d="M32.4864 73.2242C32.4864 73.7964 30.1302 74.2793 27.2214 74.3016C24.3127 74.324 21.9503 73.8814 21.9473 73.3092C21.9473 72.7369 24.3035 72.2541 27.2123 72.2318C30.121 72.2094 32.4834 72.652 32.4864 73.2242Z" fill="#3B87C0"/>
<path d="M32.2394 73.2243C32.2394 73.7831 29.9442 74.2525 27.1057 74.2748C24.2672 74.2972 21.9658 73.8636 21.9658 73.3092C21.9658 72.7504 24.2611 72.281 27.0996 72.2586C29.9381 72.2363 32.2394 72.6699 32.2394 73.2243Z" fill="#3A86C0"/>
<path d="M31.9926 73.2283C31.9926 73.7737 29.7553 74.2297 26.9901 74.2521C24.2248 74.2744 21.9814 73.8542 21.9814 73.3088C21.9814 72.7634 24.2187 72.3074 26.984 72.285C29.7492 72.2627 31.9926 72.6829 31.9926 73.2283Z" fill="#3885BF"/>
<path d="M31.7447 73.2284C31.7447 73.7559 29.5655 74.2029 26.8735 74.2253C24.1815 74.2476 21.9991 73.8363 21.9961 73.3088C21.9961 72.7813 24.1753 72.3343 26.8674 72.3119C29.5594 72.2896 31.7417 72.7008 31.7447 73.2284Z" fill="#3784BF"/>
<path d="M31.4978 73.2334C31.4978 73.7475 29.3796 74.1856 26.7608 74.2035C24.142 74.2214 22.0177 73.8235 22.0147 73.3094C22.0116 72.7953 24.1329 72.3571 26.7516 72.3393C29.3704 72.3169 31.4947 72.7193 31.4978 73.2334Z" fill="#3584BE"/>
<path d="M31.2509 73.2329C31.2509 73.7336 29.1907 74.1583 26.6452 74.1762C24.0996 74.1986 22.0333 73.8096 22.0303 73.3089C22.0303 72.8082 24.0905 72.3835 26.636 72.3657C29.1815 72.3433 31.2478 72.7322 31.2509 73.2329Z" fill="#3483BE"/>
<path d="M31.0068 73.2375C31.0068 73.7248 29.0046 74.136 26.5324 74.1539C24.0601 74.1763 22.0518 73.7963 22.0518 73.309C22.0518 72.8217 24.054 72.4104 26.5262 72.3925C28.9985 72.3702 31.0068 72.7502 31.0068 73.2375Z" fill="#3282BD"/>
<path d="M30.759 73.2377C30.759 73.7115 28.8148 74.1094 26.4158 74.1273C24.0137 74.1452 22.0664 73.7786 22.0664 73.3092C22.0664 72.8353 24.0106 72.4375 26.4097 72.4196C28.8117 72.4017 30.759 72.7683 30.759 73.2377Z" fill="#3181BD"/>
<path d="M30.5121 73.2422C30.5121 73.6982 28.6289 74.0871 26.3001 74.105C23.9713 74.1229 22.082 73.7697 22.082 73.3093C22.082 72.8533 23.9652 72.4643 26.294 72.4465C28.6228 72.4286 30.5091 72.7817 30.5121 73.2422Z" fill="#2F80BC"/>
<path d="M30.2653 73.2418C30.2653 73.6843 28.4401 74.0599 26.1845 74.0777C23.929 74.0956 22.1007 73.7514 22.0977 73.3088C22.0977 72.8662 23.9229 72.4907 26.1784 72.4728C28.434 72.455 30.2622 72.7992 30.2653 73.2418Z" fill="#2E7FBC"/>
<path d="M30.0174 73.2419C30.0174 73.6711 28.2502 74.0332 26.0679 74.051C23.8856 74.0689 22.1154 73.7336 22.1123 73.3045C22.1093 72.8753 23.8795 72.5132 26.0618 72.4953C28.2441 72.4774 30.0144 72.8127 30.0174 73.2419Z" fill="#2C7EBB"/>
<path d="M29.7705 73.2468C29.7705 73.6626 28.0643 74.0113 25.9522 74.0292C23.8431 74.0471 22.1309 73.7252 22.1309 73.3094C22.1309 72.8937 23.837 72.545 25.9491 72.5271C28.0582 72.5092 29.7705 72.8311 29.7735 73.2468H29.7705Z" fill="#2B7DBB"/>
<path d="M29.5254 73.2464C29.5254 73.6487 27.8773 73.984 25.8414 74.0019C23.8056 74.0198 22.1514 73.7069 22.1514 73.309C22.1514 72.9066 23.7995 72.5713 25.8353 72.5535C27.8711 72.5356 29.5254 72.8485 29.5254 73.2464Z" fill="#2A7CBA"/>
<path d="M29.2795 73.2509C29.2795 73.6354 27.6894 73.9617 25.7268 73.9796C23.7643 73.9975 22.168 73.698 22.168 73.309C22.168 72.9246 23.7582 72.5982 25.7207 72.5804C27.6863 72.5625 29.2795 72.862 29.2795 73.2509Z" fill="#287BBA"/>
<path d="M29.0317 73.2511C29.0317 73.6222 27.4995 73.9351 25.6102 73.953C23.7179 73.9664 22.1857 73.6803 22.1826 73.3093C22.1826 72.9382 23.7148 72.6253 25.6041 72.6074C27.4965 72.594 29.0287 72.8801 29.0317 73.2511Z" fill="#277BB9"/>
<path d="M28.7848 73.2557C28.7848 73.6133 27.3137 73.9173 25.4946 73.9307C23.6755 73.9441 22.2013 73.6669 22.1982 73.3093C22.1952 72.9517 23.6694 72.6477 25.4885 72.6343C27.3076 72.6208 28.7818 72.898 28.7848 73.2557Z" fill="#257AB9"/>
<path d="M28.537 73.2552C28.537 73.5995 27.1238 73.89 25.378 73.9034C23.6322 73.9169 22.2159 73.6531 22.2129 73.3089C22.2129 72.9646 23.626 72.6741 25.3719 72.6606C27.1177 72.6472 28.5339 72.911 28.537 73.2552Z" fill="#2479B8"/>
<path d="M28.29 73.2553C28.29 73.5862 26.9349 73.8633 25.2623 73.8767C23.5897 73.8902 22.2314 73.6353 22.2314 73.3045C22.2314 72.9737 23.5866 72.6965 25.2592 72.6831C26.9318 72.6697 28.29 72.9245 28.29 73.2553Z" fill="#2278B8"/>
<path d="M28.0422 73.2603C28.0422 73.5732 26.7481 73.8414 25.1457 73.8549C23.5433 73.8683 22.2461 73.6224 22.2461 73.3095C22.2461 72.9965 23.5402 72.7283 25.1426 72.7149C26.742 72.7015 28.0422 72.9473 28.0422 73.2603Z" fill="#2177B7"/>
<path d="M27.7992 73.2594C27.7992 73.559 26.5631 73.8138 25.0339 73.8272C23.5048 73.8406 22.2656 73.6081 22.2656 73.3041C22.2656 73.0046 23.5018 72.7498 25.0309 72.7364C26.56 72.723 27.7992 72.9554 27.7992 73.2594Z" fill="#1F76B7"/>
<path d="M27.5513 73.2644C27.5513 73.5505 26.3731 73.7919 24.9203 73.8053C23.4644 73.8187 22.2863 73.5952 22.2832 73.3091C22.2802 73.023 23.4613 72.7816 24.9142 72.7682C26.3701 72.7547 27.5482 72.9783 27.5513 73.2644Z" fill="#1E75B6"/>
<path d="M27.3034 73.2644C27.3034 73.5371 26.1833 73.7651 24.8037 73.7785C23.4211 73.792 22.3009 73.5774 22.2979 73.3091C22.2948 73.0409 23.418 72.8084 24.7976 72.795C26.1802 72.7816 27.3004 72.9962 27.3034 73.2644Z" fill="#1C74B6"/>
<path d="M27.0574 73.2685C27.0574 73.5278 25.9983 73.7424 24.6889 73.7558C23.3795 73.7692 22.3174 73.568 22.3174 73.3087C22.3174 73.0494 23.3765 72.8348 24.6859 72.8214C25.9953 72.808 27.0574 73.0092 27.0574 73.2685Z" fill="#1A73B6"/>
<path d="M26.8096 73.2687C26.8096 73.5101 25.8085 73.7157 24.5723 73.7291C23.3362 73.7381 22.332 73.5503 22.332 73.3089C22.332 73.0675 23.3331 72.8619 24.5693 72.8485C25.8054 72.8395 26.8096 73.0273 26.8096 73.2687Z" fill="#1972B5"/>
<path d="M26.5617 73.2732C26.5617 73.5012 25.6186 73.6934 24.4557 73.7068C23.2929 73.7158 22.3467 73.537 22.3467 73.309C22.3467 73.081 23.2898 72.8887 24.4527 72.8753C25.6156 72.8664 26.5617 73.0452 26.5617 73.2732Z" fill="#1771B5"/>
<path d="M26.3188 73.2737C26.3188 73.4883 25.4367 73.6716 24.344 73.6806C23.2513 73.6895 22.3662 73.5241 22.3662 73.3095C22.3662 73.0949 23.2483 72.9116 24.341 72.9027C25.4336 72.8937 26.3188 73.0592 26.3188 73.2737Z" fill="#1670B4"/>
<path d="M26.0709 73.2729C26.0709 73.4741 25.2469 73.6439 24.2274 73.6529C23.208 73.6618 22.3839 73.5054 22.3809 73.3042C22.3778 73.103 23.205 72.9331 24.2244 72.9242C25.2438 72.9153 26.0679 73.0717 26.0709 73.2729Z" fill="#146FB4"/>
<path d="M25.824 73.2778C25.824 73.4656 25.0579 73.6221 24.1117 73.6265C23.1655 73.6355 22.3994 73.4879 22.3994 73.3047C22.3994 73.1169 23.1655 72.9604 24.1117 72.956C25.0579 72.947 25.824 73.0945 25.824 73.2778Z" fill="#136EB3"/>
<path d="M25.5771 73.2777C25.5771 73.4475 24.872 73.5951 23.9961 73.5995C23.1231 73.6085 22.415 73.4744 22.415 73.3C22.415 73.1301 23.1201 72.9826 23.993 72.9781C24.8659 72.9737 25.574 73.1033 25.574 73.2777H25.5771Z" fill="#116EB3"/>
<path d="M25.3291 73.2826C25.3291 73.4391 24.6821 73.5732 23.8824 73.5776C23.0827 73.5821 22.4326 73.4614 22.4326 73.3049C22.4326 73.1485 23.0797 73.0144 23.8793 73.0099C24.679 73.0054 25.3291 73.1261 25.3291 73.2826Z" fill="#106DB2"/>
<path d="M25.0823 73.2817C25.0823 73.4248 24.4932 73.5455 23.7668 73.55C23.0404 73.5544 22.4482 73.4427 22.4482 73.2996C22.4482 73.1566 23.0373 73.0359 23.7637 73.0314C24.4901 73.0269 25.0823 73.1387 25.0823 73.2817Z" fill="#0E6CB2"/>
<path d="M24.8383 73.2867C24.8383 73.4163 24.3073 73.5236 23.6541 73.5281C22.9979 73.5325 22.4668 73.4342 22.4668 73.3045C22.4668 73.1749 22.9979 73.0676 23.651 73.0631C24.3073 73.0587 24.8383 73.157 24.8383 73.2867Z" fill="#0D6BB1"/>
<path d="M24.5905 73.2867C24.5905 73.4029 24.1205 73.4968 23.5375 73.5013C22.9545 73.5058 22.4845 73.4164 22.4815 73.3046C22.4784 73.1928 22.9515 73.0945 23.5345 73.09C24.1174 73.0855 24.5875 73.1749 24.5905 73.2867Z" fill="#0B6AB1"/>
<path d="M24.3435 73.2871C24.3435 73.3855 23.9315 73.4704 23.4218 73.4749C22.912 73.4749 22.5 73.4034 22.5 73.3006C22.5 73.2022 22.912 73.1173 23.4218 73.1128C23.9315 73.1128 24.3435 73.1843 24.3435 73.2871Z" fill="#0969B0"/>
<path d="M24.0957 73.2911C24.0957 73.376 23.7416 73.4475 23.3052 73.452C22.8687 73.4565 22.5146 73.3894 22.5146 73.3045C22.5146 73.2196 22.8687 73.148 23.3052 73.1436C23.7416 73.1436 24.0957 73.2061 24.0957 73.2911Z" fill="#0868B0"/>
<path d="M23.8488 73.2912C23.8488 73.3627 23.5558 73.4253 23.1895 73.4253C22.8233 73.4253 22.5303 73.3717 22.5303 73.3001C22.5303 73.2286 22.8233 73.166 23.1895 73.166C23.5528 73.166 23.8488 73.2197 23.8488 73.2912Z" fill="#0667AF"/>
<path d="M23.602 73.2961C23.602 73.3542 23.3669 73.4034 23.0739 73.4034C22.784 73.4034 22.5459 73.3632 22.5459 73.305C22.5459 73.2469 22.7809 73.1978 23.0739 73.1978C23.3639 73.1978 23.602 73.238 23.602 73.2961Z" fill="#0566AF"/>
<path d="M23.354 73.2952C23.354 73.3399 23.177 73.3757 22.9603 73.3757C22.7405 73.3757 22.5635 73.3444 22.5635 73.2997C22.5635 73.255 22.7405 73.2192 22.9572 73.2192C23.177 73.2192 23.354 73.2505 23.354 73.2952Z" fill="#0365AE"/>
<path d="M23.1099 73.3002C23.1099 73.327 22.9909 73.3538 22.8474 73.3538C22.704 73.3538 22.585 73.3314 22.585 73.3046C22.585 73.2778 22.704 73.251 22.8474 73.251C22.9909 73.251 23.1099 73.2733 23.1099 73.3002Z" fill="#0264AE"/>
<path d="M22.8631 73.3003C22.8631 73.3003 22.8051 73.3271 22.7318 73.3271C22.6586 73.3271 22.6006 73.3181 22.6006 73.3003C22.6006 73.2868 22.6586 73.2734 22.7318 73.2734C22.8051 73.2734 22.8631 73.2824 22.8631 73.3003Z" fill="#0063AD"/>
</g>
</g>
<g clip-path="url(#clip0_6610_6494)">
<path d="M37.6456 31.9779C36.2783 32.2948 34.8533 31.5434 34.3395 30.1752L28.974 15.7853C27.697 12.3668 24.2043 10.3655 20.6602 11.0231C18.5056 11.4298 16.6552 12.7552 15.5839 14.6827C14.511 16.6035 14.3335 18.9004 15.1045 20.9845L18.7852 30.9546C19.3339 32.4427 18.5922 34.0946 17.117 34.6429C15.6401 35.1843 14.0107 34.4305 13.4605 32.9356L9.77985 22.9655C8.42333 19.295 8.73418 15.2382 10.6294 11.8318C12.5344 8.43731 15.8038 6.07867 19.6046 5.37585C25.8631 4.21022 32.0442 7.74469 34.2956 13.7908L39.6595 28.174C40.2148 29.6606 39.4747 31.3193 38.0061 31.8659C37.8892 31.9072 37.7656 31.9501 37.6456 31.9779Z" fill="url(#paint0_linear_6610_6494)"/>
<path d="M28.0429 6.76488C25.9934 5.98743 23.725 5.75168 21.4406 6.1743C17.8349 6.83905 14.735 9.08014 12.9371 12.3003C11.1393 15.5205 10.8447 19.3743 12.1292 22.8552L15.618 32.3005C15.7715 32.7203 16.0141 33.0697 16.3191 33.3548C15.3318 33.2491 14.4406 32.5875 14.0693 31.592L10.5805 22.1466C9.2894 18.6674 9.59072 14.812 11.3885 11.5918C13.1781 8.36642 16.2862 6.13054 19.892 5.46579C22.768 4.92743 25.6273 5.43895 28.0429 6.76488Z" fill="url(#paint1_linear_6610_6494)"/>
<path d="M36.9786 31.0085C35.9913 30.9028 35.1032 30.2547 34.7304 29.2524L29.6434 15.6091C29.0689 14.0701 28.0247 12.8391 26.7217 12.0381C28.7234 12.6701 30.4014 14.2096 31.1854 16.3192L36.2724 29.9625C36.4243 30.3755 36.6685 30.7317 36.9719 31.01L36.9786 31.0085Z" fill="url(#paint2_linear_6610_6494)"/>
<path d="M52.2931 63.6797L21.7671 72.8168C21.7671 72.8168 19.3925 73.1536 17.8083 71.1085L7.10746 40.5783C7.10746 40.5783 7.268 32.8703 13.7358 31.4854C16.9563 30.7961 51.3085 55.6394 56.2458 60.2661C55.8381 62.2676 52.2931 63.6797 52.2931 63.6797Z" fill="url(#paint3_linear_6610_6494)"/>
<path d="M24.143 67.9969L12.5703 34.6445C12.0468 33.1434 12.9508 31.525 14.4844 31.1981L41.246 25.559C43.3229 25.1204 45.4079 26.3237 46.0981 28.3625L56.2732 58.4738C56.7595 59.9052 55.963 61.4417 54.5263 61.8529L27.3228 69.6794C25.9912 70.0591 24.5909 69.3233 24.1296 68L24.143 67.9969Z" fill="url(#paint4_linear_6610_6494)"/>
<path style="mix-blend-mode:multiply" opacity="0.32" d="M38.9918 47.6135L40.5903 52.6012C40.9991 53.8798 40.3094 55.2706 39.039 55.6718L38.4764 55.8519C37.9804 56.0167 37.4705 55.9996 37.0006 55.8524C36.2861 55.6195 35.6812 55.0409 35.433 54.273L33.8802 49.4526C32.0043 49.0903 30.367 47.7264 29.7273 45.7541L28.2842 41.2854C27.8054 39.7953 27.9989 38.2348 28.6901 36.9717C29.3318 35.7984 30.3856 34.8568 31.7396 34.4221C34.5629 33.5046 37.6295 35.0924 38.5456 37.9541L39.9918 42.4363C40.5885 44.2833 40.1385 46.2235 38.9985 47.6119L38.9918 47.6135Z" fill="url(#paint5_linear_6610_6494)"/>
<path d="M35.2785 50.3302L36.877 55.318C36.9393 55.4957 36.9697 55.6878 36.9971 55.8665C36.2825 55.6336 35.6776 55.0551 35.4294 54.2872L33.8767 49.4667C32.0007 49.1045 30.3634 47.7405 29.7237 45.7683L28.2806 41.2996C27.8018 39.8095 27.9954 38.249 28.6865 36.9859C31.3096 36.4777 33.9909 38.0409 34.8354 40.6844L36.2816 45.1666C36.8783 47.0136 36.4283 48.9538 35.2883 50.3422L35.2785 50.3302Z" fill="#DDDDDD"/>
</g>
<rect x="79.7734" y="11.3481" width="185.004" height="31.3125" rx="7" fill="black" fill-opacity="0.05" stroke="#293FE6" stroke-width="2"/>
<path d="M96.8707 28.1904V21.1504H98.4067V28.0304C98.4067 28.6491 98.5187 29.1771 98.7427 29.6144C98.9667 30.0411 99.276 30.3664 99.6707 30.5904C100.076 30.8144 100.551 30.9264 101.095 30.9264C101.639 30.9264 102.113 30.8144 102.519 30.5904C102.924 30.3664 103.233 30.0411 103.447 29.6144C103.671 29.1771 103.783 28.6491 103.783 28.0304V21.1504H105.287V28.1904C105.287 29.0758 105.1 29.8331 104.727 30.4624C104.364 31.0811 103.863 31.5504 103.223 31.8704C102.593 32.1904 101.879 32.3504 101.079 32.3504C100.289 32.3504 99.5747 32.1904 98.9347 31.8704C98.2947 31.5504 97.788 31.0811 97.4147 30.4624C97.052 29.8331 96.8707 29.0758 96.8707 28.1904ZM107.528 31.2144L108.392 30.2224C108.68 30.4571 109.016 30.6651 109.4 30.8464C109.794 31.0278 110.253 31.1184 110.776 31.1184C111.32 31.1184 111.725 31.0278 111.992 30.8464C112.258 30.6651 112.392 30.4251 112.392 30.1264C112.392 29.9344 112.333 29.7584 112.216 29.5984C112.109 29.4278 111.912 29.2678 111.624 29.1184C111.346 28.9584 110.952 28.8038 110.44 28.6544C109.501 28.3664 108.829 28.0144 108.424 27.5984C108.018 27.1718 107.816 26.6758 107.816 26.1104C107.816 25.6624 107.944 25.2678 108.2 24.9264C108.466 24.5744 108.829 24.2971 109.288 24.0944C109.746 23.8918 110.269 23.7904 110.856 23.7904C111.314 23.7904 111.784 23.8704 112.264 24.0304C112.754 24.1798 113.186 24.4091 113.56 24.7184L112.744 25.7744C112.488 25.5611 112.184 25.3851 111.832 25.2464C111.49 25.0971 111.117 25.0224 110.712 25.0224C110.221 25.0224 109.848 25.1131 109.592 25.2944C109.346 25.4758 109.224 25.6944 109.224 25.9504C109.224 26.1531 109.277 26.3291 109.384 26.4784C109.501 26.6171 109.698 26.7504 109.976 26.8784C110.264 27.0064 110.658 27.1451 111.16 27.2944C111.864 27.4971 112.408 27.7371 112.792 28.0144C113.186 28.2811 113.464 28.5744 113.624 28.8944C113.784 29.2144 113.864 29.5664 113.864 29.9504C113.864 30.4091 113.73 30.8198 113.464 31.1824C113.197 31.5451 112.824 31.8331 112.344 32.0464C111.864 32.2491 111.298 32.3504 110.648 32.3504C110.029 32.3504 109.448 32.2438 108.904 32.0304C108.36 31.8171 107.901 31.5451 107.528 31.2144ZM115.623 28.1584C115.623 27.1984 115.788 26.3931 116.119 25.7424C116.45 25.0918 116.892 24.6064 117.447 24.2864C118.002 23.9558 118.62 23.7904 119.303 23.7904C119.932 23.7904 120.503 23.9451 121.015 24.2544C121.538 24.5531 121.948 25.0118 122.247 25.6304C122.556 26.2384 122.711 27.0011 122.711 27.9184C122.711 28.0144 122.706 28.1158 122.695 28.2224C122.695 28.3184 122.69 28.4144 122.679 28.5104H116.887V27.3264H121.559L121.271 27.9184C121.271 26.8944 121.074 26.1691 120.679 25.7424C120.295 25.3051 119.831 25.0864 119.287 25.0864C118.86 25.0864 118.482 25.2038 118.151 25.4384C117.831 25.6624 117.58 26.0038 117.399 26.4624C117.218 26.9104 117.127 27.4758 117.127 28.1584C117.127 28.7878 117.239 29.3158 117.463 29.7424C117.698 30.1584 118.007 30.4731 118.391 30.6864C118.775 30.8998 119.207 31.0064 119.687 31.0064C120.071 31.0064 120.423 30.9424 120.743 30.8144C121.063 30.6864 121.346 30.5264 121.591 30.3344L122.279 31.5024C121.916 31.8011 121.506 32.0198 121.047 32.1584C120.599 32.2864 120.13 32.3504 119.639 32.3504C118.871 32.3504 118.183 32.1958 117.575 31.8864C116.978 31.5771 116.503 31.1131 116.151 30.4944C115.799 29.8651 115.623 29.0864 115.623 28.1584ZM124.787 23.9504H126.163L126.499 25.5504V32.1904H125.027V25.9024C125.027 25.6784 125.016 25.4758 124.995 25.2944C124.984 25.1024 124.958 24.8891 124.915 24.6544L124.787 23.9504ZM126.259 26.6864V25.5504C126.558 25.0171 126.952 24.5904 127.443 24.2704C127.934 23.9504 128.488 23.7904 129.107 23.7904V25.3744C128.456 25.4064 127.891 25.5344 127.411 25.7584C126.942 25.9718 126.558 26.2811 126.259 26.6864ZM134.789 32.1904V30.8944H139.525V32.1904H134.789ZM134.789 22.4464V21.1504H139.525V22.4464H134.789ZM136.389 32.1904V21.1504H137.925V32.1904H136.389ZM142.406 32.1904V21.1504H143.942V32.1904H142.406ZM143.206 32.1904V30.8144H145.894C146.576 30.8144 147.184 30.6544 147.718 30.3344C148.262 30.0144 148.688 29.5451 148.998 28.9264C149.318 28.3078 149.478 27.5558 149.478 26.6704C149.478 25.7851 149.318 25.0331 148.998 24.4144C148.688 23.7958 148.262 23.3264 147.718 23.0064C147.184 22.6864 146.576 22.5264 145.894 22.5264H143.206V21.1504H145.974C146.923 21.1504 147.782 21.3638 148.55 21.7904C149.318 22.2171 149.926 22.8411 150.374 23.6624C150.832 24.4838 151.062 25.4864 151.062 26.6704C151.062 27.8544 150.832 28.8571 150.374 29.6784C149.926 30.4998 149.318 31.1238 148.55 31.5504C147.782 31.9771 146.923 32.1904 145.974 32.1904H143.206Z" fill="black" fill-opacity="0.4"/>
<rect x="78.7734" y="55.7744" width="187.004" height="33.3125" rx="8" fill="black" fill-opacity="0.05"/>
<path d="M97.0307 77.6162V66.5762H98.5667V77.6162H97.0307ZM97.8307 77.6162V76.2402H104.247V77.6162H97.8307ZM97.8307 72.7042V71.3282H103.367V72.7042H97.8307ZM97.8307 67.9522V66.5762H104.167V67.9522H97.8307ZM106.568 69.3762H107.944L108.28 70.9762V77.6162H106.808V71.3282C106.808 71.1042 106.797 70.9015 106.776 70.7202C106.765 70.5282 106.739 70.3149 106.696 70.0802L106.568 69.3762ZM108.04 71.8882V70.7362C108.392 70.2882 108.808 69.9255 109.288 69.6482C109.768 69.3602 110.275 69.2162 110.808 69.2162C111.352 69.2162 111.837 69.3389 112.264 69.5842C112.701 69.8295 113.043 70.1975 113.288 70.6882C113.544 71.1789 113.672 71.8029 113.672 72.5602V77.6162H112.2V72.7522C112.2 72.2509 112.12 71.8455 111.96 71.5362C111.811 71.2162 111.603 70.9815 111.336 70.8322C111.069 70.6829 110.765 70.6082 110.424 70.6082C109.997 70.6082 109.581 70.7202 109.176 70.9442C108.771 71.1682 108.392 71.4829 108.04 71.8882ZM115.344 70.6562V69.3762H120.688V70.6562H115.344ZM116.784 75.1842V67.4722L118.256 67.1522V75.1202C118.256 75.5469 118.358 75.8775 118.56 76.1122C118.763 76.3362 119.078 76.4482 119.504 76.4482C119.686 76.4482 119.867 76.4269 120.048 76.3842C120.24 76.3309 120.448 76.2615 120.672 76.1762L120.928 77.4402C120.672 77.5362 120.4 77.6162 120.112 77.6802C119.824 77.7442 119.536 77.7762 119.248 77.7762C118.8 77.7762 118.39 77.6749 118.016 77.4722C117.643 77.2695 117.344 76.9762 117.12 76.5922C116.896 76.2082 116.784 75.7389 116.784 75.1842ZM122.201 73.5842C122.201 72.6242 122.367 71.8189 122.697 71.1682C123.028 70.5175 123.471 70.0322 124.025 69.7122C124.58 69.3815 125.199 69.2162 125.881 69.2162C126.511 69.2162 127.081 69.3709 127.593 69.6802C128.116 69.9789 128.527 70.4375 128.825 71.0562C129.135 71.6642 129.289 72.4269 129.289 73.3442C129.289 73.4402 129.284 73.5415 129.273 73.6482C129.273 73.7442 129.268 73.8402 129.257 73.9362H123.465V72.7522H128.137L127.849 73.3442C127.849 72.3202 127.652 71.5949 127.257 71.1682C126.873 70.7309 126.409 70.5122 125.865 70.5122C125.439 70.5122 125.06 70.6295 124.729 70.8642C124.409 71.0882 124.159 71.4295 123.977 71.8882C123.796 72.3362 123.705 72.9015 123.705 73.5842C123.705 74.2135 123.817 74.7415 124.041 75.1682C124.276 75.5842 124.585 75.8989 124.969 76.1122C125.353 76.3255 125.785 76.4322 126.265 76.4322C126.649 76.4322 127.001 76.3682 127.321 76.2402C127.641 76.1122 127.924 75.9522 128.169 75.7602L128.857 76.9282C128.495 77.2269 128.084 77.4455 127.625 77.5842C127.177 77.7122 126.708 77.7762 126.217 77.7762C125.449 77.7762 124.761 77.6215 124.153 77.3122C123.556 77.0029 123.081 76.5389 122.729 75.9202C122.377 75.2909 122.201 74.5122 122.201 73.5842ZM131.365 69.3762H132.741L133.077 70.9762V77.6162H131.605V71.3282C131.605 71.1042 131.594 70.9015 131.573 70.7202C131.562 70.5282 131.536 70.3149 131.493 70.0802L131.365 69.3762ZM132.837 72.1122V70.9762C133.136 70.4429 133.53 70.0162 134.021 69.6962C134.512 69.3762 135.066 69.2162 135.685 69.2162V70.8002C135.034 70.8322 134.469 70.9602 133.989 71.1842C133.52 71.3975 133.136 71.7069 132.837 72.1122ZM141.687 77.6162V66.5762H143.223V77.6162H141.687ZM142.487 73.9362V72.5602H145.255C145.98 72.5602 146.588 72.3629 147.079 71.9682C147.57 71.5735 147.815 71.0029 147.815 70.2562C147.815 69.5095 147.57 68.9389 147.079 68.5442C146.599 68.1495 145.991 67.9522 145.255 67.9522H142.487V66.5762H145.335C146.092 66.5762 146.775 66.7202 147.383 67.0082C148.002 67.2855 148.492 67.6962 148.855 68.2402C149.218 68.7842 149.399 69.4562 149.399 70.2562C149.399 71.0455 149.218 71.7175 148.855 72.2722C148.492 72.8162 148.002 73.2322 147.383 73.5202C146.775 73.7975 146.092 73.9362 145.335 73.9362H142.487ZM151 75.5042C151 75.0242 151.128 74.5815 151.384 74.1762C151.64 73.7602 152.061 73.4242 152.648 73.1682C153.235 72.9015 154.024 72.7522 155.016 72.7202L156.024 72.6882V73.7282L155.08 73.8242C154.387 73.8882 153.853 74.0002 153.48 74.1602C153.107 74.3202 152.851 74.5069 152.712 74.7202C152.573 74.9229 152.504 75.1415 152.504 75.3762C152.504 75.7069 152.6 75.9682 152.792 76.1602C152.995 76.3415 153.261 76.4322 153.592 76.4322C154.051 76.4322 154.493 76.3149 154.92 76.0802C155.357 75.8455 155.763 75.5202 156.136 75.1042V76.2562C155.827 76.6829 155.421 77.0455 154.92 77.3442C154.419 77.6322 153.869 77.7762 153.272 77.7762C152.877 77.7762 152.504 77.6855 152.152 77.5042C151.811 77.3229 151.533 77.0615 151.32 76.7202C151.107 76.3789 151 75.9735 151 75.5042ZM151.24 70.0642C151.613 69.8295 152.072 69.6322 152.616 69.4722C153.16 69.3015 153.677 69.2162 154.168 69.2162C154.776 69.2162 155.32 69.3335 155.8 69.5682C156.28 69.8029 156.659 70.1602 156.936 70.6402C157.224 71.1095 157.368 71.7015 157.368 72.4162V75.6642C157.368 75.8882 157.373 76.0962 157.384 76.2882C157.405 76.4695 157.437 76.6775 157.48 76.9122L157.608 77.6162H156.232L155.896 76.0162V72.5922C155.896 71.8882 155.731 71.3869 155.4 71.0882C155.069 70.7789 154.611 70.6242 154.024 70.6242C153.597 70.6242 153.203 70.6882 152.84 70.8162C152.477 70.9442 152.115 71.1095 151.752 71.3122L151.24 70.0642ZM159.528 76.6402L160.392 75.6482C160.68 75.8829 161.016 76.0909 161.4 76.2722C161.794 76.4535 162.253 76.5442 162.776 76.5442C163.32 76.5442 163.725 76.4535 163.992 76.2722C164.258 76.0909 164.392 75.8509 164.392 75.5522C164.392 75.3602 164.333 75.1842 164.216 75.0242C164.109 74.8535 163.912 74.6935 163.624 74.5442C163.346 74.3842 162.952 74.2295 162.44 74.0802C161.501 73.7922 160.829 73.4402 160.424 73.0242C160.018 72.5975 159.816 72.1015 159.816 71.5362C159.816 71.0882 159.944 70.6935 160.2 70.3522C160.466 70.0002 160.829 69.7229 161.288 69.5202C161.746 69.3175 162.269 69.2162 162.856 69.2162C163.314 69.2162 163.784 69.2962 164.264 69.4562C164.754 69.6055 165.186 69.8349 165.56 70.1442L164.744 71.2002C164.488 70.9869 164.184 70.8109 163.832 70.6722C163.49 70.5229 163.117 70.4482 162.712 70.4482C162.221 70.4482 161.848 70.5389 161.592 70.7202C161.346 70.9015 161.224 71.1202 161.224 71.3762C161.224 71.5789 161.277 71.7549 161.384 71.9042C161.501 72.0429 161.698 72.1762 161.976 72.3042C162.264 72.4322 162.658 72.5709 163.16 72.7202C163.864 72.9229 164.408 73.1629 164.792 73.4402C165.186 73.7069 165.464 74.0002 165.624 74.3202C165.784 74.6402 165.864 74.9922 165.864 75.3762C165.864 75.8349 165.73 76.2455 165.464 76.6082C165.197 76.9709 164.824 77.2589 164.344 77.4722C163.864 77.6749 163.298 77.7762 162.648 77.7762C162.029 77.7762 161.448 77.6695 160.904 77.4562C160.36 77.2429 159.901 76.9709 159.528 76.6402ZM167.543 76.6402L168.407 75.6482C168.695 75.8829 169.031 76.0909 169.415 76.2722C169.81 76.4535 170.268 76.5442 170.791 76.5442C171.335 76.5442 171.74 76.4535 172.007 76.2722C172.274 76.0909 172.407 75.8509 172.407 75.5522C172.407 75.3602 172.348 75.1842 172.231 75.0242C172.124 74.8535 171.927 74.6935 171.639 74.5442C171.362 74.3842 170.967 74.2295 170.455 74.0802C169.516 73.7922 168.844 73.4402 168.439 73.0242C168.034 72.5975 167.831 72.1015 167.831 71.5362C167.831 71.0882 167.959 70.6935 168.215 70.3522C168.482 70.0002 168.844 69.7229 169.303 69.5202C169.762 69.3175 170.284 69.2162 170.871 69.2162C171.33 69.2162 171.799 69.2962 172.279 69.4562C172.77 69.6055 173.202 69.8349 173.575 70.1442L172.759 71.2002C172.503 70.9869 172.199 70.8109 171.847 70.6722C171.506 70.5229 171.132 70.4482 170.727 70.4482C170.236 70.4482 169.863 70.5389 169.607 70.7202C169.362 70.9015 169.239 71.1202 169.239 71.3762C169.239 71.5789 169.292 71.7549 169.399 71.9042C169.516 72.0429 169.714 72.1762 169.991 72.3042C170.279 72.4322 170.674 72.5709 171.175 72.7202C171.879 72.9229 172.423 73.1629 172.807 73.4402C173.202 73.7069 173.479 74.0002 173.639 74.3202C173.799 74.6402 173.879 74.9922 173.879 75.3762C173.879 75.8349 173.746 76.2455 173.479 76.6082C173.212 76.9709 172.839 77.2589 172.359 77.4722C171.879 77.6749 171.314 77.7762 170.663 77.7762C170.044 77.7762 169.463 77.6695 168.919 77.4562C168.375 77.2429 167.916 76.9709 167.543 76.6402ZM174.919 69.3762H176.487L178.503 76.1122L178.519 77.6162H177.671L174.919 69.3762ZM178.087 76.1122L180.183 69.3762H180.999V71.0722L178.823 77.6162H178.103L178.087 76.1122ZM180.503 71.0722V69.3762H181.383L183.511 76.1122L183.527 77.6162H182.679L180.503 71.0722ZM183.095 76.1122L185.079 69.3762H186.583L183.831 77.6162H183.111L183.095 76.1122ZM187.623 73.5042C187.623 72.5762 187.783 71.7975 188.103 71.1682C188.423 70.5282 188.86 70.0429 189.415 69.7122C189.97 69.3815 190.604 69.2162 191.319 69.2162C192.034 69.2162 192.668 69.3815 193.223 69.7122C193.778 70.0429 194.215 70.5282 194.535 71.1682C194.855 71.7975 195.015 72.5762 195.015 73.5042C195.015 74.4215 194.855 75.2002 194.535 75.8402C194.215 76.4802 193.778 76.9655 193.223 77.2962C192.668 77.6162 192.034 77.7762 191.319 77.7762C190.604 77.7762 189.97 77.6162 189.415 77.2962C188.86 76.9655 188.423 76.4802 188.103 75.8402C187.783 75.2002 187.623 74.4215 187.623 73.5042ZM189.127 73.5042C189.127 74.1442 189.212 74.6882 189.383 75.1362C189.564 75.5735 189.815 75.9095 190.135 76.1442C190.466 76.3682 190.86 76.4802 191.319 76.4802C191.778 76.4802 192.167 76.3682 192.487 76.1442C192.818 75.9095 193.068 75.5735 193.239 75.1362C193.42 74.6882 193.511 74.1442 193.511 73.5042C193.511 72.8642 193.42 72.3255 193.239 71.8882C193.068 71.4402 192.818 71.0989 192.487 70.8642C192.167 70.6295 191.778 70.5122 191.319 70.5122C190.86 70.5122 190.466 70.6295 190.135 70.8642C189.815 71.0989 189.564 71.4402 189.383 71.8882C189.212 72.3255 189.127 72.8642 189.127 73.5042ZM197.099 69.3762H198.475L198.811 70.9762V77.6162H197.339V71.3282C197.339 71.1042 197.329 70.9015 197.307 70.7202C197.297 70.5282 197.27 70.3149 197.227 70.0802L197.099 69.3762ZM198.571 72.1122V70.9762C198.87 70.4429 199.265 70.0162 199.755 69.6962C200.246 69.3762 200.801 69.2162 201.419 69.2162V70.8002C200.769 70.8322 200.203 70.9602 199.723 71.1842C199.254 71.3975 198.87 71.7069 198.571 72.1122ZM202.701 73.5682C202.701 72.6615 202.84 71.8829 203.117 71.2322C203.405 70.5815 203.8 70.0855 204.301 69.7442C204.813 69.3922 205.411 69.2162 206.093 69.2162C206.563 69.2162 207.011 69.3389 207.437 69.5842C207.875 69.8295 208.232 70.2242 208.509 70.7682C208.787 71.3122 208.925 72.0322 208.925 72.9282L208.285 73.0882C208.285 72.4695 208.189 71.9682 207.997 71.5842C207.816 71.2002 207.576 70.9175 207.277 70.7362C206.979 70.5442 206.669 70.4482 206.349 70.4482C205.688 70.4482 205.165 70.7362 204.781 71.3122C204.397 71.8775 204.205 72.6135 204.205 73.5202C204.205 74.1389 204.291 74.6669 204.461 75.1042C204.632 75.5309 204.867 75.8562 205.165 76.0802C205.464 76.3042 205.8 76.4162 206.173 76.4162C206.6 76.4162 207.011 76.2989 207.405 76.0642C207.8 75.8189 208.173 75.4989 208.525 75.1042V76.2562C208.173 76.7042 207.757 77.0722 207.277 77.3602C206.808 77.6375 206.307 77.7762 205.773 77.7762C205.219 77.7762 204.707 77.6109 204.237 77.2802C203.768 76.9389 203.395 76.4535 203.117 75.8242C202.84 75.1949 202.701 74.4429 202.701 73.5682ZM208.621 77.6162L208.285 76.0162V66.1762L209.757 65.8562V75.6642C209.757 75.8882 209.763 76.0962 209.773 76.2882C209.795 76.4695 209.827 76.6775 209.869 76.9122L209.997 77.6162H208.621Z" fill="black" fill-opacity="0.4"/>
<defs>
<linearGradient id="paint0_linear_6610_6494" x1="26.7476" y1="34.5032" x2="19.9749" y2="5.27579" gradientUnits="userSpaceOnUse">
<stop stop-color="#FFFFD6"/>
<stop offset="0.14" stop-color="#F0F2D2"/>
<stop offset="0.4" stop-color="#CBD1C9"/>
<stop offset="0.76" stop-color="#909CBA"/>
<stop offset="1" stop-color="#6475B0"/>
</linearGradient>
<linearGradient id="paint1_linear_6610_6494" x1="23.2636" y1="31.7527" x2="17.3078" y2="6.05038" gradientUnits="userSpaceOnUse">
<stop/>
<stop offset="1" stop-color="white"/>
</linearGradient>
<linearGradient id="paint2_linear_6610_6494" x1="34.1974" y1="31.6529" x2="29.5029" y2="11.3936" gradientUnits="userSpaceOnUse">
<stop/>
<stop offset="1" stop-color="white"/>
</linearGradient>
<linearGradient id="paint3_linear_6610_6494" x1="36.0932" y1="69.4971" x2="26.5946" y2="28.5058" gradientUnits="userSpaceOnUse">
<stop stop-color="#A190F0"/>
<stop offset="1" stop-color="#D4BDF0"/>
</linearGradient>
<linearGradient id="paint4_linear_6610_6494" x1="39.1478" y1="66.9392" x2="30.031" y2="27.5956" gradientUnits="userSpaceOnUse">
<stop stop-color="#8D78ED"/>
<stop offset="1" stop-color="#BE9BE8"/>
</linearGradient>
<linearGradient id="paint5_linear_6610_6494" x1="37.4324" y1="56.1081" x2="32.3685" y2="34.255" gradientUnits="userSpaceOnUse">
<stop stop-color="#D6CAFF"/>
<stop offset="0.21" stop-color="#C8BBF2"/>
<stop offset="0.6" stop-color="#A496D3"/>
<stop offset="1" stop-color="#7A6AAD"/>
</linearGradient>
<clipPath id="clip0_6610_6494">
<rect width="43.8774" height="66.201" fill="white" transform="translate(0 9.90479) rotate(-13.0465)"/>
</clipPath>
</defs>
</svg>
