<svg width="121" height="105" viewBox="0 0 121 105" fill="none" xmlns="http://www.w3.org/2000/svg">
<path d="M113.306 64.3667V75.9452H7.24805V64.3667H59.8315H113.306Z" fill="#C6E0FF"/>
<path d="M113.304 11.9488V65.9583H7.01953V11.9488C7.01953 5.59984 12.0142 0.597656 18.3535 0.597656H101.97C108.309 0.597656 113.304 5.59984 113.304 11.9488Z" fill="#88A9FF"/>
<path d="M72.2988 94.3276H49.6309V104.315H72.2988V94.3276Z" fill="#9ABCE3"/>
<path d="M70.6484 94.1226H120.342C118.472 97.3711 115.901 99.6736 112.881 101.53C109.843 103.386 106.355 104.314 102.615 104.314H70.6484V94.1226Z" fill="#6786FF"/>
<path d="M49.6316 94.3276V104.315H17.2188C10.1984 104.315 3.61453 100.449 0.226562 94.3276H49.6316Z" fill="#6786FF"/>
<path d="M113.305 74.3535L120.325 94.3273H0L7.02044 74.3535H113.305Z" fill="#88A9FF"/>
<path d="M21.3057 82.9765H18.3544C17.6733 82.9765 16.9922 82.2944 16.9922 81.6123C16.9922 80.9302 17.6733 80.248 18.3544 80.248H21.3057C21.9868 80.248 22.6679 80.9302 22.6679 81.6123C22.6679 82.2944 22.2139 82.9765 21.3057 82.9765Z" fill="#E4F5FD"/>
<path d="M32.6397 82.9765H29.6883C29.0073 82.9765 28.3262 82.2944 28.3262 81.6123C28.3262 80.9302 29.0073 80.248 29.6883 80.248H32.6397C33.3208 80.248 34.0019 80.9302 34.0019 81.6123C34.0019 82.2944 33.5478 82.9765 32.6397 82.9765Z" fill="#E4F5FD"/>
<path d="M43.9561 82.9765H41.0048C40.3237 82.9765 39.6426 82.2944 39.6426 81.6123C39.6426 80.9302 40.3237 80.248 41.0048 80.248H43.9561C44.6372 80.248 45.3183 80.9302 45.3183 81.6123C45.3183 82.2944 44.8642 82.9765 43.9561 82.9765Z" fill="#E4F5FD"/>
<path d="M55.2901 82.9765H52.3387C51.6576 82.9765 50.9766 82.2944 50.9766 81.6123C50.9766 80.9302 51.6576 80.248 52.3387 80.248H55.2901C55.9712 80.248 56.6523 80.9302 56.6523 81.6123C56.6523 82.2944 56.1982 82.9765 55.2901 82.9765Z" fill="#E4F5FD"/>
<path d="M66.6241 82.9765H63.6727C62.9916 82.9765 62.3105 82.2944 62.3105 81.6123C62.3105 80.9302 62.9916 80.248 63.6727 80.248H66.6241C67.3052 80.248 67.9863 80.9302 67.9863 81.6123C67.9863 82.2944 67.5322 82.9765 66.6241 82.9765Z" fill="#E4F5FD"/>
<path d="M77.9581 82.9765H75.0067C74.3256 82.9765 73.6445 82.2944 73.6445 81.6123C73.6445 80.9302 74.3256 80.248 75.0067 80.248H77.9581C78.6392 80.248 79.3203 80.9302 79.3203 81.6123C79.3203 82.2944 78.8662 82.9765 77.9581 82.9765Z" fill="#E4F5FD"/>
<path d="M89.2921 82.9765H86.3407C85.6596 82.9765 84.9785 82.2944 84.9785 81.6123C84.9785 80.9302 85.6596 80.248 86.3407 80.248H89.2921C89.9732 80.248 90.6542 80.9302 90.6542 81.6123C90.6542 82.2944 90.2002 82.9765 89.2921 82.9765Z" fill="#E4F5FD"/>
<path d="M100.626 82.9765H97.6747C96.9936 82.9765 96.3125 82.2944 96.3125 81.6123C96.3125 80.9302 96.9936 80.248 97.6747 80.248H100.626C101.307 80.248 101.988 80.9302 101.988 81.6123C101.988 82.2944 101.534 82.9765 100.626 82.9765Z" fill="#E4F5FD"/>
<path d="M21.3057 88.6606H18.3544C17.6733 88.6606 16.9922 87.9785 16.9922 87.2964C16.9922 86.6142 17.6733 85.9321 18.3544 85.9321H21.3057C21.9868 85.9321 22.6679 86.6142 22.6679 87.2964C22.6679 87.9785 22.2139 88.6606 21.3057 88.6606Z" fill="#E4F5FD"/>
<path d="M32.6397 88.6606H29.6883C29.0073 88.6606 28.3262 87.9785 28.3262 87.2964C28.3262 86.6142 29.0073 85.9321 29.6883 85.9321H32.6397C33.3208 85.9321 34.0019 86.6142 34.0019 87.2964C34.0019 87.9785 33.5478 88.6606 32.6397 88.6606Z" fill="#E4F5FD"/>
<path d="M66.6238 88.6606H41.2489C40.5678 88.6606 39.8867 87.9785 39.8867 87.2964C39.8867 86.6142 40.5678 85.9321 41.2489 85.9321H66.8508C67.5319 85.9321 68.213 86.6142 68.213 87.2964C67.9859 87.9785 67.5319 88.6606 66.6238 88.6606Z" fill="#E4F5FD"/>
<path d="M77.9581 88.6606H75.0067C74.3256 88.6606 73.6445 87.9785 73.6445 87.2964C73.6445 86.6142 74.3256 85.9321 75.0067 85.9321H77.9581C78.6392 85.9321 79.3203 86.6142 79.3203 87.2964C79.3203 87.9785 78.8662 88.6606 77.9581 88.6606Z" fill="#E4F5FD"/>
<path d="M89.2921 88.6606H86.3407C85.6596 88.6606 84.9785 87.9785 84.9785 87.2964C84.9785 86.6142 85.6596 85.9321 86.3407 85.9321H89.2921C89.9732 85.9321 90.6542 86.6142 90.6542 87.2964C90.6542 87.9785 90.2002 88.6606 89.2921 88.6606Z" fill="#E4F5FD"/>
<path d="M100.626 88.6606H97.6747C96.9936 88.6606 96.3125 87.9785 96.3125 87.2964C96.3125 86.6142 96.9936 85.9321 97.6747 85.9321H100.626C101.307 85.9321 101.988 86.6142 101.988 87.2964C101.988 87.9785 101.534 88.6606 100.626 88.6606Z" fill="#E4F5FD"/>
<path d="M103.962 9.55273V65.9759H16.3984V9.55273H103.962Z" fill="#F0EFF0"/>
<path d="M59.7966 41.1128C58.6964 39.7485 56.6182 38.4368 53.5446 37.125C52.8984 36.8452 52.0252 36.4954 50.8901 36.0581C47.2227 34.6064 45.4065 33.0848 45.4065 31.4757C45.4065 30.4263 45.7907 29.6043 46.5241 29.0096C47.2751 28.3974 48.288 28.1001 49.5978 28.1001C50.9425 28.1001 52.0602 28.4324 52.9683 29.0795C53.8764 29.7267 54.6623 30.7761 55.3433 32.1928L60.7746 30.2164C59.9363 27.9252 58.6091 26.1937 56.8103 25.0218C55.6228 24.2523 54.2606 23.7451 52.6889 23.4652V19.2676H47.3973V23.4827C45.4938 23.815 43.8696 24.5496 42.5424 25.6515C40.6214 27.2606 39.6609 29.3419 39.6609 31.9129C39.6609 33.4171 39.9752 34.7813 40.6214 35.9707C41.2675 37.1775 42.1931 38.1569 43.3981 38.9265C44.6206 39.731 46.7861 40.693 49.9121 41.8474C50.3662 42.0048 50.7154 42.1272 50.9599 42.2321C52.7412 42.8968 53.9637 43.5439 54.6448 44.2085C55.3259 44.8731 55.6752 45.6952 55.6752 46.6746C55.6752 47.9164 55.2036 48.8959 54.2781 49.6305C53.3525 50.3651 52.0951 50.7149 50.4884 50.7149C49.0739 50.7149 47.8514 50.3301 46.821 49.543C45.7907 48.756 44.8476 47.5316 44.0094 45.8351L38.5781 48.2487C39.6085 50.7673 41.1453 52.6563 43.1711 53.9505C44.3936 54.7201 45.7907 55.2623 47.3449 55.5771V60.1071H52.619V55.7695C55.029 55.4897 57.0024 54.6851 58.5217 53.3734C60.4428 51.6943 61.4033 49.3856 61.4207 46.4473C61.4207 44.261 60.8794 42.4945 59.7791 41.1477L59.7966 41.1128Z" fill="url(#paint0_linear_6612_6944)"/>
<path d="M83.3197 16.855H65.0352L69.4535 44.1221H65.3146L74.1687 53.8641L83.0403 44.1221H78.9014L83.3197 16.855Z" fill="#F275C0"/>
<defs>
<linearGradient id="paint0_linear_6612_6944" x1="38.5781" y1="39.6928" x2="61.4207" y2="39.6928" gradientUnits="userSpaceOnUse">
<stop stop-color="#0068FF"/>
<stop offset="0.73" stop-color="#5CA4E4"/>
</linearGradient>
</defs>
</svg>
