<svg width="123" height="122" viewBox="0 0 123 122" fill="none" xmlns="http://www.w3.org/2000/svg">
<path d="M0 18.9629V113.29C0 118.093 3.77406 121.886 8.55454 121.886H114.248C119.028 121.886 122.802 118.093 122.802 113.29V18.9629H0Z" fill="#C6E0FF"/>
<path d="M122.802 9.35498H50.3203V18.9627H122.802V9.35498Z" fill="#88A9FF"/>
<path d="M122.802 8.59638V9.60771H50.3203V0H114.247C119.028 0 122.802 3.79252 122.802 8.59638Z" fill="#88A9FF"/>
<path d="M50.3208 18.9626H0V8.59638C0 3.79252 3.77406 0 8.55454 0H50.3208V18.9626Z" fill="#88A9FF"/>
<path d="M110.222 31.6045V108.991H12.5801V31.6045H110.222Z" fill="#F0EFF0"/>
<path d="M86.5707 81.1791C89.3384 83.9603 90.0932 88.2585 88.5835 91.5453L83.2999 86.2358L78.5194 91.0397L83.8031 96.3492C80.2806 97.8662 76.2549 97.3605 73.4873 94.3265C70.7197 91.5453 69.9648 87.2471 71.4745 83.9603L62.9199 75.3639L67.7004 70.5601L76.2549 79.1564C79.5258 77.6394 83.8031 78.3979 86.5707 81.1791Z" fill="url(#paint0_linear_6612_6970)"/>
<path d="M62.9202 66.0094L58.1397 70.8133L49.5852 62.2169C46.0627 63.7339 42.0371 63.2283 39.2694 60.1942C36.5018 57.4131 35.747 53.1149 37.2566 49.828L42.5403 55.1376L47.3208 50.3337L42.0371 45.0242C45.5595 43.5072 49.5852 44.0128 52.3528 47.0468C55.1205 49.828 55.8753 54.1262 54.3657 57.4131L62.9202 66.0094Z" fill="url(#paint1_linear_6612_6970)"/>
<path d="M88.332 49.8082C89.8416 53.3479 89.3384 57.3933 86.3191 60.1744C83.5515 62.9556 79.2742 63.7141 76.0034 62.1971L67.4488 70.7935L62.6683 75.5974L54.617 83.9409C56.1266 87.4806 55.6234 91.5259 52.6042 94.3071C49.8365 97.0883 45.5593 97.8468 42.2884 96.3298L47.5721 91.0203L42.7916 86.2164L37.5079 91.5259C35.9983 87.9863 36.5015 83.9409 39.5208 81.1597C42.2884 78.3785 46.5657 77.62 49.8365 79.137L58.3911 70.5407L63.1715 65.7368L71.7261 57.1404C70.2165 53.6007 70.7197 49.5554 73.7389 46.7742C76.5066 43.993 80.7838 43.2345 84.0547 44.7515L78.771 50.0611L83.5515 54.8649L88.332 49.8082Z" fill="url(#paint2_linear_6612_6970)"/>
<path d="M31.4505 6.3208C33.2118 6.3208 34.7214 7.83781 34.7214 9.60765C34.7214 11.3775 33.2118 12.8945 31.4505 12.8945C29.6893 12.8945 28.1797 11.3775 28.1797 9.60765C28.4313 7.83781 29.6893 6.3208 31.4505 6.3208Z" fill="#4BBA7A"/>
<path d="M22.14 6.3208C23.9012 6.3208 25.4108 7.83781 25.4108 9.60765C25.4108 11.3775 23.9012 12.8945 22.14 12.8945C20.3788 12.8945 18.8691 11.3775 18.8691 9.60765C18.8691 7.83781 20.3788 6.3208 22.14 6.3208Z" fill="#FDDE93"/>
<path d="M12.5794 6.3208C14.3407 6.3208 15.8503 7.83781 15.8503 9.60765C15.8503 11.3775 14.3407 12.8945 12.5794 12.8945C10.8182 12.8945 9.30859 11.3775 9.30859 9.60765C9.5602 7.83781 10.8182 6.3208 12.5794 6.3208Z" fill="#F06195"/>
<defs>
<linearGradient id="paint0_linear_6612_6970" x1="62.9199" y1="83.8724" x2="89.3479" y2="83.8724" gradientUnits="userSpaceOnUse">
<stop stop-color="#0068FF"/>
<stop offset="0.73" stop-color="#5CA4E4"/>
</linearGradient>
<linearGradient id="paint1_linear_6612_6970" x1="36.4922" y1="57.5081" x2="62.9202" y2="57.5081" gradientUnits="userSpaceOnUse">
<stop stop-color="#0068FF"/>
<stop offset="0.73" stop-color="#5CA4E4"/>
</linearGradient>
<linearGradient id="paint2_linear_6612_6970" x1="36.6836" y1="70.5478" x2="89.1563" y2="70.5478" gradientUnits="userSpaceOnUse">
<stop stop-color="#0068FF"/>
<stop offset="0.73" stop-color="#5CA4E4"/>
</linearGradient>
</defs>
</svg>
