<?xml version="1.0" encoding="utf-8"?>
<!-- Generator: Adobe Illustrator 27.1.0, SVG Export Plug-In . SVG Version: 6.00 Build 0)  -->
<svg version="1.1" id="레이어_1" xmlns="http://www.w3.org/2000/svg" xmlns:xlink="http://www.w3.org/1999/xlink" x="0px"
	 y="0px" viewBox="0 0 65 26.4" style="enable-background:new 0 0 65 26.4;" xml:space="preserve">
<style type="text/css">
	.st0{fill:#FFFFFF;}
</style>
<path class="st0" d="M2.1,20.3c-0.7-0.2-1.3-0.6-1.9-1.1l1.5-2.4c1,0.6,2.2,1,3.5,1c0.4,0.1,0.9,0,1.2-0.3c0.2-0.2,0.4-0.5,0.4-0.7
	c0-0.2-0.1-0.5-0.3-0.7c-0.2-0.2-0.5-0.4-0.8-0.5L4.1,15c-0.7-0.2-1.4-0.5-2.1-0.8c-0.5-0.3-1-0.6-1.3-1.1c-0.4-0.6-0.5-1.2-0.5-1.9
	c0-0.8,0.2-1.6,0.6-2.3c0.4-0.8,1-1.4,1.8-1.8c0.9-0.5,1.9-0.8,3-0.7c0.8,0,1.7,0.1,2.5,0.4c0.9,0.3,1.7,0.7,2.5,1.1L9,10.5
	C8.1,9.9,7,9.6,5.8,9.5C5.4,9.5,5,9.6,4.6,9.7C4.3,9.8,4.1,10.1,4,10.4c-0.2,0.4-0.1,0.8,0.2,1.1C4.6,11.8,5,12,5.4,12
	c0.3,0.1,1.5,0.3,2,0.4c0.9,0.2,1.8,0.6,2.5,1.3c0.6,0.8,1,1.7,0.9,2.7c0,0.8-0.2,1.6-0.7,2.3c-0.5,0.7-1.2,1.2-2,1.5
	c-0.9,0.4-1.9,0.5-2.9,0.5C4.1,20.9,3.1,20.7,2.1,20.3z"/>
<path class="st0" d="M23.9,20.9l-4.7-6l-1.8,2.2v3.8h-3.6V0.2h3.6v11.8L22,6.4l4.1,0l-4.6,5.7l7.1,8.8L23.9,20.9z"/>
<path class="st0" d="M38.4,7.1C39.3,7.5,40,8.2,40.6,9c0.5,0.9,0.8,1.8,0.8,2.8v9h-2.6l-1.3-2.1c-0.4,0.6-1,1.1-1.7,1.5
	c-0.7,0.4-1.5,0.6-2.3,0.6c-1.3,0.1-2.6-0.4-3.6-1.2c-0.9-0.8-1.4-2-1.3-3.2c0-0.8,0.3-1.7,0.7-2.3c0.5-0.7,1.3-1.3,2.1-1.6
	c1-0.4,2.1-0.6,3.1-0.6c0.9,0,1.9,0,2.8,0.1c0,0,0-0.1,0-0.2c0-0.7-0.4-1.3-0.9-1.7c-0.6-0.4-1.4-0.6-2.2-0.6
	c-1.2,0-2.3,0.4-3.3,1.1l-1.5-2.5c0.8-0.6,1.7-1,2.6-1.3c1-0.3,2.1-0.5,3.2-0.5C36.3,6.4,37.4,6.6,38.4,7.1z M36.5,17.2
	c0.6-0.6,0.9-1.4,0.8-2.2c-0.8-0.2-1.5-0.2-2.3-0.3c-0.6,0-1.2,0.1-1.7,0.5c-0.4,0.3-0.7,0.7-0.7,1.2c0,0.5,0.2,0.9,0.5,1.2
	c0.4,0.3,0.9,0.5,1.4,0.4C35.3,18.1,36,17.7,36.5,17.2z"/>
<path class="st0" d="M60.9,4.2c-0.4-0.4-0.7-1-0.7-1.7c0-0.6,0.2-1.2,0.7-1.7c0.4-0.4,1-0.7,1.7-0.7c0.6,0,1.2,0.2,1.7,0.7
	c0.4,0.4,0.7,1.1,0.7,1.7c0,1.2-0.9,2.3-2.2,2.3c0,0-0.1,0-0.1,0C62,4.8,61.4,4.6,60.9,4.2z M60.6,6.4h4v14.5h-4L60.6,6.4z"/>
<path class="st0" d="M57.6,9.8c-0.5-1-1.3-1.9-2.3-2.5c-1-0.6-2.1-1-3.3-1c-2,0-3.3,0.3-4.2,1.8v0l-1.1-1.8h-2.5v19.9h3.6v-3.8h0
	v-3.7c1,1.3,2.6,1.9,4.2,1.8c1.2,0,2.3-0.3,3.3-0.9c1-0.6,1.8-1.5,2.3-2.5c0.6-1.1,0.9-2.4,0.9-3.7C58.5,12.2,58.2,10.9,57.6,9.8z
	 M53.6,16.2c-1.3,1.3-3.5,1.4-4.8,0.1c0,0,0,0-0.1-0.1c-0.6-0.7-0.9-1.5-0.9-2.4v-0.5c0-0.9,0.3-1.8,0.9-2.5
	c1.3-1.3,3.5-1.4,4.8-0.1c0,0,0,0,0.1,0.1c0.6,0.7,1,1.7,0.9,2.7C54.6,14.4,54.2,15.4,53.6,16.2z"/>
</svg>
