<svg id="레이어_1" data-name="레이어 1" xmlns="http://www.w3.org/2000/svg" viewBox="0 0 1155.91 513.45"><defs><style>.cls-1{fill:#293fe6;}</style></defs><path class="cls-1" d="M95.46,369.23q-21-8.7-28.89-17.42l23-37.19q21,13.45,53.42,15,13.06.41,18.8-4.35t5.74-11.48a15.82,15.82,0,0,0-4-10.29q-4-4.74-12.27-7.52l-24.14-7.91q-20.58-6.72-32.65-12.86A52.93,52.93,0,0,1,74.69,258Q67,247,67,228.74a75.16,75.16,0,0,1,8.71-35q8.7-16.82,27.1-27.7c12.27-7.26,27.65-11.53,46.11-10.89,15,.53,26.16,2.35,38.2,6.14,11,3.46,22.79,8.47,38.89,17.65l-23.65,39c-15.3-9.23-33-14.54-49.09-14.54-7.91,0-14.6,1.32-18.58,3a16.34,16.34,0,0,0-9.12,10.42c-2.31,7.77-.77,14.36,2.93,17.48,6.53,5.51,12.45,6.11,18.9,7.71,4.22,1.05,23.61,5.34,30.73,6.74,15.42,3,28.82,10.61,38.07,20.5S230,293.12,230,311.05q0,20.19-11.27,35.42t-30.87,23.35q-19.59,8.1-44.52,8.11Q116.43,377.93,95.46,369.23Z"/><path class="cls-1" d="M432.23,378.47l-72.12-92.72L332.9,319.9v58.57H276.71V59.11H332.9V240.75l69.56-85.68,63.26.06-70.57,87.33,109,136Z"/><path class="cls-1" d="M655.37,166.16q21.36,10.49,33.24,29.48t11.87,43.93v138.9h-40l-19.32-32.05a81.25,81.25,0,0,1-25.92,23.15q-15.65,8.9-36.21,8.9-34,0-54.81-18.8T503.4,310.4a59.77,59.77,0,0,1,11.48-36q11.48-15.83,32.45-24.54c14-5.8,30.09-8.09,48.28-8.7a304.57,304.57,0,0,1,42.74,1.28s.07-1.38,0-2.86a33.84,33.84,0,0,0-13.85-26.32q-12.27-9.3-33.64-9.3a85.77,85.77,0,0,0-50.55,17.2L516.86,183A133.4,133.4,0,0,1,557,162.4a165.89,165.89,0,0,1,49.66-7.27A109.31,109.31,0,0,1,655.37,166.16ZM626.48,321.68q12.66-13.26,12.66-34.63-20.58-3.94-35.61-3.95-16.23,0-26.32,7.12t-10.09,19q0,12.27,7.71,19t21.57,6.73Q613.82,334.94,626.48,321.68Z"/><path class="cls-1" d="M1002.6,120.65q-10.1-10.09-10.09-25.53,0-15.83,10.28-25.92t25.73-10.09q15.43,0,25.52,10.09t10.09,25.92q0,15.43-10.09,25.53t-25.52,10.09Q1012.68,130.74,1002.6,120.65Zm-5,34.48H1059V378.47H997.65Z"/><path class="cls-1" d="M951.77,208.21a97.81,97.81,0,0,0-35.93-38c-15.12-9.1-31.89-15-50.33-15-30.17,0-50.89,4.7-65.23,27.87V183l-16.93-27.82H744.11V461.57h56.26V402.34h-.09V345.81c20.3,22.81,36.09,27.05,65.23,27.05A94.77,94.77,0,0,0,915.84,359q22.68-13.83,35.93-38.81T965,263.73Q965,232.6,951.77,208.21Zm-62.13,97.43q-14.49,15.84-37.29,15.84-23.57,0-37.86-15.84Q801.27,291,800.28,268.11v-7.69q1-23.21,14.21-37.86,14.28-15.84,37.86-15.84,22.8,0,37.29,15.84t14.49,41.35Q904.13,289.8,889.64,305.64Z"/></svg>