<?xml version="1.0" encoding="UTF-8"?>
<svg id="Layer_2" data-name="Layer 2" xmlns="http://www.w3.org/2000/svg" viewBox="0 0 588.76 175.36">
  <defs>
    <style>
      .cls-1 {
        fill: #fff;
      }
    </style>
  </defs>
  <g id="Layer_1-2" data-name="Layer 1">
    <path class="cls-1" d="m167.63,135.22c-6.08-2.52-10.27-5.05-12.56-7.57l9.98-16.17c6.08,3.9,13.82,6.08,23.23,6.54,3.78.12,6.51-.52,8.17-1.89,1.66-1.38,2.49-3.04,2.49-4.99,0-1.61-.58-3.1-1.72-4.47-1.15-1.38-2.93-2.47-5.33-3.27l-10.49-3.44c-5.97-1.95-10.7-3.81-14.19-5.59-3.5-1.78-6.37-4.27-8.6-7.48-2.24-3.21-3.36-7.45-3.36-12.73s1.26-10.35,3.78-15.23c2.52-4.87,6.45-8.89,11.78-12.04,5.33-3.15,12.02-5.01,20.05-4.73,6.52.23,11.37,1.02,16.61,2.67,4.79,1.51,9.91,3.68,16.91,7.68l-10.28,16.97c-6.65-4.01-14.35-6.32-21.34-6.32-3.44,0-6.35.57-8.08,1.32-2.17.94-3.45,2.78-3.97,4.53-1,3.38-.33,6.24,1.27,7.6,2.84,2.4,5.41,2.66,8.21,3.35,1.84.46,10.27,2.32,13.36,2.93,6.7,1.32,12.53,4.61,16.55,8.91,4.01,4.3,6.02,10.35,6.02,18.15,0,5.85-1.63,10.99-4.9,15.4-3.27,4.42-7.74,7.8-13.42,10.15-5.68,2.35-12.13,3.53-19.35,3.53-7.8,0-14.74-1.26-20.82-3.78Z"/>
    <path class="cls-1" d="m314.04,139.24l-31.35-40.31-11.83,14.85v25.46h-24.43V.39h24.43v78.97l30.24-37.25,27.5.03-30.68,37.96,47.37,59.13h-31.25Z"/>
    <path class="cls-1" d="m411.05,46.93c6.19,3.04,11.01,7.31,14.45,12.82,3.44,5.5,5.16,11.87,5.16,19.1v60.39h-17.41l-8.4-13.94c-2.98,4.13-6.74,7.48-11.27,10.06-4.53,2.58-9.78,3.87-15.74,3.87-9.86,0-17.8-2.72-23.83-8.17-6.02-5.45-9.03-12.59-9.03-21.42,0-5.85,1.66-11.07,4.99-15.66,3.33-4.59,8.03-8.14,14.11-10.67,6.08-2.52,13.08-3.52,20.99-3.78,6.1-.2,11.64-.13,18.58.56,0,0,.03-.6,0-1.24-.23-4.95-2.47-8.74-6.02-11.44-3.56-2.69-8.43-4.04-14.62-4.04-8.03,0-16.13,3-21.98,7.48l-10.2-16.6c5.39-4.01,11.21-6.99,17.46-8.95,6.25-1.95,13.45-3.16,21.59-3.16s14.97,1.76,21.16,4.79Zm-12.56,67.62c3.67-3.84,5.5-8.86,5.5-15.05-5.96-1.14-11.13-1.72-15.48-1.72-4.7,0-8.52,1.03-11.44,3.1-2.93,2.06-4.39,4.82-4.39,8.26s1.12,6.31,3.35,8.26c2.24,1.95,5.36,2.92,9.38,2.92,5.05,0,9.4-1.92,13.08-5.76Z"/>
    <path class="cls-1" d="m562.01,27.15c-2.92-2.93-4.39-6.62-4.39-11.1s1.49-8.34,4.47-11.27c2.98-2.93,6.71-4.39,11.18-4.39s8.17,1.46,11.1,4.39c2.92,2.92,4.39,6.68,4.39,11.27s-1.46,8.17-4.39,11.1c-2.93,2.93-6.62,4.39-11.1,4.39s-8.34-1.46-11.27-4.39Zm-2.15,14.99h26.67v97.1h-26.67V42.14Z"/>
    <path class="cls-1" d="m539.91,65.21c-3.84-7.07-9.05-12.58-15.62-16.54-6.57-3.95-13.86-6.54-21.88-6.54-13.11,0-22.12,2.04-28.36,12.11v-.02l-7.36-12.09h-17.06v133.23h24.46v-25.75h-.04v-24.57c8.82,9.91,15.69,11.76,28.36,11.76,8.02,0,15.31-2.01,21.88-6.01,6.57-4.01,11.78-9.63,15.62-16.87,3.84-7.24,5.76-15.42,5.76-24.56s-1.92-17.07-5.76-24.14Zm-27.01,42.36c-4.2,4.59-9.6,6.89-16.21,6.89s-12.32-2.29-16.46-6.89c-3.83-4.24-5.88-9.68-6.18-16.31v-3.35c.29-6.73,2.35-12.21,6.18-16.46,4.14-4.59,9.63-6.89,16.46-6.89s12.01,2.3,16.21,6.89c4.2,4.59,6.3,10.58,6.3,17.97s-2.1,13.55-6.3,18.14Z"/>
    <g>
      <path class="cls-1" d="m117.92,98.98h0c4.31-9.4,5.02-21.09-2.63-32.76-9.73-14.85-21.84-16.6-30.1-16.62h-.08c-15.17,0-29.96,13.14-34.98,18.17-4.54,4.63-11.54,9.49-14.22,9.89-2.83.56-4.35-.9-5.31-2.54-.61-1.04-1.3-3.95,2.08-7.6,4.15-4.49,10.07-10.16,16.52-15.91l-9.8-11.22,11.23-9.85-.2-.25-9.33-11.19c-9.7,8.3-23.18,20.18-30.83,28.45-9.29,10.04-15.32,26.69-4.43,43.3,9.73,14.84,21.84,16.6,30.1,16.63h.08c15.17,0,29.96-13.14,34.98-18.17,4.99-4.6,11.59-9.6,14.02-9.93,0,0,.11-.04.29-.09,1.01-.17,2.61-.29,3.96.29.04.02.08.04.12.06.06.03.12.07.18.1.36.21.71.47,1.05.81.39.44.72.99.92,1.71.6,2.17-.72,5.44-4.95,9.06l-35.88,31.63s0,0,0,0h0c-6.28,5.54-6.62,14.27-1.01,20.49,4.35,4.82,12.16,8.4,20.59,2.64,2.84-1.94,10.87-8.44,10.87-8.44,16.37-13.84,19.42-16.98,25.49-23.57,3.65-3.96,7-7.21,9.63-11.88,1.27-2.25,1.65-3.19,1.65-3.2Z"/>
      <rect class="cls-1" x="55.61" y="3.05" width="14.95" height="14.95" transform="translate(7.89 42.84) rotate(-39.82)"/>
      <path class="cls-1" d="m64.11,38.68c4.36-3.69,7.33-6.14,7.42-6.22l-9.45-11.49-11.46,9.56,9.84,11.27,3.65-3.12Z"/>
      <line class="cls-1" x1="50.62" y1="30.54" x2="50.42" y2="30.29"/>
      <rect class="cls-1" x="76.64" y="4.97" width="14.95" height="14.95" transform="translate(11.54 56.76) rotate(-39.82)"/>
    </g>
  </g>
</svg>