<?xml version="1.0" encoding="UTF-8"?>
<svg id="Layer_2" data-name="Layer 2" xmlns="http://www.w3.org/2000/svg" viewBox="0 0 78.92 97.11">
  <defs>
    <style>
      .cls-1 {
        fill: #fff;
      }
    </style>
  </defs>
  <g id="Layer_1-2" data-name="Layer 1">
    <g>
      <path class="cls-1" d="m76.83,64.49h0c2.81-6.13,3.27-13.74-1.71-21.35-6.34-9.67-14.23-10.81-19.61-10.83h-.06c-9.89,0-19.52,8.56-22.79,11.84-2.96,3.01-7.52,6.18-9.27,6.44-1.84.36-2.83-.58-3.46-1.65-.4-.68-.85-2.57,1.35-4.95,2.71-2.93,6.56-6.62,10.76-10.36l-6.38-7.31,7.32-6.42-.13-.16-6.08-7.29c-6.32,5.41-15.1,13.15-20.08,18.54-6.05,6.54-9.98,17.39-2.89,28.21,6.34,9.67,14.23,10.81,19.61,10.83h.06c9.89,0,19.52-8.56,22.79-11.84,3.25-3,7.55-6.25,9.13-6.47,0,0,.07-.03.19-.06.66-.11,1.7-.19,2.58.19.03.01.05.02.07.04.04.02.08.04.12.06.23.13.46.31.68.53.26.28.47.64.6,1.11.39,1.42-.47,3.54-3.23,5.91l-23.38,20.61s0,0,0,0h0c-4.09,3.61-4.31,9.3-.66,13.35,2.83,3.14,7.92,5.47,13.41,1.72,1.85-1.27,7.08-5.5,7.08-5.5,10.67-9.02,12.65-11.07,16.61-15.36,2.38-2.58,4.56-4.7,6.28-7.74.83-1.46,1.07-2.08,1.08-2.09Z"/>
      <rect class="cls-1" x="36.23" y="1.99" width="9.74" height="9.74" transform="translate(5.14 27.91) rotate(-39.82)"/>
      <path class="cls-1" d="m41.77,25.2c2.84-2.4,4.78-4,4.84-4.05l-6.16-7.48-7.47,6.23,6.41,7.34,2.38-2.03Z"/>
      <line class="cls-1" x1="32.98" y1="19.9" x2="32.85" y2="19.74"/>
      <rect class="cls-1" x="49.94" y="3.24" width="9.74" height="9.74" transform="translate(7.52 36.98) rotate(-39.82)"/>
    </g>
  </g>
</svg>