<?xml version="1.0" encoding="utf-8"?>
<!-- Generator: Adobe Illustrator 27.1.0, SVG Export Plug-In . SVG Version: 6.00 Build 0)  -->
<svg version="1.1" id="Layer_2_00000005967517928925345970000010229458308766095790_"
	 xmlns="http://www.w3.org/2000/svg" xmlns:xlink="http://www.w3.org/1999/xlink" x="0px" y="0px" viewBox="0 0 438.8 175.4"
	 style="enable-background:new 0 0 438.8 175.4;" xml:space="preserve">
<style type="text/css">
	.st0{fill:#FFFFFF;}
</style>
<g id="Layer_1-2">
	<path class="st0" d="M17.6,135.2c-6.1-2.5-10.3-5.1-12.6-7.6l10-16.2c6.1,3.9,13.8,6.1,23.2,6.5c3.8,0.1,6.5-0.5,8.2-1.9
		c1.7-1.4,2.5-3,2.5-5c0-1.6-0.6-3.1-1.7-4.5c-1.1-1.4-2.9-2.5-5.3-3.3L31.4,100c-6-1.9-10.7-3.8-14.2-5.6c-3.5-1.8-6.4-4.3-8.6-7.5
		c-2.2-3.2-3.4-7.4-3.4-12.7S6.5,63.8,9,58.9c2.5-4.9,6.4-8.9,11.8-12s12-5,20.1-4.7c6.5,0.2,11.4,1,16.6,2.7
		c4.8,1.5,9.9,3.7,16.9,7.7l-10.3,17c-6.6-4-14.4-6.3-21.3-6.3c-3.4,0-6.4,0.6-8.1,1.3c-2.2,0.9-3.4,2.8-4,4.5
		c-1,3.4-0.3,6.2,1.3,7.6c2.8,2.4,5.4,2.7,8.2,3.3c1.8,0.5,10.3,2.3,13.4,2.9c6.7,1.3,12.5,4.6,16.6,8.9c4,4.3,6,10.3,6,18.2
		c0,5.8-1.6,11-4.9,15.4c-3.3,4.4-7.7,7.8-13.4,10.1c-5.7,2.4-12.1,3.5-19.4,3.5C30.7,139,23.7,137.8,17.6,135.2L17.6,135.2z"/>
	<path class="st0" d="M164,139.2l-31.4-40.3l-11.8,14.8v25.5H96.4V0.4h24.4v79l30.2-37.2l27.5,0l-30.7,38l47.4,59.1L164,139.2
		L164,139.2z"/>
	<path class="st0" d="M261,46.9c6.2,3,11,7.3,14.5,12.8c3.4,5.5,5.2,11.9,5.2,19.1v60.4h-17.4l-8.4-13.9c-3,4.1-6.7,7.5-11.3,10.1
		s-9.8,3.9-15.7,3.9c-9.9,0-17.8-2.7-23.8-8.2c-6-5.4-9-12.6-9-21.4c0-5.8,1.7-11.1,5-15.7c3.3-4.6,8-8.1,14.1-10.7
		c6.1-2.5,13.1-3.5,21-3.8c6.1-0.2,11.6-0.1,18.6,0.6c0,0,0-0.6,0-1.2c-0.2-4.9-2.5-8.7-6-11.4c-3.6-2.7-8.4-4-14.6-4
		c-8,0-16.1,3-22,7.5l-10.2-16.6c5.4-4,11.2-7,17.5-9c6.2-2,13.5-3.2,21.6-3.2S254.8,43.9,261,46.9L261,46.9z M248.5,114.6
		c3.7-3.8,5.5-8.9,5.5-15.1c-6-1.1-11.1-1.7-15.5-1.7c-4.7,0-8.5,1-11.4,3.1c-2.9,2.1-4.4,4.8-4.4,8.3s1.1,6.3,3.4,8.3
		c2.2,1.9,5.4,2.9,9.4,2.9C240.5,120.3,244.8,118.4,248.5,114.6L248.5,114.6z"/>
	<path class="st0" d="M412,27.1c-2.9-2.9-4.4-6.6-4.4-11.1s1.5-8.3,4.5-11.3s6.7-4.4,11.2-4.4s8.2,1.5,11.1,4.4
		c2.9,2.9,4.4,6.7,4.4,11.3s-1.5,8.2-4.4,11.1s-6.6,4.4-11.1,4.4S414.9,30.1,412,27.1L412,27.1z M409.9,42.1h26.7v97.1h-26.7V42.1z"
		/>
	<path class="st0" d="M389.9,65.2c-3.8-7.1-9-12.6-15.6-16.5c-6.6-4-13.9-6.5-21.9-6.5c-13.1,0-22.1,2-28.4,12.1v0l-7.4-12.1h-17.1
		v133.2h24.5v-25.8h0V125c8.8,9.9,15.7,11.8,28.4,11.8c8,0,15.3-2,21.9-6c6.6-4,11.8-9.6,15.6-16.9c3.8-7.2,5.8-15.4,5.8-24.6
		S393.8,72.3,389.9,65.2L389.9,65.2z M362.9,107.6c-4.2,4.6-9.6,6.9-16.2,6.9s-12.3-2.3-16.5-6.9c-3.8-4.2-5.9-9.7-6.2-16.3v-3.3
		c0.3-6.7,2.4-12.2,6.2-16.5c4.1-4.6,9.6-6.9,16.5-6.9s12,2.3,16.2,6.9c4.2,4.6,6.3,10.6,6.3,18S367.1,103,362.9,107.6L362.9,107.6z
		"/>
</g>
</svg>
