<svg width="48" height="48" viewBox="0 0 48 48" fill="none" xmlns="http://www.w3.org/2000/svg">
<path d="M39.904 11.3441C36.096 8.28211 30.072 7.76411 29.816 7.74211C29.414 7.70811 29.032 7.93611 28.868 8.30411C28.856 8.32811 28.724 8.63011 28.578 9.10011C31.096 9.52411 34.19 10.3801 36.99 12.1181C37.438 12.3961 37.576 12.9861 37.298 13.4361C37.118 13.7281 36.804 13.8881 36.484 13.8881C36.312 13.8881 36.138 13.8421 35.98 13.7441C31.168 10.7601 25.156 10.6101 24 10.6101C22.844 10.6101 16.83 10.7601 12.022 13.7441C11.572 14.0241 10.984 13.8841 10.704 13.4361C10.424 12.9861 10.564 12.3981 11.012 12.1181C13.812 10.3821 16.904 9.52411 19.424 9.10011C19.276 8.62811 19.144 8.32811 19.134 8.30411C18.968 7.93611 18.588 7.70411 18.184 7.74411C17.93 7.76411 11.906 8.28211 8.046 11.3881C6.03 13.2501 2 24.1461 2 33.5661C2 33.7321 2.044 33.8961 2.126 34.0401C4.908 38.9261 12.496 40.2061 14.226 40.2621C14.236 40.2621 14.246 40.2621 14.256 40.2621C14.562 40.2621 14.85 40.1161 15.03 39.8681L16.78 37.4641C12.062 36.2441 9.652 34.1741 9.512 34.0521C9.116 33.7021 9.078 33.0981 9.428 32.7021C9.778 32.3061 10.38 32.2681 10.776 32.6161C10.834 32.6681 15.272 36.4341 24 36.4341C32.744 36.4341 37.182 32.6521 37.226 32.6141C37.622 32.2701 38.226 32.3061 38.574 32.7041C38.922 33.1001 38.884 33.7021 38.49 34.0501C38.35 34.1741 35.94 36.2421 31.222 37.4621L32.972 39.8661C33.152 40.1141 33.44 40.2601 33.746 40.2601C33.756 40.2601 33.766 40.2601 33.776 40.2601C35.506 40.2061 43.094 38.9261 45.876 34.0381C45.956 33.8941 46 33.7321 46 33.5661C46 24.1461 41.97 13.2501 39.904 11.3441ZM17.782 29.7401C15.934 29.7401 14.434 28.0261 14.434 25.9141C14.434 23.8021 15.932 22.0881 17.782 22.0881C19.632 22.0881 21.13 23.8021 21.13 25.9141C21.13 28.0261 19.632 29.7401 17.782 29.7401ZM30.218 29.7401C28.37 29.7401 26.87 28.0261 26.87 25.9141C26.87 23.8021 28.368 22.0881 30.218 22.0881C32.066 22.0881 33.566 23.8021 33.566 25.9141C33.566 28.0261 32.066 29.7401 30.218 29.7401Z" fill="black"/>
</svg>
